<?xml version="1.0" encoding="UTF-8"?>
<svg id="logo" xmlns="http://www.w3.org/2000/svg" xmlns:xlink="http://www.w3.org/1999/xlink" viewBox="0 0 600 600">
  <defs>
    <style>
      .cls-1 {
        fill: none;
      }

      .cls-2 {
        fill: #fff;
      }

      .cls-3 {
        fill: #5b9cff;
      }

      .cls-4 {
        fill: #ff9811;
      }

      .cls-5 {
        clip-path: url(#clippath);
      }
    </style>
    <clipPath id="clippath">
      <circle class="cls-1" cx="300" cy="300" r="250"/>
    </clipPath>
  </defs>
  <circle class="cls-3" cx="300" cy="300" r="250"/>
  <g class="cls-5">
    <path class="cls-4" d="M373.8,300.58c-44.36-.28-84.63,8.09-121.13,24.42,0,0-77.2-64.87-101.21-59.96-22.18,4.54-42.23,200.76-24.53,284.96h423.07s-2.71-124.22-2.71-124.22c-.23-40.62-91.59-213.93-116.74-211.17-15.21,1.66-56.75,85.98-56.75,85.98Z"/>
  </g>
  <g>
    <path class="cls-2" d="M347.18,234.91l-17.88-5.45c-2.54-.78-4.08-3.36-3.54-5.97l18.24-88.56c.58-2.84,3.39-4.63,6.21-3.98l36.53,8.49c3.13.73,4.84,4.11,3.56,7.06l-36.88,85.53c-1.04,2.41-3.72,3.65-6.23,2.89Z"/>
    <path class="cls-2" d="M297.38,229.48l-20.88,1.98c-2.55.24-4.88-1.42-5.49-3.9l-25.11-102.59c-.74-3.01,1.33-5.98,4.4-6.34l44.38-5.24c3.03-.36,5.71,1.98,5.75,5.04l1.61,105.85c.04,2.69-1.99,4.95-4.66,5.21Z"/>
    <path class="cls-2" d="M248.15,241.98l-10.79,7.61c-1.79,1.26-4.17,1.25-5.96-.01l-61.75-43.97c-2.5-1.78-2.9-5.33-.86-7.62l25.84-29.02c2.2-2.47,6.12-2.26,8.04.43l46.7,65.38c1.66,2.33,1.11,5.56-1.22,7.2Z"/>
  </g>
</svg>