<?xml version="1.0" encoding="UTF-8"?>
<svg id="Frog4" xmlns="http://www.w3.org/2000/svg" xmlns:xlink="http://www.w3.org/1999/xlink" viewBox="0 0 1100 900">
  <defs>
    <style>
      .cls-1 {
        fill: none;
      }

      .cls-2 {
        fill: #e29b8a;
      }

      .cls-3 {
        fill: #b6e540;
      }

      .cls-4 {
        fill: #e2ff93;
      }

      .cls-5 {
        fill: #ffc4c4;
      }

      .cls-6, .cls-7 {
        fill: #97c213;
      }

      .cls-8 {
        clip-path: url(#clippath-1);
      }

      .cls-9 {
        fill: #fff;
      }

      .cls-10 {
        fill: #463f37;
      }

      .cls-7 {
        opacity: .2;
      }

      .cls-11 {
        fill: #ffdfca;
      }

      .cls-12 {
        fill: #60702f;
      }

      .cls-13 {
        fill: #7f954c;
      }

      .cls-14 {
        clip-path: url(#clippath);
      }
    </style>
    <clipPath id="clippath">
      <path class="cls-1" d="M367.32,284.32c-67.78,79.87-102.82,221.25-41.14,304.97,60.26,81.8,323.62,90.09,372.13-23.23,35.32-82.52-30.78-260.63-108.81-312.04l-222.17,30.3Z"/>
    </clipPath>
    <clipPath id="clippath-1">
      <path class="cls-1" d="M406.1,68.89c-26.37,37.05-59.83,190.53-59.83,190.53-74.31,22.04-150.01,44.23-169.1,60.13-3.81,3.17-2.64,9.31,2.02,10.99,222.31,80.32,427.95-92.36,596.05-63.14.98.17,1.44-1.17.55-1.62-43.5-22.31-102.82-29.29-194.01-43.41,0,0-149.31-190.53-175.68-153.48Z"/>
    </clipPath>
  </defs>
  <g>
    <g>
      <path class="cls-11" d="M373.94,311.97l303.8,241.6s62.34,47.09,102.58,92.45c54.49,61.44-11.3,100.12-92.12,44.94-64.38-43.96-78.07-68.26-78.07-68.26,77.81,222.03-76.56,192.87-268.42,8.58-15.51,8.52-35.83,14.45-61.03,15.87-102.19,5.76-82.68-98-23.32-150.74-72.96-61.9-130.66-101.95-176.71-125.32"/>
      <path class="cls-2" d="M581.02,783.44c-21.18,0-47.95-8.3-79.23-24.75-47.42-24.93-102.97-67.27-160.76-122.52-16.76,8.63-36.97,13.67-60.13,14.97-2.87.16-5.64.24-8.3.24-40.69,0-57.08-18.25-63.63-34.13-13.68-33.15,4.87-85.41,42.34-120.73-67.65-57.13-125.66-98.12-172.47-121.87-1.97-1-2.76-3.41-1.76-5.38,1-1.97,3.41-2.75,5.38-1.76,48.84,24.78,106.9,65.94,177.49,125.83.88.75,1.4,1.85,1.41,3,.01,1.16-.48,2.27-1.34,3.04-17.75,15.77-32.08,36.31-40.37,57.84-8.34,21.67-9.5,41.9-3.28,56.97,8.59,20.82,30.75,30.82,64.08,28.95,23.16-1.31,43.12-6.48,59.33-15.38,1.53-.84,3.43-.59,4.7.62,58.01,55.72,113.69,98.33,161.04,123.21,46.12,24.25,81.18,30.21,101.37,17.23,12.56-8.07,19.22-23.66,19.79-46.33.63-25.07-6.2-58.2-20.32-98.48-.69-1.96.24-4.11,2.12-4.97,1.89-.85,4.12-.12,5.13,1.68.13.22,14.42,24.3,76.84,66.92,46.09,31.47,86.05,31.31,100.26,15.18,10.81-12.27,5.81-32.52-13.38-54.16-39.51-44.54-101.38-91.45-102-91.92l-303.88-241.66c-1.73-1.38-2.02-3.89-.64-5.62,1.38-1.73,3.89-2.02,5.62-.64l303.8,241.6c.55.41,63.04,47.79,103.08,92.93,22.13,24.95,27.14,49.16,13.4,64.75-16.88,19.17-60.35,20.57-110.77-13.86-33.96-23.18-53.99-40.98-65.43-52.78,16.17,52.75,24.56,112.31-9.31,134.08-8.18,5.26-18.31,7.87-30.19,7.87Z"/>
    </g>
    <g>
      <path class="cls-11" d="M610.13,622.71s13.69,24.3,78.07,68.26c80.82,55.18,146.62,16.5,92.12-44.94-40.24-45.37-102.58-92.45-102.58-92.45l-303.8-241.6"/>
      <path class="cls-2" d="M760.59,721.57c-20.42,0-46.44-8.05-74.64-27.3-64.41-43.98-78.72-68.57-79.3-69.6-1.08-1.92-.4-4.36,1.52-5.45,1.92-1.08,4.35-.41,5.44,1.51,4.74,8.24,26.91,32.83,76.85,66.93,46.09,31.47,86.05,31.31,100.26,15.18,10.81-12.27,5.81-32.52-13.38-54.16-39.51-44.54-101.38-91.45-102-91.92l-303.88-241.66c-1.73-1.38-2.02-3.89-.64-5.62,1.38-1.73,3.89-2.02,5.62-.64l303.8,241.6c.55.41,63.04,47.79,103.08,92.93,22.13,24.95,27.14,49.16,13.4,64.75-7.44,8.45-20.04,13.44-36.13,13.44Z"/>
    </g>
    <g>
      <path class="cls-11" d="M528.56,671.62s27.64,44.53,92.02,88.48c80.82,55.18,146.62,16.5,92.12-44.94-40.24-45.37-102.58-92.45-102.58-92.45"/>
      <path class="cls-2" d="M692.97,790.7c-20.42,0-46.44-8.05-74.64-27.3-64.34-43.93-92.02-87.83-93.17-89.68-1.17-1.88-.59-4.34,1.29-5.51,1.87-1.16,4.34-.59,5.51,1.29h0c.27.44,28.05,44.39,90.88,87.29,46.09,31.47,86.05,31.3,100.26,15.18,10.81-12.27,5.81-32.52-13.38-54.16-39.51-44.54-101.38-91.45-102-91.92-1.76-1.33-2.11-3.84-.78-5.6,1.33-1.76,3.84-2.11,5.6-.78.63.47,63.12,47.85,103.16,92.99,22.13,24.95,27.14,49.16,13.4,64.75-7.44,8.45-20.04,13.44-36.13,13.44Z"/>
    </g>
    <g>
      <path class="cls-11" d="M528.56,671.62s62.34,47.09,102.58,92.45c54.49,61.44-11.3,100.12-92.12,44.94-64.38-43.96-197.03-177.88-197.03-177.88"/>
      <path class="cls-2" d="M611.41,839.61c-20.42,0-46.44-8.05-74.64-27.3-63.96-43.67-196.29-177.03-197.62-178.37-1.55-1.57-1.54-4.1.03-5.66,1.57-1.56,4.1-1.54,5.66.03,1.32,1.34,133.12,134.16,196.44,177.39,46.08,31.46,86.05,31.3,100.26,15.18,10.81-12.27,5.81-32.52-13.38-54.15-39.51-44.54-101.38-91.45-102-91.92-1.76-1.33-2.11-3.84-.78-5.6,1.33-1.76,3.84-2.11,5.6-.78.63.47,63.12,47.85,103.16,92.99,22.13,24.95,27.14,49.15,13.4,64.75-7.44,8.45-20.04,13.44-36.13,13.44Z"/>
    </g>
  </g>
  <path class="cls-12" d="M176.15,328.28c261.98,178.37,668-24.66,598.13-62.16l-59.16-12.01c-.25-.06-.51-.08-.76-.07l-266.8,9.06c-.21,0-.41.03-.61.08l-269.51,59.81c-2.43.58-3.35,3.89-1.29,5.3Z"/>
  <path class="cls-3" d="M367.32,284.32c-67.78,79.87-102.82,221.25-41.14,304.97,60.26,81.8,323.62,90.09,372.13-23.23,35.32-82.52-30.78-260.63-108.81-312.04l-222.17,30.3Z"/>
  <ellipse class="cls-9" cx="588.2" cy="362.81" rx="59.12" ry="65.64" transform="translate(-42.42 80.08) rotate(-7.52)"/>
  <ellipse class="cls-10" cx="591.96" cy="361.61" rx="45.35" ry="50.35" transform="translate(-42.23 80.57) rotate(-7.52)"/>
  <ellipse class="cls-9" cx="424.99" cy="371.09" rx="65.64" ry="59.12" transform="translate(-.79 741.28) rotate(-82.13)"/>
  <ellipse class="cls-10" cx="421.24" cy="369.87" rx="50.35" ry="45.35" transform="translate(-2.81 736.51) rotate(-82.13)"/>
  <path class="cls-10" d="M423.3,466.05c-6.21,0-12.27-.44-18.11-1.33-3.28-.5-5.53-3.56-5.03-6.84.5-3.28,3.57-5.53,6.84-5.03,29.07,4.43,64.31-3.52,96.69-21.81,5.09-2.88,11.32-3.23,16.67-.95,30.99,13.23,64.25,23.87,97.49,12.24,3.13-1.1,6.55.56,7.64,3.68s-.56,6.55-3.68,7.64c-37.1,12.98-72.95,1.64-106.16-12.53-1.96-.84-4.17-.71-6.06.36-28.29,15.98-58.82,24.56-86.3,24.56Z"/>
  <g class="cls-14">
    <ellipse class="cls-5" cx="677.16" cy="422.11" rx="48.11" ry="52.24" transform="translate(-80.64 172.19) rotate(-13.69)"/>
    <circle class="cls-5" cx="338.16" cy="437.95" r="52.24"/>
    <ellipse class="cls-4" cx="518.2" cy="588.57" rx="143.32" ry="69.91" transform="translate(-31.04 28.86) rotate(-3.1)"/>
    <path class="cls-7" d="M615.69,513.53c-9.12,18.62-18.25,27.48-14.4,42.77,4.1,16.27,24.54,16.05,38.52,5.32,11.08-8.5,20.29-20.35,21.01-36.64,1.01-22.86-29.96-42.44-45.14-11.45Z"/>
    <path class="cls-7" d="M432.5,523.83c10.18,21.73,20.76,32.65,15.52,49.14-5.57,17.55-30.06,14.85-46.39,1.27-12.94-10.75-23.5-25-23.7-43.13-.29-25.47,37.62-43.45,54.56-7.28Z"/>
  </g>
  <path class="cls-6" d="M613.91,495.99c-12.37,18.94-23.41,27.27-21.34,44.44,2.2,18.26,24.25,20.92,40.78,11.24,13.1-7.67,24.64-19.24,27.63-36.83,4.21-24.7-26.49-50.37-47.07-18.84Z"/>
  <path class="cls-6" d="M428.49,508.6c17.03,16.91,30.72,23.53,31.46,40.81.8,18.39-23.12,24.27-43.12,17.14-15.85-5.65-30.66-15.4-37.08-32.36-9.02-23.82,20.4-53.74,48.74-25.59Z"/>
  <g>
    <path class="cls-11" d="M257.37,496.41c-59.37,52.75-78.87,156.5,23.32,150.74,134.42-7.58,129.69-143.36,0-117.16"/>
    <path class="cls-2" d="M272.61,651.39c-40.69,0-57.08-18.25-63.63-34.13-14.09-34.14,6-88.54,45.73-123.84,1.65-1.47,4.18-1.32,5.65.33,1.47,1.65,1.32,4.18-.33,5.65-17.75,15.77-32.08,36.31-40.37,57.84-8.34,21.67-9.5,41.9-3.28,56.97,8.59,20.82,30.75,30.83,64.08,28.95,66.51-3.75,86.55-37.39,91.11-47.61,6.92-15.52,5.22-31.51-4.67-43.86-7.26-9.07-30.12-28.95-85.43-17.78-2.17.44-4.28-.96-4.71-3.13s.96-4.28,3.13-4.71c41.98-8.48,75.97-.96,93.26,20.62,11.65,14.55,13.79,34.04,5.73,52.12-13.42,30.07-50.04,49.64-97.97,52.34-2.87.16-5.64.24-8.3.24Z"/>
  </g>
  <path class="cls-13" d="M406.1,68.89c-26.37,37.05-59.83,190.53-59.83,190.53-74.31,22.04-150.01,44.23-169.1,60.13-3.81,3.17-2.64,9.31,2.02,10.99,222.31,80.32,427.95-92.36,596.05-63.14.98.17,1.44-1.17.55-1.62-43.5-22.31-102.82-29.29-194.01-43.41,0,0-149.31-190.53-175.68-153.48Z"/>
  <g class="cls-8">
    <path class="cls-12" d="M481.78,227.76c-63.29,11.24-127.79,27.88-174.04,43.12l8.63-33.43c47.62-10.73,98.9-14.81,165.2-12.42,1.65.06,1.83,2.44.2,2.73Z"/>
  </g>
  <path class="cls-6" d="M469.64,658.91c-15.96,24.9-36.85,31.33-60.62,16.96s-37.51-35.88-28.69-56.03c8.82-20.16,35.25-22.76,60.62-16.96s44.65,31.13,28.69,56.03Z"/>
  <path class="cls-6" d="M688.32,643.44c-6.16,23.63-26.54,38.7-57.22,26.25s-40.18-32.18-37.11-50.85,23.02-30.68,57.22-26.25,43.27,27.22,37.11,50.85Z"/>
  <g>
    <path class="cls-10" d="M607.45,94.89c.12.28.19.58.21.9.02.32-.07.64-.27.96-.08.16-.11.31-.09.45.02.14.03.31.03.51-.08.12-.18.23-.3.33-.12.1-.22.23-.3.39-.08.08-.15.18-.21.3-.06.12-.17.22-.33.3-.2-.04-.44-.06-.72-.06h-.78c-.6,0-1.14.16-1.62.48-.16.16-.32.27-.48.33-.16.06-.32.13-.48.21-.24.24-.32.48-.24.72v1.14c.04.36.09.71.15,1.05.06.34.07.71.03,1.11-.04.08-.04.19,0,.33.04.14.08.25.12.33-.04.16-.09.29-.15.39-.06.1-.11.23-.15.39.04.16.08.31.12.45.04.14.08.29.12.45,0,.2-.02.34-.06.42-.08.24-.15.48-.21.72-.06.24-.13.48-.21.72-.12.28-.14.54-.06.78.08.24.06.48-.06.72,0,.84-.04,1.66-.12,2.46-.08.8-.14,1.6-.18,2.4,0,1.04.18,2.1.54,3.18.16.36.42.54.78.54.08-.04.17-.1.27-.18.1-.08.21-.14.33-.18.12,0,.22.04.3.12.32.36.68.6,1.08.72.64.16.82.48.54.96-.12.28-.17.58-.15.9.02.32,0,.64-.03.96-.08.88-.12,1.77-.12,2.67s.06,1.81.18,2.73c0,.44-.03.73-.09.87-.06.14-.31.37-.75.69h-.18c-.32-.04-.63-.08-.93-.12-.3-.04-.59-.08-.87-.12-.76.12-1.44.18-2.04.18-.28.04-.55.11-.81.21-.26.1-.55.13-.87.09-.32-.08-.64-.08-.96,0-.32.08-.64.12-.96.12-.16-.08-.31-.14-.45-.18-.14-.04-.31-.1-.51-.18-.96.16-1.92.26-2.88.3-.96.04-1.94.08-2.94.12-.2-.28-.4-.53-.6-.75-.2-.22-.38-.45-.54-.69-.08-.28-.23-.52-.45-.72-.22-.2-.43-.38-.63-.54-.04-.4-.12-.78-.24-1.14-.08-.32-.08-.64,0-.96.12-.2.16-.4.12-.6-.08-.36-.09-.73-.03-1.11.06-.38.13-.75.21-1.11v-.72c.32-.08.64-.15.96-.21s.64-.05.96.03c.16-.08.3-.17.42-.27.12-.1.26-.21.42-.33.2.08.4.16.6.24.2.08.42.16.66.24.4-.24.86-.56,1.38-.96.08-.24.12-.42.12-.54v-1.35c0-.46.02-.91.06-1.35v-.18c-.16-.4-.22-.78-.18-1.14.04-.36.04-.74,0-1.14v-.78c.08-.92.11-1.83.09-2.73-.02-.9-.05-1.81-.09-2.73l.42-.78c-.04-.2-.08-.4-.12-.6-.04-.2-.08-.4-.12-.6.04-.2.09-.38.15-.54.06-.16.11-.34.15-.54,0-.16-.02-.28-.06-.36-.2-.48-.28-.92-.24-1.32v-.9c0-.16-.04-.29-.12-.39-.08-.1-.12-.23-.12-.39.04-.08.06-.26.06-.54-.04-.24-.08-.48-.12-.72-.04-.24-.1-.48-.18-.72-.2-.2-.42-.27-.66-.21s-.46.07-.66.03c-.2-.08-.42-.12-.66-.12h-.78c-.28-.16-.59-.23-.93-.21-.34.02-.67-.03-.99-.15-.16-.2-.23-.44-.21-.72.02-.28-.03-.48-.15-.6-.08-.16-.08-.37,0-.63.08-.26.08-.49,0-.69.16-.2.18-.34.06-.42-.12-.08-.12-.24,0-.48.12-.2.18-.43.18-.69s.08-.47.24-.63c.08-.08.11-.21.09-.39-.02-.18,0-.35.03-.51.08-.08.26-.13.54-.15.28-.02.44-.07.48-.15.16-.2.35-.34.57-.42.22-.08.45-.18.69-.3.08,0,.18,0,.3-.03.12-.02.26-.03.42-.03h1.02c.36,0,.7-.02,1.02-.06.32-.08.64-.15.96-.21.32-.06.66-.11,1.02-.15.36-.08.72-.06,1.08.06.52.16,1.16.14,1.92-.06.16-.04.3-.08.42-.12.12-.04.22-.08.3-.12.28.04.53.08.75.12.22.04.41.06.57.06.12,0,.25-.02.39-.06.14-.04.25-.06.33-.06.4,0,.77.01,1.11.03.34.02.69.07,1.05.15.76.12,1.44.16,2.04.12.2-.04.37-.05.51-.03.14.02.23.03.27.03.28.04.49.13.63.27.14.14.25.25.33.33.64.64.78,1.3.42,1.98-.04.04-.06.18-.06.42.04.08.07.17.09.27.02.1.05.23.09.39Z"/>
    <path class="cls-10" d="M632.29,123.21c-.2.4-.38.8-.54,1.2-.16.4-.34.8-.54,1.2l-1.26,1.2c-.76.84-1.66,1.34-2.7,1.5-.52.08-1.05.11-1.59.09-.54-.02-1.09-.11-1.65-.27-.32-.08-.65-.19-.99-.33-.34-.14-.67-.29-.99-.45-.24-.12-.5-.21-.78-.27-.28-.06-.58-.11-.9-.15-.12-.08-.26-.17-.42-.27-.16-.1-.34-.21-.54-.33-.28-.48-.61-.92-.99-1.32-.38-.4-.67-.9-.87-1.5,0-.48-.02-.81-.06-.99-.04-.18-.16-.55-.36-1.11v-3.96c0-.32,0-.63-.03-.93-.02-.3-.07-.59-.15-.87-.04-.28-.05-.52-.03-.72.02-.2.05-.44.09-.72.12-.48.12-.98,0-1.5.12-.48.26-.96.42-1.44,0-.24-.06-.58-.18-1.02-.12-.44-.26-.86-.42-1.26-.2,0-.4-.02-.6-.06-.2-.04-.42-.08-.66-.12-.24.08-.49.16-.75.24-.26.08-.55.16-.87.24-.12.08-.3.12-.54.12-.04,0-.11-.05-.21-.15-.1-.1-.15-.17-.15-.21-.04-.12-.06-.24-.06-.36v-.36c-.04-.32-.06-.66-.06-1.02v-1.02c0-.32-.02-.63-.06-.93-.04-.3-.1-.59-.18-.87.04-.2.08-.39.12-.57.04-.18.08-.35.12-.51v-1.14c0-.32.05-.6.15-.84.1-.24.31-.46.63-.66.24-.08.51-.12.81-.12h.99c.32.04.65.03.99-.03s.65-.23.93-.51c.08-.08.19-.12.33-.12h.33c.8.04,1.5-.28,2.1-.96.04-.24.16-.58.36-1.02-.12-.28-.22-.59-.3-.93-.08-.34-.18-.67-.3-.99.08-.12.16-.24.24-.36.08-.12.14-.26.18-.42.08-.2.08-.39,0-.57s-.1-.33-.06-.45c-.08-.2-.12-.34-.12-.42s-.04-.22-.12-.42c.04-.08.08-.17.12-.27.04-.1.08-.19.12-.27.04-.16.08-.29.12-.39.04-.1.08-.23.12-.39h.66c.2.04.41.07.63.09.22.02.43.01.63-.03.08,0,.18.01.3.03.12.02.24.03.36.03.68.08,1.35.18,2.01.3s1.31.18,1.95.18c.08,0,.17.02.27.06.1.04.17.08.21.12.16.08.3.18.42.3-.04.16-.1.31-.18.45-.08.14-.14.27-.18.39-.04.16-.07.34-.09.54-.02.2-.05.4-.09.6-.04.28-.08.56-.12.84-.04.28-.1.6-.18.96.04.04.06.14.06.3s.02.3.06.42c-.04.28-.09.54-.15.78-.06.24-.11.52-.15.84.52.4,1.09.74,1.71,1.02.62.28,1.37.54,2.25.78.44.28.7.74.78,1.38,0,.92-.06,1.84-.18,2.76l-.12,1.08c-.04.36-.04.72,0,1.08-.52.32-1.14.48-1.86.48-.12,0-.24.02-.36.06-.12.04-.22.06-.3.06-.64.04-1.13.1-1.47.18-.34.08-.87.28-1.59.6-.12.16-.18.38-.18.66-.04.24-.07.48-.09.72-.02.24-.01.5.03.78,0,.04-.04.08-.12.12-.24.48-.42.84-.54,1.08-.12.24-.19.48-.21.72-.02.24-.03.64-.03,1.2v2.88c0,.2.02.32.06.36.04.36.22.66.54.9.16.04.31.08.45.12.14.04.25.14.33.3.36.48.77.73,1.23.75.46.02.95-.05,1.47-.21.16-.08.32-.16.48-.24.16-.08.32-.14.48-.18.32.08.52.26.6.54.08.28.22.52.42.72.2.2.37.42.51.66.14.24.29.48.45.72.08.24.18.51.3.81.12.3.22.63.3.99Z"/>
    <path class="cls-10" d="M647.29,89.01c-.16.84-.35,1.65-.57,2.43-.22.78-.53,1.57-.93,2.37-.2.28-.37.6-.51.96-.14.36-.37.68-.69.96-.32.16-.67.22-1.05.18-.38-.04-.79-.08-1.23-.12-.04-.08-.08-.17-.12-.27-.04-.1-.08-.17-.12-.21-.04-.2-.02-.41.06-.63.08-.22.1-.45.06-.69-.04-.2-.05-.42-.03-.66.02-.24,0-.46-.03-.66-.12-.12-.22-.2-.3-.24-.2-.12-.43-.18-.69-.18s-.51-.06-.75-.18c-.24-.16-.47-.28-.69-.36-.22-.08-.43-.16-.63-.24-.24-.2-.39-.41-.45-.63-.06-.22-.17-.41-.33-.57-.08-.2-.16-.38-.24-.54-.08-.16-.18-.32-.3-.48-.2-.48-.3-.92-.3-1.32,0-.12-.01-.24-.03-.36-.02-.12,0-.24.09-.36.08-.28.12-.54.12-.78s.02-.48.06-.72c.36-1,1-1.78,1.92-2.34.32-.2.63-.38.93-.54.3-.16.59-.32.87-.48.2.04.42.07.66.09.24.02.46.05.66.09.12.04.22.08.3.12.08.04.16.08.24.12.28.12.56.28.84.48.16.04.32.06.48.06s.32.02.48.06c0,.24.02.4.06.48.16.04.31.09.45.15.14.06.29.13.45.21,1.16,1.4,1.58,3,1.26,4.8Z"/>
    <path class="cls-10" d="M671.35,103.23c-.12.52-.36.96-.72,1.32-.16.16-.29.33-.39.51-.1.18-.23.31-.39.39-.16.16-.28.3-.36.42-.08.12-.16.28-.24.48-.2.4-.54.44-1.02.12-.24-.16-.4-.32-.48-.48l-.72-.06c-.08,0-.14-.02-.18-.06-.2-.08-.34-.21-.42-.39-.08-.18-.22-.33-.42-.45-.6-.28-1.2-.48-1.8-.6-.6-.12-1.22-.08-1.86.12-.4.52-.66.89-.78,1.11-.12.22-.26.61-.42,1.17,0,.28.05.55.15.81.1.26.19.55.27.87.2.32.46.54.78.66.16,0,.32.01.48.03.16.02.32.05.48.09.16.12.3.23.42.33.12.1.24.19.36.27.28.16.55.37.81.63.26.26.53.45.81.57.32.16.62.3.9.42.28.12.56.26.84.42.24.04.45.14.63.3.18.16.35.34.51.54.12.24.27.48.45.72.18.24.35.5.51.78.12.44.23.89.33,1.35.1.46.15.95.15,1.47,0,.36.02.71.06,1.05.04.34.08.69.12,1.05.04.2.07.42.09.66.02.24,0,.5-.03.78-.12.24-.24.5-.36.78-.12.28-.22.58-.3.9-.16.6-.38,1.16-.66,1.68-.16.2-.34.4-.54.6-.2.2-.4.4-.6.6-.12.08-.22.18-.3.3-.08.12-.16.22-.24.3-.4.24-.72.52-.96.84-.24.32-.46.66-.66,1.02-.28.04-.56.09-.84.15-.28.06-.58.13-.9.21-.24.04-.48.11-.72.21-.24.1-.46.19-.66.27h-1.44c-.44-.2-.86-.28-1.26-.24-.4.04-.82.12-1.26.24-.4.08-.68.04-.84-.12-.28-.2-.57-.35-.87-.45-.3-.1-.59-.17-.87-.21-.4-.4-.82-.78-1.26-1.14-.44-.36-.84-.76-1.2-1.2,0-.12,0-.25-.03-.39-.02-.14-.03-.27-.03-.39,0-.32,0-.61.03-.87.02-.26.03-.53.03-.81.12-.56.33-1.1.63-1.62.3-.52.59-1.04.87-1.56.24.04.46.08.66.12.2.04.42.1.66.18.2.16.44.3.72.42.28.12.56.24.84.36.36.2.64.28.84.24.16,0,.3.02.42.06.12.04.26.08.42.12.48.2.94.14,1.38-.18.2-.12.39-.25.57-.39.18-.14.33-.33.45-.57v-.81c0-.3.02-.59.06-.87,0-.12-.02-.24-.06-.36s-.08-.25-.12-.39c-.04-.14-.08-.27-.12-.39l-.84-.66c-.16-.2-.28-.41-.36-.63-.08-.22-.22-.39-.42-.51l-1.44-.42c-.24-.12-.44-.26-.6-.42-.16-.16-.32-.3-.48-.42-.08-.08-.16-.14-.24-.18-.08-.04-.16-.08-.24-.12-.16-.04-.32-.08-.48-.12-.16-.04-.34-.1-.54-.18-.24-.2-.56-.38-.96-.54-.24-.28-.4-.56-.48-.84-.08-.28-.22-.54-.42-.78-.16-.2-.32-.42-.48-.66-.16-.24-.34-.48-.54-.72-.12-.44-.23-.89-.33-1.35-.1-.46-.21-.91-.33-1.35-.2-.6-.22-1.18-.06-1.74.08-.36.17-.74.27-1.14.1-.4.23-.8.39-1.2.24-.48.54-1.14.9-1.98.4-.64.93-1.23,1.59-1.77.66-.54,1.31-1.09,1.95-1.65.16-.08.34-.15.54-.21s.38-.11.54-.15c.48-.16.84-.29,1.08-.39.24-.1.51-.17.81-.21.3-.04.75-.06,1.35-.06h.12c.56-.2,1.11-.26,1.65-.18.54.08,1.07.2,1.59.36.12,0,.25.01.39.03.14.02.23.03.27.03.36.2.67.44.93.72.26.28.55.54.87.78.2.12.42.23.66.33.24.1.46.21.66.33.4.32.75.68,1.05,1.08.3.4.59.78.87,1.14.08.28.14.56.18.84.04.28.1.58.18.9Z"/>
    <path class="cls-10" d="M715.15,100.71c-.2.72-.32,1.45-.36,2.19-.04.74-.08,1.47-.12,2.19-.04.72-.06,1.45-.06,2.19v2.19c0,.6-.04,1.2-.12,1.8-.08.6-.14,1.22-.18,1.86,0,.16-.01.34-.03.54-.02.2-.03.4-.03.6,0,.56-.08,1.08-.24,1.56-.12.52-.18,1.04-.18,1.56,0,.28-.02.58-.06.9-.04.32-.12.64-.24.96-.04.2-.06.5-.06.9-.04.32-.12.64-.24.96-.08.28-.16.55-.24.81-.08.26-.16.55-.24.87-.16.24-.31.49-.45.75-.14.26-.29.51-.45.75-.36.2-.66.46-.9.78-.4.32-.79.66-1.17,1.02-.38.36-.75.7-1.11,1.02-.48.4-.96.6-1.44.6-.04,0-.09.02-.15.06-.06.04-.13.06-.21.06-.76.08-1.38.32-1.86.72-.04.04-.09.07-.15.09-.06.02-.13.07-.21.15-.52.08-1.05.04-1.59-.12-.54-.16-1.03-.36-1.47-.6h-.96c-.16,0-.32-.01-.48-.03-.16-.02-.34-.05-.54-.09-1.08-.24-2.12-.7-3.12-1.38-.12-.12-.26-.2-.42-.24-.16-.04-.34-.08-.54-.12-.24-.04-.48-.1-.72-.18-.24-.08-.48-.16-.72-.24-.2-.12-.36-.29-.48-.51-.12-.22-.24-.41-.36-.57-.2-.4-.38-.77-.54-1.11-.16-.34-.34-.71-.54-1.11-.16-.32-.34-.65-.54-.99-.2-.34-.4-.65-.6-.93,0-.04.02-.06.06-.06s.06-.02.06-.06l-.12-.12s0,.07-.03.09c-.02.02-.03.05-.03.09-.04-.04-.09-.07-.15-.09-.06-.02-.11-.05-.15-.09-.16-.08-.28-.21-.36-.39-.08-.18-.16-.35-.24-.51.12-.24.18-.56.18-.96.08-.52.06-.98-.06-1.38-.16-.6-.23-1.2-.21-1.8.02-.6.05-1.22.09-1.86,0-.2.08-.46.24-.78.28-.68.44-1.28.48-1.8.4-.56.72-1.16.96-1.8.24-.64.52-1.24.84-1.8.2-.08.37-.16.51-.24.14-.08.29-.14.45-.18.08-.08.14-.18.18-.3.04-.12.12-.22.24-.3.12-.08.26-.15.42-.21.16-.06.34-.11.54-.15.08-.12.15-.24.21-.36.06-.12.13-.24.21-.36.12-.12.2-.18.24-.18.92-.32,1.88-.56,2.88-.72.16-.04.33-.07.51-.09.18-.02.35-.05.51-.09.52-.16,1.04-.22,1.56-.18.52.04,1.04.04,1.56,0,.12,0,.25.02.39.06.14.04.27.08.39.12.12,0,.28.04.48.12.2.08.32.08.36,0,.4-.08.78.04,1.14.36.08.04.25.05.51.03.26-.02.41-.03.45-.03.36-.08.57-.25.63-.51.06-.26.05-.39-.03-.39l-.12-.12c.04-.52.03-1.04-.03-1.56-.06-.52-.07-1.04-.03-1.56.04-.2.06-.41.06-.63v-.63c-.04-.2-.04-.39,0-.57.04-.18.06-.37.06-.57s0-.39.03-.57c.02-.18-.01-.33-.09-.45-.12-.32-.17-.64-.15-.96.02-.32.07-.64.15-.96.12-.44.21-.88.27-1.32.06-.44.05-.92-.03-1.44v-.3c.16-.4.25-.8.27-1.2.02-.4.05-.76.09-1.08.2-.28.45-.47.75-.57.3-.1.53-.23.69-.39.64-.04,1.24-.04,1.8,0,.56.04,1.12-.02,1.68-.18.28.12.55.21.81.27.26.06.49.11.69.15.44.32.66.74.66,1.26v.66c0,.24-.02.48-.06.72.04.16.1.3.18.42.08.12.14.28.18.48-.04.08-.07.19-.09.33-.02.14-.05.29-.09.45.04.16.08.36.12.6.04.24.08.46.12.66,0,.64,0,1.26.03,1.86s0,1.2-.03,1.8c0,.64,0,1.06.03,1.26.02.2.11.6.27,1.2ZM706.39,115.83c-.12-.32-.21-.63-.27-.93-.06-.3-.13-.57-.21-.81-.12-.28-.27-.54-.45-.78-.18-.24-.33-.5-.45-.78-.4-.2-.7-.4-.9-.6-.2-.08-.39-.14-.57-.18-.18-.04-.37-.08-.57-.12-.16-.08-.31-.15-.45-.21-.14-.06-.29-.11-.45-.15-.28.12-.55.24-.81.36-.26.12-.51.24-.75.36-.64.28-1.08.8-1.32,1.56-.04.16-.06.32-.06.48s-.02.34-.06.54c-.04.12-.11.24-.21.36-.1.12-.19.28-.27.48v1.08c.08.52.23,1.01.45,1.47.22.46.59.85,1.11,1.17.12.04.23.11.33.21.1.1.23.19.39.27.24.24.48.36.72.36.64-.08,1.26-.15,1.86-.21.6-.06,1.18-.21,1.74-.45.24-.2.42-.4.54-.6.12-.16.22-.31.3-.45.08-.14.18-.29.3-.45v-1.56c0-.16.02-.3.06-.42Z"/>
    <path class="cls-10" d="M748.93,124.59c.12.28.16.54.12.78-.04.24-.12.48-.24.72-.04.04-.12.09-.24.15s-.22.13-.3.21c-.16.04-.3.06-.42.06s-.26.04-.42.12c-.6.12-.96.44-1.08.96-.04.08-.12.18-.24.3-.28.04-.48.09-.6.15-.12.06-.36.19-.72.39-.28,0-.56.04-.84.12-.28.08-.54.24-.78.48-.08,0-.14,0-.18.03-.04.02-.1.03-.18.03-.16.08-.34.05-.54-.09-.2-.14-.3-.31-.3-.51v-.36c-.16-.08-.35-.08-.57,0-.22.08-.39,0-.51-.24v-.9c-.12-.08-.23-.15-.33-.21-.1-.06-.21-.11-.33-.15-.16-.32-.34-.66-.54-1.02-.2-.36-.4-.68-.6-.96-.16-.12-.3-.16-.42-.12-.12.04-.22.1-.3.18-.08.08-.14.17-.18.27-.04.1-.1.19-.18.27-.08.08-.14.18-.18.3-.04.12-.1.22-.18.3-.52.24-1.04.45-1.56.63-.52.18-1.02.33-1.5.45-.28.2-.56.38-.84.54-.28.16-.54.32-.78.48-.24.04-.48.1-.72.18-.24.08-.46.14-.66.18-.24-.12-.47-.15-.69-.09-.22.06-.49.13-.81.21-.36-.08-.74-.17-1.14-.27-.4-.1-.82-.19-1.26-.27-.12.04-.24.06-.36.06s-.22.02-.3.06c-.16-.08-.29-.16-.39-.24-.1-.08-.23-.14-.39-.18-.2-.08-.38-.08-.54,0-.16.08-.34.16-.54.24-.2-.08-.42-.13-.66-.15-.24-.02-.48-.05-.72-.09-.2-.2-.37-.38-.51-.54-.14-.16-.23-.36-.27-.6-.08-.08-.16-.15-.24-.21-.08-.06-.14-.11-.18-.15-.16-.56-.34-1.04-.54-1.44-.56-1.2-.94-2.52-1.14-3.96-.08-.08-.16-.17-.24-.27-.08-.1-.18-.21-.3-.33-.04-.36-.08-.71-.12-1.05-.04-.34-.1-.71-.18-1.11.08-.24.12-.46.12-.66-.08-.4-.16-.76-.24-1.08.16-.48.33-.96.51-1.44.18-.48.23-.98.15-1.5.08-.16.18-.31.3-.45.12-.14.22-.27.3-.39.36-.4.62-.86.78-1.38.12-.44.33-.82.63-1.14.3-.32.63-.58.99-.78.44-.2.87-.41,1.29-.63.42-.22.83-.41,1.23-.57.08,0,.19.01.33.03.14.02.25.01.33-.03.72-.12,1.34-.16,1.86-.12.24.04.48.04.72,0,.24-.04.46-.06.66-.06l1.26-.24c.24.04.48.1.72.18.24.08.48.06.72-.06.08,0,.15.01.21.03.06.02.11.03.15.03.2.08.38.17.54.27.16.1.34.15.54.15.44.08.72,0,.84-.24-.04-.68-.09-1.12-.15-1.32-.06-.2-.19-.52-.39-.96-.12-.24-.2-.49-.24-.75-.04-.26-.08-.51-.12-.75-.04-.16-.07-.31-.09-.45-.02-.14-.11-.29-.27-.45-.52-.16-1.16-.28-1.92-.36h-.36c-.36.16-.74.24-1.14.24s-.82.04-1.26.12c-.28.04-.57.12-.87.24s-.61.22-.93.3c-.32.16-.64.08-.96-.24-.12-.36-.17-.73-.15-1.11.02-.38.05-.77.09-1.17-.08-.28-.18-.61-.3-.99-.12-.38-.18-.83-.18-1.35l.06-.42c-.04-.08-.11-.16-.21-.24-.1-.08-.19-.14-.27-.18-.12-.12-.14-.24-.06-.36,0-.12.06-.18.18-.18.32-.08.62-.14.9-.18.28-.04.56-.08.84-.12l.72-.72c.08-.04.18-.06.3-.06.92.16,1.59.22,2.01.18.42-.04,1.07-.2,1.95-.48.44.04.87.1,1.29.18.42.08.85.1,1.29.06.12.12.25.23.39.33.14.1.29.21.45.33.2-.08.4-.15.6-.21s.38-.11.54-.15c.24.16.5.32.78.48.2.04.37,0,.51-.12.14-.12.29-.18.45-.18.36.04.65.21.87.51.22.3.47.55.75.75.24.16.47.36.69.6.22.24.45.46.69.66.08.12.16.24.24.36.08.12.14.24.18.36.2.16.38.29.54.39.16.1.3.23.42.39.2.16.41.28.63.36.22.08.39.22.51.42.08.2.16.41.24.63.08.22.22.41.42.57.12.4.24.81.36,1.23.12.42.14.85.06,1.29,0,.2-.02.38-.06.54.08.2.14.42.18.66s.1.46.18.66v.3c0,.12-.01.25-.03.39-.02.14-.01.25.03.33.08.24.18.42.3.54,0,.24-.1.46-.3.66-.08.04-.18.08-.3.12-.12.04-.22.1-.3.18-.48.28-.54.64-.18,1.08.04.04.11.11.21.21.1.1.17.21.21.33.04.16.06.33.06.51s.02.37.06.57c-.16.76-.46,1.48-.9,2.16.12.56.31,1.1.57,1.62.26.52.49,1.06.69,1.62.2.12.36.24.48.36.12.12.26.22.42.3.04.12.07.2.09.24.02.04.03.1.03.18,0,.4.05.8.15,1.2.1.4.23.78.39,1.14.16.36.32.7.48,1.02.16.32.36.64.6.96.2.16.36.38.48.66.12.28.22.52.3.72ZM723.07,126.33s-.06.04-.06.12c.08-.08.1-.12.06-.12ZM735.79,116.49c-.24-.6-.54-1-.9-1.2-.44-.2-.72-.46-.84-.78-.04-.16-.12-.26-.24-.3-.12-.04-.24-.08-.36-.12-.16,0-.35.01-.57.03-.22.02-.43.05-.63.09-.24,0-.47-.04-.69-.12-.22-.08-.43-.14-.63-.18-.36,0-.7.1-1.02.3-.16.12-.3.23-.42.33-.12.1-.24.23-.36.39l-.78,1.44c.08.24.18.45.3.63.12.18.12.43,0,.75.08.36.17.73.27,1.11.1.38.25.75.45,1.11.08.08.14.12.18.12.44.08.88.12,1.32.12s.86-.02,1.26-.06c.16,0,.28-.02.36-.06.44-.24.98-.46,1.62-.66.24-.04.46-.22.66-.54.16-.36.32-.75.48-1.17.16-.42.34-.83.54-1.23Z"/>
    <path class="cls-10" d="M777.85,118.71c0,.32,0,.65.03.99.02.34-.01.67-.09.99-.08.2-.1.38-.06.54.08.2.09.41.03.63-.06.22-.07.43-.03.63.08.28.1.59.06.93-.04.34-.04.67,0,.99-.16.28-.42.42-.78.42-.4,0-.83.02-1.29.06-.46.04-.91.14-1.35.3-.24.08-.5.12-.78.12h-.84c-.24-.16-.42-.3-.54-.42-.48.16-.88-.02-1.2-.54-.16-.24-.29-.5-.39-.78-.1-.28-.15-.58-.15-.9.04-.32.04-.64,0-.96-.04-.32-.04-.66,0-1.02.08-.6,0-1.18-.24-1.74-.04-.12-.08-.24-.12-.36s-.06-.24-.06-.36c0-.44-.02-.89-.06-1.35-.04-.46-.12-.89-.24-1.29-.04-.2-.07-.39-.09-.57-.02-.18-.03-.35-.03-.51-.12-.48-.38-.86-.78-1.14-.04-.32-.08-.61-.12-.87-.04-.26-.1-.55-.18-.87-.08-.08-.24-.2-.48-.36-.16-.12-.35-.22-.57-.3-.22-.08-.43-.18-.63-.3-.08-.08-.17-.19-.27-.33-.1-.14-.21-.27-.33-.39h-.36c-.16.04-.3.07-.42.09-.12.02-.28.01-.48-.03-.08-.04-.18-.05-.3-.03-.12.02-.22.03-.3.03-.2.28-.4.58-.6.9-.16.12-.31.23-.45.33-.14.1-.25.19-.33.27-.12.12-.18.24-.18.36l-.42,1.26c.08.24.08.47,0,.69-.08.22-.06.45.06.69.04.12.04.24,0,.36-.04.12-.08.22-.12.3-.12.16-.14.28-.06.36.08.08.14.18.18.3.04.04.08.12.12.24v1.38c0,.44-.08.88-.24,1.32.04.16.07.31.09.45.02.14.05.31.09.51-.04.24-.09.51-.15.81-.06.3-.07.61-.03.93.04.2.05.42.03.66-.02.24-.07.48-.15.72-.04.12-.04.24,0,.36.12.48.12.9,0,1.26s-.34.74-.66,1.14c-.04.04-.12.08-.24.12-.12.04-.22.08-.3.12-.08.08-.16.13-.24.15-.08.02-.16.05-.24.09-.16,0-.32,0-.48-.03-.16-.02-.3-.03-.42-.03-.16.04-.29.09-.39.15s-.25.15-.45.27c-.52-.08-1.05-.18-1.59-.3-.54-.12-1.07-.08-1.59.12-.24-.04-.44-.14-.6-.3-.16-.16-.3-.34-.42-.54-.16-.24-.26-.51-.3-.81-.04-.3-.1-.59-.18-.87.08-.68.12-1.15.12-1.41s-.06-.85-.18-1.77c.12-.64.2-1.29.24-1.95.04-.66.06-1.31.06-1.95v-2.58c0-.88.02-1.76.06-2.64,0-.24.02-.48.06-.72.04-.24.08-.46.12-.66.08-.44.16-.86.24-1.26.08-.4.18-.78.3-1.14.08-.28.22-.52.42-.72.2-.2.34-.44.42-.72.08-.56.25-1.05.51-1.47.26-.42.53-.83.81-1.23.2-.56.56-.78,1.08-.66.08,0,.12-.02.12-.06.12-.12.15-.28.09-.48-.06-.2-.01-.38.15-.54.36-.32.78-.57,1.26-.75.48-.18.92-.35,1.32-.51.36,0,.6.04.72.12.52.16,1.02.16,1.5,0,.36-.08.68.02.96.3.4.08.78.16,1.14.24.36.08.74.16,1.14.24.16-.04.32-.07.48-.09.16-.02.32-.05.48-.09.4.16.73.39.99.69.26.3.53.61.81.93.2.16.42.22.66.18.24-.04.5-.02.78.06.2.2.41.42.63.66.22.24.45.46.69.66.04.16.09.31.15.45.06.14.11.29.15.45.2.04.34.14.42.3.08.16.14.3.18.42.4.16.8.28,1.2.36.2.2.38.43.54.69.16.26.42.39.78.39.08.4.16.76.24,1.08.08.32.16.64.24.96.08.6.22,1.12.42,1.56.16.32.3.65.42.99.12.34.18.71.18,1.11.04.24.13.46.27.66.14.2.25.42.33.66-.04.16-.07.32-.09.48-.02.16-.03.34-.03.54,0,.16,0,.3.03.42.02.12.05.28.09.48,0,.08,0,.19.03.33.02.14,0,.25-.03.33-.08.28-.1.56-.06.84.04.28.06.54.06.78Z"/>
    <path class="cls-10" d="M809.65,113.31s-.05.09-.03.15c.02.06,0,.13-.03.21-.12.4-.16.78-.12,1.14,0,.44-.12.9-.36,1.38.08.16.15.33.21.51.06.18.11.37.15.57-.08.44-.17.9-.27,1.38-.1.48-.01.94.27,1.38-.04.24-.1.48-.18.72-.08.24-.16.46-.24.66-.04.2-.09.4-.15.6-.06.2-.13.46-.21.78,0-.08-.01-.1-.03-.06-.02.04,0,.1.03.18.16.64.16,1.26,0,1.86-.16.6-.36,1.2-.6,1.8-.04.04-.08.11-.12.21-.04.1-.1.19-.18.27-.44.76-.85,1.54-1.23,2.34-.38.8-.77,1.6-1.17,2.4-.04.16-.12.34-.24.54-.12.2-.22.4-.3.6-.16.24-.3.42-.42.54-.28.24-.58.49-.9.75-.32.26-.64.51-.96.75-.4.16-.74.38-1.02.66-.28.28-.54.62-.78,1.02-.28.08-.54.2-.78.36-.24.08-.46.24-.66.48-.08.16-.22.24-.42.24-.2.04-.37.14-.51.3-.14.16-.31.28-.51.36-.36.12-.68.32-.96.6-.36.24-.74.42-1.14.54-.2.04-.4.13-.6.27-.2.14-.38.25-.54.33-.08-.04-.16-.06-.24-.06l-1.8-1.8c-.08-.72-.15-1.25-.21-1.59-.06-.34-.16-.64-.3-.9-.14-.26-.39-.61-.75-1.05.04-.08.06-.14.06-.18s.02-.08.06-.12c.12-.08.26-.18.42-.3.16-.12.32-.2.48-.24.32-.2.6-.41.84-.63.24-.22.5-.43.78-.63.24-.2.5-.39.78-.57.28-.18.56-.35.84-.51.28-.2.55-.41.81-.63.26-.22.49-.47.69-.75.12-.16.24-.3.36-.42.12-.12.24-.24.36-.36.04-.16.06-.31.06-.45s.02-.27.06-.39c.16-.4.14-.86-.06-1.38v-.12l.42-.6s.06-.18.18-.66c0-.36-.01-.65-.03-.87-.02-.22-.03-.49-.03-.81-.16-.2-.27-.31-.33-.33-.06-.02-.13.01-.21.09-.16.16-.36.28-.6.36-.24.08-.48.16-.72.24-.04,0-.12.04-.24.12-.12.08-.22.1-.3.06l-.78.54s-.07.01-.09.03c-.02.02-.05.03-.09.03h-1.5c-.12-.16-.26-.3-.42-.42-.16-.12-.3-.26-.42-.42-.28-.08-.49-.09-.63-.03-.14.06-.31.09-.51.09l-1.02-.18h-.84c-.28-.2-.54-.39-.78-.57s-.5-.35-.78-.51c-.68.04-1.12.05-1.32.03-.2-.02-.54-.17-1.02-.45-.08-.12-.14-.24-.18-.36-.04-.12-.1-.24-.18-.36-.12-.24-.21-.49-.27-.75-.06-.26-.15-.49-.27-.69-.16-.16-.24-.38-.24-.66.04-.32,0-.61-.12-.87-.12-.26-.22-.53-.3-.81-.04-.28-.14-.54-.3-.78-.16-.24-.28-.48-.36-.72.04-.44-.08-.84-.36-1.2-.08-.56-.2-1.08-.36-1.56.2-.72.3-1.32.3-1.8,0-.32.03-.61.09-.87.06-.26.11-.53.15-.81-.04-.08-.08-.17-.12-.27-.04-.1-.1-.17-.18-.21h.06l.36-.36c.12-.08.22-.28.3-.6-.04-.16-.08-.31-.12-.45-.04-.14-.08-.29-.12-.45,0-.2.02-.32.06-.36.4-.32.64-.56.72-.72.08-.16.2-.5.36-1.02.04-.04.11-.08.21-.12.1-.04.17-.08.21-.12l.36-.24c.08-.2.17-.41.27-.63.1-.22.19-.47.27-.75.32-.32.67-.62,1.05-.9.38-.28.77-.54,1.17-.78.52-.32.86-.55,1.02-.69.16-.14.46-.43.9-.87.28-.12.57-.25.87-.39.3-.14.59-.33.87-.57.2-.12.4-.24.6-.36.2-.12.38-.22.54-.3.2.04.37.06.51.06h.39c.24-.04.42-.15.54-.33.12-.18.26-.33.42-.45.4-.12.84-.14,1.32-.06.2,0,.41.01.63.03.22.02.43.03.63.03.44,0,.87,0,1.29-.03.42-.02.81-.09,1.17-.21.32.2.61.41.87.63.26.22.53.37.81.45.08.12.16.22.24.3.08.08.14.16.18.24.16.24.32.26.48.06.08-.08.14-.14.18-.18.04-.04.1-.08.18-.12.04-.04.09-.09.15-.15.06-.06.11-.11.15-.15.2.16.42.33.66.51.24.18.46.35.66.51.2.16.41.33.63.51.22.18.43.33.63.45.16.16.42.28.78.36.08.16.16.32.24.48.08.16.16.32.24.48.2.36.39.72.57,1.08.18.36.39.7.63,1.02.44.56.72,1.18.84,1.86,0,.28-.05.56-.15.84-.1.28-.11.64-.03,1.08.08.2.17.43.27.69.1.26.19.53.27.81.08.4.09.77.03,1.11-.06.34-.13.69-.21,1.05.08.16.14.31.18.45.04.14.1.31.18.51ZM801.07,113.31c-.2-.28-.36-.56-.48-.84-.04-.2-.09-.4-.15-.6-.06-.2-.09-.38-.09-.54-.04-.2-.06-.41-.06-.63s-.02-.43-.06-.63c-.04-.2-.06-.41-.06-.63s-.1-.41-.3-.57c-.12-.08-.27-.14-.45-.18-.18-.04-.37-.1-.57-.18-.16-.16-.33-.31-.51-.45-.18-.14-.35-.25-.51-.33-.16-.04-.3-.06-.42-.06-.36.04-.71.09-1.05.15-.34.06-.69.09-1.05.09-.08,0-.18.02-.3.06-.12.04-.22.08-.3.12-.2.2-.43.33-.69.39-.26.06-.51.13-.75.21-.16.04-.34.12-.54.24-.2.12-.34.28-.42.48-.12.24-.27.41-.45.51-.18.1-.35.19-.51.27-.16.16-.25.31-.27.45-.02.14-.05.27-.09.39-.04.16-.1.29-.18.39-.08.1-.16.21-.24.33.24.76.46,1.39.66,1.89.2.5.44.99.72,1.47.04.16.05.29.03.39-.02.1,0,.21.09.33.28.04.54.04.78,0,.24-.04.46-.14.66-.3.04-.04.1-.05.18-.03.08.02.14.03.18.03.16.16.3.31.42.45.12.14.24.27.36.39.32.12.62.22.9.3.28.08.56.06.84-.06.24-.16.44-.37.6-.63.16-.26.38-.43.66-.51.16,0,.33.01.51.03.18.02.37.03.57.03.08-.08.19-.16.33-.24.14-.08.25-.16.33-.24.2-.2.39-.38.57-.54.18-.16.39-.3.63-.42.28-.2.44-.46.48-.78Z"/>
    <path class="cls-10" d="M840.61,106.35c-.04.4-.07.81-.09,1.23-.02.42-.07.83-.15,1.23-.04.4-.06.83-.06,1.29s-.08.93-.24,1.41c-.08.12-.18.25-.3.39-.12.14-.24.31-.36.51,0,.16,0,.3.03.42.02.12.05.26.09.42-.08.2-.2.37-.36.51-.16.14-.32.25-.48.33-.4.12-.77.24-1.11.36s-.69.22-1.05.3c-.56.08-1.14.09-1.74.03-.6-.06-1.2-.07-1.8-.03-.52,0-1.07.01-1.65.03-.58.02-1.17.03-1.77.03h-3.36c-.16.12-.33.16-.51.12-.18-.04-.35-.02-.51.06-.16-.08-.34-.09-.54-.03-.2.06-.4.05-.6-.03-.16.04-.31.07-.45.09-.14.02-.31.05-.51.09-.16-.04-.3-.09-.42-.15-.12-.06-.26-.03-.42.09.08.12.17.25.27.39.1.14.17.31.21.51.12.16.22.32.3.48.08.16.16.34.24.54.08.16.14.33.18.51.04.18.08.35.12.51.2.2.42.4.66.6.24.2.48.4.72.6.2.04.41.08.63.12.22.04.43.08.63.12.24.04.48.08.72.12.24.04.5.04.78,0,.28-.08.54-.07.78.03.24.1.5.17.78.21.36-.04.73-.08,1.11-.12.38-.04.75-.08,1.11-.12.16-.12.33-.23.51-.33.18-.1.35-.21.51-.33.52-.12,1.04-.1,1.56.06.12.2.27.4.45.6.18.2.35.42.51.66.24.36.48.71.72,1.05.24.34.4.73.48,1.17.08.2.2.4.36.6.16.2.28.38.36.54.04.2.03.38-.03.54-.06.16-.11.34-.15.54-.16.16-.36.3-.6.42-.04,0-.08.04-.12.12-.04.08-.1.14-.18.18-.24.16-.48.32-.72.48-.24.16-.46.32-.66.48-.56.48-1.14.72-1.74.72-.24,0-.42.02-.54.06-.2.04-.4.12-.6.24-.2.12-.42.22-.66.3-.2,0-.4.03-.6.09-.2.06-.4.11-.6.15-.12,0-.26-.01-.42-.03-.16-.02-.32-.03-.48-.03-.36.04-.72.02-1.08-.06-.36-.08-.72-.12-1.08-.12-.12-.04-.24-.08-.36-.12s-.24-.06-.36-.06c-.68.04-1.32-.07-1.92-.33-.6-.26-1.2-.53-1.8-.81-.48-.12-.82-.34-1.02-.66-.28-.32-.59-.59-.93-.81-.34-.22-.71-.41-1.11-.57-.24-.08-.48-.19-.72-.33-.24-.14-.5-.29-.78-.45-.04-.16-.1-.32-.18-.48-.08-.16-.16-.32-.24-.48-.08-.12-.19-.24-.33-.36-.14-.12-.27-.24-.39-.36-.12-.12-.22-.26-.3-.42-.2-.68-.4-1.35-.6-2.01-.2-.66-.46-1.31-.78-1.95.04-.28.07-.57.09-.87.02-.3,0-.63-.09-.99-.04-.08-.06-.18-.06-.3v-.3c0-.2,0-.37.03-.51.02-.14,0-.27-.03-.39-.04-.32-.08-.64-.12-.96-.04-.32-.02-.62.06-.9.08-.32.16-.64.24-.96.08-.32.18-.66.3-1.02-.04-.08-.06-.2-.06-.36s-.02-.32-.06-.48c.08-.44.16-.88.24-1.32.08-.44.18-.86.3-1.26.12-.24.25-.47.39-.69.14-.22.29-.45.45-.69.28-.48.5-.94.66-1.38.48-.24.77-.39.87-.45s.19-.15.27-.27c.08-.12.34-.36.78-.72-.04-.12.06-.3.3-.54.24-.24.32-.44.24-.6.36-.68.88-1.22,1.56-1.62.24-.16.47-.33.69-.51.22-.18.41-.35.57-.51.2-.12.39-.17.57-.15.18.02.35.03.51.03.12-.04.25-.07.39-.09.14-.02.29-.05.45-.09.08-.04.18-.08.3-.12.12-.04.22-.1.3-.18.08-.04.16-.08.24-.12.08-.04.16-.06.24-.06.36-.04.7-.14,1.02-.3.32-.16.62-.32.9-.48.6.24,1.22.32,1.86.24.4-.04.79-.02,1.17.06.38.08.73.18,1.05.3l.84-.24c.32.04.62.14.9.3.28.16.56.32.84.48h.54s.08.07.12.09c.04.02.08.05.12.09.44.4.86.77,1.26,1.11.4.34.82.69,1.26,1.05.6.4.98.88,1.14,1.44.16.24.3.42.42.54.48.4.9.94,1.26,1.62,0,.08,0,.19.03.33.02.14.03.27.03.39-.04.2,0,.4.12.6.12.2.2.42.24.66ZM832.99,108.33v-1.5c0-.2-.02-.32-.06-.36-.04-.12-.09-.24-.15-.36-.06-.12-.11-.2-.15-.24v-1.02l-.18-.18c-.16,0-.36-.04-.6-.12-.08-.36-.18-.64-.3-.84-.12-.16-.28-.26-.48-.3-.2-.04-.42-.1-.66-.18-.52.16-1.08.3-1.68.42-.6.12-1.18.28-1.74.48-.28.04-.54.06-.78.06s-.48.02-.72.06c-.4.16-.75.41-1.05.75-.3.34-.59.67-.87.99-.16.2-.3.42-.42.66-.12.24-.26.46-.42.66-.04.04-.06.16-.06.36.12.32.3.52.54.6.24.04.48.1.72.18.24.08.5.16.78.24.12-.04.23-.06.33-.06s.21-.02.33-.06c.48-.2.88-.22,1.2-.06.32.04.61.04.87,0,.26-.04.53-.08.81-.12.24.12.49.2.75.24.26.04.51.1.75.18.52.16,1.02.24,1.5.24s.96-.06,1.44-.18c.2-.2.3-.38.3-.54Z"/>
    <path class="cls-10" d="M866.95,102.21c.08.64-.02,1.1-.3,1.38-.2.24-.33.5-.39.78-.06.28-.11.58-.15.9-.08.12-.15.24-.21.36s-.13.24-.21.36c-.16.16-.31.34-.45.54-.14.2-.27.4-.39.6-.08.16-.14.34-.18.54-.04.2-.1.4-.18.6-.04.04-.07.09-.09.15-.02.06-.05.11-.09.15-.04.04-.09.06-.15.06s-.11.02-.15.06h-.3c-.88-.36-1.74-.38-2.58-.06-.16.04-.3.06-.42.06h-.42c-.12.04-.23.06-.33.06s-.19.02-.27.06c-.48.2-.9.46-1.26.78-.36.32-.7.66-1.02,1.02-.16.48-.33.97-.51,1.47-.18.5-.27,1.05-.27,1.65,0,.04-.02.11-.06.21-.04.1-.08.19-.12.27-.04.16-.09.29-.15.39-.06.1-.13.23-.21.39-.08.24-.18.48-.3.72-.12.24-.22.48-.3.72.08.28.07.54-.03.78-.1.24-.15.48-.15.72.08.36.09.69.03.99-.06.3-.13.61-.21.93-.12.36-.17.73-.15,1.11.02.38.03.75.03,1.11-.04.44-.05.9-.03,1.38.02.48.03.94.03,1.38,0,.28-.02.58-.06.9-.04.32-.06.64-.06.96-.12.24-.22.4-.3.48-.28.44-.62.75-1.02.93-.4.18-.84.25-1.32.21-.32-.04-.65-.08-.99-.12-.34-.04-.67-.08-.99-.12-.16-.04-.36-.09-.6-.15-.24-.06-.46-.13-.66-.21-.16.04-.29.07-.39.09-.1.02-.21.05-.33.09-.52-.16-1-.46-1.44-.9.04-.28.06-.56.06-.84s.02-.56.06-.84c-.04-.12-.07-.27-.09-.45-.02-.18-.07-.35-.15-.51-.04-.24-.1-.48-.18-.72-.08-.24-.1-.5-.06-.78-.04-.6-.16-1.3-.36-2.1.08-.08.15-.19.21-.33.06-.14.11-.27.15-.39s.07-.23.09-.33c.02-.1.03-.21.03-.33,0-.08.02-.15.06-.21.04-.06.02-.13-.06-.21-.04-.12-.07-.25-.09-.39-.02-.14-.05-.27-.09-.39-.04-.4-.04-.8,0-1.2.04-.16.07-.31.09-.45.02-.14.05-.29.09-.45.08-.2.11-.42.09-.66-.02-.24-.13-.44-.33-.6-.04-.04-.07-.09-.09-.15-.02-.06-.07-.11-.15-.15-.04-.2-.07-.42-.09-.66-.02-.24-.07-.46-.15-.66-.04-.28-.09-.54-.15-.78-.06-.24-.09-.5-.09-.78.08-.48.1-.95.06-1.41-.04-.46,0-.93.12-1.41,0-.08,0-.18-.03-.3-.02-.12-.03-.22-.03-.3-.04-.44-.07-.88-.09-1.32-.02-.44.05-.88.21-1.32.08-.16.12-.34.12-.54v-.6c0-.36,0-.71.03-1.05.02-.34.11-.67.27-.99,0-.12-.06-.32-.18-.6.08-.2.15-.41.21-.63.06-.22.11-.43.15-.63.08-.2.14-.39.18-.57.04-.18.08-.35.12-.51.24-.24.46-.34.66-.3.4.12.81.13,1.23.03.42-.1.83-.13,1.23-.09.12,0,.24-.03.36-.09.12-.06.24-.11.36-.15.68-.2,1.24-.18,1.68.06.28.48.44.84.48,1.08.04.24.08.82.12,1.74.12.44.34.86.66,1.26.08.08.21.13.39.15.18.02.31,0,.39-.09.16-.12.3-.23.42-.33.12-.1.24-.23.36-.39.24-.2.47-.41.69-.63.22-.22.41-.41.57-.57.44-.2.87-.4,1.29-.6.42-.2.89-.4,1.41-.6h1.38l.12-.06s.07,0,.09-.03.05,0,.09.03l.18-.06c.48.24.9.3,1.26.18.64-.2,1.26-.12,1.86.24.36.16.7.32,1.02.48.32.16.66.34,1.02.54.12.16.26.32.42.48.16.16.3.32.42.48Z"/>
    <path class="cls-10" d="M898.45,111.15c.12.48.1.92-.06,1.32-.08.2-.14.4-.18.6-.04.2-.04.4,0,.6.04.04.05.09.03.15-.02.06-.03.13-.03.21-.16.32-.23.66-.21,1.02.02.36.05.7.09,1.02l-.6.84v.78c-.08.08-.18.17-.3.27-.12.1-.28.23-.48.39-.08.28-.19.58-.33.9-.14.32-.25.62-.33.9v.6c-.16.16-.36.3-.6.42-.24.12-.44.3-.6.54-.16.12-.32.22-.48.3-.16.08-.34.18-.54.3-.08.04-.17.05-.27.03-.1-.02-.19,0-.27.03-.6,0-.9.28-.9.84-.44.28-.87.58-1.29.9-.42.32-.85.64-1.29.96-.68.52-1.56.88-2.64,1.08-.36.04-.7.13-1.02.27-.32.14-.66.25-1.02.33-.08,0-.18-.02-.3-.06-.12-.04-.22-.04-.3,0-.48.04-.98,0-1.5-.12-.16-.04-.32-.04-.48,0-.16.04-.3.08-.42.12-.28-.04-.56-.08-.84-.12-.28-.04-.58-.08-.9-.12-.36-.16-.69-.34-.99-.54-.3-.2-.61-.38-.93-.54-.24-.08-.46-.22-.66-.42-.2-.2-.36-.4-.48-.6-.04-.08-.09-.15-.15-.21-.06-.06-.13-.13-.21-.21-.12-.08-.24-.15-.36-.21s-.24-.15-.36-.27c-.64-.44-1.21-.92-1.71-1.44-.5-.52-.87-1.16-1.11-1.92-.2-.52-.44-.98-.72-1.38-.08-.16-.17-.31-.27-.45-.1-.14-.19-.29-.27-.45.04-.08.1-.24.18-.48-.08-.12-.16-.24-.24-.36-.08-.12-.12-.26-.12-.42,0-.12-.01-.25-.03-.39-.02-.14,0-.29.03-.45.08-.28.1-.56.06-.84-.04-.28-.04-.56,0-.84.04-.24.03-.5-.03-.78-.06-.28-.03-.54.09-.78.08-.28.14-.54.18-.78.04-.24.1-.48.18-.72.08-.24.16-.47.24-.69.08-.22.16-.43.24-.63.08-.24.16-.48.24-.72.08-.24.2-.5.36-.78v-.3c0-.12.02-.2.06-.24.16-.32.28-.62.36-.9.08-.28.1-.56.06-.84.16-.2.3-.36.42-.48.12-.12.22-.26.3-.42.08-.2.17-.39.27-.57.1-.18.21-.35.33-.51.12-.32.3-.6.54-.84.16-.2.3-.37.42-.51.12-.14.22-.25.3-.33.12-.24.16-.45.12-.63-.04-.18-.06-.33-.06-.45.08-.2.14-.32.18-.36.12-.04.23-.1.33-.18.1-.08.21-.14.33-.18.32-.2.66-.4,1.02-.6.36-.2.72-.36,1.08-.48.36-.24.73-.41,1.11-.51.38-.1.77-.21,1.17-.33h.96c.32,0,.62.02.9.06h.54c.44.16.89.24,1.35.24s.91-.02,1.35-.06c.2,0,.41,0,.63-.03.22-.02.43-.03.63-.03.2.16.37.29.51.39.14.1.29.23.45.39.12.04.24.1.36.18.12.08.26.14.42.18.56.04,1.07.22,1.53.54.46.32.89.64,1.29.96v.33c0,.14.02.27.06.39,0,.2.12.38.36.54.12.04.26.06.42.06s.32.04.48.12c.08.16.19.34.33.54.14.2.27.4.39.6.16.16.32.32.48.48.16.16.28.34.36.54.08.08.15.18.21.3.06.12.11.22.15.3.12.12.24.24.36.36.12.12.2.28.24.48.08.28.2.56.36.84.16.28.28.58.36.9.04.12.11.24.21.36.1.12.21.26.33.42.08.36.15.74.21,1.14.06.4.17.78.33,1.14ZM890.05,113.31c.04-.28,0-.53-.12-.75-.12-.22-.16-.45-.12-.69,0-.08-.06-.18-.18-.3-.04-.08-.06-.24-.06-.48.04-.08.06-.19.06-.33v-.27c-.28-.44-.54-.85-.78-1.23-.24-.38-.5-.75-.78-1.11,0-.08-.04-.13-.12-.15-.08-.02-.16-.09-.24-.21-.68,0-1.42-.18-2.22-.54-.48-.24-1.06-.26-1.74-.06-.04,0-.09.02-.15.06-.06.04-.13.1-.21.18h-.3c-.64-.12-1.06.12-1.26.72-.08.16-.17.33-.27.51-.1.18-.17.37-.21.57-.04.16-.12.33-.24.51s-.22.35-.3.51c-.16.2-.3.42-.42.66-.12.24-.26.46-.42.66-.04.4-.13.8-.27,1.2-.14.4-.23.78-.27,1.14.12.2.24.41.36.63.12.22.22.43.3.63.24.52.34,1.02.3,1.5,0,.08.02.16.06.24.04.08.08.16.12.24.36.08.71.16,1.05.24.34.08.67.18.99.3.28.08.56.14.84.18.28.04.56,0,.84-.12h.18c.32.08.63.09.93.03s.63-.13.99-.21c.28-.2.57-.42.87-.66.3-.24.61-.44.93-.6.28-.56.62-1.06,1.02-1.5.4-.44.68-.94.84-1.5Z"/>
    <path class="cls-10" d="M928.81,105.45c.08.24.11.48.09.72-.02.24-.07.46-.15.66-.08.28-.13.57-.15.87-.02.3-.03.61-.03.93,0,.4-.01.79-.03,1.17-.02.38-.03.77-.03,1.17v.9c0,.32-.04.66-.12,1.02-.16.64-.34,1.3-.54,1.98-.2.68-.36,1.38-.48,2.1-.04.08-.07.19-.09.33-.02.14-.07.29-.15.45-.36.76-.72,1.6-1.08,2.52-.16.2-.33.42-.51.66-.18.24-.37.46-.57.66-.16.12-.33.22-.51.3-.18.08-.35.16-.51.24-.08,0-.14.08-.18.24.08.08.15.18.21.3.06.12.11.22.15.3-.32.48-.8.94-1.44,1.38-.16.04-.35.09-.57.15-.22.06-.45.11-.69.15-.4.24-.86.56-1.38.96-.04.08-.1.19-.18.33-.08.14-.16.25-.24.33-.28.16-.55.22-.81.18-.26-.04-.55-.08-.87-.12-.12.04-.23.09-.33.15-.1.06-.21.13-.33.21-.08.04-.17.11-.27.21-.1.1-.19.17-.27.21-.48.2-.96.26-1.44.18-.48-.08-.96-.06-1.44.06-.2-.12-.41-.22-.63-.3-.22-.08-.43-.16-.63-.24,0-.08,0-.16.03-.24.02-.08.05-.18.09-.3-.08-.28-.26-.44-.54-.48-.28-.08-.55-.16-.81-.24-.26-.08-.53-.08-.81,0-.28,0-.42-.2-.42-.6-.08-.36-.22-.54-.42-.54h-.24c-.28.12-.55.13-.81.03-.26-.1-.51-.25-.75-.45-.16-.16-.25-.38-.27-.66-.02-.28-.11-.56-.27-.84-.12-.2-.31-.37-.57-.51-.26-.14-.49-.29-.69-.45-.24-.6-.48-1.17-.72-1.71-.24-.54-.46-1.07-.66-1.59-.12-.24-.17-.45-.15-.63.02-.18.03-.41.03-.69l-.18-.3-.12-.24c-.28-.8-.46-1.6-.54-2.4-.08-.8,0-1.62.24-2.46-.04-.12-.09-.24-.15-.36s-.13-.22-.21-.3c-.08-.2-.07-.4.03-.6.1-.2.15-.38.15-.54-.08-.56-.06-1.02.06-1.38.08-.2.1-.4.06-.6-.04-.2-.04-.38,0-.54.12-.48.2-.95.24-1.41.04-.46.08-.91.12-1.35.04-.88.16-1.74.36-2.58.08-.32.2-.6.36-.84.16-.24.32-.48.48-.72.08-.08.18-.14.3-.18.12-.04.24-.08.36-.12.24-.04.49-.08.75-.12.26-.04.57-.08.93-.12.2.04.43.08.69.12.26.04.53.06.81.06.28.04.56.07.84.09.28.02.58.05.9.09.04.12.08.22.12.3.04.08.08.16.12.24,0,.28,0,.55-.03.81-.02.26-.03.53-.03.81.04.12.09.23.15.33.06.1.11.23.15.39-.04.16-.09.34-.15.54-.06.2-.13.4-.21.6.12.64.18,1.31.18,2.01s.04,1.39.12,2.07c.08.44.14.87.18,1.29.04.42.12.85.24,1.29-.04.28-.02.56.06.84.08.28.16.56.24.84.12.28.21.56.27.84.06.28.13.58.21.9.2.64.5,1.22.9,1.74.24.24.42.4.54.48.08.04.17.06.27.06s.19.02.27.06c.28,0,.5-.08.66-.24.16-.16.34-.26.54-.3.44-.2.86-.36,1.26-.48.2.04.4.06.6.06h.42l.96-.6c.2-.32.34-.68.42-1.08.08-.4.26-.74.54-1.02.2-.32.38-.64.54-.96.16-.32.36-.58.6-.78.08-.56.14-1.08.18-1.56.04-.48.14-.96.3-1.44.04-.12.05-.25.03-.39-.02-.14-.03-.27-.03-.39-.04-.24-.07-.47-.09-.69-.02-.22-.03-.37-.03-.45.04-.44.06-.84.06-1.2s.02-.7.06-1.02c.04-.32.06-.65.06-.99s.02-.65.06-.93c.08-.64.36-1.08.84-1.32.16-.08.3-.15.42-.21.12-.06.26-.11.42-.15.16-.04.32-.06.48-.06s.36-.02.6-.06c.2.04.41.1.63.18.22.08.45.16.69.24.24.04.47.04.69,0,.22-.04.45-.1.69-.18.16.04.3.08.42.12.12.04.26.1.42.18.04.04.08.09.12.15.04.06.06.13.06.21.04.2.08.42.12.66.04.24.06.48.06.72.04.48.07.96.09,1.44.02.48.09.96.21,1.44Z"/>
    <path class="cls-10" d="M952.87,103.23c-.12.52-.36.96-.72,1.32-.16.16-.29.33-.39.51-.1.18-.23.31-.39.39-.16.16-.28.3-.36.42-.08.12-.16.28-.24.48-.2.4-.54.44-1.02.12-.24-.16-.4-.32-.48-.48l-.72-.06c-.08,0-.14-.02-.18-.06-.2-.08-.34-.21-.42-.39-.08-.18-.22-.33-.42-.45-.6-.28-1.2-.48-1.8-.6-.6-.12-1.22-.08-1.86.12-.4.52-.66.89-.78,1.11-.12.22-.26.61-.42,1.17,0,.28.05.55.15.81.1.26.19.55.27.87.2.32.46.54.78.66.16,0,.32.01.48.03.16.02.32.05.48.09.16.12.3.23.42.33.12.1.24.19.36.27.28.16.55.37.81.63.26.26.53.45.81.57.32.16.62.3.9.42.28.12.56.26.84.42.24.04.45.14.63.3.18.16.35.34.51.54.12.24.27.48.45.72.18.24.35.5.51.78.12.44.23.89.33,1.35.1.46.15.95.15,1.47,0,.36.02.71.06,1.05.04.34.08.69.12,1.05.04.2.07.42.09.66.02.24,0,.5-.03.78-.12.24-.24.5-.36.78-.12.28-.22.58-.3.9-.16.6-.38,1.16-.66,1.68-.16.2-.34.4-.54.6-.2.2-.4.4-.6.6-.12.08-.22.18-.3.3-.08.12-.16.22-.24.3-.4.24-.72.52-.96.84-.24.32-.46.66-.66,1.02-.28.04-.56.09-.84.15-.28.06-.58.13-.9.21-.24.04-.48.11-.72.21-.24.1-.46.19-.66.27h-1.44c-.44-.2-.86-.28-1.26-.24-.4.04-.82.12-1.26.24-.4.08-.68.04-.84-.12-.28-.2-.57-.35-.87-.45-.3-.1-.59-.17-.87-.21-.4-.4-.82-.78-1.26-1.14-.44-.36-.84-.76-1.2-1.2,0-.12,0-.25-.03-.39-.02-.14-.03-.27-.03-.39,0-.32,0-.61.03-.87.02-.26.03-.53.03-.81.12-.56.33-1.1.63-1.62.3-.52.59-1.04.87-1.56.24.04.46.08.66.12.2.04.42.1.66.18.2.16.44.3.72.42.28.12.56.24.84.36.36.2.64.28.84.24.16,0,.3.02.42.06.12.04.26.08.42.12.48.2.94.14,1.38-.18.2-.12.39-.25.57-.39.18-.14.33-.33.45-.57v-.81c0-.3.02-.59.06-.87,0-.12-.02-.24-.06-.36s-.08-.25-.12-.39c-.04-.14-.08-.27-.12-.39l-.84-.66c-.16-.2-.28-.41-.36-.63-.08-.22-.22-.39-.42-.51l-1.44-.42c-.24-.12-.44-.26-.6-.42-.16-.16-.32-.3-.48-.42-.08-.08-.16-.14-.24-.18-.08-.04-.16-.08-.24-.12-.16-.04-.32-.08-.48-.12-.16-.04-.34-.1-.54-.18-.24-.2-.56-.38-.96-.54-.24-.28-.4-.56-.48-.84-.08-.28-.22-.54-.42-.78-.16-.2-.32-.42-.48-.66-.16-.24-.34-.48-.54-.72-.12-.44-.23-.89-.33-1.35-.1-.46-.21-.91-.33-1.35-.2-.6-.22-1.18-.06-1.74.08-.36.17-.74.27-1.14.1-.4.23-.8.39-1.2.24-.48.54-1.14.9-1.98.4-.64.93-1.23,1.59-1.77.66-.54,1.31-1.09,1.95-1.65.16-.08.34-.15.54-.21s.38-.11.54-.15c.48-.16.84-.29,1.08-.39.24-.1.51-.17.81-.21.3-.04.75-.06,1.35-.06h.12c.56-.2,1.11-.26,1.65-.18.54.08,1.07.2,1.59.36.12,0,.25.01.39.03.14.02.23.03.27.03.36.2.67.44.93.72.26.28.55.54.87.78.2.12.42.23.66.33.24.1.46.21.66.33.4.32.75.68,1.05,1.08.3.4.59.78.87,1.14.08.28.14.56.18.84.04.28.1.58.18.9Z"/>
    <path class="cls-10" d="M666.73,184.21c-.2.4-.38.8-.54,1.2-.16.4-.34.8-.54,1.2l-1.26,1.2c-.76.84-1.66,1.34-2.7,1.5-.52.08-1.05.11-1.59.09-.54-.02-1.09-.11-1.65-.27-.32-.08-.65-.19-.99-.33-.34-.14-.67-.29-.99-.45-.24-.12-.5-.21-.78-.27-.28-.06-.58-.11-.9-.15-.12-.08-.26-.17-.42-.27-.16-.1-.34-.21-.54-.33-.28-.48-.61-.92-.99-1.32-.38-.4-.67-.9-.87-1.5,0-.48-.02-.81-.06-.99-.04-.18-.16-.55-.36-1.11v-3.96c0-.32,0-.63-.03-.93-.02-.3-.07-.59-.15-.87-.04-.28-.05-.52-.03-.72.02-.2.05-.44.09-.72.12-.48.12-.98,0-1.5.12-.48.26-.96.42-1.44,0-.24-.06-.58-.18-1.02-.12-.44-.26-.86-.42-1.26-.2,0-.4-.02-.6-.06-.2-.04-.42-.08-.66-.12-.24.08-.49.16-.75.24-.26.08-.55.16-.87.24-.12.08-.3.12-.54.12-.04,0-.11-.05-.21-.15-.1-.1-.15-.17-.15-.21-.04-.12-.06-.24-.06-.36v-.36c-.04-.32-.06-.66-.06-1.02v-1.02c0-.32-.02-.63-.06-.93-.04-.3-.1-.59-.18-.87.04-.2.08-.39.12-.57.04-.18.08-.35.12-.51v-1.14c0-.32.05-.6.15-.84.1-.24.31-.46.63-.66.24-.08.51-.12.81-.12h.99c.32.04.65.03.99-.03s.65-.23.93-.51c.08-.08.19-.12.33-.12h.33c.8.04,1.5-.28,2.1-.96.04-.24.16-.58.36-1.02-.12-.28-.22-.59-.3-.93-.08-.34-.18-.67-.3-.99.08-.12.16-.24.24-.36.08-.12.14-.26.18-.42.08-.2.08-.39,0-.57s-.1-.33-.06-.45c-.08-.2-.12-.34-.12-.42s-.04-.22-.12-.42c.04-.08.08-.17.12-.27.04-.1.08-.19.12-.27.04-.16.08-.29.12-.39.04-.1.08-.23.12-.39h.66c.2.04.41.07.63.09.22.02.43.01.63-.03.08,0,.18.01.3.03.12.02.24.03.36.03.68.08,1.35.18,2.01.3s1.31.18,1.95.18c.08,0,.17.02.27.06.1.04.17.08.21.12.16.08.3.18.42.3-.04.16-.1.31-.18.45-.08.14-.14.27-.18.39-.04.16-.07.34-.09.54-.02.2-.05.4-.09.6-.04.28-.08.56-.12.84-.04.28-.1.6-.18.96.04.04.06.14.06.3s.02.3.06.42c-.04.28-.09.54-.15.78-.06.24-.11.52-.15.84.52.4,1.09.74,1.71,1.02.62.28,1.37.54,2.25.78.44.28.7.74.78,1.38,0,.92-.06,1.84-.18,2.76l-.12,1.08c-.04.36-.04.72,0,1.08-.52.32-1.14.48-1.86.48-.12,0-.24.02-.36.06-.12.04-.22.06-.3.06-.64.04-1.13.1-1.47.18-.34.08-.87.28-1.59.6-.12.16-.18.38-.18.66-.04.24-.07.48-.09.72-.02.24-.01.5.03.78,0,.04-.04.08-.12.12-.24.48-.42.84-.54,1.08-.12.24-.19.48-.21.72-.02.24-.03.64-.03,1.2v2.88c0,.2.02.32.06.36.04.36.22.66.54.9.16.04.31.08.45.12.14.04.25.14.33.3.36.48.77.73,1.23.75.46.02.95-.05,1.47-.21.16-.08.32-.16.48-.24.16-.08.32-.14.48-.18.32.08.52.26.6.54.08.28.22.52.42.72.2.2.37.42.51.66.14.24.29.48.45.72.08.24.18.51.3.81.12.3.22.63.3.99Z"/>
    <path class="cls-10" d="M698.35,172.15c.12.48.1.92-.06,1.32-.08.2-.14.4-.18.6-.04.2-.04.4,0,.6.04.04.05.09.03.15-.02.06-.03.13-.03.21-.16.32-.23.66-.21,1.02.02.36.05.7.09,1.02l-.6.84v.78c-.08.08-.18.17-.3.27-.12.1-.28.23-.48.39-.08.28-.19.58-.33.9-.14.32-.25.62-.33.9v.6c-.16.16-.36.3-.6.42-.24.12-.44.3-.6.54-.16.12-.32.22-.48.3-.16.08-.34.18-.54.3-.08.04-.17.05-.27.03-.1-.02-.19,0-.27.03-.6,0-.9.28-.9.84-.44.28-.87.58-1.29.9-.42.32-.85.64-1.29.96-.68.52-1.56.88-2.64,1.08-.36.04-.7.13-1.02.27-.32.14-.66.25-1.02.33-.08,0-.18-.02-.3-.06-.12-.04-.22-.04-.3,0-.48.04-.98,0-1.5-.12-.16-.04-.32-.04-.48,0-.16.04-.3.08-.42.12-.28-.04-.56-.08-.84-.12-.28-.04-.58-.08-.9-.12-.36-.16-.69-.34-.99-.54-.3-.2-.61-.38-.93-.54-.24-.08-.46-.22-.66-.42-.2-.2-.36-.4-.48-.6-.04-.08-.09-.15-.15-.21-.06-.06-.13-.13-.21-.21-.12-.08-.24-.15-.36-.21s-.24-.15-.36-.27c-.64-.44-1.21-.92-1.71-1.44-.5-.52-.87-1.16-1.11-1.92-.2-.52-.44-.98-.72-1.38-.08-.16-.17-.31-.27-.45-.1-.14-.19-.29-.27-.45.04-.08.1-.24.18-.48-.08-.12-.16-.24-.24-.36-.08-.12-.12-.26-.12-.42,0-.12-.01-.25-.03-.39-.02-.14,0-.29.03-.45.08-.28.1-.56.06-.84-.04-.28-.04-.56,0-.84.04-.24.03-.5-.03-.78-.06-.28-.03-.54.09-.78.08-.28.14-.54.18-.78.04-.24.1-.48.18-.72.08-.24.16-.47.24-.69.08-.22.16-.43.24-.63.08-.24.16-.48.24-.72.08-.24.2-.5.36-.78v-.3c0-.12.02-.2.06-.24.16-.32.28-.62.36-.9.08-.28.1-.56.06-.84.16-.2.3-.36.42-.48.12-.12.22-.26.3-.42.08-.2.17-.39.27-.57.1-.18.21-.35.33-.51.12-.32.3-.6.54-.84.16-.2.3-.37.42-.51.12-.14.22-.25.3-.33.12-.24.16-.45.12-.63-.04-.18-.06-.33-.06-.45.08-.2.14-.32.18-.36.12-.04.23-.1.33-.18.1-.08.21-.14.33-.18.32-.2.66-.4,1.02-.6.36-.2.72-.36,1.08-.48.36-.24.73-.41,1.11-.51.38-.1.77-.21,1.17-.33h.96c.32,0,.62.02.9.06h.54c.44.16.89.24,1.35.24s.91-.02,1.35-.06c.2,0,.41,0,.63-.03.22-.02.43-.03.63-.03.2.16.37.29.51.39.14.1.29.23.45.39.12.04.24.1.36.18.12.08.26.14.42.18.56.04,1.07.22,1.53.54.46.32.89.64,1.29.96v.33c0,.14.02.27.06.39,0,.2.12.38.36.54.12.04.26.06.42.06s.32.04.48.12c.08.16.19.34.33.54.14.2.27.4.39.6.16.16.32.32.48.48.16.16.28.34.36.54.08.08.15.18.21.3.06.12.11.22.15.3.12.12.24.24.36.36.12.12.2.28.24.48.08.28.2.56.36.84.16.28.28.58.36.9.04.12.11.24.21.36.1.12.21.26.33.42.08.36.15.74.21,1.14.06.4.17.78.33,1.14ZM689.95,174.31c.04-.28,0-.53-.12-.75-.12-.22-.16-.45-.12-.69,0-.08-.06-.18-.18-.3-.04-.08-.06-.24-.06-.48.04-.08.06-.19.06-.33v-.27c-.28-.44-.54-.85-.78-1.23-.24-.38-.5-.75-.78-1.11,0-.08-.04-.13-.12-.15-.08-.02-.16-.09-.24-.21-.68,0-1.42-.18-2.22-.54-.48-.24-1.06-.26-1.74-.06-.04,0-.09.02-.15.06-.06.04-.13.1-.21.18h-.3c-.64-.12-1.06.12-1.26.72-.08.16-.17.33-.27.51-.1.18-.17.37-.21.57-.04.16-.12.33-.24.51s-.22.35-.3.51c-.16.2-.3.42-.42.66-.12.24-.26.46-.42.66-.04.4-.13.8-.27,1.2-.14.4-.23.78-.27,1.14.12.2.24.41.36.63.12.22.22.43.3.63.24.52.34,1.02.3,1.5,0,.08.02.16.06.24.04.08.08.16.12.24.36.08.71.16,1.05.24.34.08.67.18.99.3.28.08.56.14.84.18.28.04.56,0,.84-.12h.18c.32.08.63.09.93.03s.63-.13.99-.21c.28-.2.57-.42.87-.66.3-.24.61-.44.93-.6.28-.56.62-1.06,1.02-1.5.4-.44.68-.94.84-1.5Z"/>
    <path class="cls-10" d="M743.95,174.31s-.05.09-.03.15c.02.06,0,.13-.03.21-.12.4-.16.78-.12,1.14,0,.44-.12.9-.36,1.38.08.16.15.33.21.51.06.18.11.37.15.57-.08.44-.17.9-.27,1.38-.1.48-.01.94.27,1.38-.04.24-.1.48-.18.72-.08.24-.16.46-.24.66-.04.2-.09.4-.15.6-.06.2-.13.46-.21.78,0-.08-.01-.1-.03-.06-.02.04,0,.1.03.18.16.64.16,1.26,0,1.86-.16.6-.36,1.2-.6,1.8-.04.04-.08.11-.12.21-.04.1-.1.19-.18.27-.44.76-.85,1.54-1.23,2.34-.38.8-.77,1.6-1.17,2.4-.04.16-.12.34-.24.54-.12.2-.22.4-.3.6-.16.24-.3.42-.42.54-.28.24-.58.49-.9.75-.32.26-.64.51-.96.75-.4.16-.74.38-1.02.66-.28.28-.54.62-.78,1.02-.28.08-.54.2-.78.36-.24.08-.46.24-.66.48-.08.16-.22.24-.42.24-.2.04-.37.14-.51.3-.14.16-.31.28-.51.36-.36.12-.68.32-.96.6-.36.24-.74.42-1.14.54-.2.04-.4.13-.6.27-.2.14-.38.25-.54.33-.08-.04-.16-.06-.24-.06l-1.8-1.8c-.08-.72-.15-1.25-.21-1.59-.06-.34-.16-.64-.3-.9-.14-.26-.39-.61-.75-1.05.04-.08.06-.14.06-.18s.02-.08.06-.12c.12-.08.26-.18.42-.3.16-.12.32-.2.48-.24.32-.2.6-.41.84-.63.24-.22.5-.43.78-.63.24-.2.5-.39.78-.57.28-.18.56-.35.84-.51.28-.2.55-.41.81-.63.26-.22.49-.47.69-.75.12-.16.24-.3.36-.42.12-.12.24-.24.36-.36.04-.16.06-.31.06-.45s.02-.27.06-.39c.16-.4.14-.86-.06-1.38v-.12l.42-.6s.06-.18.18-.66c0-.36-.01-.65-.03-.87-.02-.22-.03-.49-.03-.81-.16-.2-.27-.31-.33-.33-.06-.02-.13.01-.21.09-.16.16-.36.28-.6.36-.24.08-.48.16-.72.24-.04,0-.12.04-.24.12-.12.08-.22.1-.3.06l-.78.54s-.07.01-.09.03c-.02.02-.05.03-.09.03h-1.5c-.12-.16-.26-.3-.42-.42-.16-.12-.3-.26-.42-.42-.28-.08-.49-.09-.63-.03-.14.06-.31.09-.51.09l-1.02-.18h-.84c-.28-.2-.54-.39-.78-.57s-.5-.35-.78-.51c-.68.04-1.12.05-1.32.03-.2-.02-.54-.17-1.02-.45-.08-.12-.14-.24-.18-.36-.04-.12-.1-.24-.18-.36-.12-.24-.21-.49-.27-.75-.06-.26-.15-.49-.27-.69-.16-.16-.24-.38-.24-.66.04-.32,0-.61-.12-.87-.12-.26-.22-.53-.3-.81-.04-.28-.14-.54-.3-.78-.16-.24-.28-.48-.36-.72.04-.44-.08-.84-.36-1.2-.08-.56-.2-1.08-.36-1.56.2-.72.3-1.32.3-1.8,0-.32.03-.61.09-.87.06-.26.11-.53.15-.81-.04-.08-.08-.17-.12-.27-.04-.1-.1-.17-.18-.21h.06l.36-.36c.12-.08.22-.28.3-.6-.04-.16-.08-.31-.12-.45-.04-.14-.08-.29-.12-.45,0-.2.02-.32.06-.36.4-.32.64-.56.72-.72.08-.16.2-.5.36-1.02.04-.04.11-.08.21-.12.1-.04.17-.08.21-.12l.36-.24c.08-.2.17-.41.27-.63.1-.22.19-.47.27-.75.32-.32.67-.62,1.05-.9.38-.28.77-.54,1.17-.78.52-.32.86-.55,1.02-.69.16-.14.46-.43.9-.87.28-.12.57-.25.87-.39.3-.14.59-.33.87-.57.2-.12.4-.24.6-.36.2-.12.38-.22.54-.3.2.04.37.06.51.06h.39c.24-.04.42-.15.54-.33.12-.18.26-.33.42-.45.4-.12.84-.14,1.32-.06.2,0,.41.01.63.03.22.02.43.03.63.03.44,0,.87,0,1.29-.03.42-.02.81-.09,1.17-.21.32.2.61.41.87.63.26.22.53.37.81.45.08.12.16.22.24.3.08.08.14.16.18.24.16.24.32.26.48.06.08-.08.14-.14.18-.18.04-.04.1-.08.18-.12.04-.04.09-.09.15-.15.06-.06.11-.11.15-.15.2.16.42.33.66.51.24.18.46.35.66.51.2.16.41.33.63.51.22.18.43.33.63.45.16.16.42.28.78.36.08.16.16.32.24.48.08.16.16.32.24.48.2.36.39.72.57,1.08.18.36.39.7.63,1.02.44.56.72,1.18.84,1.86,0,.28-.05.56-.15.84-.1.28-.11.64-.03,1.08.08.2.17.43.27.69.1.26.19.53.27.81.08.4.09.77.03,1.11-.06.34-.13.69-.21,1.05.08.16.14.31.18.45.04.14.1.31.18.51ZM735.37,174.31c-.2-.28-.36-.56-.48-.84-.04-.2-.09-.4-.15-.6-.06-.2-.09-.38-.09-.54-.04-.2-.06-.41-.06-.63s-.02-.43-.06-.63c-.04-.2-.06-.41-.06-.63s-.1-.41-.3-.57c-.12-.08-.27-.14-.45-.18-.18-.04-.37-.1-.57-.18-.16-.16-.33-.31-.51-.45-.18-.14-.35-.25-.51-.33-.16-.04-.3-.06-.42-.06-.36.04-.71.09-1.05.15-.34.06-.69.09-1.05.09-.08,0-.18.02-.3.06-.12.04-.22.08-.3.12-.2.2-.43.33-.69.39-.26.06-.51.13-.75.21-.16.04-.34.12-.54.24-.2.12-.34.28-.42.48-.12.24-.27.41-.45.51-.18.1-.35.19-.51.27-.16.16-.25.31-.27.45-.02.14-.05.27-.09.39-.04.16-.1.29-.18.39-.08.1-.16.21-.24.33.24.76.46,1.39.66,1.89.2.5.44.99.72,1.47.04.16.05.29.03.39-.02.1,0,.21.09.33.28.04.54.04.78,0,.24-.04.46-.14.66-.3.04-.04.1-.05.18-.03.08.02.14.03.18.03.16.16.3.31.42.45.12.14.24.27.36.39.32.12.62.22.9.3.28.08.56.06.84-.06.24-.16.44-.37.6-.63.16-.26.38-.43.66-.51.16,0,.33.01.51.03.18.02.37.03.57.03.08-.08.19-.16.33-.24.14-.08.25-.16.33-.24.2-.2.39-.38.57-.54.18-.16.39-.3.63-.42.28-.2.44-.46.48-.78Z"/>
    <path class="cls-10" d="M775.45,172.15c.12.48.1.92-.06,1.32-.08.2-.14.4-.18.6-.04.2-.04.4,0,.6.04.04.05.09.03.15-.02.06-.03.13-.03.21-.16.32-.23.66-.21,1.02.02.36.05.7.09,1.02l-.6.84v.78c-.08.08-.18.17-.3.27-.12.1-.28.23-.48.39-.08.28-.19.58-.33.9-.14.32-.25.62-.33.9v.6c-.16.16-.36.3-.6.42-.24.12-.44.3-.6.54-.16.12-.32.22-.48.3-.16.08-.34.18-.54.3-.08.04-.17.05-.27.03-.1-.02-.19,0-.27.03-.6,0-.9.28-.9.84-.44.28-.87.58-1.29.9-.42.32-.85.64-1.29.96-.68.52-1.56.88-2.64,1.08-.36.04-.7.13-1.02.27-.32.14-.66.25-1.02.33-.08,0-.18-.02-.3-.06-.12-.04-.22-.04-.3,0-.48.04-.98,0-1.5-.12-.16-.04-.32-.04-.48,0-.16.04-.3.08-.42.12-.28-.04-.56-.08-.84-.12-.28-.04-.58-.08-.9-.12-.36-.16-.69-.34-.99-.54-.3-.2-.61-.38-.93-.54-.24-.08-.46-.22-.66-.42-.2-.2-.36-.4-.48-.6-.04-.08-.09-.15-.15-.21-.06-.06-.13-.13-.21-.21-.12-.08-.24-.15-.36-.21s-.24-.15-.36-.27c-.64-.44-1.21-.92-1.71-1.44-.5-.52-.87-1.16-1.11-1.92-.2-.52-.44-.98-.72-1.38-.08-.16-.17-.31-.27-.45-.1-.14-.19-.29-.27-.45.04-.08.1-.24.18-.48-.08-.12-.16-.24-.24-.36-.08-.12-.12-.26-.12-.42,0-.12-.01-.25-.03-.39-.02-.14,0-.29.03-.45.08-.28.1-.56.06-.84-.04-.28-.04-.56,0-.84.04-.24.03-.5-.03-.78-.06-.28-.03-.54.09-.78.08-.28.14-.54.18-.78.04-.24.1-.48.18-.72.08-.24.16-.47.24-.69.08-.22.16-.43.24-.63.08-.24.16-.48.24-.72.08-.24.2-.5.36-.78v-.3c0-.12.02-.2.06-.24.16-.32.28-.62.36-.9.08-.28.1-.56.06-.84.16-.2.3-.36.42-.48.12-.12.22-.26.3-.42.08-.2.17-.39.27-.57.1-.18.21-.35.33-.51.12-.32.3-.6.54-.84.16-.2.3-.37.42-.51.12-.14.22-.25.3-.33.12-.24.16-.45.12-.63-.04-.18-.06-.33-.06-.45.08-.2.14-.32.18-.36.12-.04.23-.1.33-.18.1-.08.21-.14.33-.18.32-.2.66-.4,1.02-.6.36-.2.72-.36,1.08-.48.36-.24.73-.41,1.11-.51.38-.1.77-.21,1.17-.33h.96c.32,0,.62.02.9.06h.54c.44.16.89.24,1.35.24s.91-.02,1.35-.06c.2,0,.41,0,.63-.03.22-.02.43-.03.63-.03.2.16.37.29.51.39.14.1.29.23.45.39.12.04.24.1.36.18.12.08.26.14.42.18.56.04,1.07.22,1.53.54.46.32.89.64,1.29.96v.33c0,.14.02.27.06.39,0,.2.12.38.36.54.12.04.26.06.42.06s.32.04.48.12c.08.16.19.34.33.54.14.2.27.4.39.6.16.16.32.32.48.48.16.16.28.34.36.54.08.08.15.18.21.3.06.12.11.22.15.3.12.12.24.24.36.36.12.12.2.28.24.48.08.28.2.56.36.84.16.28.28.58.36.9.04.12.11.24.21.36.1.12.21.26.33.42.08.36.15.74.21,1.14.06.4.17.78.33,1.14ZM767.05,174.31c.04-.28,0-.53-.12-.75-.12-.22-.16-.45-.12-.69,0-.08-.06-.18-.18-.3-.04-.08-.06-.24-.06-.48.04-.08.06-.19.06-.33v-.27c-.28-.44-.54-.85-.78-1.23-.24-.38-.5-.75-.78-1.11,0-.08-.04-.13-.12-.15-.08-.02-.16-.09-.24-.21-.68,0-1.42-.18-2.22-.54-.48-.24-1.06-.26-1.74-.06-.04,0-.09.02-.15.06-.06.04-.13.1-.21.18h-.3c-.64-.12-1.06.12-1.26.72-.08.16-.17.33-.27.51-.1.18-.17.37-.21.57-.04.16-.12.33-.24.51s-.22.35-.3.51c-.16.2-.3.42-.42.66-.12.24-.26.46-.42.66-.04.4-.13.8-.27,1.2-.14.4-.23.78-.27,1.14.12.2.24.41.36.63.12.22.22.43.3.63.24.52.34,1.02.3,1.5,0,.08.02.16.06.24.04.08.08.16.12.24.36.08.71.16,1.05.24.34.08.67.18.99.3.28.08.56.14.84.18.28.04.56,0,.84-.12h.18c.32.08.63.09.93.03s.63-.13.99-.21c.28-.2.57-.42.87-.66.3-.24.61-.44.93-.6.28-.56.62-1.06,1.02-1.5.4-.44.68-.94.84-1.5Z"/>
    <path class="cls-10" d="M823.33,185.59c.12.28.16.54.12.78-.04.24-.12.48-.24.72-.04.04-.12.09-.24.15s-.22.13-.3.21c-.16.04-.3.06-.42.06s-.26.04-.42.12c-.6.12-.96.44-1.08.96-.04.08-.12.18-.24.3-.28.04-.48.09-.6.15-.12.06-.36.19-.72.39-.28,0-.56.04-.84.12-.28.08-.54.24-.78.48-.08,0-.14,0-.18.03-.04.02-.1.03-.18.03-.16.08-.34.05-.54-.09-.2-.14-.3-.31-.3-.51v-.36c-.16-.08-.35-.08-.57,0-.22.08-.39,0-.51-.24v-.9c-.12-.08-.23-.15-.33-.21-.1-.06-.21-.11-.33-.15-.16-.32-.34-.66-.54-1.02-.2-.36-.4-.68-.6-.96-.16-.12-.3-.16-.42-.12-.12.04-.22.1-.3.18-.08.08-.14.17-.18.27-.04.1-.1.19-.18.27-.08.08-.14.18-.18.3-.04.12-.1.22-.18.3-.52.24-1.04.45-1.56.63-.52.18-1.02.33-1.5.45-.28.2-.56.38-.84.54-.28.16-.54.32-.78.48-.24.04-.48.1-.72.18-.24.08-.46.14-.66.18-.24-.12-.47-.15-.69-.09-.22.06-.49.13-.81.21-.36-.08-.74-.17-1.14-.27-.4-.1-.82-.19-1.26-.27-.12.04-.24.06-.36.06s-.22.02-.3.06c-.16-.08-.29-.16-.39-.24-.1-.08-.23-.14-.39-.18-.2-.08-.38-.08-.54,0-.16.08-.34.16-.54.24-.2-.08-.42-.13-.66-.15-.24-.02-.48-.05-.72-.09-.2-.2-.37-.38-.51-.54-.14-.16-.23-.36-.27-.6-.08-.08-.16-.15-.24-.21-.08-.06-.14-.11-.18-.15-.16-.56-.34-1.04-.54-1.44-.56-1.2-.94-2.52-1.14-3.96-.08-.08-.16-.17-.24-.27-.08-.1-.18-.21-.3-.33-.04-.36-.08-.71-.12-1.05-.04-.34-.1-.71-.18-1.11.08-.24.12-.46.12-.66-.08-.4-.16-.76-.24-1.08.16-.48.33-.96.51-1.44.18-.48.23-.98.15-1.5.08-.16.18-.31.3-.45.12-.14.22-.27.3-.39.36-.4.62-.86.78-1.38.12-.44.33-.82.63-1.14.3-.32.63-.58.99-.78.44-.2.87-.41,1.29-.63.42-.22.83-.41,1.23-.57.08,0,.19.01.33.03.14.02.25.01.33-.03.72-.12,1.34-.16,1.86-.12.24.04.48.04.72,0,.24-.04.46-.06.66-.06l1.26-.24c.24.04.48.1.72.18.24.08.48.06.72-.06.08,0,.15.01.21.03.06.02.11.03.15.03.2.08.38.17.54.27.16.1.34.15.54.15.44.08.72,0,.84-.24-.04-.68-.09-1.12-.15-1.32-.06-.2-.19-.52-.39-.96-.12-.24-.2-.49-.24-.75-.04-.26-.08-.51-.12-.75-.04-.16-.07-.31-.09-.45-.02-.14-.11-.29-.27-.45-.52-.16-1.16-.28-1.92-.36h-.36c-.36.16-.74.24-1.14.24s-.82.04-1.26.12c-.28.04-.57.12-.87.24s-.61.22-.93.3c-.32.16-.64.08-.96-.24-.12-.36-.17-.73-.15-1.11.02-.38.05-.77.09-1.17-.08-.28-.18-.61-.3-.99-.12-.38-.18-.83-.18-1.35l.06-.42c-.04-.08-.11-.16-.21-.24-.1-.08-.19-.14-.27-.18-.12-.12-.14-.24-.06-.36,0-.12.06-.18.18-.18.32-.08.62-.14.9-.18.28-.04.56-.08.84-.12l.72-.72c.08-.04.18-.06.3-.06.92.16,1.59.22,2.01.18.42-.04,1.07-.2,1.95-.48.44.04.87.1,1.29.18.42.08.85.1,1.29.06.12.12.25.23.39.33.14.1.29.21.45.33.2-.08.4-.15.6-.21s.38-.11.54-.15c.24.16.5.32.78.48.2.04.37,0,.51-.12.14-.12.29-.18.45-.18.36.04.65.21.87.51.22.3.47.55.75.75.24.16.47.36.69.6.22.24.45.46.69.66.08.12.16.24.24.36.08.12.14.24.18.36.2.16.38.29.54.39.16.1.3.23.42.39.2.16.41.28.63.36.22.08.39.22.51.42.08.2.16.41.24.63.08.22.22.41.42.57.12.4.24.81.36,1.23.12.42.14.85.06,1.29,0,.2-.02.38-.06.54.08.2.14.42.18.66s.1.46.18.66v.3c0,.12-.01.25-.03.39-.02.14-.01.25.03.33.08.24.18.42.3.54,0,.24-.1.46-.3.66-.08.04-.18.08-.3.12-.12.04-.22.1-.3.18-.48.28-.54.64-.18,1.08.04.04.11.11.21.21.1.1.17.21.21.33.04.16.06.33.06.51s.02.37.06.57c-.16.76-.46,1.48-.9,2.16.12.56.31,1.1.57,1.62.26.52.49,1.06.69,1.62.2.12.36.24.48.36.12.12.26.22.42.3.04.12.07.2.09.24.02.04.03.1.03.18,0,.4.05.8.15,1.2.1.4.23.78.39,1.14.16.36.32.7.48,1.02.16.32.36.64.6.96.2.16.36.38.48.66.12.28.22.52.3.72ZM797.47,187.33s-.06.04-.06.12c.08-.08.1-.12.06-.12ZM810.19,177.49c-.24-.6-.54-1-.9-1.2-.44-.2-.72-.46-.84-.78-.04-.16-.12-.26-.24-.3-.12-.04-.24-.08-.36-.12-.16,0-.35.01-.57.03-.22.02-.43.05-.63.09-.24,0-.47-.04-.69-.12-.22-.08-.43-.14-.63-.18-.36,0-.7.1-1.02.3-.16.12-.3.23-.42.33-.12.1-.24.23-.36.39l-.78,1.44c.08.24.18.45.3.63.12.18.12.43,0,.75.08.36.17.73.27,1.11.1.38.25.75.45,1.11.08.08.14.12.18.12.44.08.88.12,1.32.12s.86-.02,1.26-.06c.16,0,.28-.02.36-.06.44-.24.98-.46,1.62-.66.24-.04.46-.22.66-.54.16-.36.32-.75.48-1.17.16-.42.34-.83.54-1.23Z"/>
    <path class="cls-10" d="M844.45,183.67c0,.36-.16.66-.48.9-.32.32-.4.7-.24,1.14.08.28.12.58.12.9v.96c-.04.08-.09.17-.15.27-.06.1-.13.19-.21.27-.16.08-.26.12-.3.12-.32.04-.64.07-.96.09-.32.02-.64.03-.96.03h-.3c-.56-.16-1.11-.25-1.65-.27-.54-.02-1.07-.07-1.59-.15-.32-.08-.62-.12-.9-.12s-.56.04-.84.12c-.4-.2-.79-.41-1.17-.63-.38-.22-.79-.43-1.23-.63-.28-.44-.63-.81-1.05-1.11-.42-.3-.79-.67-1.11-1.11-.08-.2-.17-.4-.27-.6-.1-.2-.21-.38-.33-.54-.4-.6-.66-1.26-.78-1.98,0-.28-.1-.52-.3-.72-.32-.6-.4-1.16-.24-1.68.04-.08.05-.17.03-.27-.02-.1,0-.17.03-.21-.16-.2-.28-.36-.36-.48s-.16-.24-.24-.36c0-.28.02-.48.06-.6l-.48-.6c.08-.44.15-.89.21-1.35.06-.46.13-.89.21-1.29l-.42-.6c0-.16.06-.29.18-.39.12-.1.22-.23.3-.39.16-.44.26-.86.3-1.26.12-.48.18-.94.18-1.38-.08-.88-.08-1.74,0-2.58.08-.84.1-1.7.06-2.58.2-.88.28-1.76.24-2.64-.04-.88.02-1.74.18-2.58v-.3c-.12-.48-.12-.94,0-1.38.12-.44.26-.84.42-1.2-.04-.08-.06-.18-.06-.3s-.04-.22-.12-.3c.08-.28.2-.51.36-.69.16-.18.3-.35.42-.51.08-.16.15-.33.21-.51.06-.18.11-.35.15-.51l.42-.42c.36-.08.74-.1,1.14-.06.12.04.25.1.39.18.14.08.29.16.45.24.28.16.55.29.81.39.26.1.55.13.87.09.44.16.87.26,1.29.3.42.04.83.04,1.23,0h.24s.08.06.12.06c.2.04.38.14.54.3.16.16.2.34.12.54-.08.6-.13,1.2-.15,1.8-.02.6-.07,1.2-.15,1.8-.08.56-.16,1.13-.24,1.71-.08.58-.18,1.15-.3,1.71-.04.88-.11,1.75-.21,2.61-.1.86-.15,1.71-.15,2.55,0,.12,0,.22.03.3.02.08.03.16.03.24-.2.4-.35.8-.45,1.2-.1.4-.21.82-.33,1.26-.08.32-.08.66,0,1.02.12.48.17.96.15,1.44s-.07.98-.15,1.5v.36c.08.16.17.34.27.54.1.2.19.4.27.6-.04.12-.08.25-.12.39-.04.14-.08.27-.12.39.08.2.13.42.15.66.02.24.05.46.09.66.16.2.32.39.48.57.16.18.26.39.3.63,0,.08.04.18.12.3s.14.22.18.3c.08.2.21.36.39.48.18.12.35.22.51.3.28.04.54.1.78.18.24.08.5.16.78.24.16,0,.29,0,.39-.03.1-.02.21-.03.33-.03.08.04.19.08.33.12.14.04.27.08.39.12.04.04.08.09.12.15s.08.11.12.15c.08.32.3.66.66,1.02.2.16.39.33.57.51.18.18.31.39.39.63Z"/>
    <path class="cls-10" d="M876.13,172.15c.12.48.1.92-.06,1.32-.08.2-.14.4-.18.6-.04.2-.04.4,0,.6.04.04.05.09.03.15-.02.06-.03.13-.03.21-.16.32-.23.66-.21,1.02.02.36.05.7.09,1.02l-.6.84v.78c-.08.08-.18.17-.3.27-.12.1-.28.23-.48.39-.08.28-.19.58-.33.9-.14.32-.25.62-.33.9v.6c-.16.16-.36.3-.6.42-.24.12-.44.3-.6.54-.16.12-.32.22-.48.3-.16.08-.34.18-.54.3-.08.04-.17.05-.27.03-.1-.02-.19,0-.27.03-.6,0-.9.28-.9.84-.44.28-.87.58-1.29.9-.42.32-.85.64-1.29.96-.68.52-1.56.88-2.64,1.08-.36.04-.7.13-1.02.27-.32.14-.66.25-1.02.33-.08,0-.18-.02-.3-.06-.12-.04-.22-.04-.3,0-.48.04-.98,0-1.5-.12-.16-.04-.32-.04-.48,0-.16.04-.3.08-.42.12-.28-.04-.56-.08-.84-.12-.28-.04-.58-.08-.9-.12-.36-.16-.69-.34-.99-.54-.3-.2-.61-.38-.93-.54-.24-.08-.46-.22-.66-.42-.2-.2-.36-.4-.48-.6-.04-.08-.09-.15-.15-.21-.06-.06-.13-.13-.21-.21-.12-.08-.24-.15-.36-.21s-.24-.15-.36-.27c-.64-.44-1.21-.92-1.71-1.44-.5-.52-.87-1.16-1.11-1.92-.2-.52-.44-.98-.72-1.38-.08-.16-.17-.31-.27-.45-.1-.14-.19-.29-.27-.45.04-.08.1-.24.18-.48-.08-.12-.16-.24-.24-.36-.08-.12-.12-.26-.12-.42,0-.12-.01-.25-.03-.39-.02-.14,0-.29.03-.45.08-.28.1-.56.06-.84-.04-.28-.04-.56,0-.84.04-.24.03-.5-.03-.78-.06-.28-.03-.54.09-.78.08-.28.14-.54.18-.78.04-.24.1-.48.18-.72.08-.24.16-.47.24-.69.08-.22.16-.43.24-.63.08-.24.16-.48.24-.72.08-.24.2-.5.36-.78v-.3c0-.12.02-.2.06-.24.16-.32.28-.62.36-.9.08-.28.1-.56.06-.84.16-.2.3-.36.42-.48.12-.12.22-.26.3-.42.08-.2.17-.39.27-.57.1-.18.21-.35.33-.51.12-.32.3-.6.54-.84.16-.2.3-.37.42-.51.12-.14.22-.25.3-.33.12-.24.16-.45.12-.63-.04-.18-.06-.33-.06-.45.08-.2.14-.32.18-.36.12-.04.23-.1.33-.18.1-.08.21-.14.33-.18.32-.2.66-.4,1.02-.6.36-.2.72-.36,1.08-.48.36-.24.73-.41,1.11-.51.38-.1.77-.21,1.17-.33h.96c.32,0,.62.02.9.06h.54c.44.16.89.24,1.35.24s.91-.02,1.35-.06c.2,0,.41,0,.63-.03.22-.02.43-.03.63-.03.2.16.37.29.51.39.14.1.29.23.45.39.12.04.24.1.36.18.12.08.26.14.42.18.56.04,1.07.22,1.53.54.46.32.89.64,1.29.96v.33c0,.14.02.27.06.39,0,.2.12.38.36.54.12.04.26.06.42.06s.32.04.48.12c.08.16.19.34.33.54.14.2.27.4.39.6.16.16.32.32.48.48.16.16.28.34.36.54.08.08.15.18.21.3.06.12.11.22.15.3.12.12.24.24.36.36.12.12.2.28.24.48.08.28.2.56.36.84.16.28.28.58.36.9.04.12.11.24.21.36.1.12.21.26.33.42.08.36.15.74.21,1.14.06.4.17.78.33,1.14ZM867.73,174.31c.04-.28,0-.53-.12-.75-.12-.22-.16-.45-.12-.69,0-.08-.06-.18-.18-.3-.04-.08-.06-.24-.06-.48.04-.08.06-.19.06-.33v-.27c-.28-.44-.54-.85-.78-1.23-.24-.38-.5-.75-.78-1.11,0-.08-.04-.13-.12-.15-.08-.02-.16-.09-.24-.21-.68,0-1.42-.18-2.22-.54-.48-.24-1.06-.26-1.74-.06-.04,0-.09.02-.15.06-.06.04-.13.1-.21.18h-.3c-.64-.12-1.06.12-1.26.72-.08.16-.17.33-.27.51-.1.18-.17.37-.21.57-.04.16-.12.33-.24.51s-.22.35-.3.51c-.16.2-.3.42-.42.66-.12.24-.26.46-.42.66-.04.4-.13.8-.27,1.2-.14.4-.23.78-.27,1.14.12.2.24.41.36.63.12.22.22.43.3.63.24.52.34,1.02.3,1.5,0,.08.02.16.06.24.04.08.08.16.12.24.36.08.71.16,1.05.24.34.08.67.18.99.3.28.08.56.14.84.18.28.04.56,0,.84-.12h.18c.32.08.63.09.93.03s.63-.13.99-.21c.28-.2.57-.42.87-.66.3-.24.61-.44.93-.6.28-.56.62-1.06,1.02-1.5.4-.44.68-.94.84-1.5Z"/>
    <path class="cls-10" d="M905.11,179.71c0,.32,0,.65.03.99.02.34-.01.67-.09.99-.08.2-.1.38-.06.54.08.2.09.41.03.63-.06.22-.07.43-.03.63.08.28.1.59.06.93-.04.34-.04.67,0,.99-.16.28-.42.42-.78.42-.4,0-.83.02-1.29.06-.46.04-.91.14-1.35.3-.24.08-.5.12-.78.12h-.84c-.24-.16-.42-.3-.54-.42-.48.16-.88-.02-1.2-.54-.16-.24-.29-.5-.39-.78-.1-.28-.15-.58-.15-.9.04-.32.04-.64,0-.96-.04-.32-.04-.66,0-1.02.08-.6,0-1.18-.24-1.74-.04-.12-.08-.24-.12-.36s-.06-.24-.06-.36c0-.44-.02-.89-.06-1.35-.04-.46-.12-.89-.24-1.29-.04-.2-.07-.39-.09-.57-.02-.18-.03-.35-.03-.51-.12-.48-.38-.86-.78-1.14-.04-.32-.08-.61-.12-.87-.04-.26-.1-.55-.18-.87-.08-.08-.24-.2-.48-.36-.16-.12-.35-.22-.57-.3-.22-.08-.43-.18-.63-.3-.08-.08-.17-.19-.27-.33-.1-.14-.21-.27-.33-.39h-.36c-.16.04-.3.07-.42.09-.12.02-.28.01-.48-.03-.08-.04-.18-.05-.3-.03-.12.02-.22.03-.3.03-.2.28-.4.58-.6.9-.16.12-.31.23-.45.33-.14.1-.25.19-.33.27-.12.12-.18.24-.18.36l-.42,1.26c.08.24.08.47,0,.69-.08.22-.06.45.06.69.04.12.04.24,0,.36-.04.12-.08.22-.12.3-.12.16-.14.28-.06.36.08.08.14.18.18.3.04.04.08.12.12.24v1.38c0,.44-.08.88-.24,1.32.04.16.07.31.09.45.02.14.05.31.09.51-.04.24-.09.51-.15.81-.06.3-.07.61-.03.93.04.2.05.42.03.66-.02.24-.07.48-.15.72-.04.12-.04.24,0,.36.12.48.12.9,0,1.26s-.34.74-.66,1.14c-.04.04-.12.08-.24.12-.12.04-.22.08-.3.12-.08.08-.16.13-.24.15-.08.02-.16.05-.24.09-.16,0-.32,0-.48-.03-.16-.02-.3-.03-.42-.03-.16.04-.29.09-.39.15s-.25.15-.45.27c-.52-.08-1.05-.18-1.59-.3-.54-.12-1.07-.08-1.59.12-.24-.04-.44-.14-.6-.3-.16-.16-.3-.34-.42-.54-.16-.24-.26-.51-.3-.81-.04-.3-.1-.59-.18-.87.08-.68.12-1.15.12-1.41s-.06-.85-.18-1.77c.12-.64.2-1.29.24-1.95.04-.66.06-1.31.06-1.95v-2.58c0-.88.02-1.76.06-2.64,0-.24.02-.48.06-.72.04-.24.08-.46.12-.66.08-.44.16-.86.24-1.26.08-.4.18-.78.3-1.14.08-.28.22-.52.42-.72.2-.2.34-.44.42-.72.08-.56.25-1.05.51-1.47.26-.42.53-.83.81-1.23.2-.56.56-.78,1.08-.66.08,0,.12-.02.12-.06.12-.12.15-.28.09-.48-.06-.2-.01-.38.15-.54.36-.32.78-.57,1.26-.75.48-.18.92-.35,1.32-.51.36,0,.6.04.72.12.52.16,1.02.16,1.5,0,.36-.08.68.02.96.3.4.08.78.16,1.14.24.36.08.74.16,1.14.24.16-.04.32-.07.48-.09.16-.02.32-.05.48-.09.4.16.73.39.99.69.26.3.53.61.81.93.2.16.42.22.66.18.24-.04.5-.02.78.06.2.2.41.42.63.66.22.24.45.46.69.66.04.16.09.31.15.45.06.14.11.29.15.45.2.04.34.14.42.3.08.16.14.3.18.42.4.16.8.28,1.2.36.2.2.38.43.54.69.16.26.42.39.78.39.08.4.16.76.24,1.08.08.32.16.64.24.96.08.6.22,1.12.42,1.56.16.32.3.65.42.99.12.34.18.71.18,1.11.04.24.13.46.27.66.14.2.25.42.33.66-.04.16-.07.32-.09.48-.02.16-.03.34-.03.54,0,.16,0,.3.03.42.02.12.05.28.09.48,0,.08,0,.19.03.33.02.14,0,.25-.03.33-.08.28-.1.56-.06.84.04.28.06.54.06.78Z"/>
    <path class="cls-10" d="M936.25,167.35c-.04.4-.07.81-.09,1.23-.02.42-.07.83-.15,1.23-.04.4-.06.83-.06,1.29s-.08.93-.24,1.41c-.08.12-.18.25-.3.39-.12.14-.24.31-.36.51,0,.16,0,.3.03.42.02.12.05.26.09.42-.08.2-.2.37-.36.51-.16.14-.32.25-.48.33-.4.12-.77.24-1.11.36s-.69.22-1.05.3c-.56.08-1.14.09-1.74.03-.6-.06-1.2-.07-1.8-.03-.52,0-1.07.01-1.65.03-.58.02-1.17.03-1.77.03h-3.36c-.16.12-.33.16-.51.12-.18-.04-.35-.02-.51.06-.16-.08-.34-.09-.54-.03-.2.06-.4.05-.6-.03-.16.04-.31.07-.45.09-.14.02-.31.05-.51.09-.16-.04-.3-.09-.42-.15-.12-.06-.26-.03-.42.09.08.12.17.25.27.39.1.14.17.31.21.51.12.16.22.32.3.48.08.16.16.34.24.54.08.16.14.33.18.51.04.18.08.35.12.51.2.2.42.4.66.6.24.2.48.4.72.6.2.04.41.08.63.12.22.04.43.08.63.12.24.04.48.08.72.12.24.04.5.04.78,0,.28-.08.54-.07.78.03.24.1.5.17.78.21.36-.04.73-.08,1.11-.12.38-.04.75-.08,1.11-.12.16-.12.33-.23.51-.33.18-.1.35-.21.51-.33.52-.12,1.04-.1,1.56.06.12.2.27.4.45.6.18.2.35.42.51.66.24.36.48.71.72,1.05.24.34.4.73.48,1.17.08.2.2.4.36.6.16.2.28.38.36.54.04.2.03.38-.03.54-.06.16-.11.34-.15.54-.16.16-.36.3-.6.42-.04,0-.08.04-.12.12-.04.08-.1.14-.18.18-.24.16-.48.32-.72.48-.24.16-.46.32-.66.48-.56.48-1.14.72-1.74.72-.24,0-.42.02-.54.06-.2.04-.4.12-.6.24-.2.12-.42.22-.66.3-.2,0-.4.03-.6.09-.2.06-.4.11-.6.15-.12,0-.26-.01-.42-.03-.16-.02-.32-.03-.48-.03-.36.04-.72.02-1.08-.06-.36-.08-.72-.12-1.08-.12-.12-.04-.24-.08-.36-.12s-.24-.06-.36-.06c-.68.04-1.32-.07-1.92-.33-.6-.26-1.2-.53-1.8-.81-.48-.12-.82-.34-1.02-.66-.28-.32-.59-.59-.93-.81-.34-.22-.71-.41-1.11-.57-.24-.08-.48-.19-.72-.33-.24-.14-.5-.29-.78-.45-.04-.16-.1-.32-.18-.48-.08-.16-.16-.32-.24-.48-.08-.12-.19-.24-.33-.36-.14-.12-.27-.24-.39-.36-.12-.12-.22-.26-.3-.42-.2-.68-.4-1.35-.6-2.01-.2-.66-.46-1.31-.78-1.95.04-.28.07-.57.09-.87.02-.3,0-.63-.09-.99-.04-.08-.06-.18-.06-.3v-.3c0-.2,0-.37.03-.51.02-.14,0-.27-.03-.39-.04-.32-.08-.64-.12-.96-.04-.32-.02-.62.06-.9.08-.32.16-.64.24-.96.08-.32.18-.66.3-1.02-.04-.08-.06-.2-.06-.36s-.02-.32-.06-.48c.08-.44.16-.88.24-1.32.08-.44.18-.86.3-1.26.12-.24.25-.47.39-.69.14-.22.29-.45.45-.69.28-.48.5-.94.66-1.38.48-.24.77-.39.87-.45s.19-.15.27-.27c.08-.12.34-.36.78-.72-.04-.12.06-.3.3-.54.24-.24.32-.44.24-.6.36-.68.88-1.22,1.56-1.62.24-.16.47-.33.69-.51.22-.18.41-.35.57-.51.2-.12.39-.17.57-.15.18.02.35.03.51.03.12-.04.25-.07.39-.09.14-.02.29-.05.45-.09.08-.04.18-.08.3-.12.12-.04.22-.1.3-.18.08-.04.16-.08.24-.12.08-.04.16-.06.24-.06.36-.04.7-.14,1.02-.3.32-.16.62-.32.9-.48.6.24,1.22.32,1.86.24.4-.04.79-.02,1.17.06.38.08.73.18,1.05.3l.84-.24c.32.04.62.14.9.3.28.16.56.32.84.48h.54s.08.07.12.09c.04.02.08.05.12.09.44.4.86.77,1.26,1.11.4.34.82.69,1.26,1.05.6.4.98.88,1.14,1.44.16.24.3.42.42.54.48.4.9.94,1.26,1.62,0,.08,0,.19.03.33.02.14.03.27.03.39-.04.2,0,.4.12.6.12.2.2.42.24.66ZM928.63,169.33v-1.5c0-.2-.02-.32-.06-.36-.04-.12-.09-.24-.15-.36-.06-.12-.11-.2-.15-.24v-1.02l-.18-.18c-.16,0-.36-.04-.6-.12-.08-.36-.18-.64-.3-.84-.12-.16-.28-.26-.48-.3-.2-.04-.42-.1-.66-.18-.52.16-1.08.3-1.68.42-.6.12-1.18.28-1.74.48-.28.04-.54.06-.78.06s-.48.02-.72.06c-.4.16-.75.41-1.05.75-.3.34-.59.67-.87.99-.16.2-.3.42-.42.66-.12.24-.26.46-.42.66-.04.04-.06.16-.06.36.12.32.3.52.54.6.24.04.48.1.72.18.24.08.5.16.78.24.12-.04.23-.06.33-.06s.21-.02.33-.06c.48-.2.88-.22,1.2-.06.32.04.61.04.87,0,.26-.04.53-.08.81-.12.24.12.49.2.75.24.26.04.51.1.75.18.52.16,1.02.24,1.5.24s.96-.06,1.44-.18c.2-.2.3-.38.3-.54Z"/>
    <path class="cls-10" d="M952.93,182.53c-.12.2-.23.41-.33.63-.1.22-.23.43-.39.63l-.18,1.2c0,.08-.02.15-.06.21s-.08.13-.12.21c-.44.48-.76,1.16-.96,2.04-.16.28-.36.49-.6.63-.24.14-.52.25-.84.33l-1.44.48h-1.2c-.2,0-.41,0-.63.03-.22.02-.49.05-.81.09-.04,0-.12-.02-.24-.06-.12-.04-.22-.08-.3-.12-.08-.08-.19-.13-.33-.15-.14-.02-.29-.05-.45-.09-.16-.2-.31-.42-.45-.66-.14-.24-.35-.44-.63-.6l-.12-.12c-.24-.52-.54-1.01-.9-1.47-.36-.46-.6-1.01-.72-1.65.04-.08.08-.19.12-.33.04-.14.02-.25-.06-.33,0-.36-.02-.62-.06-.78.12-.32.24-.66.36-1.02s.26-.72.42-1.08c.24-.32.48-.62.72-.9.24-.28.48-.56.72-.84.96-.68,1.98-1.32,3.06-1.92.4.04.66.04.78,0,.12-.04.36-.2.72-.48.2,0,.38-.02.54-.06.16-.04.32.04.48.24.08.04.14.09.18.15.04.06.08.11.12.15h.06l.12.06.18.18c.16.24.36.36.6.36s.44.12.6.36c.2.24.4.45.6.63.2.18.4.37.6.57.08.16.14.28.18.36v.84c.08.16.17.32.27.48.1.16.19.34.27.54,0,.16.02.36.06.6.04.24.06.46.06.66ZM951.73,166.63c0,.44,0,.88.03,1.32.02.44-.03.88-.15,1.32-.16.52-.28,1.04-.36,1.56-.08.52-.18,1.04-.3,1.56-.12.12-.25.26-.39.42-.14.16-.27.32-.39.48-.32.08-.62.15-.9.21-.28.06-.56.15-.84.27-.28.08-.59.11-.93.09-.34-.02-.67-.03-.99-.03-.28,0-.56.01-.84.03-.28.02-.58.03-.9.03-.12.04-.24.05-.36.03-.12-.02-.24-.03-.36-.03-.28-.08-.48-.24-.6-.48-.08-.2-.18-.37-.3-.51-.12-.14-.28-.33-.48-.57-.04-.28-.07-.57-.09-.87-.02-.3-.03-.59-.03-.87,0-.24-.04-.49-.12-.75-.08-.26-.06-.51.06-.75-.16-.32-.18-.64-.06-.96.12-.32.14-.62.06-.9-.12-.32-.14-.62-.06-.9.08-.28.12-.56.12-.84-.04-.6-.05-1.19-.03-1.77.02-.58.03-1.15.03-1.71v-2.46c0-.84.04-1.7.12-2.58.08-.2.09-.4.03-.6-.06-.2-.09-.42-.09-.66,0-.2.03-.4.09-.6.06-.2.09-.38.09-.54,0-.2-.02-.37-.06-.51-.04-.14-.08-.29-.12-.45.08-.08.16-.18.24-.3.08-.12.16-.24.24-.36-.12-.16-.2-.32-.24-.48-.16-.2-.24-.44-.24-.72,0-.52.24-.78.72-.78.08-.04.18-.05.3-.03.12.02.22.03.3.03.16,0,.28-.02.36-.06,0-.12.04-.34.12-.66.12-.04.22-.08.3-.12.08-.04.16-.06.24-.06h4.86c.12,0,.24.04.36.12.08.04.16.1.24.18.04.16.09.31.15.45.06.14.09.31.09.51-.04.48-.02.95.06,1.41.08.46.08.93,0,1.41-.04.16-.04.33,0,.51.04.18.08.33.12.45.08.4.11.82.09,1.26-.02.44-.11.88-.27,1.32.12.32.22.66.3,1.02.08.36.08.76,0,1.2,0,.08,0,.19.03.33.02.14.05.27.09.39.12.52.19,1.03.21,1.53.02.5.05,1.01.09,1.53,0,.16-.01.35-.03.57-.02.22-.05.47-.09.75.08.2.18.44.3.72.12.28.18.58.18.9Z"/>
  </g>
  <g>
    <path class="cls-10" d="M773.57,526.59c-.08.48-.13.95-.15,1.41-.02.46-.03.93-.03,1.41,0,.56,0,1.1-.03,1.62-.02.52-.07,1.06-.15,1.62-.04.08-.06.2-.06.36.04.4.11.79.21,1.17.1.38.11.73.03,1.05-.08.2-.1.4-.06.6.04.2.02.4-.06.6-.04.08-.08.16-.12.24-.04.08-.08.16-.12.24-.2.04-.39.07-.57.09-.18.02-.37.03-.57.03-.08.04-.19.11-.33.21-.14.1-.27.19-.39.27-.16-.08-.29-.16-.39-.24-.1-.08-.21-.14-.33-.18-.08,0-.18,0-.3-.03-.12-.02-.22,0-.3.03-.28.12-.65.15-1.11.09-.46-.06-.85-.09-1.17-.09-.4,0-.77.05-1.11.15s-.69.23-1.05.39c-.28.16-.57.25-.87.27s-.61.09-.93.21c-.2.28-.28.54-.24.78.08.32.15.67.21,1.05.06.38,0,.77-.15,1.17,0,.16.02.26.06.3.16.4.24.8.24,1.2s-.04.82-.12,1.26c-.04.4-.06.79-.06,1.17s-.04.79-.12,1.23c-.08.44-.06.84.06,1.2.04.24.06.48.06.72v.66c-.04.28-.06.28-.06,0v.18s-.01.07-.03.09c-.02.02-.03.05-.03.09.04.68.05,1.19.03,1.53-.02.34-.05.64-.09.9-.04.26-.12.65-.24,1.17v.3c.16.64.24,1.29.24,1.95s-.02,1.31-.06,1.95c0,.44,0,.88.03,1.32.02.44.11.9.27,1.38-.04.24-.1.51-.18.81-.08.3-.18.59-.3.87-.04.16-.11.3-.21.42-.1.12-.25.26-.45.42-.96-.08-1.86,0-2.7.24-.44.16-.9.1-1.38-.18l-.12-.12c-.6-.36-1.18-.42-1.74-.18-.24.12-.48.16-.72.12-.24-.04-.46-.06-.66-.06-.28,0-.52.1-.72.3s-.46.22-.78.06c-.04-.32-.01-.62.09-.9.1-.28.17-.6.21-.96-.04-.28-.11-.58-.21-.9-.1-.32-.19-.64-.27-.96.08-.2.14-.39.18-.57.04-.18.06-.35.06-.51.04-.2.05-.41.03-.63-.02-.22-.03-.43-.03-.63.04-.64.05-1.25.03-1.83-.02-.58-.07-1.17-.15-1.77-.08-.48-.13-.95-.15-1.41-.02-.46-.05-.95-.09-1.47.12-.16.23-.32.33-.48.1-.16.23-.32.39-.48l.06-.48v-.6c-.04-.56-.04-1.15,0-1.77.04-.62.12-1.21.24-1.77-.04-.44-.1-.87-.18-1.29-.08-.42-.22-.83-.42-1.23.08-.2.17-.4.27-.6.1-.2.17-.38.21-.54-.04-.32-.03-.6.03-.84.06-.24.03-.5-.09-.78-.04-.12-.14-.22-.3-.3-.28,0-.56-.02-.84-.06-.28-.04-.56-.06-.84-.06s-.55-.04-.81-.12c-.26-.08-.53-.08-.81,0-.24.12-.47.13-.69.03-.22-.1-.45-.13-.69-.09h-1.56l-1.5-.24c-.08,0-.18-.06-.3-.18s-.18-.24-.18-.36v-.42c.08-.24.15-.49.21-.75.06-.26.05-.53-.03-.81-.04-.04-.05-.11-.03-.21.02-.1.03-.17.03-.21.16-.72.24-1.56.24-2.52s-.04-1.8-.12-2.52v-.72c0-.24.04-.46.12-.66.2-.2.4-.31.6-.33.2-.02.4-.05.6-.09.2-.08.38-.17.54-.27.16-.1.34-.17.54-.21.92-.32,1.78-.32,2.58,0l.42.12c.36-.16.74-.23,1.14-.21.4.02.82-.07,1.26-.27.08,0,.21.01.39.03.18.02.37.03.57.03.36-.16.73-.32,1.11-.48.38-.16.75-.4,1.11-.72.64-.08,1.27-.1,1.89-.06.62.04,1.21-.04,1.77-.24.28.04.53.11.75.21.22.1.41.19.57.27.28,0,.5-.09.66-.27.16-.18.4-.29.72-.33.32-.08.78-.06,1.38.06.24.04.49.15.75.33.26.18.53.25.81.21.2-.12.37-.24.51-.36.14-.12.31-.24.51-.36.24,0,.5.05.78.15.28.1.54.13.78.09.28-.04.55-.09.81-.15.26-.06.59-.09.99-.09.16.04.32.09.48.15.16.06.32.13.48.21.24-.08.49-.14.75-.18.26-.04.53-.08.81-.12.08.12.16.24.24.36s.14.22.18.3Z"/>
    <path class="cls-10" d="M804.47,558.51c.12.28.16.54.12.78s-.12.48-.24.72c-.04.04-.12.09-.24.15-.12.06-.22.13-.3.21-.16.04-.3.06-.42.06s-.26.04-.42.12c-.6.12-.96.44-1.08.96-.04.08-.12.18-.24.3-.28.04-.48.09-.6.15-.12.06-.36.19-.72.39-.28,0-.56.04-.84.12-.28.08-.54.24-.78.48-.08,0-.14,0-.18.03-.04.02-.1.03-.18.03-.16.08-.34.05-.54-.09-.2-.14-.3-.31-.3-.51v-.36c-.16-.08-.35-.08-.57,0-.22.08-.39,0-.51-.24v-.9c-.12-.08-.23-.15-.33-.21-.1-.06-.21-.11-.33-.15-.16-.32-.34-.66-.54-1.02-.2-.36-.4-.68-.6-.96-.16-.12-.3-.16-.42-.12s-.22.1-.3.18c-.08.08-.14.17-.18.27-.04.1-.1.19-.18.27-.08.08-.14.18-.18.3-.04.12-.1.22-.18.3-.52.24-1.04.45-1.56.63-.52.18-1.02.33-1.5.45-.28.2-.56.38-.84.54-.28.16-.54.32-.78.48-.24.04-.48.1-.72.18s-.46.14-.66.18c-.24-.12-.47-.15-.69-.09-.22.06-.49.13-.81.21-.36-.08-.74-.17-1.14-.27-.4-.1-.82-.19-1.26-.27-.12.04-.24.06-.36.06s-.22.02-.3.06c-.16-.08-.29-.16-.39-.24-.1-.08-.23-.14-.39-.18-.2-.08-.38-.08-.54,0-.16.08-.34.16-.54.24-.2-.08-.42-.13-.66-.15-.24-.02-.48-.05-.72-.09-.2-.2-.37-.38-.51-.54-.14-.16-.23-.36-.27-.6-.08-.08-.16-.15-.24-.21-.08-.06-.14-.11-.18-.15-.16-.56-.34-1.04-.54-1.44-.56-1.2-.94-2.52-1.14-3.96-.08-.08-.16-.17-.24-.27-.08-.1-.18-.21-.3-.33-.04-.36-.08-.71-.12-1.05s-.1-.71-.18-1.11c.08-.24.12-.46.12-.66-.08-.4-.16-.76-.24-1.08.16-.48.33-.96.51-1.44.18-.48.23-.98.15-1.5.08-.16.18-.31.3-.45.12-.14.22-.27.3-.39.36-.4.62-.86.78-1.38.12-.44.33-.82.63-1.14.3-.32.63-.58.99-.78.44-.2.87-.41,1.29-.63s.83-.41,1.23-.57c.08,0,.19,0,.33.03.14.02.25,0,.33-.03.72-.12,1.34-.16,1.86-.12.24.04.48.04.72,0,.24-.04.46-.06.66-.06l1.26-.24c.24.04.48.1.72.18.24.08.48.06.72-.06.08,0,.15,0,.21.03.06.02.11.03.15.03.2.08.38.17.54.27s.34.15.54.15c.44.08.72,0,.84-.24-.04-.68-.09-1.12-.15-1.32-.06-.2-.19-.52-.39-.96-.12-.24-.2-.49-.24-.75-.04-.26-.08-.51-.12-.75-.04-.16-.07-.31-.09-.45-.02-.14-.11-.29-.27-.45-.52-.16-1.16-.28-1.92-.36h-.36c-.36.16-.74.24-1.14.24s-.82.04-1.26.12c-.28.04-.57.12-.87.24s-.61.22-.93.3c-.32.16-.64.08-.96-.24-.12-.36-.17-.73-.15-1.11.02-.38.05-.77.09-1.17-.08-.28-.18-.61-.3-.99-.12-.38-.18-.83-.18-1.35l.06-.42c-.04-.08-.11-.16-.21-.24-.1-.08-.19-.14-.27-.18-.12-.12-.14-.24-.06-.36,0-.12.06-.18.18-.18.32-.08.62-.14.9-.18.28-.04.56-.08.84-.12l.72-.72c.08-.04.18-.06.3-.06.92.16,1.59.22,2.01.18s1.07-.2,1.95-.48c.44.04.87.1,1.29.18s.85.1,1.29.06c.12.12.25.23.39.33.14.1.29.21.45.33.2-.08.4-.15.6-.21.2-.06.38-.11.54-.15.24.16.5.32.78.48.2.04.37,0,.51-.12.14-.12.29-.18.45-.18.36.04.65.21.87.51.22.3.47.55.75.75.24.16.47.36.69.6s.45.46.69.66c.08.12.16.24.24.36.08.12.14.24.18.36.2.16.38.29.54.39.16.1.3.23.42.39.2.16.41.28.63.36s.39.22.51.42c.08.2.16.41.24.63s.22.41.42.57c.12.4.24.81.36,1.23s.14.85.06,1.29c0,.2-.02.38-.06.54.08.2.14.42.18.66s.1.46.18.66v.3c0,.12-.01.25-.03.39-.02.14-.01.25.03.33.08.24.18.42.3.54,0,.24-.1.46-.3.66-.08.04-.18.08-.3.12-.12.04-.22.1-.3.18-.48.28-.54.64-.18,1.08.04.04.11.11.21.21.1.1.17.21.21.33.04.16.06.33.06.51s.02.37.06.57c-.16.76-.46,1.48-.9,2.16.12.56.31,1.1.57,1.62.26.52.49,1.06.69,1.62.2.12.36.24.48.36s.26.22.42.3c.04.12.07.2.09.24.02.04.03.1.03.18,0,.4.05.8.15,1.2.1.4.23.78.39,1.14.16.36.32.7.48,1.02.16.32.36.64.6.96.2.16.36.38.48.66.12.28.22.52.3.72ZM778.61,560.25s-.06.04-.06.12c.08-.08.1-.12.06-.12ZM791.33,550.41c-.24-.6-.54-1-.9-1.2-.44-.2-.72-.46-.84-.78-.04-.16-.12-.26-.24-.3-.12-.04-.24-.08-.36-.12-.16,0-.35.01-.57.03-.22.02-.43.05-.63.09-.24,0-.47-.04-.69-.12-.22-.08-.43-.14-.63-.18-.36,0-.7.1-1.02.3-.16.12-.3.23-.42.33-.12.1-.24.23-.36.39l-.78,1.44c.08.24.18.45.3.63s.12.43,0,.75c.08.36.17.73.27,1.11s.25.75.45,1.11c.08.08.14.12.18.12.44.08.88.12,1.32.12s.86-.02,1.26-.06c.16,0,.28-.02.36-.06.44-.24.98-.46,1.62-.66.24-.04.46-.22.66-.54.16-.36.32-.75.48-1.17.16-.42.34-.83.54-1.23Z"/>
    <path class="cls-10" d="M833.39,557.43c-.44.68-1,1.14-1.68,1.38-.44.16-.86.36-1.26.6-.4.24-.8.5-1.2.78-.08.16-.24.26-.48.3-.12-.04-.26-.08-.42-.12-.16-.04-.34-.08-.54-.12l-1.02-.18c-.28-.2-.52-.41-.72-.63s-.4-.45-.6-.69c-.4-.48-.68-.78-.84-.9-.16-.12-.52-.32-1.08-.6-.2-.44-.38-.89-.54-1.35-.16-.46-.22-.71-.18-.75.16-.08.17-.25.03-.51-.14-.26-.25-.41-.33-.45-.24-.16-.38-.24-.42-.24-.24-.04-.5-.06-.78-.06h-.84c-.16-.12-.32-.22-.48-.3-.16-.08-.34-.16-.54-.24-.28.04-.48.17-.6.39s-.22.43-.3.63c-.04.12-.06.3-.06.54,0,.28,0,.58.03.9.02.32-.01.64-.09.96-.08.28-.13.56-.15.84-.02.28-.03.58-.03.9-.04.16-.08.34-.12.54-.04.2-.1.4-.18.6-.16.28-.27.58-.33.9-.06.32-.19.6-.39.84-.96.24-1.57.38-1.83.42-.26.04-.69.04-1.29,0-.08.04-.16.08-.24.12s-.18.08-.3.12c-.28-.12-.58-.27-.9-.45-.32-.18-.64-.35-.96-.51-.28-.16-.42-.38-.42-.66-.04-.68-.13-1.35-.27-2.01-.14-.66-.19-1.33-.15-2.01-.12-.48-.17-.98-.15-1.5.02-.52-.01-1.04-.09-1.56-.04-.16-.06-.31-.06-.45v-.45c.08-.32.14-.68.18-1.08-.04-.08-.09-.19-.15-.33-.06-.14-.13-.25-.21-.33-.12-.4-.16-.76-.12-1.08.04-.32.07-.63.09-.93.02-.3-.01-.63-.09-.99,0-.2,0-.37.03-.51.02-.14.05-.29.09-.45.2-.48.18-.98-.06-1.5-.08-.32-.18-.64-.3-.96-.12-.32-.24-.64-.36-.96v-.54c0-.2.02-.4.06-.6,0-.44,0-.87.03-1.29.02-.42,0-.83-.03-1.23v-.36c.08-.28.13-.57.15-.87.02-.3.05-.59.09-.87.12-.32.19-.66.21-1.02.02-.36.05-.68.09-.96,0-.68.06-1.32.18-1.92.08-.16.12-.31.12-.45v-.39c0-.2-.03-.38-.09-.54-.06-.16-.09-.32-.09-.48,0-.2.03-.39.09-.57.06-.18.09-.35.09-.51v-2.04c.04-.4.06-.8.06-1.2s.02-.82.06-1.26c-.04-.04-.08-.1-.12-.18-.04-.08-.1-.18-.18-.3-.08-.24-.02-.36.18-.36.8-.32,1.58-.68,2.34-1.08.08,0,.14,0,.18-.03.04-.02.08-.03.12-.03.36-.08.71-.15,1.05-.21.34-.06.65-.19.93-.39.08-.12.26-.18.54-.18.44,0,.82-.08,1.14-.24.28-.08.52-.09.72-.03.2.06.4.13.6.21v.48c0,.2.02.32.06.36,0,.08.04.12.12.12.6.48.9,1.16.9,2.04,0,.16,0,.32.03.48.02.16.05.34.09.54v.48c-.04.36-.1.7-.18,1.02-.08.32-.14.64-.18.96.08.4.15.81.21,1.23s0,.83-.15,1.23v.54c.08.28.1.56.06.84-.04.28-.06.58-.06.9v.66c.12.4.15.8.09,1.2-.06.4-.13.78-.21,1.14.04.2.07.39.09.57.02.18.05.37.09.57-.04.2-.08.41-.12.63-.04.22-.08.43-.12.63,0,.28,0,.55.03.81.02.26.05.55.09.87-.04.2-.08.43-.12.69-.04.26-.1.51-.18.75,0,.12.08.22.24.3.04,0,.08-.02.12-.06.16,0,.26-.06.3-.18.32-.36.7-.7,1.14-1.02.2-.12.38-.26.54-.42.16-.16.36-.3.6-.42.12-.04.3-.18.54-.42.32-.24.64-.48.96-.72s.66-.42,1.02-.54c.36-.44.62-.82.78-1.14.2-.08.38-.17.54-.27.16-.1.28-.17.36-.21.12-.12.22-.24.3-.36l.24-.72c.08-.24.18-.48.3-.72.28-.24.55-.48.81-.72.26-.24.53-.5.81-.78.24-.04.46,0,.66.09.2.1.42.19.66.27.4.64.87,1.22,1.41,1.74.54.52,1.09,1.02,1.65,1.5.2.04.36.24.48.6.12.36.12.66,0,.9-.12.04-.25.12-.39.24s-.31.22-.51.3c-.28.56-.59,1.12-.93,1.68-.34.56-.67,1.14-.99,1.74-.12.24-.24.47-.36.69-.12.22-.28.41-.48.57-.16.08-.26.18-.3.3-.04.12-.1.26-.18.42-.16.4-.34.74-.54,1.02-.2.28-.44.56-.72.84-.12.08-.24.2-.36.36-.12.16-.22.3-.3.42-.04.04-.06.1-.06.18.04.4.18.71.42.93.24.22.38.49.42.81.2.08.39.18.57.3.18.12.35.22.51.3.36.48.76.95,1.2,1.41.44.46.86.91,1.26,1.35.4.4.76.83,1.08,1.29.32.46.58.95.78,1.47.08.16.13.32.15.48.02.16,0,.32-.09.48Z"/>
    <path class="cls-10" d="M864.59,540.27c-.04.4-.07.81-.09,1.23-.02.42-.07.83-.15,1.23-.04.4-.06.83-.06,1.29s-.08.93-.24,1.41c-.08.12-.18.25-.3.39-.12.14-.24.31-.36.51,0,.16,0,.3.03.42.02.12.05.26.09.42-.08.2-.2.37-.36.51-.16.14-.32.25-.48.33-.4.12-.77.24-1.11.36s-.69.22-1.05.3c-.56.08-1.14.09-1.74.03-.6-.06-1.2-.07-1.8-.03-.52,0-1.07.01-1.65.03-.58.02-1.17.03-1.77.03h-3.36c-.16.12-.33.16-.51.12-.18-.04-.35-.02-.51.06-.16-.08-.34-.09-.54-.03-.2.06-.4.05-.6-.03-.16.04-.31.07-.45.09-.14.02-.31.05-.51.09-.16-.04-.3-.09-.42-.15-.12-.06-.26-.03-.42.09.08.12.17.25.27.39.1.14.17.31.21.51.12.16.22.32.3.48.08.16.16.34.24.54.08.16.14.33.18.51.04.18.08.35.12.51.2.2.42.4.66.6.24.2.48.4.72.6.2.04.41.08.63.12.22.04.43.08.63.12.24.04.48.08.72.12.24.04.5.04.78,0,.28-.08.54-.07.78.03.24.1.5.17.78.21.36-.04.73-.08,1.11-.12.38-.04.75-.08,1.11-.12.16-.12.33-.23.51-.33.18-.1.35-.21.51-.33.52-.12,1.04-.1,1.56.06.12.2.27.4.45.6.18.2.35.42.51.66.24.36.48.71.72,1.05.24.34.4.73.48,1.17.08.2.2.4.36.6.16.2.28.38.36.54.04.2.03.38-.03.54-.06.16-.11.34-.15.54-.16.16-.36.3-.6.42-.04,0-.08.04-.12.12-.04.08-.1.14-.18.18-.24.16-.48.32-.72.48-.24.16-.46.32-.66.48-.56.48-1.14.72-1.74.72-.24,0-.42.02-.54.06-.2.04-.4.12-.6.24-.2.12-.42.22-.66.3-.2,0-.4.03-.6.09-.2.06-.4.11-.6.15-.12,0-.26,0-.42-.03-.16-.02-.32-.03-.48-.03-.36.04-.72.02-1.08-.06-.36-.08-.72-.12-1.08-.12-.12-.04-.24-.08-.36-.12-.12-.04-.24-.06-.36-.06-.68.04-1.32-.07-1.92-.33-.6-.26-1.2-.53-1.8-.81-.48-.12-.82-.34-1.02-.66-.28-.32-.59-.59-.93-.81-.34-.22-.71-.41-1.11-.57-.24-.08-.48-.19-.72-.33-.24-.14-.5-.29-.78-.45-.04-.16-.1-.32-.18-.48-.08-.16-.16-.32-.24-.48-.08-.12-.19-.24-.33-.36-.14-.12-.27-.24-.39-.36-.12-.12-.22-.26-.3-.42-.2-.68-.4-1.35-.6-2.01-.2-.66-.46-1.31-.78-1.95.04-.28.07-.57.09-.87s0-.63-.09-.99c-.04-.08-.06-.18-.06-.3v-.3c0-.2,0-.37.03-.51.02-.14,0-.27-.03-.39-.04-.32-.08-.64-.12-.96-.04-.32-.02-.62.06-.9.08-.32.16-.64.24-.96s.18-.66.3-1.02c-.04-.08-.06-.2-.06-.36s-.02-.32-.06-.48c.08-.44.16-.88.24-1.32.08-.44.18-.86.3-1.26.12-.24.25-.47.39-.69.14-.22.29-.45.45-.69.28-.48.5-.94.66-1.38.48-.24.77-.39.87-.45.1-.06.19-.15.27-.27.08-.12.34-.36.78-.72-.04-.12.06-.3.3-.54.24-.24.32-.44.24-.6.36-.68.88-1.22,1.56-1.62.24-.16.47-.33.69-.51.22-.18.41-.35.57-.51.2-.12.39-.17.57-.15.18.02.35.03.51.03.12-.04.25-.07.39-.09.14-.02.29-.05.45-.09.08-.04.18-.08.3-.12.12-.04.22-.1.3-.18.08-.04.16-.08.24-.12.08-.04.16-.06.24-.06.36-.04.7-.14,1.02-.3.32-.16.62-.32.9-.48.6.24,1.22.32,1.86.24.4-.04.79-.02,1.17.06.38.08.73.18,1.05.3l.84-.24c.32.04.62.14.9.3.28.16.56.32.84.48h.54s.08.07.12.09c.04.02.08.05.12.09.44.4.86.77,1.26,1.11.4.34.82.69,1.26,1.05.6.4.98.88,1.14,1.44.16.24.3.42.42.54.48.4.9.94,1.26,1.62,0,.08,0,.19.03.33.02.14.03.27.03.39-.04.2,0,.4.12.6s.2.42.24.66ZM856.97,542.25v-1.5c0-.2-.02-.32-.06-.36-.04-.12-.09-.24-.15-.36-.06-.12-.11-.2-.15-.24v-1.02l-.18-.18c-.16,0-.36-.04-.6-.12-.08-.36-.18-.64-.3-.84-.12-.16-.28-.26-.48-.3-.2-.04-.42-.1-.66-.18-.52.16-1.08.3-1.68.42-.6.12-1.18.28-1.74.48-.28.04-.54.06-.78.06s-.48.02-.72.06c-.4.16-.75.41-1.05.75-.3.34-.59.67-.87.99-.16.2-.3.42-.42.66-.12.24-.26.46-.42.66-.04.04-.06.16-.06.36.12.32.3.52.54.6.24.04.48.1.72.18.24.08.5.16.78.24.12-.04.23-.06.33-.06s.21-.02.33-.06c.48-.2.88-.22,1.2-.06.32.04.61.04.87,0,.26-.04.53-.08.81-.12.24.12.49.2.75.24.26.04.51.1.75.18.52.16,1.02.24,1.5.24s.96-.06,1.44-.18c.2-.2.3-.38.3-.54Z"/>
    <path class="cls-10" d="M903.17,557.13c-.2.4-.38.8-.54,1.2-.16.4-.34.8-.54,1.2l-1.26,1.2c-.76.84-1.66,1.34-2.7,1.5-.52.08-1.05.11-1.59.09-.54-.02-1.09-.11-1.65-.27-.32-.08-.65-.19-.99-.33-.34-.14-.67-.29-.99-.45-.24-.12-.5-.21-.78-.27-.28-.06-.58-.11-.9-.15-.12-.08-.26-.17-.42-.27-.16-.1-.34-.21-.54-.33-.28-.48-.61-.92-.99-1.32-.38-.4-.67-.9-.87-1.5,0-.48-.02-.81-.06-.99-.04-.18-.16-.55-.36-1.11v-3.96c0-.32,0-.63-.03-.93-.02-.3-.07-.59-.15-.87-.04-.28-.05-.52-.03-.72.02-.2.05-.44.09-.72.12-.48.12-.98,0-1.5.12-.48.26-.96.42-1.44,0-.24-.06-.58-.18-1.02-.12-.44-.26-.86-.42-1.26-.2,0-.4-.02-.6-.06-.2-.04-.42-.08-.66-.12-.24.08-.49.16-.75.24-.26.08-.55.16-.87.24-.12.08-.3.12-.54.12-.04,0-.11-.05-.21-.15-.1-.1-.15-.17-.15-.21-.04-.12-.06-.24-.06-.36v-.36c-.04-.32-.06-.66-.06-1.02v-1.02c0-.32-.02-.63-.06-.93-.04-.3-.1-.59-.18-.87.04-.2.08-.39.12-.57.04-.18.08-.35.12-.51v-1.14c0-.32.05-.6.15-.84.1-.24.31-.46.63-.66.24-.08.51-.12.81-.12h.99c.32.04.65.03.99-.03.34-.06.65-.23.93-.51.08-.08.19-.12.33-.12h.33c.8.04,1.5-.28,2.1-.96.04-.24.16-.58.36-1.02-.12-.28-.22-.59-.3-.93s-.18-.67-.3-.99c.08-.12.16-.24.24-.36.08-.12.14-.26.18-.42.08-.2.08-.39,0-.57-.08-.18-.1-.33-.06-.45-.08-.2-.12-.34-.12-.42s-.04-.22-.12-.42c.04-.08.08-.17.12-.27.04-.1.08-.19.12-.27.04-.16.08-.29.12-.39.04-.1.08-.23.12-.39h.66c.2.04.41.07.63.09.22.02.43.01.63-.03.08,0,.18,0,.3.03.12.02.24.03.36.03.68.08,1.35.18,2.01.3s1.31.18,1.95.18c.08,0,.17.02.27.06.1.04.17.08.21.12.16.08.3.18.42.3-.04.16-.1.31-.18.45-.08.14-.14.27-.18.39-.04.16-.07.34-.09.54-.02.2-.05.4-.09.6-.04.28-.08.56-.12.84-.04.28-.1.6-.18.96.04.04.06.14.06.3s.02.3.06.42c-.04.28-.09.54-.15.78-.06.24-.11.52-.15.84.52.4,1.09.74,1.71,1.02.62.28,1.37.54,2.25.78.44.28.7.74.78,1.38,0,.92-.06,1.84-.18,2.76-.04.36-.08.72-.12,1.08-.04.36-.04.72,0,1.08-.52.32-1.14.48-1.86.48-.12,0-.24.02-.36.06-.12.04-.22.06-.3.06-.64.04-1.13.1-1.47.18-.34.08-.87.28-1.59.6-.12.16-.18.38-.18.66-.04.24-.07.48-.09.72-.02.24-.01.5.03.78,0,.04-.04.08-.12.12l-.54,1.08c-.12.24-.19.48-.21.72-.02.24-.03.64-.03,1.2v2.88c0,.2.02.32.06.36.04.36.22.66.54.9.16.04.31.08.45.12.14.04.25.14.33.3.36.48.77.73,1.23.75.46.02.95-.05,1.47-.21.16-.08.32-.16.48-.24s.32-.14.48-.18c.32.08.52.26.6.54.08.28.22.52.42.72s.37.42.51.66c.14.24.29.48.45.72.08.24.18.51.3.81.12.3.22.63.3.99Z"/>
    <path class="cls-10" d="M933.23,551.61c-.16.52-.21,1.03-.15,1.53.06.5.05,1.01-.03,1.53-.04.28-.04.56,0,.84.04.28.02.58-.06.9-.04.24-.05.49-.03.75.02.26.03.51.03.75-.04.16-.06.36-.06.6-.08.28-.13.55-.15.81-.02.26-.07.55-.15.87,0,.04,0,.09-.03.15-.02.06-.03.13-.03.21,0,.28-.16.42-.48.42-.04-.04-.14-.06-.3-.06-.28-.12-.52-.14-.72-.06-.2.08-.4.16-.6.24-.12.12-.24.24-.36.36s-.24.26-.36.42c-.44.24-.85.31-1.23.21-.38-.1-.77-.27-1.17-.51-.24,0-.42.02-.54.06h-.18s-.1-.06-.18-.06c-.16-.12-.31-.24-.45-.36-.14-.12-.29-.24-.45-.36-.32-.32-.44-.64-.36-.96.04-.16.09-.31.15-.45.06-.14.07-.29.03-.45-.04-.2-.09-.4-.15-.6-.06-.2-.09-.4-.09-.6s.03-.4.09-.6c.06-.2.11-.4.15-.6-.08-.32-.2-.64-.36-.96-.16-.32-.28-.66-.36-1.02-.04-.32-.09-.65-.15-.99s-.09-.67-.09-.99c-.04-.36-.07-.71-.09-1.05-.02-.34-.03-.71-.03-1.11-.08-.48-.28-.86-.6-1.14-.28-.32-.52-.62-.72-.9-.2-.28-.38-.6-.54-.96-.2-.16-.46-.3-.78-.42-.04-.08-.08-.16-.12-.24-.04-.08-.1-.14-.18-.18-.04-.04-.06-.09-.06-.15s-.02-.11-.06-.15l-.36-.36c-.16-.08-.32-.08-.48,0-.16.08-.3.12-.42.12-.16.04-.3.06-.42.06s-.28.02-.48.06c-.16.08-.29.17-.39.27-.1.1-.25.19-.45.27-.12.12-.26.21-.42.27-.16.06-.32.13-.48.21-.16.36-.18.7-.06,1.02.08.4.13.82.15,1.26.02.44.07.88.15,1.32.04.4,0,.86-.12,1.38,0,.12-.02.25-.06.39-.04.14-.06.29-.06.45.04.64,0,1.27-.12,1.89s-.28,1.25-.48,1.89c.04.4.08.79.12,1.17.04.38.08.77.12,1.17v1.26c0,.52-.28.82-.84.9h-1.26c-.4.04-.79.08-1.17.12-.38.04-.73.16-1.05.36-.16.04-.31.1-.45.18-.14.08-.31.16-.51.24l-.42.42c-.08,0-.17,0-.27.03-.1.02-.19,0-.27-.03-.4-.2-.78-.36-1.14-.48-.4-.52-.64-1.08-.72-1.68-.08-.6-.22-1.16-.42-1.68.04-.24.09-.47.15-.69.06-.22.05-.43-.03-.63-.04-.12-.06-.34-.06-.66,0-.12,0-.23.03-.33.02-.1,0-.19-.03-.27-.12-.76-.08-1.42.12-1.98.08-.36.06-.74-.06-1.14-.16-.72-.22-1.46-.18-2.22.12-.64.1-1.28-.06-1.92-.12-.12-.12-.28,0-.48,0-.2,0-.41.03-.63.02-.22.05-.41.09-.57.04-.16.12-.29.24-.39.12-.1.22-.19.3-.27l.18-1.08c.08-.12.02-.32-.18-.6-.04-.08-.1-.09-.18-.03s-.16.11-.24.15l-.06-.06c0-.44,0-.85.03-1.23.02-.38,0-.77-.03-1.17-.04-.16-.04-.3,0-.42.04-.12.06-.26.06-.42,0-.12-.02-.26-.06-.42-.04-.16-.06-.32-.06-.48v-.3c0-.12.02-.24.06-.36.04-.2.08-.4.12-.6.04-.2.1-.42.18-.66-.16-.32-.23-.66-.21-1.02.02-.36,0-.74-.09-1.14-.04-.12-.03-.26.03-.42.06-.16.11-.34.15-.54-.16-.36-.22-.77-.18-1.23.04-.46.04-.91,0-1.35.08-.24.1-.47.06-.69-.04-.22-.06-.45-.06-.69.04-.4.04-.78,0-1.14-.04-.36-.02-.72.06-1.08.04-.12.05-.22.03-.3-.02-.08-.03-.16-.03-.24-.08-.76-.06-1.46.06-2.1.04-.12.06-.28.06-.48v-.54c-.04-.16-.07-.3-.09-.42s0-.26.03-.42c.12-.24.17-.49.15-.75-.02-.26.05-.51.21-.75.04-.08.06-.14.06-.18l.12-.06s.06-.06.18-.06c.2-.08.39-.15.57-.21.18-.06.37-.11.57-.15.12.08.24.16.36.24.12.08.26.16.42.24h.96c.08-.08.16-.14.24-.18.08-.04.14-.08.18-.12l.6-.42c.16-.08.33-.13.51-.15.18-.02.33.03.45.15.36.24.71.44,1.05.6.34.16.69.26,1.05.3.2.32.35.62.45.9.1.28.21.58.33.9.12.4.3.86.54,1.38,0,.2-.07.36-.21.48-.14.12-.23.3-.27.54,0,.08,0,.2.03.36.02.16.05.34.09.54,0,.16-.02.32-.06.48-.04.16-.04.34,0,.54.08.64.1,1.28.06,1.92s-.1,1.26-.18,1.86v.84c0,.4.1.8.3,1.2.16.16.31.33.45.51.14.18.27.37.39.57.24.24.5.36.78.36.56,0,1.13.05,1.71.15.58.1,1.15.11,1.71.03.12-.04.22-.05.3-.03.08.02.18.03.3.03.12.08.27.14.45.18.18.04.35.08.51.12.44.08.62.34.54.78.08.04.14.08.18.12.08-.04.16-.06.24-.06s.14-.02.18-.06c.52-.2.98-.16,1.38.12.24.2.52.35.84.45s.62.31.9.63c.28.48.64.93,1.08,1.35.44.42.88.87,1.32,1.35.08.12.18.23.3.33.12.1.22.19.3.27.36.36.56.72.6,1.08.12.56.26,1,.42,1.32.12.44.3.94.54,1.5v.6c.04.16.08.33.12.51s.06.37.06.57c.04.48.08.96.12,1.44.04.48.08.96.12,1.44,0,.04,0,.09.03.15.02.06,0,.13-.03.21Z"/>
    <path class="cls-10" d="M948.71,529.41c.12.28.16.57.12.87-.04.3-.1.59-.18.87-.04.24-.12.47-.24.69-.12.22-.22.43-.3.63-.16.24-.33.46-.51.66-.18.2-.35.4-.51.6-.12.04-.22.11-.3.21-.08.1-.18.19-.3.27-.28.2-.72.39-1.32.57-.6.18-1.08.27-1.44.27-.2,0-.36-.04-.48-.12-.24,0-.48,0-.72-.03-.24-.02-.46-.03-.66-.03-.12-.08-.25-.16-.39-.24-.14-.08-.25-.16-.33-.24-.2-.08-.41-.12-.63-.12h-.63c-.16-.12-.35-.23-.57-.33-.22-.1-.43-.19-.63-.27l-.36-1.08c.04-.32.08-.67.12-1.05.04-.38,0-.77-.12-1.17-.12-.08-.12-.18,0-.3.12-.28.12-.56,0-.84-.12-.28-.12-.56,0-.84.04-.08.06-.2.06-.36-.12-.24-.12-.47,0-.69.12-.22.22-.41.3-.57-.04-.12-.06-.25-.06-.39v-.33s.07-.09.09-.15c.02-.06.07-.11.15-.15.32-.08.59-.23.81-.45.22-.22.47-.39.75-.51.28-.24.59-.44.93-.6.34-.16.67-.32.99-.48h.84c.24,0,.48.04.72.12.12.04.26.06.42.06h.48c.56-.08,1,.14,1.32.66.08.2.22.32.42.36s.38.1.54.18c.4.36.66.82.78,1.38.08.24.17.48.27.72.1.24.17.48.21.72.08.24.15.49.21.75.06.26.11.51.15.75ZM948.35,543.21c-.08.24-.12.51-.12.81v.93c.04.28.04.57,0,.87-.04.3-.06.59-.06.87l-.42.6c.2.2.32.42.36.66.04.24.06.5.06.78v.87c0,.3-.02.61-.06.93-.04.28-.12.58-.24.9-.12.32-.22.66-.3,1.02,0,.4-.01.87-.03,1.41-.02.54-.01,1.07.03,1.59.04.76,0,1.53-.12,2.31s-.36,1.51-.72,2.19c0,.32.04.63.12.93s.16.61.24.93c0,.04-.02.09-.06.15-.04.06-.06.13-.06.21-.2.28-.44.52-.72.72-.04,0-.08.02-.12.06h-.24c-.44,0-.89.03-1.35.09-.46.06-.97.03-1.53-.09-.16-.08-.33-.18-.51-.3-.18-.12-.37-.22-.57-.3-.16,0-.35,0-.57-.03-.22-.02-.43-.05-.63-.09-.32-.36-.64-.74-.96-1.14-.12-.08-.26-.14-.42-.18s-.32-.1-.48-.18c-.28-.2-.38-.52-.3-.96.08-.44.18-.82.3-1.14.12-.52.1-1.02-.06-1.5l-.24-.84c0-.32-.02-.62-.06-.9-.04-.28-.04-.56,0-.84.04-.4.05-.78.03-1.14-.02-.36-.03-.74-.03-1.14.04-.56.06-1.11.06-1.65v-1.59c0-.2.02-.32.06-.36.2-.32.3-.63.3-.93v-.93c-.04-.32-.03-.65.03-.99s.05-.65-.03-.93v-1.05c0-.34.02-.69.06-1.05.04-.2.07-.41.09-.63.02-.22-.01-.47-.09-.75.36-.16.67-.28.93-.36.26-.08.51-.12.75-.12h.51c.18,0,.35-.02.51-.06.4-.08.74-.16,1.02-.24.2.04.37.11.51.21.14.1.29.19.45.27.28,0,.56-.06.84-.18.28-.04.53-.02.75.06s.39.28.51.6c.04.04.07.08.09.12.02.04.05.08.09.12l.42.24c.28.04.52,0,.72-.15.2-.14.4-.23.6-.27.24,0,.38.1.42.3.12.28.2.7.24,1.26Z"/>
    <path class="cls-10" d="M972.77,537.15c-.12.52-.36.96-.72,1.32-.16.16-.29.33-.39.51-.1.18-.23.31-.39.39-.16.16-.28.3-.36.42s-.16.28-.24.48c-.2.4-.54.44-1.02.12-.24-.16-.4-.32-.48-.48l-.72-.06c-.08,0-.14-.02-.18-.06-.2-.08-.34-.21-.42-.39-.08-.18-.22-.33-.42-.45-.6-.28-1.2-.48-1.8-.6-.6-.12-1.22-.08-1.86.12-.4.52-.66.89-.78,1.11s-.26.61-.42,1.17c0,.28.05.55.15.81.1.26.19.55.27.87.2.32.46.54.78.66.16,0,.32.01.48.03.16.02.32.05.48.09.16.12.3.23.42.33.12.1.24.19.36.27.28.16.55.37.81.63.26.26.53.45.81.57.32.16.62.3.9.42.28.12.56.26.84.42.24.04.45.14.63.3.18.16.35.34.51.54.12.24.27.48.45.72.18.24.35.5.51.78.12.44.23.89.33,1.35.1.46.15.95.15,1.47,0,.36.02.71.06,1.05.04.34.08.69.12,1.05.04.2.07.42.09.66.02.24,0,.5-.03.78-.12.24-.24.5-.36.78-.12.28-.22.58-.3.9-.16.6-.38,1.16-.66,1.68-.16.2-.34.4-.54.6l-.6.6c-.12.08-.22.18-.3.3-.08.12-.16.22-.24.3-.4.24-.72.52-.96.84-.24.32-.46.66-.66,1.02-.28.04-.56.09-.84.15-.28.06-.58.13-.9.21-.24.04-.48.11-.72.21s-.46.19-.66.27h-1.44c-.44-.2-.86-.28-1.26-.24-.4.04-.82.12-1.26.24-.4.08-.68.04-.84-.12-.28-.2-.57-.35-.87-.45-.3-.1-.59-.17-.87-.21-.4-.4-.82-.78-1.26-1.14-.44-.36-.84-.76-1.2-1.2,0-.12,0-.25-.03-.39-.02-.14-.03-.27-.03-.39,0-.32,0-.61.03-.87.02-.26.03-.53.03-.81.12-.56.33-1.1.63-1.62.3-.52.59-1.04.87-1.56.24.04.46.08.66.12.2.04.42.1.66.18.2.16.44.3.72.42.28.12.56.24.84.36.36.2.64.28.84.24.16,0,.3.02.42.06s.26.08.42.12c.48.2.94.14,1.38-.18.2-.12.39-.25.57-.39.18-.14.33-.33.45-.57v-.81c0-.3.02-.59.06-.87,0-.12-.02-.24-.06-.36s-.08-.25-.12-.39c-.04-.14-.08-.27-.12-.39l-.84-.66c-.16-.2-.28-.41-.36-.63-.08-.22-.22-.39-.42-.51l-1.44-.42c-.24-.12-.44-.26-.6-.42-.16-.16-.32-.3-.48-.42-.08-.08-.16-.14-.24-.18-.08-.04-.16-.08-.24-.12-.16-.04-.32-.08-.48-.12-.16-.04-.34-.1-.54-.18-.24-.2-.56-.38-.96-.54-.24-.28-.4-.56-.48-.84-.08-.28-.22-.54-.42-.78-.16-.2-.32-.42-.48-.66-.16-.24-.34-.48-.54-.72-.12-.44-.23-.89-.33-1.35-.1-.46-.21-.91-.33-1.35-.2-.6-.22-1.18-.06-1.74.08-.36.17-.74.27-1.14.1-.4.23-.8.39-1.2.24-.48.54-1.14.9-1.98.4-.64.93-1.23,1.59-1.77.66-.54,1.31-1.09,1.95-1.65.16-.08.34-.15.54-.21.2-.06.38-.11.54-.15.48-.16.84-.29,1.08-.39.24-.1.51-.17.81-.21.3-.04.75-.06,1.35-.06h.12c.56-.2,1.11-.26,1.65-.18.54.08,1.07.2,1.59.36.12,0,.25.01.39.03.14.02.23.03.27.03.36.2.67.44.93.72.26.28.55.54.87.78.2.12.42.23.66.33.24.1.46.21.66.33.4.32.75.68,1.05,1.08.3.4.59.78.87,1.14.08.28.14.56.18.84.04.28.1.58.18.9Z"/>
    <path class="cls-10" d="M986.27,557.79c-.04.28-.08.57-.12.87-.04.3-.1.59-.18.87-.04.44-.13.87-.27,1.29-.14.42-.37.79-.69,1.11-.08.12-.16.23-.24.33-.08.1-.16.19-.24.27-.16.16-.34.29-.54.39-.2.1-.46.19-.78.27-.28,0-.58,0-.9.03-.32.02-.68.03-1.08.03-.68,0-1.24-.26-1.68-.78-.16-.2-.33-.42-.51-.66-.18-.24-.37-.48-.57-.72-.04-.24-.1-.48-.18-.72s-.14-.48-.18-.72c-.08-.48-.1-.94-.06-1.38.04-.44.2-.86.48-1.26.04-.04.08-.08.12-.12.04-.04.08-.08.12-.12.32-.32.67-.61,1.05-.87.38-.26.81-.45,1.29-.57.12-.04.28-.07.48-.09.2-.02.38-.05.54-.09.2,0,.4,0,.6-.03.2-.02.42-.05.66-.09.68.36,1.27.74,1.77,1.14.5.4.87.94,1.11,1.62Z"/>
  </g>
</svg>