<?xml version="1.0" encoding="UTF-8"?>
<svg xmlns="http://www.w3.org/2000/svg" xmlns:xlink="http://www.w3.org/1999/xlink" viewBox="0 0 1100 900">
  <defs>
    <style>
      .cls-1 {
        fill: #d7e5ff;
      }

      .cls-2 {
        fill: none;
      }

      .cls-3 {
        fill: #f57711;
      }

      .cls-4 {
        fill: #c7c5c3;
      }

      .cls-5 {
        clip-path: url(#clippath-1);
      }

      .cls-6 {
        clip-path: url(#clippath-2);
      }

      .cls-7 {
        fill: #b5b2af;
      }

      .cls-8 {
        fill: #e3e2e1;
      }

      .cls-9 {
        fill: #aca9a5;
      }

      .cls-10 {
        fill: #fff;
      }

      .cls-11 {
        fill: #463f37;
      }

      .cls-12 {
        fill: #5b9cff;
      }

      .cls-13 {
        fill: #3c8cff;
      }

      .cls-14 {
        fill: #ff9811;
      }

      .cls-15 {
        fill: #ffe1b2;
      }

      .cls-16 {
        fill: #bebcb9;
      }

      .cls-17 {
        fill: #a29f9b;
      }

      .cls-18 {
        clip-path: url(#clippath);
      }

      .cls-19 {
        fill: #c0d8ff;
      }
    </style>
    <clipPath id="clippath">
      <path class="cls-2" d="M619.58,629.72c-17.17,39.95,24.53,86.08,84.47,53.44,64.89-35.34,48.21-110.64,37.67-126.48-1.24-1.86-3.85-2.14-5.52-.65-34.3,30.66-99.85,34.69-116.62,73.69Z"/>
    </clipPath>
    <clipPath id="clippath-1">
      <path class="cls-2" d="M683.72,678.81c.02.88-.42,1.71-1.17,2.16-15.04,9.03-58.21,24.02-95.87,24.02s-79.71-14.99-94.74-24.02c-.76-.45-1.21-1.28-1.17-2.16,1.92-54.23,10.44-94.91,25.46-144.02.03-.1,0-.21-.09-.27-6.51-4.56-13.31-10.14-20.34-16.6-.8-.73-.8-2.01.02-2.71,11.83-10.27,39.14-20.51,69.94-25.19,1.45-.22,2.91.35,3.84,1.47l17.09,20.5,17.08-20.5c.94-1.12,2.39-1.68,3.84-1.47,30.8,4.68,58.11,14.92,69.94,25.19.82.7.82,1.98.03,2.71-7.04,6.45-13.83,12.04-20.34,16.6-.09.06-.13.17-.1.27,16.04,46.18,25.19,94.2,26.59,144.02Z"/>
    </clipPath>
    <clipPath id="clippath-2">
      <path class="cls-2" d="M516.35,749.48c-2.86,13.2-14.4,21.8-25.5,11.38-1.75,3.95-3.84,7.42-6.23,10.47,2.71,9.73,4.37,21.03,2.14,27.02-4.17,11.22-31.95,10.78-37.39,5.67-1.99-1.87-3.4-6.59-4.07-12.25-8.73,1.5-17.73,2.07-26.27,2.47-6.09.28-14.48.57-23.46-.25-.75,4.66-2.04,8.41-3.76,10.03-5.44,5.11-33.22,5.55-37.39-5.67-1.79-4.81-1.07-13.04.68-21.13-2.16-2.37-4.08-5.07-5.7-8.13-7.08,5.88-22.51-4.87-21.66-17.14.6-8.7,11.14-18.52,17.36-23.59,9.43-60.66,49.64-76.37,64.45-78.99,14.96-2.65,78.37-.91,85.93,60.43.46,3.73.79,7.29.98,10.69,8,7.36,21.57,21.21,19.89,28.99Z"/>
    </clipPath>
  </defs>
  <g id="Layer_6" data-name="Layer 6">
    <ellipse class="cls-1" cx="907.1" cy="220.04" rx="100" ry="51.5"/>
    <ellipse class="cls-19" cx="194.27" cy="271.54" rx="134.5" ry="62.75"/>
    <g>
      <path class="cls-19" d="M779.93,240.82c-1.38,0-2.64-.77-3.29-2.01-.64-1.22-.55-2.69.24-3.84,5.59-8.09,9.67-15.7,12.16-22.66-5.2.21-10.46.31-15.68.31-44.41,0-86.19-7.28-117.66-20.51-32.16-13.52-49.87-31.75-49.87-51.35s17.71-37.84,49.87-51.36c31.47-13.23,73.26-20.51,117.66-20.51s86.2,7.29,117.67,20.51c32.16,13.52,49.87,31.76,49.87,51.36,0,32.06-47.68,59.65-118.78,68.8-8.9,12.51-22.58,22.92-40.68,30.93-.49.22-1,.32-1.52.32Z"/>
      <path class="cls-10" d="M773.36,71.39c91.15,0,165.04,31.06,165.04,69.37,0,31.39-49.62,57.91-117.69,66.46-8.4,12.22-21.5,22.67-40.28,30.99-.17.08-.34.11-.5.11-.91,0-1.58-1.07-.99-1.92,6.48-9.38,11.14-18.32,13.59-26.74-6.29.31-12.68.47-19.17.47-91.14,0-165.03-31.05-165.03-69.36s73.89-69.37,165.03-69.37M773.36,66.39c-44.73,0-86.86,7.35-118.63,20.71-33.15,13.93-51.4,32.99-51.4,53.66s18.25,39.73,51.4,53.66c31.77,13.35,73.9,20.7,118.63,20.7,3.98,0,7.99-.06,11.98-.18-2.44,5.8-5.96,12.03-10.51,18.61-1.32,1.91-1.47,4.37-.4,6.42,1.08,2.06,3.19,3.35,5.5,3.35.87,0,1.72-.18,2.53-.54,18.08-8.01,31.89-18.39,41.06-30.88,33.51-4.42,62.51-13.03,83.99-24.97,23.48-13.05,35.89-29.01,35.89-46.17,0-20.67-18.25-39.73-51.4-53.66-31.77-13.35-73.91-20.71-118.64-20.71h0Z"/>
    </g>
    <g>
      <path class="cls-1" d="M301.66,412.29c-25.85,0-50.18-6-68.52-16.9-18.75-11.14-29.08-26.09-29.08-42.1s10.33-30.96,29.08-42.1c18.34-10.9,42.68-16.9,68.52-16.9s50.19,6,68.53,16.9c18.75,11.14,29.08,26.09,29.08,42.1,0,9.36-3.64,18.58-10.55,26.81,4.24,3.69,9.13,6.42,14.88,8.31,1.46.47,2.35,1.87,2.17,3.4-.19,1.54-1.4,2.69-2.95,2.79-3.04.2-5.87.31-8.39.31-8.1,0-13.89-1.01-18.49-3.25-18.55,13.12-45.5,20.62-74.27,20.62Z"/>
      <path class="cls-10" d="M301.66,296.79c52.53,0,95.11,25.3,95.11,56.5,0,9.78-4.18,18.98-11.54,26.99,3.94,3.84,9.47,7.83,17.59,10.5.72.23.58,1.28-.17,1.33-3.01.2-5.75.3-8.23.3-8.82,0-14.49-1.26-18.69-3.68-17.43,12.85-44.13,21.06-74.07,21.06-52.52,0-95.1-25.29-95.1-56.5s42.58-56.5,95.1-56.5M301.66,291.79c-26.29,0-51.07,6.13-69.8,17.25-19.54,11.61-30.3,27.32-30.3,44.25s10.76,32.64,30.3,44.25c18.72,11.12,43.51,17.25,69.8,17.25,28.67,0,55.62-7.36,74.54-20.26,4.71,1.98,10.5,2.88,18.23,2.88,2.58,0,5.46-.11,8.56-.31,2.72-.18,4.94-2.28,5.27-4.99.33-2.7-1.31-5.27-3.91-6.09-4.57-1.5-8.58-3.58-12.12-6.29,6.26-8.17,9.55-17.23,9.55-26.44,0-16.93-10.76-32.64-30.3-44.25-18.73-11.12-43.52-17.25-69.81-17.25h0Z"/>
    </g>
  </g>
  <g id="Fox2">
    <ellipse class="cls-8" cx="586.67" cy="735.6" rx="160.46" ry="33.33"/>
    <path class="cls-14" d="M619.58,629.72c-17.17,39.95,24.53,86.08,84.47,53.44,64.89-35.34,48.21-110.64,37.67-126.48-1.24-1.86-3.85-2.14-5.52-.65-34.3,30.66-99.85,34.69-116.62,73.69Z"/>
    <g class="cls-18">
      <path class="cls-15" d="M744.24,624.55l-5.13-14.89c-.85-1.35-2.44-2.02-4-1.69l-16.35,4.7c-2.3.49-4.49-1.22-4.58-3.57l-1.62-15.82c-.07-1.83-1.43-3.35-3.23-3.62l-14.08-2.1c-1.56-.23-2.56-1.78-2.15-3.3l18.17-36.46,26.2-9.71,37.23,4.51,7.93,52.62-34.54,30.23c-1.23,1.2-3.29.71-3.86-.91Z"/>
    </g>
    <path class="cls-14" d="M748.13,422.57c-2.35-2.27-3.46-5.53-2.95-8.76,17.17-110.55-10.73-214.87-33.28-225.29-13.26-6.13-55.01,33.19-74.14,62.03-12.17-3.01-31.09-4.47-51.09-4.47s-38.92,1.45-51.09,4.47c-19.12-28.84-60.88-68.16-74.14-62.03-22.54,10.42-50.45,114.74-33.28,225.29.5,3.23-.6,6.5-2.95,8.76-8.34,8.03-18.15,19.43-16.96,27.36,3.53,23.41,79.42,67.41,178.42,67.41s174.89-44,178.42-67.41c1.2-7.93-8.62-19.33-16.96-27.36Z"/>
    <g>
      <path class="cls-15" d="M490.15,276.62c-16.25,12.49-24.72,19.81-38.94,37.4-10.61,13.13-5.58-51.26,12.52-69.37,5.91-5.91,31.94,27.72,26.41,31.97Z"/>
      <path class="cls-15" d="M683.2,276.62c16.25,12.49,24.72,19.81,38.94,37.4,10.61,13.13,5.58-51.26-12.52-69.37-5.91-5.91-31.94,27.72-26.41,31.97Z"/>
    </g>
    <path class="cls-11" d="M587.47,422.89c-.86-2.18-6.49-2.58-10.81-2.58-4.32,0-9.95.41-10.81,2.58-.86,2.18,6.23,7.04,10.81,7.04s11.67-4.86,10.81-7.04Z"/>
    <path class="cls-14" d="M409.01,564.83c27.65,25.66,47.68,10.59,55.22-2.19,7.54-12.79,6.4-26.84-25.26-46.1-12.68-7.72-32.23-9.57-39.87,3.16-10.44,17.37-.96,35.04,9.92,45.14Z"/>
    <path class="cls-3" d="M581.11,655.68c.07,4.08,1.08,73.42-4.44,79-5.78,5.85-28.2,5.26-36.25,0-8.83-5.77-25.26-69.83-24.64-79,2.9-43.25,64.69-39.46,65.33,0ZM657.57,655.68c-2.9-43.25-64.69-39.46-65.33,0-.07,4.08-1.08,73.42,4.44,79,5.78,5.85,28.2,5.26,36.25,0,8.83-5.77,25.26-69.83,24.64-79Z"/>
    <path class="cls-13" d="M699.92,563.75c-9.75-11.69-24.93-24.61-42.33-38.04l-17.46,1.81v36.24l29.89,10.84,29.89-10.84Z"/>
    <path class="cls-13" d="M521.17,518.56c-29.93,23.83-35.17,21.42-76.4-2.37-1.17-.67-2.67-.38-3.47.71-15.38,20.76-23.17,42.72-24.7,76.2-.06,1.34.9,2.53,2.23,2.76,56.13,9.47,94.35-3.88,116.51-47.72l-14.16-29.58Z"/>
    <path class="cls-12" d="M683.72,678.81c.02.88-.42,1.71-1.17,2.16-15.04,9.03-58.21,24.02-95.87,24.02s-79.71-14.99-94.74-24.02c-.76-.45-1.21-1.28-1.17-2.16,1.92-54.23,10.44-94.91,25.46-144.02.03-.1,0-.21-.09-.27-6.51-4.56-13.31-10.14-20.34-16.6-.8-.73-.8-2.01.02-2.71,11.83-10.27,39.14-20.51,69.94-25.19,1.45-.22,2.91.35,3.84,1.47l17.09,20.5,17.08-20.5c.94-1.12,2.39-1.68,3.84-1.47,30.8,4.68,58.11,14.92,69.94,25.19.82.7.82,1.98.03,2.71-7.04,6.45-13.83,12.04-20.34,16.6-.09.06-.13.17-.1.27,16.04,46.18,25.19,94.2,26.59,144.02Z"/>
    <g class="cls-5">
      <path class="cls-13" d="M696.65,599.97c-4.6,9.66-14.5,15.68-25.19,15.42-20.32-.48-44.1-1.26-70.38-7.06-1.64-.36-2.76-1.9-2.59-3.57.44-4.52.98-8.99,1.65-13.41-16.2-5.11-25.91-20.91-21.79-35.88,4.22-15.35,21.39-24.02,38.34-19.36.51.14,1.02.29,1.51.45.57-.99,1.17-1.97,1.78-2.95.82-1.3,2.43-1.85,3.89-1.37,27.81,9.4,50.22,18.45,65.16,27.03,4.45,2.55,8.03,6.46,10.03,11.19,4.22,9.96,2.58,19-2.4,29.51Z"/>
    </g>
    <ellipse class="cls-14" cx="613.6" cy="558.62" rx="28.83" ry="31.83" transform="translate(-109.26 966.1) rotate(-71.73)"/>
    <path class="cls-12" d="M626.05,528.91c-14.35,20.52-21.27,44.51-25.06,69.97-.25,1.66.79,3.26,2.41,3.71,25.95,7.12,49.66,9.09,69.93,10.6,10.67.8,20.86-4.71,25.94-14.13,5.51-10.24,7.6-19.2,3.89-29.35-1.76-4.82-5.13-8.91-9.44-11.68-14.5-9.32-36.42-19.49-63.71-30.27-1.43-.56-3.07-.09-3.95,1.16Z"/>
    <path class="cls-11" d="M614.21,441.61c-2.58-3.37-35.24,7.73-36.78,11.23s20.61,27.41,30.88,25.04c10.27-2.37,8.49-32.9,5.91-36.27Z"/>
    <path class="cls-11" d="M652.47,427.67c-.17,0-.35,0-.52,0-16.02-.3-29.34-14.32-33.92-35.72-.58-2.7,1.14-5.36,3.84-5.94,2.71-.58,5.36,1.14,5.94,3.84,3.57,16.69,13.12,27.61,24.33,27.81,11.48.26,21.72-10.77,26.08-28,.68-2.68,3.4-4.3,6.08-3.62,2.68.68,4.3,3.4,3.62,6.07-5.49,21.66-19.36,35.54-35.44,35.54Z"/>
    <path class="cls-11" d="M500.86,427.67c-16.08,0-29.96-13.88-35.44-35.54-.68-2.68.94-5.4,3.62-6.07,2.68-.68,5.4.94,6.08,3.62,4.32,17.06,14.41,28,25.76,28,.11,0,.22,0,.33,0,11.21-.21,20.75-11.13,24.33-27.81.58-2.7,3.23-4.42,5.94-3.84,2.7.58,4.42,3.24,3.84,5.94-4.58,21.4-17.9,35.42-33.92,35.72-.17,0-.35,0-.52,0Z"/>
  </g>
  <g id="crowd">
    <path class="cls-9" d="M934.41,763.61c-78.54,33.82-167.67,44.95-264.75,39.02-8.48-.52-15.08-7.6-14.95-16.1,1.2-77.87,4.82-135.68,19.73-176.17-11.12-4.2-21.35-13.96-28.99-30.47-10.13-21.89-.6-47.84,21.28-57.97,21.89-10.13,47.84-.6,57.97,21.28.9,1.95,1.71,3.86,2.43,5.73,13.34-6.41,29.16-10.65,47.91-12.89,15.51-1.85,29.5-1.32,42.16,1.33,1.15-4.48,2.86-9.23,5.17-14.23,10.13-21.88,36.08-31.41,57.97-21.28,21.88,10.13,31.41,36.08,21.28,57.97-4.82,10.41-10.67,18.14-17.12,23.47,28.44,39,44.89,97.82,59.13,162.31,1.64,7.43-2.23,14.99-9.22,18Z"/>
    <path class="cls-4" d="M246.76,728.07h-15.12c-2.67,0-4.83-2.16-4.83-4.83v-23.36c0-1.73,1.17-3.35,2.87-3.64,2.21-.38,4.13,1.31,4.13,3.45v20.61c0,.43.35.78.78.78h11.96c1.73,0,3.35,1.17,3.64,2.87.38,2.21-1.31,4.13-3.45,4.13Z"/>
    <path class="cls-4" d="M289.43,728.07h-15.12c-2.67,0-4.83-2.16-4.83-4.83v-23.36c0-1.73,1.17-3.35,2.87-3.64,2.21-.38,4.13,1.31,4.13,3.45v20.61c0,.43.35.78.78.78h11.96c1.73,0,3.35,1.17,3.64,2.87.38,2.21-1.31,4.13-3.45,4.13Z"/>
    <path class="cls-7" d="M308.26,615.34c1.34,13.49,2.27,29.88,1.76,46.12-.84,26.67-16.76,41.18-36.05,44.48-38.05,6.52-69.7-.39-90.46-18.44l11.09-16.67c1.17-1.76,1.86-3.78,2-5.88.7-10.14,3.29-42.73,9.58-71.38,7.55-34.44,22.53-47,50.33-47,23.11,0,43.45,17.61,48.34,43.61,0,0,21.66,6.83,22,9.67.25,2.13-12.35,11.16-18.59,15.49Z"/>
    <path class="cls-7" d="M516.35,749.48c-2.86,13.2-14.4,21.8-25.5,11.38-1.75,3.95-3.84,7.42-6.23,10.47,2.71,9.73,4.37,21.03,2.14,27.02-4.17,11.22-31.95,10.78-37.39,5.67-1.99-1.87-3.4-6.59-4.07-12.25-8.73,1.5-17.73,2.07-26.27,2.47-6.09.28-14.48.57-23.46-.25-.75,4.66-2.04,8.41-3.76,10.03-5.44,5.11-33.22,5.55-37.39-5.67-1.79-4.81-1.07-13.04.68-21.13-2.16-2.37-4.08-5.07-5.7-8.13-7.08,5.88-22.51-4.87-21.66-17.14.6-8.7,11.14-18.52,17.36-23.59,9.43-60.66,49.64-76.37,64.45-78.99,14.96-2.65,78.37-.91,85.93,60.43.46,3.73.79,7.29.98,10.69,8,7.36,21.57,21.21,19.89,28.99Z"/>
    <g class="cls-6">
      <ellipse class="cls-17" cx="398.26" cy="700.96" rx="129.99" ry="38.71" transform="translate(-183.05 142.36) rotate(-16.54)"/>
    </g>
    <path class="cls-16" d="M420.08,725.08c-69.23,19.02-130.06,17.77-135.87-2.8-4.32-15.28,22.94-36.93,65.62-54.85,3.92-36.66,17.27-104.95,31.42-110.96,14.14-6.01,51.66,49.95,68.18,83.51,46.19-6.54,81.12-1.95,85.46,13.39,5.81,20.57-45.59,52.68-114.81,71.71Z"/>
  </g>
</svg>