<?xml version="1.0" encoding="UTF-8"?>
<svg id="logo" xmlns="http://www.w3.org/2000/svg" xmlns:xlink="http://www.w3.org/1999/xlink" viewBox="0 0 1200 800">
  <defs>
    <style>
      .cls-1 {
        fill: none;
      }

      .cls-2 {
        fill: #b6e540;
      }

      .cls-3 {
        fill: #ffc4c4;
      }

      .cls-4 {
        clip-path: url(#clippath-1);
      }

      .cls-5 {
        fill: #fff;
      }

      .cls-6 {
        fill: #463f37;
      }

      .cls-7 {
        fill: #5b9cff;
      }

      .cls-8 {
        fill: #ff9811;
      }

      .cls-9 {
        fill: #ffe1b2;
      }

      .cls-10 {
        clip-path: url(#clippath);
      }
    </style>
    <clipPath id="clippath">
      <path class="cls-1" d="M143.2,376.71c11.08-66.71,40.59-92.06,73.26-64.54.62.53,1.54.46,2.09-.14,29.62-32.22,64.43,3.51,78.88,55.45l-16.52,39.97-101.49,16.17-36.22-46.91Z"/>
    </clipPath>
    <clipPath id="clippath-1">
      <rect class="cls-1" x="84.6" y="243.75" width="282.35" height="282.35" rx="40" ry="40"/>
    </clipPath>
  </defs>
  <g>
    <rect class="cls-7" x="84.6" y="243.75" width="282.35" height="282.35" rx="40" ry="40"/>
    <path class="cls-2" d="M143.2,376.71c11.08-66.71,40.59-92.06,73.26-64.54.62.53,1.54.46,2.09-.14,29.62-32.22,64.43,3.51,78.88,55.45l-16.52,39.97-101.49,16.17-36.22-46.91Z"/>
    <ellipse class="cls-5" cx="187.42" cy="330.94" rx="20.33" ry="18.47" transform="translate(-186.32 401.42) rotate(-71.15)"/>
    <ellipse class="cls-6" cx="187.42" cy="330.06" rx="16.4" ry="14.89" transform="translate(-185.49 400.82) rotate(-71.15)"/>
    <ellipse class="cls-5" cx="246.44" cy="327.6" rx="18.47" ry="20.33" transform="translate(-120.2 144.21) rotate(-26.47)"/>
    <ellipse class="cls-6" cx="246.44" cy="326.72" rx="14.59" ry="16.07" transform="translate(-119.8 144.12) rotate(-26.47)"/>
    <path class="cls-6" d="M193.34,360.08c-2.09,0-4.24-.13-6.46-.4-1.45-.17-2.49-1.49-2.32-2.94.17-1.45,1.48-2.49,2.94-2.32,11.6,1.37,21.1-1.25,30.82-8.51.92-.69,2.18-.7,3.11-.04,7.19,5.1,17.53,7.11,29.13,5.68,1.45-.17,2.77.85,2.95,2.3.18,1.45-.85,2.77-2.3,2.95-12.1,1.5-23.1-.47-31.24-5.55-8.52,6-16.98,8.82-26.64,8.82Z"/>
    <g class="cls-10">
      <circle class="cls-3" cx="158.22" cy="364.38" r="21.44"/>
      <ellipse class="cls-3" cx="280.02" cy="354.2" rx="20.97" ry="19.7" transform="translate(-44.54 40.3) rotate(-7.63)"/>
    </g>
    <g class="cls-4">
      <path class="cls-8" d="M269.02,384.92c-27.29-.17-52.07,4.98-74.53,15.03,0,0-47.51-39.92-62.28-36.89-13.65,2.79-25.98,123.53-15.09,175.34h260.32s-1.67-76.44-1.67-76.44c-.14-25-56.36-131.63-71.83-129.94-9.36,1.02-34.92,52.9-34.92,52.9Z"/>
      <path class="cls-9" d="M162.53,416.47c-7.59,6.42-22.54,24.06-28.34,34.59-7.68,13.94-3.64-54.32,4.8-61.34,4.89-4.07,28.22,22.8,23.54,26.75Z"/>
      <path class="cls-9" d="M297.38,395.68c9.53,2.82,30.32,12.93,39.88,20.23,12.65,9.66-18.56-51.18-29.11-54.2-6.11-1.75-16.64,32.24-10.76,33.97Z"/>
      <ellipse class="cls-5" cx="304.88" cy="471.48" rx="36.27" ry="43.32" transform="translate(-135.95 123.76) rotate(-18.85)"/>
      <ellipse class="cls-5" cx="188.01" cy="491.31" rx="36.27" ry="43.32" transform="translate(-27.68 11.51) rotate(-3.27)"/>
      <ellipse class="cls-6" cx="297.43" cy="472.66" rx="24.73" ry="29.53" transform="translate(-112.02 92.89) rotate(-14.97)"/>
      <ellipse class="cls-6" cx="195.01" cy="490.02" rx="24.73" ry="29.53" transform="translate(-27.59 11.9) rotate(-3.27)"/>
    </g>
  </g>
  <g>
    <path class="cls-6" d="M485.17,350.86c-.67,1.46-1.57,2.66-2.69,3.61-1.12.95-2.07,2.04-2.85,3.27-.9.23-1.76.62-2.6,1.18-.84.56-1.6,1.12-2.27,1.68-1.12.67-2.13.67-3.02,0-.45-.22-.81-.47-1.09-.76-.28-.28-.65-.53-1.09-.76-.9-.78-2.07-1.06-3.53-.84-.11.11-.28.06-.5-.17v-1.68c-.11-.11-.25-.28-.42-.5-.17-.22-.36-.34-.59-.34-2.24-.89-4.37-.95-6.38-.17-.67.11-1.34.28-2.02.5-.67.23-1.34.45-2.02.67-.45.67-.87,1.34-1.26,2.01-.39.67-.81,1.29-1.26,1.85.11.9.19,1.79.25,2.69.05.9.14,1.79.25,2.69.56.67,1.09,1.37,1.6,2.1.5.73.98,1.48,1.43,2.27,1.01.79,2.07,1.54,3.19,2.27,1.12.73,2.18,1.54,3.19,2.43.67.45,1.37.81,2.1,1.09.73.28,1.37.7,1.93,1.26.56.56,1.09,1.04,1.6,1.43.5.39.98.87,1.43,1.43.34.11.67.28,1.01.5.34.23.67.45,1.01.67,1.9,1.23,3.36,2.91,4.37,5.04.56.9,1.15,1.85,1.76,2.85.61,1.01,1.2,1.96,1.76,2.85.78.67,1.31,1.46,1.6,2.35.28.9.59,1.79.92,2.69.11.11.17.34.17.67.22,1.34.59,2.63,1.09,3.86.5,1.23,1.03,2.46,1.6,3.7.34,1.46.53,2.88.59,4.28.06,1.4-.03,2.77-.25,4.12,0,1.12-.14,2.21-.42,3.27-.28,1.06-.65,2.04-1.09,2.94-.11.11-.17.23-.17.34s-.11.28-.34.5c-1.01,1.01-1.82,2.13-2.44,3.36-.62,1.23-1.32,2.46-2.1,3.69-.11.11-.17.25-.17.42s-.11.31-.34.42c-1.12.79-2.04,1.62-2.77,2.52-.73.9-1.54,1.79-2.44,2.69-.45.45-1.01.84-1.68,1.18-.67.34-1.29.73-1.85,1.18l-3.53,1.68c-1.12.11-2.27.28-3.44.5-1.18.22-2.38.61-3.61,1.18-.78.45-1.65.78-2.6,1.01-.95.22-1.88.45-2.77.67-.45.11-.9.22-1.34.34-.45.11-.9.22-1.34.34-1.46-1.12-3.08-1.68-4.87-1.68-1.23,0-2.3-.23-3.19-.67-1.34-.56-2.63-1.15-3.86-1.76-1.23-.62-2.35-1.43-3.36-2.43-.67-.56-1.34-1.06-2.02-1.51-.67-.45-1.29-.9-1.85-1.34-.45-.45-.98-.76-1.6-.92-.62-.17-1.2-.36-1.76-.59-.78-.56-1.23-1.18-1.34-1.85.11-.9.47-1.74,1.09-2.52.61-.78,1.15-1.62,1.6-2.52,0-.67.17-1.51.5-2.52,1.01-1.34,2.07-2.71,3.19-4.11,1.12-1.4,2.24-2.83,3.36-4.28.45-.34.95-.7,1.51-1.09.56-.39,1.18-.81,1.85-1.26,2.24.56,4.37,1.18,6.38,1.85s4.09,1.29,6.21,1.85c.45-.11.78-.25,1.01-.42.22-.17.39-.31.5-.42.34-.11.61-.22.84-.34.22-.11.39-.22.5-.34h3.02c.11-.22.25-.42.42-.59.17-.17.31-.36.42-.59.45-1.12.89-2.18,1.34-3.19.45-1.01.73-2.13.84-3.36-.23-.9-.48-1.85-.76-2.86-.28-1.01-.81-2.01-1.6-3.02-.45-.34-.95-.73-1.51-1.18-.56-.45-1.12-.89-1.68-1.34-1.91-.22-3.84-.73-5.79-1.51-1.96-.78-3.89-1.18-5.79-1.18-.78-.22-1.4-.59-1.85-1.09-.45-.5-.95-.98-1.51-1.43-.78-.22-1.62-.39-2.52-.5-.9-.11-1.62-.56-2.18-1.34-1.79-1.01-3.3-1.73-4.53-2.18-.56-.67-1.09-1.34-1.6-2.02-.5-.67-1.04-1.29-1.6-1.85-.45-.56-.87-1.26-1.26-2.1-.39-.84-.87-1.65-1.43-2.43-.45-.56-.84-1.2-1.18-1.93-.34-.73-.67-1.48-1.01-2.27-.34-1.57-.67-3.25-1.01-5.04.22-1.23.42-2.49.59-3.78.17-1.29.31-2.6.42-3.95l-.67-1.68c.45-.22.78-.56,1.01-1.01.22-.45.45-.89.67-1.34.22-.67.5-1.23.84-1.68.34-.45.45-1.06.34-1.85,0-2.13.56-4.09,1.68-5.88.22-.45.42-.84.59-1.18.17-.34.31-.67.42-1.01.56-.34,1.03-.7,1.43-1.09.39-.39.64-.64.76-.76.56-.56.78-1.09.67-1.6-.11-.5-.11-.98,0-1.43.45-.67.95-1.34,1.51-2.01.56-.67,1.18-1.4,1.85-2.18.78-.56,1.62-1.03,2.52-1.43.89-.39,1.73-.98,2.52-1.76.22-.34.5-.59.84-.76.34-.17.73-.31,1.18-.42.56-.34,1.18-.61,1.85-.84.67-.22,1.34-.5,2.02-.84,1.12-.22,2.27-.39,3.44-.5,1.18-.11,2.32-.22,3.44-.34.11,0,.25-.03.42-.08.17-.05.36-.03.59.08,1.23.45,2.49.45,3.78,0,1.29-.45,2.6-.61,3.95-.5,1.23,0,2.44.17,3.61.5,1.18.34,2.32.62,3.44.84,1.23.9,2.46,1.71,3.69,2.43,1.23.73,2.57,1.32,4.03,1.76.45.45.87.92,1.26,1.43.39.5.81,1.04,1.26,1.6.45.45.89.84,1.34,1.18.45.34.84.73,1.18,1.18.89,1.68,1.76,3.33,2.6,4.95.84,1.62,1.65,3.22,2.44,4.79Z"/>
    <path class="cls-6" d="M527.66,345.66c.34.78.45,1.6.34,2.43-.11.84-.28,1.65-.5,2.43-.11.67-.34,1.32-.67,1.93-.34.62-.62,1.2-.84,1.76-.45.67-.92,1.29-1.43,1.85-.5.56-.98,1.12-1.43,1.68-.34.11-.62.31-.84.59-.23.28-.5.53-.84.76-.78.56-2.02,1.09-3.69,1.6s-3.02.76-4.03.76c-.56,0-1.01-.11-1.34-.34-.67,0-1.34-.03-2.02-.08-.67-.05-1.29-.08-1.85-.08-.34-.22-.7-.45-1.09-.67-.39-.22-.7-.45-.92-.67-.56-.22-1.15-.34-1.76-.34h-1.76c-.45-.34-.98-.64-1.6-.92-.62-.28-1.2-.53-1.76-.76l-1.01-3.02c.11-.89.22-1.87.34-2.94.11-1.06,0-2.15-.34-3.27-.34-.22-.34-.5,0-.84.34-.78.34-1.57,0-2.35-.34-.78-.34-1.57,0-2.35.11-.22.17-.56.17-1.01-.34-.67-.34-1.32,0-1.93.34-.61.61-1.15.84-1.6-.11-.34-.17-.7-.17-1.09v-.92c.11-.11.19-.25.25-.42.05-.17.19-.31.42-.42.89-.22,1.65-.64,2.27-1.26.61-.61,1.31-1.09,2.1-1.43.78-.67,1.65-1.23,2.6-1.68.95-.45,1.87-.89,2.77-1.34h2.35c.67,0,1.34.11,2.01.34.34.11.73.17,1.18.17h1.34c1.57-.22,2.8.39,3.69,1.85.22.56.61.9,1.18,1.01.56.11,1.06.28,1.51.5,1.12,1.01,1.85,2.3,2.18,3.86.22.67.47,1.34.76,2.01.28.67.47,1.34.59,2.02.22.67.42,1.37.59,2.1.17.73.31,1.43.42,2.1ZM526.65,384.28c-.23.67-.34,1.43-.34,2.27v2.6c.11.79.11,1.6,0,2.43-.11.84-.17,1.65-.17,2.43l-1.18,1.68c.56.56.89,1.18,1.01,1.85.11.67.17,1.4.17,2.18v2.43c0,.84-.06,1.71-.17,2.6-.11.78-.34,1.62-.67,2.52-.34.9-.62,1.85-.84,2.85,0,1.12-.03,2.43-.08,3.95-.06,1.51-.03,3,.08,4.45.11,2.13,0,4.28-.34,6.47-.34,2.18-1.01,4.23-2.02,6.13,0,.9.11,1.76.34,2.6.22.84.45,1.71.67,2.6,0,.11-.06.25-.17.42-.11.17-.17.36-.17.59-.56.78-1.23,1.45-2.02,2.01-.11,0-.23.06-.34.17h-.67c-1.23,0-2.49.08-3.78.25-1.29.17-2.72.08-4.28-.25-.45-.23-.92-.5-1.43-.84s-1.04-.62-1.6-.84c-.45,0-.98-.03-1.6-.08-.62-.06-1.2-.14-1.76-.25-.9-1.01-1.79-2.07-2.69-3.19-.34-.22-.73-.39-1.18-.5-.45-.11-.9-.28-1.34-.5-.78-.56-1.07-1.45-.84-2.69.22-1.23.5-2.29.84-3.19.34-1.45.28-2.85-.17-4.2l-.67-2.35c0-.89-.06-1.73-.17-2.52-.11-.78-.11-1.57,0-2.35.11-1.12.14-2.18.08-3.19-.06-1.01-.08-2.07-.08-3.19.11-1.57.17-3.11.17-4.62v-4.45c0-.56.05-.9.17-1.01.56-.89.84-1.76.84-2.6v-2.6c-.11-.9-.08-1.82.08-2.77.17-.95.14-1.82-.08-2.6v-2.94c0-.95.06-1.93.17-2.94.11-.56.19-1.15.25-1.76.06-.61-.03-1.32-.25-2.1,1.01-.45,1.87-.78,2.6-1.01.73-.22,1.43-.34,2.1-.34h1.43c.5,0,.98-.06,1.43-.17,1.12-.22,2.07-.45,2.85-.67.56.11,1.03.31,1.43.59.39.28.81.53,1.26.76.78,0,1.57-.17,2.35-.5.78-.11,1.48-.06,2.1.17.61.23,1.09.79,1.43,1.68.11.11.19.23.25.34.06.11.14.23.25.34l1.18.67c.78.11,1.45-.03,2.02-.42.56-.39,1.12-.64,1.68-.76.67,0,1.06.28,1.18.84.34.79.56,1.96.67,3.53Z"/>
    <path class="cls-6" d="M612.13,360.27c-.56,2.01-.9,4.06-1.01,6.13-.11,2.07-.23,4.11-.34,6.13-.11,2.01-.17,4.06-.17,6.13v6.13c0,1.68-.11,3.36-.34,5.04-.23,1.68-.39,3.42-.5,5.21,0,.45-.03.95-.08,1.51-.06.56-.08,1.12-.08,1.68,0,1.57-.23,3.02-.67,4.37-.34,1.46-.5,2.91-.5,4.37,0,.78-.06,1.62-.17,2.52-.11.9-.34,1.79-.67,2.69-.11.56-.17,1.4-.17,2.52-.11.9-.34,1.79-.67,2.69-.23.78-.45,1.54-.67,2.27-.23.73-.45,1.54-.67,2.44-.45.67-.87,1.37-1.26,2.1-.39.73-.81,1.43-1.26,2.1-1.01.56-1.85,1.29-2.52,2.18-1.12.9-2.21,1.85-3.27,2.86-1.07,1.01-2.1,1.96-3.11,2.85-1.34,1.12-2.69,1.68-4.03,1.68-.11,0-.25.05-.42.17-.17.11-.36.17-.59.17-2.13.22-3.86.89-5.21,2.01-.11.11-.25.19-.42.25-.17.05-.36.19-.59.42-1.46.22-2.94.11-4.45-.34-1.51-.45-2.88-1.01-4.11-1.68h-2.69c-.45,0-.9-.03-1.34-.08-.45-.06-.95-.14-1.51-.25-3.02-.67-5.94-1.96-8.73-3.86-.34-.34-.73-.56-1.18-.67-.45-.11-.95-.22-1.51-.34-.67-.11-1.34-.28-2.02-.5-.67-.22-1.34-.45-2.02-.67-.56-.34-1.01-.81-1.34-1.43-.34-.61-.67-1.15-1.01-1.6-.56-1.12-1.07-2.15-1.51-3.11-.45-.95-.95-1.99-1.51-3.11-.45-.9-.95-1.82-1.51-2.77-.56-.95-1.12-1.82-1.68-2.6,0-.11.05-.17.17-.17s.17-.06.17-.17l-.34-.34c0,.11-.03.2-.08.25-.06.06-.08.14-.08.25-.11-.11-.25-.19-.42-.25-.17-.05-.31-.14-.42-.25-.45-.22-.78-.59-1.01-1.09-.23-.5-.45-.98-.67-1.43.34-.67.5-1.57.5-2.69.22-1.45.17-2.74-.17-3.86-.45-1.68-.65-3.36-.59-5.04.05-1.68.14-3.41.25-5.21,0-.56.22-1.29.67-2.18.78-1.9,1.23-3.58,1.34-5.04,1.12-1.57,2.02-3.25,2.69-5.04.67-1.79,1.45-3.47,2.35-5.04.56-.22,1.03-.45,1.43-.67.39-.22.81-.39,1.26-.5.22-.22.39-.5.5-.84.11-.34.34-.61.67-.84.34-.22.73-.42,1.18-.59.45-.17.95-.31,1.51-.42.22-.34.42-.67.59-1.01.17-.34.36-.67.59-1.01.34-.34.56-.5.67-.5,2.57-.89,5.26-1.57,8.06-2.01.45-.11.92-.19,1.43-.25.5-.06.98-.14,1.43-.25,1.45-.45,2.91-.61,4.37-.5,1.45.11,2.91.11,4.37,0,.34,0,.7.06,1.09.17.39.11.76.23,1.09.34.34,0,.78.11,1.34.34.56.23.89.23,1.01,0,1.12-.22,2.18.11,3.19,1.01.22.11.7.14,1.43.08.73-.05,1.15-.08,1.26-.08,1.01-.22,1.6-.7,1.76-1.43.17-.73.14-1.09-.08-1.09l-.34-.34c.11-1.45.08-2.91-.08-4.37-.17-1.45-.2-2.91-.08-4.37.11-.56.17-1.15.17-1.76v-1.76c-.11-.56-.11-1.09,0-1.6.11-.5.17-1.03.17-1.6s.03-1.09.08-1.6c.05-.5-.03-.92-.25-1.26-.34-.9-.48-1.79-.42-2.69.06-.89.19-1.79.42-2.69.34-1.23.59-2.46.76-3.69.17-1.23.14-2.57-.08-4.03v-.84c.45-1.12.7-2.24.76-3.36.06-1.12.14-2.13.25-3.02.56-.78,1.26-1.31,2.1-1.6.84-.28,1.48-.64,1.93-1.09,1.79-.11,3.47-.11,5.04,0,1.57.11,3.13-.05,4.7-.5.78.34,1.54.59,2.27.76.73.17,1.37.31,1.93.42,1.23.9,1.85,2.07,1.85,3.53v1.85c0,.67-.06,1.34-.17,2.01.11.45.28.84.5,1.18.22.34.39.79.5,1.34-.11.23-.2.53-.25.92-.06.39-.14.81-.25,1.26.11.45.22,1.01.34,1.68.11.67.22,1.29.34,1.85,0,1.79.03,3.53.08,5.21.05,1.68.03,3.36-.08,5.04,0,1.79.03,2.97.08,3.53.05.56.31,1.68.76,3.36ZM587.61,402.59c-.34-.89-.59-1.76-.76-2.6-.17-.84-.36-1.6-.59-2.27-.34-.78-.76-1.51-1.26-2.18-.5-.67-.92-1.4-1.26-2.18-1.12-.56-1.96-1.12-2.52-1.68-.56-.22-1.09-.39-1.6-.5-.5-.11-1.04-.22-1.6-.34-.45-.22-.87-.42-1.26-.59-.39-.17-.81-.31-1.26-.42-.78.34-1.54.67-2.27,1.01-.73.34-1.43.67-2.1,1.01-1.79.78-3.02,2.24-3.69,4.37-.11.45-.17.9-.17,1.34s-.06.95-.17,1.51c-.11.34-.31.67-.59,1.01-.28.34-.53.79-.76,1.34v3.02c.22,1.46.64,2.83,1.26,4.11.61,1.29,1.65,2.38,3.11,3.27.34.11.64.31.92.59.28.28.64.53,1.09.76.67.67,1.34,1.01,2.02,1.01,1.79-.22,3.53-.42,5.21-.59,1.68-.17,3.3-.59,4.87-1.26.67-.56,1.18-1.12,1.51-1.68.34-.45.61-.87.84-1.26.22-.39.5-.81.84-1.26v-4.37c0-.45.05-.84.17-1.18Z"/>
    <path class="cls-6" d="M698.44,376.05c-.11,1.12-.2,2.27-.25,3.44-.06,1.18-.2,2.32-.42,3.44-.11,1.12-.17,2.32-.17,3.61s-.23,2.6-.67,3.95c-.23.34-.5.7-.84,1.09-.34.39-.67.87-1.01,1.43,0,.45.03.84.08,1.18.06.34.14.73.25,1.18-.23.56-.56,1.04-1.01,1.43-.45.39-.9.7-1.34.92-1.12.34-2.16.67-3.11,1.01-.95.34-1.93.62-2.94.84-1.57.23-3.19.25-4.87.08s-3.36-.19-5.04-.08c-1.46,0-3,.03-4.62.08-1.62.06-3.27.08-4.95.08h-9.4c-.45.34-.92.45-1.43.34-.5-.11-.98-.05-1.43.17-.45-.22-.95-.25-1.51-.08-.56.17-1.12.14-1.68-.08-.45.11-.87.2-1.26.25-.39.06-.87.14-1.43.25-.45-.11-.84-.25-1.18-.42-.34-.17-.73-.08-1.18.25.22.34.47.7.76,1.09.28.39.48.87.59,1.43.34.45.61.9.84,1.34.22.45.45.95.67,1.51.22.45.39.92.5,1.43.11.5.22.98.34,1.43.56.56,1.18,1.12,1.85,1.68.67.56,1.34,1.12,2.02,1.68.56.11,1.15.23,1.76.34.61.11,1.2.23,1.76.34.67.11,1.34.23,2.02.34.67.11,1.4.11,2.18,0,.78-.22,1.51-.19,2.18.08.67.28,1.4.48,2.18.59,1.01-.11,2.04-.22,3.11-.34,1.06-.11,2.1-.22,3.11-.34.45-.34.92-.64,1.43-.92.5-.28.98-.59,1.43-.92,1.45-.34,2.91-.28,4.37.17.34.56.76,1.12,1.26,1.68.5.56.98,1.18,1.43,1.85.67,1.01,1.34,1.99,2.02,2.94.67.95,1.12,2.04,1.34,3.27.22.56.56,1.12,1.01,1.68.45.56.78,1.06,1.01,1.51.11.56.08,1.07-.08,1.51-.17.45-.31.95-.42,1.51-.45.45-1.01.84-1.68,1.18-.11,0-.23.11-.34.34-.11.23-.28.39-.5.5-.67.45-1.34.9-2.01,1.34-.67.45-1.29.9-1.85,1.34-1.57,1.34-3.19,2.01-4.87,2.01-.67,0-1.18.06-1.51.17-.56.11-1.12.34-1.68.67-.56.34-1.18.61-1.85.84-.56,0-1.12.08-1.68.25-.56.17-1.12.31-1.68.42-.34,0-.73-.03-1.18-.08-.45-.06-.9-.08-1.34-.08-1.01.11-2.02.05-3.02-.17-1.01-.23-2.01-.34-3.02-.34-.34-.11-.67-.23-1.01-.34s-.67-.17-1.01-.17c-1.9.11-3.69-.19-5.37-.92-1.68-.73-3.36-1.48-5.04-2.27-1.34-.34-2.3-.95-2.85-1.85-.78-.89-1.65-1.65-2.6-2.27-.95-.61-1.99-1.15-3.11-1.6-.67-.22-1.34-.53-2.02-.92-.67-.39-1.4-.81-2.18-1.26-.11-.45-.28-.9-.5-1.34-.23-.45-.45-.89-.67-1.34-.23-.34-.53-.67-.92-1.01-.39-.34-.76-.67-1.09-1.01-.34-.34-.62-.73-.84-1.18-.56-1.9-1.12-3.78-1.68-5.63-.56-1.85-1.29-3.67-2.18-5.46.11-.78.19-1.6.25-2.43.06-.84-.03-1.76-.25-2.77-.11-.22-.17-.5-.17-.84v-.84c0-.56.03-1.03.08-1.43.06-.39.03-.76-.08-1.09-.11-.9-.23-1.79-.34-2.69-.11-.89-.06-1.73.17-2.52.22-.89.45-1.79.67-2.69.22-.89.5-1.85.84-2.85-.11-.22-.17-.56-.17-1.01s-.06-.9-.17-1.34c.22-1.23.45-2.46.67-3.69.22-1.23.5-2.41.84-3.53.34-.67.7-1.31,1.09-1.93.39-.61.81-1.26,1.26-1.93.78-1.34,1.4-2.63,1.85-3.86,1.34-.67,2.15-1.09,2.44-1.26.28-.17.53-.42.76-.76.22-.34.95-1.01,2.18-2.01-.11-.34.17-.84.84-1.51.67-.67.89-1.23.67-1.68,1.01-1.9,2.46-3.41,4.37-4.54.67-.45,1.31-.92,1.93-1.43.61-.5,1.15-.98,1.6-1.43.56-.34,1.09-.47,1.6-.42.5.06.98.08,1.43.08.34-.11.7-.19,1.09-.25.39-.06.81-.14,1.26-.25.22-.11.5-.22.84-.34.34-.11.61-.28.84-.5.22-.11.45-.22.67-.34.22-.11.45-.17.67-.17,1.01-.11,1.96-.39,2.85-.84.89-.45,1.73-.89,2.52-1.34,1.68.67,3.41.9,5.21.67,1.12-.11,2.21-.05,3.27.17,1.06.23,2.04.5,2.94.84l2.35-.67c.89.11,1.73.39,2.52.84.78.45,1.57.9,2.35,1.34h1.51c.11.11.22.2.34.25.11.06.22.14.34.25,1.23,1.12,2.41,2.16,3.53,3.11,1.12.95,2.29,1.93,3.53,2.94,1.68,1.12,2.74,2.46,3.19,4.03.45.67.84,1.18,1.18,1.51,1.34,1.12,2.52,2.63,3.53,4.53,0,.23.03.53.08.92.06.39.08.76.08,1.09-.11.56,0,1.12.34,1.68.34.56.56,1.18.67,1.85ZM677.12,381.6v-4.2c0-.56-.06-.89-.17-1.01-.11-.34-.25-.67-.42-1.01-.17-.34-.31-.56-.42-.67v-2.85l-.5-.5c-.45,0-1.01-.11-1.68-.34-.23-1.01-.5-1.79-.84-2.35-.34-.45-.78-.73-1.34-.84-.56-.11-1.18-.28-1.85-.5-1.46.45-3.02.84-4.7,1.18s-3.3.79-4.87,1.34c-.78.11-1.51.17-2.18.17s-1.34.06-2.02.17c-1.12.45-2.1,1.15-2.94,2.1-.84.95-1.65,1.88-2.44,2.77-.45.56-.84,1.18-1.18,1.85-.34.67-.73,1.29-1.18,1.85-.11.11-.17.45-.17,1.01.34.9.84,1.46,1.51,1.68.67.11,1.34.28,2.02.5.67.23,1.4.45,2.18.67.34-.11.64-.17.92-.17s.59-.05.92-.17c1.34-.56,2.46-.61,3.36-.17.89.11,1.71.11,2.44,0,.73-.11,1.48-.22,2.27-.34.67.34,1.37.56,2.1.67.73.11,1.43.28,2.1.5,1.45.45,2.85.67,4.2.67s2.69-.17,4.03-.5c.56-.56.84-1.06.84-1.51Z"/>
    <path class="cls-6" d="M813.64,379.92c-.11.56-.17,1.18-.17,1.85s-.06,1.29-.17,1.85c-.23,1.34-.5,2.66-.84,3.95-.34,1.29-.9,2.55-1.68,3.78-1.12,1.57-2.1,3.22-2.94,4.95-.84,1.74-1.71,3.56-2.6,5.46-.78.67-1.54,1.32-2.27,1.93-.73.62-1.43,1.26-2.1,1.93-1.12,1.12-1.46,2.46-1.01,4.03.11.11.25.34.42.67.17.34.31.62.42.84.56.9,1.12,1.74,1.68,2.52.56.9,1.09,1.79,1.6,2.69.5.9.87,1.79,1.09,2.69.11.23.22.45.34.67.11.23.22.45.34.67.67,2.13,1.18,3.53,1.51,4.2s1.23,1.79,2.69,3.36c-.67.9-1.29,1.85-1.85,2.85-.56,1.01-1.12,2.01-1.68,3.02-.9,1.79-2.02,3.47-3.36,5.04-1.34,1.57-2.8,3.02-4.37,4.37-.67.34-1.32.36-1.93.08-.62-.28-1.26-.42-1.93-.42-.45,0-.92.03-1.43.08-.5.05-1.04.03-1.6-.08-.45-.11-.84-.28-1.18-.5-.34-.23-.62-.39-.84-.5-.67-.9-1.4-1.74-2.18-2.52-.78-.78-1.46-1.74-2.02-2.85-.34-1.01-1.07-1.85-2.18-2.52-.67-.56-1.2-1.18-1.6-1.85-.39-.67-.87-1.29-1.43-1.85-.67-.34-1.62-.39-2.85-.17-1.12,1.12-2.44,2.1-3.95,2.94-1.51.84-2.77,1.88-3.78,3.11-1.12-.34-2.13-.62-3.02-.84-.9-.22-1.85-.39-2.85-.5-.34.11-.73.25-1.18.42-.45.17-.95.36-1.51.59-.45-.23-.87-.42-1.26-.59-.39-.17-.81-.31-1.26-.42-.67.11-1.34.23-2.01.34-.67.11-1.4.22-2.18.34-.56.11-1.18.17-1.85.17h-2.18c-.45-.23-.92-.45-1.43-.67-.5-.22-.98-.5-1.43-.84-.45-.22-.98-.45-1.6-.67-.62-.22-1.26-.39-1.93-.5-.45-.34-.98-.78-1.6-1.34-.62-.56-1.2-1.12-1.76-1.68-1.23-1.23-2.58-2.01-4.03-2.35-.11,0-.5-.11-1.18-.34-.56-.56-1.09-1.15-1.6-1.76-.5-.61-1.2-1.03-2.1-1.26-.23,0-.45-.08-.67-.25-.23-.17-.45-.31-.67-.42-.23-.22-.48-.47-.76-.76-.28-.28-.53-.48-.76-.59-.34-1.68-.67-2.97-1.01-3.86-.34-.78-.78-1.26-1.34-1.43-.56-.17-1.12-.48-1.68-.92-.45-.56-.95-1.2-1.51-1.93-.56-.73-1.23-1.32-2.01-1.76-.67-.34-1.15-.84-1.43-1.51-.28-.67-.53-1.34-.76-2.01-.34-1.01-.7-2.07-1.09-3.19-.39-1.12-.7-2.24-.92-3.36-1.57-1.34-2.41-3.02-2.52-5.04,0-.34-.06-.61-.17-.84-.34-1.9-.59-3.3-.76-4.2-.17-.9-.23-1.74-.17-2.52.06-.78.14-1.9.25-3.36l-1.01-2.85c.11-.56.34-1.01.67-1.34s.67-.61,1.01-.84c0-.22.03-.42.08-.59.06-.17.03-.31-.08-.42-.45-.67-.78-1.43-1.01-2.27-.23-.84-.45-1.71-.67-2.6.22-.34.39-.78.5-1.34.11-.56.22-1.06.34-1.51,0-.56-.06-1.06-.17-1.51,0-1.01.45-1.73,1.34-2.18.22,0,.42-.03.59-.08.17-.06.31-.08.42-.08.22-.56.08-.98-.42-1.26-.5-.28-.76-.76-.76-1.43.22-.22.47-.59.76-1.09.28-.5.48-.98.59-1.43v-2.85c.34-.22.64-.56.92-1.01.28-.45.64-.89,1.09-1.34,1.01-.78,1.68-1.79,2.01-3.02.67-1.23,1.57-2.35,2.69-3.36.45-.34.81-.76,1.09-1.26.28-.5.53-.98.76-1.43.22-.56.45-1.06.67-1.51.22-.45.5-.9.84-1.34.34-.34.76-.61,1.26-.84.5-.22.98-.45,1.43-.67.56-.67,1.01-1.34,1.34-2.02.34-.67.89-1.23,1.68-1.68.45-.22.76-.53.92-.92.17-.39.42-.81.76-1.26.89-.34,1.62-.95,2.18-1.85.56-.89,1.18-1.68,1.85-2.35.22-.34.45-.61.67-.84.22-.22.39-.39.5-.5.89-.45,1.76-.73,2.6-.84.84-.11,1.71-.17,2.6-.17.34-.22.76-.47,1.26-.76.5-.28.98-.53,1.43-.76,1.23-.56,2.13-.9,2.69-1.01.56-.11,1.79-.05,3.69.17.22-.11.5-.22.84-.34.34-.11.67-.22,1.01-.34.34-.22.61-.36.84-.42.22-.05.56-.14,1.01-.25h4.03c.34,0,.67.03,1.01.08.34.06.67.08,1.01.08.56.23,1.12.39,1.68.5.56.11,1.06.23,1.51.34.56.11,1.09.2,1.6.25.5.06,1.03.14,1.6.25.34,0,.56-.05.67-.17.11,0,.34-.17.67-.5.22,0,.36-.03.42-.08.06-.05.14-.08.25-.08.67.11,1.34.06,2.02-.17.67-.22,1.34-.34,2.02-.34.45.34.81.62,1.09.84.28.23.48.5.59.84,1.34,1.34,2.91,2.24,4.7,2.69.56.11,1.01.39,1.34.84.34.45.78.79,1.34,1.01.78.34,1.6.65,2.44.92.84.28,1.65.53,2.44.76.11.23.19.39.25.5.06.11.14.28.25.5.22.23.45.56.67,1.01.45.23.98.48,1.6.76.61.28,1.15.59,1.6.92.56.45,1.12.79,1.68,1.01.56.23,1.12.5,1.68.84.67.67,1.37,1.34,2.1,2.01.73.67,1.48,1.29,2.27,1.85.11.11.25.2.42.25.17.06.31.2.42.42.56.67,1.18,1.32,1.85,1.93.67.62,1.34,1.2,2.01,1.76.67.67,1.2,1.48,1.6,2.43.39.95.47,2.04.25,3.27.45.23.81.48,1.09.76.28.28.53.53.76.76.89,1.23,1.43,2.55,1.6,3.95.17,1.4.31,2.88.42,4.45.34.45.64.95.92,1.51.28.56.64,1.12,1.09,1.68v1.18c-.11.45-.23.92-.34,1.43-.11.5-.11,1.04,0,1.6.22.56.22,1.07,0,1.51-.45.9-.53,1.74-.25,2.52.28.78.48,1.57.59,2.35ZM790.13,379.58c-.67-2.35-1.18-4.81-1.51-7.39-.23-2.35-.76-4.59-1.6-6.72-.84-2.13-2.16-4.08-3.95-5.88-.23-.22-.45-.5-.67-.84-.23-.34-.45-.56-.67-.67-.78-.22-1.62-.45-2.52-.67-.9-.22-1.74-.56-2.52-1.01-.23-.22-.56-.31-1.01-.25-.45.06-.78.08-1.01.08-1.23-1.01-2.07-1.6-2.52-1.76-.45-.17-1.4-.25-2.85-.25-.23,0-.48-.03-.76-.08-.28-.05-.59-.03-.92.08-1.01,0-2.1-.03-3.27-.08-1.18-.05-2.38.08-3.61.42-1.57.79-2.66,1.37-3.27,1.76-.62.39-1.23.65-1.85.76-.62.11-1.71.28-3.27.5-.11.11-.25.17-.42.17s-.31.11-.42.34c-1.01,1.12-1.99,2.18-2.94,3.19-.95,1.01-2.04,1.96-3.27,2.86-.9.56-1.74,1.46-2.52,2.69-.11,1.12-.23,2.3-.34,3.53-.11,1.23-.45,2.35-1.01,3.36-.11.11-.17.45-.17,1.01-.11.9-.23,1.88-.34,2.94-.11,1.07-.23,2.1-.34,3.11.45.9.5,1.85.17,2.85-.34,1.01-.56,1.96-.67,2.85v1.6c0,.62.06,1.2.17,1.76v1.43c0,.5.06,1.04.17,1.6.11.67.25,1.32.42,1.93.17.62.31,1.2.42,1.76.11.56.17,1.09.17,1.6s.06,1.04.17,1.6c.34.23.67.39,1.01.5.34.11.73.28,1.18.5.22.56.53,1.15.92,1.76.39.62.64,1.32.76,2.1-.11.45-.17.87-.17,1.26v1.26c.22.45.5.84.84,1.18.34.34.61.62.84.84.78.34,1.34.79,1.68,1.34.45.23.84.5,1.18.84s.61.62.84.84c.78-.22,1.51-.25,2.18-.08.67.17,1.4.2,2.18.08.89-.11,1.57-.42,2.01-.92.45-.5,1.01-.92,1.68-1.26.56.23,1.03.39,1.43.5.39.11.76.23,1.09.34.67-.11,1.31-.25,1.93-.42.61-.17,1.09-.59,1.43-1.26-.11-.45-.39-.89-.84-1.34-1.01-1.45-2.3-3.13-3.86-5.04-1.46-3.58-2.52-6.07-3.19-7.47-.67-1.4-1.57-2.99-2.69-4.79.11-.22.22-.48.34-.76.11-.28.22-.48.34-.59,1.01-1.12,2.02-2.15,3.02-3.11,1.01-.95,2.02-1.99,3.02-3.11.56-.56,1.15-1.09,1.76-1.6.61-.5,1.26-.98,1.93-1.43,1.01-.78,2.04-1.48,3.11-2.1,1.06-.61,2.15-1.26,3.27-1.93.11-.11.28-.17.5-.17.89.11,1.62.53,2.18,1.26.56.73,1.18,1.37,1.85,1.93.56,1.12,1.03,2.24,1.43,3.36.39,1.12.87,2.13,1.43,3.02,1.12,1.68,1.85,3.3,2.18,4.87.11.11.25.25.42.42.17.17.31.36.42.59.56.11,1.12.2,1.68.25.56.06,1.18-.14,1.85-.59.34-.34.64-.73.92-1.18.28-.45.53-.78.76-1.01.56-.45,1.03-.5,1.43-.17.39.34.81.34,1.26,0-.11-.45-.23-.84-.34-1.18-.11-.34-.23-.61-.34-.84.34-1.23.61-2.41.84-3.53.22-1.12.5-2.24.84-3.36Z"/>
    <path class="cls-6" d="M898.28,373.53c.22.67.31,1.34.25,2.01-.06.67-.2,1.29-.42,1.85-.23.79-.36,1.6-.42,2.43-.06.84-.08,1.71-.08,2.6,0,1.12-.03,2.21-.08,3.27-.06,1.07-.08,2.16-.08,3.27v2.52c0,.9-.11,1.85-.34,2.86-.45,1.79-.95,3.64-1.51,5.54-.56,1.91-1.01,3.86-1.34,5.88-.11.23-.2.53-.25.92-.06.39-.2.81-.42,1.26-1.01,2.13-2.02,4.48-3.02,7.05-.45.56-.92,1.18-1.43,1.85-.5.67-1.04,1.29-1.6,1.85-.45.34-.92.62-1.43.84-.5.23-.98.45-1.43.67-.23,0-.39.23-.5.67.22.23.42.5.59.84.17.34.31.62.42.84-.9,1.34-2.24,2.63-4.03,3.86-.45.11-.98.25-1.6.42-.62.17-1.26.31-1.93.42-1.12.67-2.41,1.57-3.86,2.69-.11.23-.28.53-.5.92-.23.39-.45.7-.67.92-.79.45-1.54.62-2.27.5-.73-.11-1.54-.22-2.43-.34-.34.11-.65.25-.92.42-.28.17-.59.37-.92.59-.23.11-.48.31-.76.59-.28.28-.53.48-.76.59-1.34.56-2.69.73-4.03.5-1.34-.22-2.69-.17-4.03.17-.56-.34-1.15-.61-1.76-.84-.62-.22-1.2-.45-1.76-.67,0-.22.03-.45.08-.67.06-.22.14-.5.25-.84-.23-.78-.73-1.23-1.51-1.34-.78-.22-1.54-.45-2.27-.67-.73-.22-1.49-.22-2.27,0-.78,0-1.18-.56-1.18-1.68-.23-1.01-.62-1.51-1.18-1.51h-.67c-.78.34-1.54.36-2.27.08-.73-.28-1.43-.7-2.1-1.26-.45-.45-.7-1.06-.76-1.85-.06-.78-.31-1.57-.76-2.35-.34-.56-.87-1.03-1.6-1.43-.73-.39-1.37-.81-1.93-1.26-.67-1.68-1.34-3.27-2.02-4.79-.67-1.51-1.29-2.99-1.85-4.45-.34-.67-.48-1.26-.42-1.76.06-.5.08-1.15.08-1.93l-.5-.84-.34-.67c-.79-2.24-1.29-4.48-1.51-6.72-.23-2.24,0-4.53.67-6.88-.11-.34-.25-.67-.42-1.01-.17-.34-.37-.61-.59-.84-.23-.56-.2-1.12.08-1.68.28-.56.42-1.06.42-1.51-.23-1.57-.17-2.85.17-3.86.22-.56.28-1.12.17-1.68-.11-.56-.11-1.06,0-1.51.34-1.34.56-2.66.67-3.95.11-1.29.22-2.55.34-3.78.11-2.46.45-4.87,1.01-7.22.22-.89.56-1.68,1.01-2.35.45-.67.89-1.34,1.34-2.01.22-.22.5-.39.84-.5.34-.11.67-.22,1.01-.34.67-.11,1.37-.22,2.1-.34.73-.11,1.6-.22,2.6-.34.56.11,1.2.23,1.93.34.73.11,1.48.17,2.27.17.78.11,1.57.2,2.35.25.78.06,1.62.14,2.52.25.11.34.22.62.34.84.11.23.22.45.34.67,0,.79-.03,1.54-.08,2.27-.06.73-.08,1.48-.08,2.27.11.34.25.65.42.92.17.28.31.65.42,1.09-.11.45-.25.95-.42,1.51-.17.56-.36,1.12-.59,1.68.34,1.79.5,3.67.5,5.63s.11,3.89.34,5.79c.22,1.23.39,2.43.5,3.61.11,1.18.34,2.38.67,3.61-.11.78-.06,1.57.17,2.35.22.79.45,1.57.67,2.35.34.79.59,1.57.76,2.35.17.78.36,1.62.59,2.52.56,1.79,1.4,3.42,2.52,4.87.67.67,1.18,1.12,1.51,1.34.22.11.48.17.76.17s.53.06.76.17c.78,0,1.4-.22,1.85-.67s.95-.73,1.51-.84c1.23-.56,2.41-1.01,3.53-1.34.56.11,1.12.17,1.68.17h1.18l2.69-1.68c.56-.9.95-1.9,1.18-3.02.22-1.12.73-2.07,1.51-2.85.56-.9,1.06-1.79,1.51-2.69.45-.89,1.01-1.62,1.68-2.18.22-1.57.39-3.02.5-4.37.11-1.34.39-2.69.84-4.03.11-.34.14-.7.08-1.09-.06-.39-.08-.76-.08-1.09-.11-.67-.2-1.31-.25-1.93-.06-.61-.08-1.03-.08-1.26.11-1.23.17-2.35.17-3.36s.06-1.96.17-2.85c.11-.9.17-1.82.17-2.77s.06-1.82.17-2.6c.22-1.79,1.01-3.02,2.35-3.7.45-.22.84-.42,1.18-.59.34-.17.73-.31,1.18-.42.45-.11.89-.17,1.34-.17s1.01-.05,1.68-.17c.56.11,1.15.28,1.76.5.61.23,1.26.45,1.93.67.67.11,1.31.11,1.93,0,.61-.11,1.26-.28,1.93-.5.45.11.84.23,1.18.34.34.11.73.28,1.18.5.11.11.22.25.34.42.11.17.17.37.17.59.11.56.22,1.18.34,1.85.11.67.17,1.34.17,2.01.11,1.34.19,2.69.25,4.03.06,1.34.25,2.69.59,4.03Z"/>
    <path class="cls-6" d="M985.44,376.05c-.11,1.12-.2,2.27-.25,3.44-.06,1.18-.2,2.32-.42,3.44-.11,1.12-.17,2.32-.17,3.61s-.23,2.6-.67,3.95c-.23.34-.5.7-.84,1.09-.34.39-.67.87-1.01,1.43,0,.45.03.84.08,1.18.06.34.14.73.25,1.18-.23.56-.56,1.04-1.01,1.43-.45.39-.9.7-1.34.92-1.12.34-2.16.67-3.11,1.01-.95.34-1.93.62-2.94.84-1.57.23-3.19.25-4.87.08s-3.36-.19-5.04-.08c-1.46,0-3,.03-4.62.08-1.62.06-3.27.08-4.95.08h-9.4c-.45.34-.92.45-1.43.34-.5-.11-.98-.05-1.43.17-.45-.22-.95-.25-1.51-.08-.56.17-1.12.14-1.68-.08-.45.11-.87.2-1.26.25-.39.06-.87.14-1.43.25-.45-.11-.84-.25-1.18-.42-.34-.17-.73-.08-1.18.25.22.34.47.7.76,1.09.28.39.48.87.59,1.43.34.45.61.9.84,1.34.22.45.45.95.67,1.51.22.45.39.92.5,1.43.11.5.22.98.34,1.43.56.56,1.18,1.12,1.85,1.68.67.56,1.34,1.12,2.02,1.68.56.11,1.15.23,1.76.34.61.11,1.2.23,1.76.34.67.11,1.34.23,2.01.34.67.11,1.4.11,2.18,0,.78-.22,1.51-.19,2.18.08.67.28,1.4.48,2.18.59,1.01-.11,2.04-.22,3.11-.34,1.06-.11,2.1-.22,3.11-.34.45-.34.92-.64,1.43-.92.5-.28.98-.59,1.43-.92,1.45-.34,2.91-.28,4.37.17.34.56.76,1.12,1.26,1.68.5.56.98,1.18,1.43,1.85.67,1.01,1.34,1.99,2.02,2.94.67.95,1.12,2.04,1.34,3.27.22.56.56,1.12,1.01,1.68.45.56.78,1.06,1.01,1.51.11.56.08,1.07-.08,1.51-.17.45-.31.95-.42,1.51-.45.45-1.01.84-1.68,1.18-.11,0-.23.11-.34.34-.11.23-.28.39-.5.5-.67.45-1.34.9-2.01,1.34-.67.45-1.29.9-1.85,1.34-1.57,1.34-3.19,2.01-4.87,2.01-.67,0-1.18.06-1.51.17-.56.11-1.12.34-1.68.67-.56.34-1.18.61-1.85.84-.56,0-1.12.08-1.68.25-.56.17-1.12.31-1.68.42-.34,0-.73-.03-1.18-.08-.45-.06-.9-.08-1.34-.08-1.01.11-2.02.05-3.02-.17-1.01-.23-2.01-.34-3.02-.34-.34-.11-.67-.23-1.01-.34-.34-.11-.67-.17-1.01-.17-1.91.11-3.69-.19-5.37-.92-1.68-.73-3.36-1.48-5.04-2.27-1.34-.34-2.3-.95-2.86-1.85-.78-.89-1.65-1.65-2.6-2.27-.95-.61-1.99-1.15-3.11-1.6-.67-.22-1.34-.53-2.01-.92-.67-.39-1.4-.81-2.18-1.26-.11-.45-.28-.9-.5-1.34-.23-.45-.45-.89-.67-1.34-.23-.34-.53-.67-.92-1.01-.39-.34-.76-.67-1.09-1.01-.34-.34-.62-.73-.84-1.18-.56-1.9-1.12-3.78-1.68-5.63-.56-1.85-1.29-3.67-2.18-5.46.11-.78.19-1.6.25-2.43.06-.84-.03-1.76-.25-2.77-.11-.22-.17-.5-.17-.84v-.84c0-.56.03-1.03.08-1.43.06-.39.03-.76-.08-1.09-.11-.9-.23-1.79-.34-2.69-.11-.89-.06-1.73.17-2.52.22-.89.45-1.79.67-2.69.22-.89.5-1.85.84-2.85-.11-.22-.17-.56-.17-1.01s-.06-.9-.17-1.34c.22-1.23.45-2.46.67-3.69.22-1.23.5-2.41.84-3.53.34-.67.7-1.31,1.09-1.93.39-.61.81-1.26,1.26-1.93.78-1.34,1.4-2.63,1.85-3.86,1.34-.67,2.15-1.09,2.43-1.26.28-.17.53-.42.76-.76.22-.34.95-1.01,2.18-2.01-.11-.34.17-.84.84-1.51.67-.67.89-1.23.67-1.68,1.01-1.9,2.46-3.41,4.37-4.54.67-.45,1.31-.92,1.93-1.43.61-.5,1.15-.98,1.6-1.43.56-.34,1.09-.47,1.6-.42.5.06.98.08,1.43.08.34-.11.7-.19,1.09-.25.39-.06.81-.14,1.26-.25.22-.11.5-.22.84-.34.34-.11.61-.28.84-.5.22-.11.45-.22.67-.34.22-.11.45-.17.67-.17,1.01-.11,1.96-.39,2.86-.84.89-.45,1.73-.89,2.52-1.34,1.68.67,3.41.9,5.21.67,1.12-.11,2.21-.05,3.27.17,1.06.23,2.04.5,2.94.84l2.35-.67c.89.11,1.73.39,2.52.84.78.45,1.57.9,2.35,1.34h1.51c.11.11.22.2.34.25.11.06.22.14.34.25,1.23,1.12,2.41,2.16,3.53,3.11,1.12.95,2.29,1.93,3.53,2.94,1.68,1.12,2.74,2.46,3.19,4.03.45.67.84,1.18,1.18,1.51,1.34,1.12,2.52,2.63,3.53,4.53,0,.23.03.53.08.92.06.39.08.76.08,1.09-.11.56,0,1.12.34,1.68.34.56.56,1.18.67,1.85ZM964.11,381.6v-4.2c0-.56-.06-.89-.17-1.01-.11-.34-.25-.67-.42-1.01s-.31-.56-.42-.67v-2.85l-.5-.5c-.45,0-1.01-.11-1.68-.34-.23-1.01-.5-1.79-.84-2.35-.34-.45-.79-.73-1.34-.84-.56-.11-1.18-.28-1.85-.5-1.46.45-3.02.84-4.7,1.18s-3.3.79-4.87,1.34c-.78.11-1.51.17-2.18.17s-1.34.06-2.02.17c-1.12.45-2.1,1.15-2.94,2.1-.84.95-1.65,1.88-2.43,2.77-.45.56-.84,1.18-1.18,1.85s-.73,1.29-1.18,1.85c-.11.11-.17.45-.17,1.01.34.9.84,1.46,1.51,1.68.67.11,1.34.28,2.01.5.67.23,1.4.45,2.18.67.34-.11.64-.17.92-.17s.59-.05.92-.17c1.34-.56,2.46-.61,3.36-.17.89.11,1.71.11,2.43,0,.73-.11,1.48-.22,2.27-.34.67.34,1.37.56,2.1.67.73.11,1.43.28,2.1.5,1.45.45,2.85.67,4.2.67s2.69-.17,4.03-.5c.56-.56.84-1.06.84-1.51Z"/>
    <path class="cls-6" d="M1052.61,367.32c-.34,1.46-1.01,2.69-2.01,3.69-.45.45-.81.92-1.09,1.43-.28.5-.65.87-1.09,1.09-.45.45-.78.84-1.01,1.18-.23.34-.45.79-.67,1.34-.56,1.12-1.51,1.23-2.85.34-.67-.45-1.12-.89-1.34-1.34l-2.01-.17c-.23,0-.39-.05-.5-.17-.56-.22-.95-.59-1.18-1.09-.23-.5-.62-.92-1.18-1.26-1.68-.78-3.36-1.34-5.04-1.68s-3.42-.22-5.21.34c-1.12,1.46-1.85,2.49-2.18,3.11-.34.62-.73,1.71-1.18,3.27,0,.79.14,1.54.42,2.27.28.73.53,1.54.76,2.43.56.9,1.29,1.51,2.18,1.85.45,0,.89.03,1.34.08.45.06.89.14,1.34.25.45.34.84.65,1.18.92.34.28.67.53,1.01.76.78.45,1.54,1.04,2.27,1.76.73.73,1.48,1.26,2.27,1.6.89.45,1.73.84,2.52,1.18.78.34,1.57.73,2.35,1.18.67.11,1.26.39,1.76.84.5.45.98.95,1.43,1.51.34.67.76,1.34,1.26,2.02.5.67.98,1.4,1.43,2.18.34,1.23.64,2.49.92,3.78.28,1.29.42,2.66.42,4.12,0,1.01.06,1.99.17,2.94.11.95.22,1.93.34,2.94.11.56.19,1.18.25,1.85.06.67.03,1.4-.08,2.18-.34.67-.67,1.4-1.01,2.18-.34.78-.62,1.62-.84,2.52-.45,1.68-1.06,3.25-1.85,4.7-.45.56-.95,1.12-1.51,1.68-.56.56-1.12,1.12-1.68,1.68-.34.23-.62.5-.84.84-.23.34-.45.62-.67.84-1.12.67-2.02,1.46-2.69,2.35-.67.9-1.29,1.85-1.85,2.85-.78.11-1.57.25-2.35.42-.78.17-1.62.36-2.52.59-.67.11-1.34.31-2.01.59-.67.28-1.29.53-1.85.76h-4.03c-1.23-.56-2.41-.79-3.53-.67-1.12.11-2.3.34-3.53.67-1.12.22-1.91.11-2.35-.34-.78-.56-1.6-.98-2.44-1.26-.84-.28-1.65-.48-2.43-.59-1.12-1.12-2.3-2.18-3.53-3.19-1.23-1.01-2.35-2.13-3.36-3.36,0-.34-.03-.7-.08-1.09-.06-.39-.08-.76-.08-1.09,0-.9.03-1.71.08-2.44.06-.73.08-1.48.08-2.27.34-1.57.92-3.08,1.76-4.53.84-1.45,1.65-2.91,2.44-4.37.67.11,1.29.23,1.85.34.56.11,1.18.28,1.85.5.56.45,1.23.84,2.02,1.18.78.34,1.57.67,2.35,1.01,1.01.56,1.79.78,2.35.67.45,0,.84.06,1.18.17.34.11.73.23,1.18.34,1.34.56,2.63.39,3.86-.5.56-.34,1.09-.7,1.6-1.09.5-.39.92-.92,1.26-1.6v-2.27c0-.84.06-1.65.17-2.43,0-.34-.06-.67-.17-1.01-.11-.34-.23-.7-.34-1.09-.11-.39-.23-.76-.34-1.09l-2.35-1.85c-.45-.56-.78-1.15-1.01-1.76-.23-.61-.62-1.09-1.18-1.43l-4.03-1.18c-.67-.34-1.23-.73-1.68-1.18-.45-.45-.9-.84-1.34-1.18-.23-.22-.45-.39-.67-.5-.23-.11-.45-.22-.67-.34-.45-.11-.9-.22-1.34-.34-.45-.11-.95-.28-1.51-.5-.67-.56-1.57-1.06-2.69-1.51-.67-.78-1.12-1.57-1.34-2.35-.23-.78-.62-1.51-1.18-2.18-.45-.56-.9-1.18-1.34-1.85-.45-.67-.95-1.34-1.51-2.02-.34-1.23-.65-2.49-.92-3.78-.28-1.29-.59-2.55-.92-3.78-.56-1.68-.62-3.3-.17-4.87.22-1.01.48-2.07.76-3.19.28-1.12.64-2.24,1.09-3.36.67-1.34,1.51-3.19,2.52-5.54,1.12-1.79,2.6-3.44,4.45-4.95,1.85-1.51,3.67-3.05,5.46-4.62.45-.22.95-.42,1.51-.59.56-.17,1.06-.31,1.51-.42,1.34-.45,2.35-.81,3.02-1.09.67-.28,1.43-.48,2.27-.59.84-.11,2.1-.17,3.78-.17h.34c1.57-.56,3.11-.73,4.62-.5,1.51.23,2.99.56,4.45,1.01.34,0,.7.03,1.09.08.39.06.64.08.76.08,1.01.56,1.87,1.23,2.6,2.01.73.79,1.54,1.51,2.43,2.18.56.34,1.18.65,1.85.92.67.28,1.29.59,1.85.92,1.12.9,2.1,1.91,2.94,3.02.84,1.12,1.65,2.18,2.43,3.19.22.78.39,1.57.5,2.35.11.79.28,1.62.5,2.52Z"/>
    <path class="cls-6" d="M1121.63,423.24c-.56,1.12-1.07,2.24-1.51,3.36-.45,1.12-.95,2.24-1.51,3.36l-3.53,3.36c-2.13,2.35-4.65,3.75-7.56,4.2-1.46.22-2.94.31-4.45.25-1.51-.06-3.05-.31-4.62-.76-.9-.23-1.82-.53-2.77-.92-.95-.39-1.88-.81-2.77-1.26-.67-.34-1.4-.59-2.18-.76-.78-.17-1.62-.31-2.52-.42-.34-.22-.73-.47-1.18-.76-.45-.28-.95-.59-1.51-.92-.78-1.34-1.71-2.57-2.77-3.69-1.07-1.12-1.88-2.52-2.43-4.2,0-1.34-.06-2.27-.17-2.77-.11-.5-.45-1.54-1.01-3.11v-11.08c0-.89-.03-1.76-.08-2.6-.06-.84-.2-1.65-.42-2.43-.11-.78-.14-1.45-.08-2.01.06-.56.14-1.23.25-2.01.34-1.34.34-2.74,0-4.2.34-1.34.73-2.69,1.18-4.03,0-.67-.17-1.62-.5-2.85-.34-1.23-.73-2.41-1.18-3.53-.56,0-1.12-.06-1.68-.17-.56-.11-1.18-.22-1.85-.34-.67.23-1.37.45-2.1.67-.73.23-1.54.45-2.43.67-.34.23-.84.34-1.51.34-.11,0-.31-.14-.59-.42-.28-.28-.42-.48-.42-.59-.11-.34-.17-.67-.17-1.01v-1.01c-.11-.89-.17-1.85-.17-2.85v-2.85c0-.9-.06-1.76-.17-2.6-.11-.84-.28-1.65-.5-2.43.11-.56.22-1.09.34-1.6.11-.5.22-.98.34-1.43v-3.19c0-.89.14-1.68.42-2.35.28-.67.87-1.29,1.76-1.85.67-.22,1.43-.34,2.27-.34h2.77c.89.11,1.82.08,2.77-.08.95-.17,1.82-.64,2.6-1.43.22-.22.53-.34.92-.34h.92c2.24.11,4.2-.78,5.88-2.69.11-.67.45-1.62,1.01-2.85-.34-.78-.62-1.65-.84-2.6-.23-.95-.5-1.87-.84-2.77.22-.34.45-.67.67-1.01.22-.34.39-.73.5-1.18.22-.56.22-1.09,0-1.6-.23-.5-.28-.92-.17-1.26-.23-.56-.34-.95-.34-1.18s-.11-.61-.34-1.18c.11-.22.22-.47.34-.76.11-.28.22-.53.34-.76.11-.45.22-.81.34-1.09.11-.28.22-.64.34-1.09h1.85c.56.11,1.15.2,1.76.25.61.06,1.2.03,1.76-.08.22,0,.5.03.84.08.34.06.67.08,1.01.08,1.9.23,3.78.5,5.63.84,1.85.34,3.67.5,5.46.5.22,0,.48.06.76.17.28.11.48.23.59.34.45.23.84.5,1.18.84-.11.45-.28.87-.5,1.26-.23.39-.39.76-.5,1.09-.11.45-.2.95-.25,1.51-.06.56-.14,1.12-.25,1.68-.11.78-.23,1.57-.34,2.35-.11.79-.28,1.68-.5,2.69.11.11.17.39.17.84s.06.84.17,1.18c-.11.78-.25,1.51-.42,2.18-.17.67-.31,1.46-.42,2.35,1.45,1.12,3.05,2.07,4.79,2.85,1.73.79,3.83,1.51,6.3,2.18,1.23.79,1.96,2.07,2.18,3.86,0,2.58-.17,5.15-.5,7.72-.11,1.01-.23,2.02-.34,3.02-.11,1.01-.11,2.01,0,3.02-1.46.9-3.19,1.34-5.21,1.34-.34,0-.67.06-1.01.17-.34.11-.62.17-.84.17-1.79.11-3.16.28-4.11.5-.95.23-2.43.78-4.45,1.68-.34.45-.5,1.06-.5,1.85-.11.67-.2,1.34-.25,2.02-.06.67-.03,1.4.08,2.18,0,.11-.11.23-.34.34-.67,1.34-1.18,2.35-1.51,3.02-.34.67-.53,1.34-.59,2.02-.06.67-.08,1.79-.08,3.36v8.06c0,.56.06.9.17,1.01.11,1.01.61,1.85,1.51,2.52.45.11.87.23,1.26.34.39.11.7.39.92.84,1.01,1.34,2.15,2.04,3.44,2.1,1.29.06,2.66-.14,4.11-.59.45-.22.89-.45,1.34-.67.45-.22.89-.39,1.34-.5.89.23,1.45.73,1.68,1.51.22.78.61,1.46,1.18,2.01.56.56,1.03,1.18,1.43,1.85.39.67.81,1.34,1.26,2.01.22.67.5,1.43.84,2.27.34.84.61,1.76.84,2.77Z"/>
  </g>
</svg>