<?xml version="1.0" encoding="UTF-8"?>
<svg id="logo" xmlns="http://www.w3.org/2000/svg" xmlns:xlink="http://www.w3.org/1999/xlink" viewBox="0 0 800 800">
  <defs>
    <style>
      .cls-1 {
        fill: none;
      }

      .cls-2 {
        clip-path: url(#clippath-1);
      }

      .cls-3 {
        fill: #fff;
      }
    </style>
    <clipPath id="clippath-1">
      <rect class="cls-1" x="240" y="180.25" width="320" height="320" rx="40" ry="40"/>
    </clipPath>
  </defs>
  <g>
    <path d="M201.76,555.65c-.47,1.01-1.09,1.84-1.86,2.5-.77.66-1.43,1.41-1.97,2.27-.62.16-1.22.43-1.8.81-.58.39-1.1.78-1.57,1.16-.77.46-1.47.46-2.09,0-.31-.15-.56-.33-.76-.52-.19-.19-.45-.37-.76-.52-.62-.54-1.43-.74-2.44-.58-.08.08-.19.04-.35-.12v-1.16c-.08-.08-.17-.19-.29-.35-.12-.15-.25-.23-.41-.23-1.55-.62-3.02-.66-4.42-.12-.46.08-.93.19-1.39.35-.46.16-.93.31-1.39.46-.31.47-.6.93-.87,1.39-.27.47-.56.89-.87,1.28.08.62.13,1.24.17,1.86.04.62.1,1.24.18,1.86.39.46.76.95,1.1,1.45.35.5.68,1.03.99,1.57.7.54,1.43,1.07,2.21,1.57.77.5,1.51,1.07,2.21,1.68.47.31.95.56,1.45.76.5.19.95.48,1.34.87.39.39.76.72,1.1.99.35.27.68.6.99.99.23.08.46.19.7.35.23.16.46.31.7.46,1.32.85,2.32,2.02,3.02,3.49.39.62.79,1.28,1.22,1.98.42.7.83,1.36,1.22,1.98.54.47.91,1.01,1.1,1.63.19.62.41,1.24.64,1.86.08.08.12.23.12.46.15.93.41,1.82.76,2.67.35.85.71,1.7,1.1,2.56.23,1.01.37,1.99.41,2.96.04.97-.02,1.92-.17,2.85,0,.77-.1,1.53-.29,2.27-.19.74-.45,1.41-.76,2.03-.08.08-.12.16-.12.23s-.08.19-.23.35c-.7.7-1.26,1.47-1.69,2.32-.43.85-.91,1.7-1.45,2.56-.08.08-.12.17-.12.29s-.08.21-.23.29c-.77.54-1.41,1.12-1.92,1.74-.51.62-1.07,1.24-1.69,1.86-.31.31-.7.58-1.16.81-.46.23-.89.5-1.28.81l-2.44,1.16c-.78.08-1.57.19-2.38.35-.81.15-1.65.43-2.5.81-.54.31-1.14.54-1.8.7-.66.15-1.3.31-1.92.47-.31.08-.62.15-.93.23-.31.08-.62.15-.93.23-1.01-.77-2.13-1.16-3.37-1.16-.85,0-1.59-.16-2.21-.46-.93-.39-1.82-.8-2.67-1.22-.85-.43-1.63-.99-2.32-1.69-.47-.39-.93-.74-1.4-1.05-.46-.31-.89-.62-1.28-.93-.31-.31-.68-.52-1.1-.64-.43-.12-.83-.25-1.22-.41-.54-.39-.85-.81-.93-1.28.08-.62.33-1.2.76-1.74.42-.54.79-1.12,1.1-1.74,0-.47.12-1.05.35-1.74.7-.93,1.43-1.88,2.21-2.85.77-.97,1.55-1.96,2.32-2.96.31-.23.66-.48,1.05-.75.39-.27.81-.56,1.28-.87,1.55.39,3.02.81,4.42,1.28,1.39.47,2.83.89,4.3,1.28.31-.08.54-.17.7-.29.15-.12.27-.21.35-.29.23-.08.42-.15.58-.23.16-.08.27-.15.35-.23h2.09c.08-.15.17-.29.29-.41.12-.12.21-.25.29-.41.31-.77.62-1.51.93-2.21.31-.7.5-1.47.58-2.32-.16-.62-.33-1.28-.52-1.98-.19-.7-.56-1.39-1.1-2.09-.31-.23-.66-.5-1.05-.81-.39-.31-.77-.62-1.16-.93-1.32-.15-2.66-.5-4.01-1.05-1.36-.54-2.69-.81-4.01-.81-.54-.15-.97-.41-1.28-.76s-.66-.68-1.05-.99c-.54-.15-1.12-.27-1.74-.35-.62-.08-1.12-.39-1.51-.93-1.24-.7-2.29-1.2-3.14-1.51-.39-.47-.76-.93-1.1-1.39-.35-.46-.72-.89-1.1-1.28-.31-.39-.6-.87-.87-1.45-.27-.58-.6-1.14-.99-1.68-.31-.39-.58-.83-.81-1.34-.23-.5-.47-1.03-.7-1.57-.23-1.08-.47-2.25-.7-3.49.15-.85.29-1.72.41-2.61.12-.89.21-1.8.29-2.73l-.47-1.16c.31-.15.54-.39.7-.7.16-.31.31-.62.47-.93.15-.47.35-.85.58-1.16.23-.31.31-.74.23-1.28,0-1.47.39-2.83,1.16-4.07.15-.31.29-.58.41-.81.12-.23.21-.46.29-.7.39-.23.71-.48.99-.76s.44-.44.52-.52c.39-.39.54-.76.46-1.1-.08-.35-.08-.68,0-.99.31-.46.66-.93,1.05-1.39.39-.46.81-.97,1.28-1.51.54-.39,1.12-.71,1.74-.99.62-.27,1.2-.68,1.74-1.22.15-.23.35-.41.58-.52.23-.12.5-.21.81-.29.39-.23.81-.42,1.28-.58.47-.15.93-.35,1.39-.58.77-.15,1.57-.27,2.38-.35.81-.08,1.61-.15,2.38-.23.08,0,.17-.02.29-.06.12-.04.25-.02.41.06.85.31,1.72.31,2.61,0,.89-.31,1.8-.42,2.73-.35.85,0,1.69.12,2.5.35.81.23,1.61.43,2.38.58.85.62,1.7,1.18,2.56,1.68.85.5,1.78.91,2.79,1.22.31.31.6.64.87.99.27.35.56.72.87,1.1.31.31.62.58.93.81.31.23.58.5.81.81.62,1.16,1.22,2.31,1.8,3.43.58,1.12,1.14,2.23,1.68,3.31Z"/>
    <path d="M231.16,552.05c.23.54.31,1.1.23,1.68-.08.58-.19,1.14-.35,1.69-.08.47-.23.91-.47,1.34-.23.43-.43.83-.58,1.22-.31.47-.64.89-.99,1.28-.35.39-.68.78-.99,1.16-.23.08-.43.21-.58.41-.16.19-.35.37-.58.52-.54.39-1.39.75-2.55,1.1-1.16.35-2.09.52-2.79.52-.39,0-.7-.08-.93-.23-.47,0-.93-.02-1.39-.06-.47-.04-.89-.06-1.28-.06-.23-.15-.48-.31-.76-.47-.27-.15-.48-.31-.64-.46-.39-.15-.8-.23-1.22-.23h-1.22c-.31-.23-.68-.44-1.1-.64-.43-.19-.83-.37-1.22-.52l-.7-2.09c.08-.62.15-1.3.23-2.03.08-.74,0-1.49-.23-2.27-.23-.15-.23-.35,0-.58.23-.54.23-1.08,0-1.63-.23-.54-.23-1.08,0-1.63.08-.15.12-.39.12-.7-.23-.46-.23-.91,0-1.34.23-.42.42-.79.58-1.1-.08-.23-.12-.48-.12-.76v-.64c.08-.08.13-.17.18-.29.04-.12.13-.21.29-.29.62-.15,1.14-.44,1.57-.87.42-.43.91-.76,1.45-.99.54-.46,1.14-.85,1.8-1.16.66-.31,1.3-.62,1.92-.93h1.63c.47,0,.93.08,1.39.23.23.08.5.12.81.12h.93c1.08-.15,1.94.27,2.56,1.28.16.39.42.62.81.7.39.08.74.19,1.05.35.77.7,1.28,1.59,1.51,2.67.15.47.33.93.52,1.39.19.47.33.93.41,1.39.15.46.29.95.41,1.45.12.5.21.99.29,1.45ZM230.46,578.78c-.16.46-.23.99-.23,1.57v1.8c.08.54.08,1.1,0,1.69-.08.58-.12,1.14-.12,1.68l-.81,1.16c.39.39.62.81.7,1.28.08.46.12.97.12,1.51v1.68c0,.58-.04,1.18-.12,1.8-.08.54-.23,1.12-.47,1.74-.23.62-.43,1.28-.58,1.98,0,.77-.02,1.69-.06,2.73-.04,1.05-.02,2.07.06,3.08.08,1.47,0,2.96-.23,4.47-.23,1.51-.7,2.93-1.39,4.24,0,.62.08,1.22.23,1.8.15.58.31,1.18.46,1.8,0,.08-.04.17-.12.29-.08.12-.12.25-.12.41-.39.54-.85,1.01-1.39,1.39-.08,0-.16.04-.23.12h-.46c-.85,0-1.72.06-2.61.17-.89.12-1.88.06-2.96-.17-.31-.16-.64-.35-.99-.58s-.72-.43-1.1-.58c-.31,0-.68-.02-1.1-.06-.43-.04-.83-.1-1.22-.17-.62-.7-1.24-1.43-1.86-2.21-.23-.15-.5-.27-.81-.35-.31-.08-.62-.19-.93-.35-.54-.39-.74-1.01-.58-1.86.15-.85.35-1.59.58-2.21.23-1.01.19-1.98-.12-2.91l-.46-1.63c0-.62-.04-1.2-.12-1.74-.08-.54-.08-1.08,0-1.63.08-.77.1-1.51.06-2.21-.04-.7-.06-1.43-.06-2.21.08-1.08.12-2.15.12-3.2v-3.08c0-.39.04-.62.12-.7.39-.62.58-1.22.58-1.8v-1.8c-.08-.62-.06-1.26.06-1.92.12-.66.1-1.26-.06-1.8v-2.03c0-.66.04-1.34.12-2.03.08-.39.13-.79.18-1.22.04-.42-.02-.91-.18-1.45.7-.31,1.3-.54,1.8-.7.5-.15.99-.23,1.45-.23h.99c.35,0,.68-.04.99-.12.77-.15,1.43-.31,1.98-.47.39.08.71.21.99.41.27.19.56.37.87.52.54,0,1.08-.12,1.63-.35.54-.08,1.03-.04,1.45.12.42.16.76.54.99,1.16.08.08.13.16.18.23.04.08.1.16.17.23l.81.47c.54.08,1.01-.02,1.39-.29.39-.27.77-.44,1.16-.52.47,0,.74.19.81.58.23.54.39,1.36.47,2.44Z"/>
    <path d="M289.61,562.16c-.39,1.39-.62,2.81-.7,4.24-.08,1.43-.16,2.85-.23,4.24-.08,1.39-.12,2.81-.12,4.24v4.24c0,1.16-.08,2.32-.23,3.49-.16,1.16-.27,2.36-.35,3.6,0,.31-.02.66-.06,1.05-.04.39-.06.77-.06,1.16,0,1.09-.16,2.09-.47,3.02-.23,1.01-.35,2.02-.35,3.02,0,.54-.04,1.12-.12,1.74-.08.62-.23,1.24-.47,1.86-.08.39-.12.97-.12,1.74-.08.62-.23,1.24-.46,1.86-.16.54-.31,1.07-.47,1.57-.16.5-.31,1.07-.47,1.69-.31.46-.6.95-.87,1.45-.27.5-.56.99-.87,1.45-.7.39-1.28.89-1.74,1.51-.77.62-1.53,1.28-2.27,1.98-.74.7-1.45,1.36-2.15,1.98-.93.78-1.86,1.16-2.79,1.16-.08,0-.18.04-.29.12-.12.08-.25.12-.41.12-1.47.15-2.67.62-3.6,1.39-.08.08-.17.13-.29.17-.12.04-.25.13-.41.29-1.01.15-2.03.08-3.08-.23-1.05-.31-2-.7-2.85-1.16h-1.86c-.31,0-.62-.02-.93-.06-.31-.04-.66-.1-1.05-.17-2.09-.47-4.11-1.36-6.04-2.67-.23-.23-.5-.39-.81-.46-.31-.08-.66-.15-1.05-.23-.47-.08-.93-.19-1.39-.35-.47-.15-.93-.31-1.39-.46-.39-.23-.7-.56-.93-.99-.23-.42-.46-.79-.7-1.1-.39-.77-.74-1.49-1.05-2.15-.31-.66-.66-1.37-1.05-2.15-.31-.62-.66-1.26-1.05-1.92-.39-.66-.77-1.26-1.16-1.8,0-.08.04-.12.12-.12s.12-.04.12-.12l-.23-.23c0,.08-.02.14-.06.17-.04.04-.06.1-.06.17-.08-.08-.17-.13-.29-.17-.12-.04-.21-.1-.29-.17-.31-.15-.54-.41-.7-.76-.16-.35-.31-.68-.47-.99.23-.46.35-1.08.35-1.86.15-1.01.12-1.9-.12-2.67-.31-1.16-.45-2.32-.41-3.49.04-1.16.1-2.36.17-3.6,0-.39.15-.89.47-1.51.54-1.32.85-2.48.93-3.49.77-1.08,1.39-2.25,1.86-3.49.47-1.24,1.01-2.4,1.63-3.49.39-.15.71-.31.99-.46.27-.15.56-.27.87-.35.15-.15.27-.35.35-.58.08-.23.23-.42.46-.58.23-.15.5-.29.81-.41.31-.12.66-.21,1.05-.29.15-.23.29-.46.41-.7s.25-.47.41-.7c.23-.23.39-.35.47-.35,1.78-.62,3.64-1.08,5.58-1.39.31-.08.64-.13.99-.17.35-.04.68-.1.99-.17,1.01-.31,2.01-.42,3.02-.35,1.01.08,2.01.08,3.02,0,.23,0,.48.04.76.12.27.08.52.16.76.23.23,0,.54.08.93.23.39.16.62.16.7,0,.77-.15,1.51.08,2.21.7.15.08.48.1.99.06.5-.04.79-.06.87-.06.7-.15,1.1-.48,1.22-.99.12-.5.1-.76-.06-.76l-.23-.23c.08-1.01.06-2.01-.06-3.02-.12-1.01-.14-2.01-.06-3.02.08-.39.12-.79.12-1.22v-1.22c-.08-.39-.08-.76,0-1.1.08-.35.12-.72.12-1.1s.02-.76.06-1.1-.02-.64-.17-.87c-.23-.62-.33-1.24-.29-1.86.04-.62.13-1.24.29-1.86.23-.85.41-1.7.52-2.56.12-.85.1-1.78-.06-2.79v-.58c.31-.77.48-1.55.52-2.32.04-.77.1-1.47.18-2.09.39-.54.87-.91,1.45-1.1.58-.19,1.02-.44,1.34-.76,1.24-.08,2.4-.08,3.49,0,1.08.08,2.17-.04,3.25-.35.54.23,1.07.41,1.57.52.5.12.95.21,1.34.29.85.62,1.28,1.43,1.28,2.44v1.28c0,.47-.04.93-.12,1.39.08.31.19.58.35.81.15.23.27.54.35.93-.08.16-.14.37-.17.64-.04.27-.1.56-.18.87.08.31.15.7.23,1.16.08.47.15.89.23,1.28,0,1.24.02,2.44.06,3.6.04,1.16.02,2.32-.06,3.49,0,1.24.02,2.05.06,2.44.04.39.21,1.16.52,2.32ZM272.64,591.44c-.23-.62-.41-1.22-.52-1.8-.12-.58-.25-1.1-.41-1.57-.23-.54-.52-1.05-.87-1.51-.35-.47-.64-.97-.87-1.51-.77-.39-1.36-.77-1.74-1.16-.39-.15-.76-.27-1.1-.35-.35-.08-.72-.15-1.1-.23-.31-.15-.6-.29-.87-.41-.27-.12-.56-.21-.87-.29-.54.23-1.07.47-1.57.7-.5.23-.99.46-1.45.7-1.24.54-2.09,1.55-2.56,3.02-.08.31-.12.62-.12.93s-.04.66-.12,1.05c-.08.23-.21.47-.41.7-.19.23-.37.54-.52.93v2.09c.15,1.01.44,1.96.87,2.85.42.89,1.14,1.65,2.15,2.27.23.08.45.21.64.41.19.19.44.37.76.52.46.47.93.7,1.39.7,1.24-.15,2.44-.29,3.6-.41s2.28-.41,3.37-.87c.47-.39.81-.77,1.05-1.16.23-.31.42-.6.58-.87.15-.27.35-.56.58-.87v-3.02c0-.31.04-.58.12-.81Z"/>
    <path d="M349.34,573.08c-.08.77-.14,1.57-.18,2.38-.04.81-.14,1.61-.29,2.38-.08.77-.12,1.61-.12,2.5s-.16,1.8-.46,2.73c-.16.23-.35.48-.58.76-.23.27-.46.6-.7.99,0,.31.02.58.06.81.04.23.1.5.18.81-.16.39-.39.72-.7.99-.31.27-.62.48-.93.64-.77.23-1.49.47-2.15.7-.66.23-1.34.43-2.03.58-1.09.16-2.21.17-3.37.06s-2.32-.13-3.49-.06c-1.01,0-2.07.02-3.2.06-1.12.04-2.27.06-3.43.06h-6.51c-.31.23-.64.31-.99.23-.35-.08-.68-.04-.99.12-.31-.15-.66-.17-1.05-.06-.39.12-.77.1-1.16-.06-.31.08-.6.14-.87.17-.27.04-.6.1-.99.17-.31-.08-.58-.17-.81-.29-.23-.12-.5-.06-.81.17.15.23.33.48.52.76.19.27.33.6.41.99.23.31.42.62.58.93.15.31.31.66.46,1.05.15.31.27.64.35.99.08.35.15.68.23.99.39.39.81.77,1.28,1.16.47.39.93.78,1.39,1.16.39.08.79.16,1.22.23.42.08.83.16,1.22.23.46.08.93.16,1.39.23.46.08.97.08,1.51,0,.54-.15,1.05-.13,1.51.06.47.19.97.33,1.51.41.7-.08,1.41-.15,2.15-.23.74-.08,1.45-.15,2.15-.23.31-.23.64-.44.99-.64.35-.19.68-.41.99-.64,1.01-.23,2.01-.19,3.02.12.23.39.52.77.87,1.16.35.39.68.81.99,1.28.46.7.93,1.38,1.39,2.03.46.66.77,1.41.93,2.27.15.39.39.78.7,1.16.31.39.54.74.7,1.05.08.39.06.74-.06,1.05-.12.31-.21.66-.29,1.05-.31.31-.7.58-1.16.81-.08,0-.16.08-.23.23-.08.16-.19.27-.35.35-.47.31-.93.62-1.39.93-.47.31-.89.62-1.28.93-1.08.93-2.21,1.39-3.37,1.39-.47,0-.81.04-1.05.12-.39.08-.78.23-1.16.47-.39.23-.81.42-1.28.58-.39,0-.77.06-1.16.17-.39.12-.77.21-1.16.29-.23,0-.51-.02-.81-.06-.31-.04-.62-.06-.93-.06-.7.08-1.39.04-2.09-.12-.7-.16-1.39-.23-2.09-.23-.23-.08-.47-.16-.7-.23s-.47-.12-.7-.12c-1.32.08-2.56-.13-3.72-.64-1.16-.5-2.32-1.03-3.49-1.57-.93-.23-1.59-.66-1.98-1.28-.54-.62-1.14-1.14-1.8-1.57-.66-.42-1.38-.79-2.15-1.1-.47-.15-.93-.37-1.39-.64-.47-.27-.97-.56-1.51-.87-.08-.31-.19-.62-.35-.93-.16-.31-.31-.62-.47-.93-.16-.23-.37-.46-.64-.7-.27-.23-.52-.46-.76-.7s-.43-.5-.58-.81c-.39-1.32-.78-2.61-1.16-3.89-.39-1.28-.89-2.54-1.51-3.78.08-.54.13-1.1.18-1.69.04-.58-.02-1.22-.18-1.92-.08-.15-.12-.35-.12-.58v-.58c0-.39.02-.72.06-.99.04-.27.02-.52-.06-.76-.08-.62-.16-1.24-.23-1.86-.08-.62-.04-1.2.12-1.74.15-.62.31-1.24.46-1.86.16-.62.35-1.28.58-1.98-.08-.15-.12-.39-.12-.7s-.04-.62-.12-.93c.16-.85.31-1.7.47-2.56.15-.85.35-1.66.58-2.44.23-.47.48-.91.75-1.34.27-.42.56-.87.87-1.34.54-.93.97-1.82,1.28-2.67.93-.46,1.49-.76,1.68-.87.19-.12.37-.29.52-.52s.66-.7,1.51-1.39c-.08-.23.12-.58.58-1.05.46-.46.62-.85.46-1.16.7-1.32,1.7-2.36,3.02-3.14.47-.31.91-.64,1.34-.99.43-.35.79-.68,1.1-.99.39-.23.76-.33,1.1-.29.35.04.68.06.99.06.23-.08.48-.13.76-.17.27-.04.56-.1.87-.17.15-.08.35-.15.58-.23.23-.08.42-.19.58-.35.15-.08.31-.15.47-.23.15-.08.31-.12.46-.12.7-.08,1.36-.27,1.98-.58.62-.31,1.2-.62,1.74-.93,1.16.46,2.36.62,3.6.46.77-.08,1.53-.04,2.27.12.74.16,1.41.35,2.03.58l1.63-.46c.62.08,1.2.27,1.74.58.54.31,1.08.62,1.63.93h1.05c.08.08.15.14.23.17.08.04.15.1.23.17.85.78,1.67,1.49,2.44,2.15.77.66,1.59,1.34,2.44,2.03,1.16.78,1.9,1.71,2.21,2.79.31.47.58.81.81,1.05.93.78,1.74,1.82,2.44,3.14,0,.16.02.37.06.64.04.27.06.52.06.75-.08.39,0,.78.23,1.16.23.39.39.81.47,1.28ZM334.58,576.92v-2.91c0-.39-.04-.62-.12-.7-.08-.23-.18-.47-.29-.7-.12-.23-.22-.39-.29-.46v-1.98l-.35-.35c-.31,0-.7-.08-1.16-.23-.16-.7-.35-1.24-.58-1.63-.23-.31-.54-.5-.93-.58-.39-.08-.81-.19-1.28-.35-1.01.31-2.09.58-3.25.81-1.16.23-2.29.54-3.37.93-.54.08-1.05.12-1.51.12s-.93.04-1.4.12c-.77.31-1.45.8-2.03,1.45-.58.66-1.14,1.3-1.68,1.92-.31.39-.58.81-.81,1.28-.23.46-.5.89-.81,1.28-.08.08-.12.31-.12.7.23.62.58,1.01,1.05,1.16.46.08.93.19,1.39.35.46.16.97.31,1.51.46.23-.08.44-.12.64-.12s.41-.04.64-.12c.93-.39,1.7-.42,2.32-.12.62.08,1.18.08,1.68,0,.5-.08,1.03-.15,1.57-.23.46.23.95.39,1.45.47.5.08.99.19,1.45.35,1.01.31,1.97.46,2.91.46s1.86-.12,2.79-.35c.39-.39.58-.74.58-1.05Z"/>
    <path d="M429.05,575.76c-.08.39-.12.81-.12,1.28s-.04.89-.12,1.28c-.16.93-.35,1.84-.58,2.73-.23.89-.62,1.76-1.16,2.61-.77,1.09-1.45,2.23-2.03,3.43-.58,1.2-1.18,2.46-1.8,3.78-.54.46-1.07.91-1.57,1.34-.51.43-.99.87-1.45,1.34-.77.78-1.01,1.71-.7,2.79.08.08.17.23.29.46.12.23.21.43.29.58.39.62.77,1.2,1.16,1.74.39.62.76,1.24,1.1,1.86.35.62.6,1.24.76,1.86.08.16.15.31.23.47.08.16.15.31.23.46.46,1.47.81,2.44,1.05,2.91.23.46.85,1.24,1.86,2.32-.47.62-.89,1.28-1.28,1.98-.39.7-.77,1.39-1.16,2.09-.62,1.24-1.39,2.4-2.32,3.49-.93,1.08-1.94,2.09-3.02,3.02-.47.23-.91.25-1.34.06-.43-.19-.87-.29-1.34-.29-.31,0-.64.02-.99.06-.35.04-.72.02-1.1-.06-.31-.08-.58-.19-.81-.35-.23-.16-.43-.27-.58-.35-.47-.62-.97-1.2-1.51-1.74-.54-.54-1.01-1.2-1.39-1.98-.23-.7-.74-1.28-1.51-1.74-.47-.39-.83-.81-1.1-1.28-.27-.46-.6-.89-.99-1.28-.47-.23-1.12-.27-1.98-.12-.77.77-1.68,1.45-2.73,2.03-1.05.58-1.92,1.3-2.61,2.15-.77-.23-1.47-.43-2.09-.58-.62-.15-1.28-.27-1.98-.35-.23.08-.5.17-.81.29-.31.12-.66.25-1.05.41-.31-.16-.6-.29-.87-.41-.27-.12-.56-.21-.87-.29-.47.08-.93.16-1.39.23-.47.08-.97.15-1.51.23-.39.08-.81.12-1.28.12h-1.51c-.31-.16-.64-.31-.99-.47-.35-.15-.68-.35-.99-.58-.31-.15-.68-.31-1.1-.46-.43-.15-.87-.27-1.34-.35-.31-.23-.68-.54-1.1-.93-.43-.39-.83-.77-1.22-1.16-.85-.85-1.78-1.39-2.79-1.63-.08,0-.35-.08-.81-.23-.39-.39-.76-.79-1.1-1.22-.35-.42-.83-.71-1.45-.87-.16,0-.31-.06-.46-.17-.16-.12-.31-.21-.47-.29-.16-.15-.33-.33-.52-.52-.19-.19-.37-.33-.52-.41-.23-1.16-.47-2.05-.7-2.67-.23-.54-.54-.87-.93-.99s-.77-.33-1.16-.64c-.31-.39-.66-.83-1.05-1.34-.39-.5-.85-.91-1.39-1.22-.47-.23-.79-.58-.99-1.05-.19-.46-.37-.93-.52-1.39-.23-.7-.48-1.43-.76-2.21-.27-.77-.48-1.55-.64-2.32-1.09-.93-1.67-2.09-1.74-3.49,0-.23-.04-.42-.12-.58-.23-1.32-.41-2.28-.52-2.91-.12-.62-.16-1.2-.12-1.74.04-.54.1-1.32.18-2.32l-.7-1.98c.08-.39.23-.7.47-.93.23-.23.47-.42.7-.58,0-.15.02-.29.06-.41.04-.12.02-.21-.06-.29-.31-.47-.54-.99-.7-1.57-.16-.58-.31-1.18-.47-1.8.16-.23.27-.54.35-.93.08-.39.15-.74.23-1.05,0-.39-.04-.74-.12-1.05,0-.7.31-1.2.93-1.51.15,0,.29-.02.41-.06.12-.04.21-.06.29-.06.15-.39.06-.68-.29-.87-.35-.19-.52-.52-.52-.99.15-.15.33-.41.52-.76.19-.35.33-.68.41-.99v-1.98c.23-.15.45-.39.64-.7.19-.31.44-.62.76-.93.7-.54,1.16-1.24,1.39-2.09.46-.85,1.08-1.63,1.86-2.32.31-.23.56-.52.76-.87.19-.35.37-.68.52-.99.15-.39.31-.74.47-1.05.15-.31.35-.62.58-.93.23-.23.52-.42.87-.58.35-.15.68-.31.99-.46.39-.46.7-.93.93-1.39.23-.47.62-.85,1.16-1.16.31-.15.52-.37.64-.64.12-.27.29-.56.52-.87.62-.23,1.12-.66,1.51-1.28.39-.62.81-1.16,1.28-1.63.16-.23.31-.42.47-.58.15-.15.27-.27.35-.35.62-.31,1.22-.5,1.8-.58.58-.08,1.18-.12,1.8-.12.23-.15.52-.33.87-.52.35-.19.68-.37.99-.52.85-.39,1.47-.62,1.86-.7.39-.08,1.24-.04,2.56.12.15-.08.35-.15.58-.23.23-.08.47-.15.7-.23.23-.15.43-.25.58-.29.15-.04.39-.1.7-.17h2.79c.23,0,.47.02.7.06.23.04.47.06.7.06.39.16.77.27,1.16.35.39.08.74.16,1.05.23.39.08.76.14,1.1.17.35.04.72.1,1.1.17.23,0,.39-.04.47-.12.08,0,.23-.12.47-.35.15,0,.25-.02.29-.06.04-.04.1-.06.17-.06.47.08.93.04,1.4-.12.46-.15.93-.23,1.39-.23.31.23.56.43.76.58.19.16.33.35.41.58.93.93,2.01,1.55,3.25,1.86.39.08.7.27.93.58.23.31.54.54.93.7.54.23,1.1.45,1.69.64.58.19,1.14.37,1.68.52.08.16.13.27.18.35.04.08.1.19.17.35.15.16.31.39.47.7.31.16.68.33,1.1.52.42.19.79.41,1.1.64.39.31.77.54,1.16.7.39.16.77.35,1.16.58.47.46.95.93,1.45,1.39.5.46,1.03.89,1.57,1.28.08.08.18.14.29.17.12.04.21.14.29.29.39.47.81.91,1.28,1.34.47.43.93.83,1.39,1.22.47.47.83,1.03,1.1,1.69.27.66.33,1.41.18,2.27.31.16.56.33.76.52.19.19.37.37.52.52.62.85.99,1.76,1.1,2.73.12.97.21,1.99.29,3.08.23.31.45.66.64,1.05.19.39.44.77.75,1.16v.81c-.08.31-.16.64-.23.99-.08.35-.08.72,0,1.1.15.39.15.74,0,1.05-.31.62-.37,1.2-.17,1.74.19.54.33,1.09.41,1.63ZM412.78,575.52c-.46-1.63-.81-3.33-1.05-5.11-.16-1.63-.52-3.18-1.1-4.65-.58-1.47-1.49-2.83-2.73-4.07-.16-.15-.31-.35-.47-.58-.16-.23-.31-.39-.47-.47-.54-.15-1.12-.31-1.74-.46-.62-.15-1.2-.39-1.74-.7-.16-.15-.39-.21-.7-.17-.31.04-.54.06-.7.06-.85-.7-1.43-1.1-1.74-1.22-.31-.12-.97-.17-1.98-.17-.16,0-.33-.02-.52-.06-.19-.04-.41-.02-.64.06-.7,0-1.45-.02-2.27-.06-.81-.04-1.65.06-2.5.29-1.08.54-1.84.95-2.26,1.22-.43.27-.85.45-1.28.52-.43.08-1.18.19-2.27.35-.08.08-.17.12-.29.12s-.21.08-.29.23c-.7.78-1.38,1.51-2.03,2.21s-1.41,1.36-2.26,1.98c-.62.39-1.2,1.01-1.74,1.86-.08.78-.16,1.59-.23,2.44-.08.85-.31,1.63-.7,2.32-.08.08-.12.31-.12.7-.08.62-.16,1.3-.23,2.03-.08.74-.16,1.45-.23,2.15.31.62.35,1.28.12,1.98-.23.7-.39,1.36-.46,1.98v1.1c0,.43.04.83.12,1.22v.99c0,.35.04.72.12,1.1.08.46.18.91.29,1.34.12.43.21.83.29,1.22.08.39.12.76.12,1.1s.04.72.12,1.1c.23.16.46.27.7.35.23.08.5.19.81.35.15.39.37.8.64,1.22.27.43.44.91.52,1.45-.08.31-.12.6-.12.87v.87c.15.31.35.58.58.81s.42.43.58.58c.54.23.93.54,1.16.93.31.16.58.35.81.58.23.23.42.43.58.58.54-.15,1.05-.17,1.51-.06.47.12.97.14,1.51.06.62-.08,1.08-.29,1.39-.64s.7-.64,1.16-.87c.39.16.71.27.99.35.27.08.52.16.76.23.47-.08.91-.17,1.34-.29.42-.12.76-.41.99-.87-.08-.31-.27-.62-.58-.93-.7-1.01-1.59-2.17-2.67-3.49-1.01-2.48-1.74-4.2-2.21-5.17-.47-.97-1.09-2.07-1.86-3.31.08-.15.15-.33.23-.52.08-.19.16-.33.23-.41.7-.77,1.39-1.49,2.09-2.15.7-.66,1.39-1.37,2.09-2.15.39-.39.79-.76,1.22-1.1.42-.35.87-.68,1.34-.99.7-.54,1.41-1.03,2.15-1.45.74-.42,1.49-.87,2.27-1.34.08-.08.19-.12.35-.12.62.08,1.12.37,1.51.87.39.5.81.95,1.28,1.34.39.78.72,1.55.99,2.32.27.78.6,1.47.99,2.09.77,1.16,1.28,2.29,1.51,3.37.08.08.17.17.29.29.12.12.21.25.29.41.39.08.77.14,1.16.17.39.04.81-.1,1.28-.41.23-.23.44-.5.64-.81.19-.31.37-.54.52-.7.39-.31.72-.35.99-.12.27.23.56.23.87,0-.08-.31-.16-.58-.23-.81-.08-.23-.16-.42-.23-.58.23-.85.43-1.66.58-2.44.15-.77.35-1.55.58-2.32Z"/>
    <path d="M487.61,571.34c.15.46.21.93.17,1.39-.04.46-.14.89-.29,1.28-.16.54-.25,1.1-.29,1.69-.04.58-.06,1.18-.06,1.8,0,.77-.02,1.53-.06,2.27-.04.74-.06,1.49-.06,2.27v1.74c0,.62-.08,1.28-.23,1.98-.31,1.24-.66,2.52-1.05,3.83-.39,1.32-.7,2.67-.93,4.07-.08.16-.14.37-.18.64-.04.27-.14.56-.29.87-.7,1.47-1.39,3.1-2.09,4.88-.31.39-.64.81-.99,1.28-.35.47-.72.89-1.1,1.28-.31.23-.64.43-.99.58-.35.16-.68.31-.99.47-.16,0-.27.16-.35.46.15.16.29.35.41.58.12.23.21.43.29.58-.62.93-1.55,1.82-2.79,2.67-.31.08-.68.17-1.1.29-.43.12-.87.21-1.34.29-.77.46-1.67,1.09-2.67,1.86-.08.16-.19.37-.35.64-.16.27-.31.48-.47.64-.54.31-1.07.43-1.57.35-.5-.08-1.07-.15-1.68-.23-.23.08-.45.17-.64.29-.19.12-.41.25-.64.41-.16.08-.33.21-.52.41-.19.19-.37.33-.52.41-.93.39-1.86.5-2.79.35-.93-.15-1.86-.12-2.79.12-.39-.23-.8-.42-1.22-.58-.43-.15-.83-.31-1.22-.46,0-.15.02-.31.06-.47.04-.15.1-.35.18-.58-.16-.54-.51-.85-1.05-.93-.54-.15-1.07-.31-1.57-.47-.5-.15-1.03-.15-1.57,0-.54,0-.81-.39-.81-1.16-.16-.7-.43-1.05-.81-1.05h-.47c-.54.23-1.07.25-1.57.06-.5-.19-.99-.48-1.45-.87-.31-.31-.48-.74-.52-1.28-.04-.54-.21-1.08-.52-1.63-.23-.39-.6-.72-1.1-.99-.5-.27-.95-.56-1.34-.87-.47-1.16-.93-2.27-1.39-3.31-.47-1.05-.89-2.07-1.28-3.08-.23-.46-.33-.87-.29-1.22.04-.35.06-.79.06-1.34l-.35-.58-.23-.46c-.54-1.55-.89-3.1-1.05-4.65-.16-1.55,0-3.14.47-4.76-.08-.23-.17-.47-.29-.7-.12-.23-.25-.42-.41-.58-.16-.39-.14-.77.06-1.16.19-.39.29-.74.29-1.05-.16-1.08-.12-1.98.12-2.67.15-.39.19-.77.12-1.16-.08-.39-.08-.74,0-1.05.23-.93.39-1.84.47-2.73.08-.89.15-1.76.23-2.61.08-1.7.31-3.37.7-5,.15-.62.39-1.16.7-1.63.31-.47.62-.93.93-1.39.15-.15.35-.27.58-.35.23-.08.47-.15.7-.23.46-.08.95-.15,1.45-.23.5-.08,1.1-.15,1.8-.23.39.08.83.16,1.34.23.5.08,1.03.12,1.57.12.54.08,1.08.14,1.63.17.54.04,1.12.1,1.74.17.08.23.16.43.23.58.08.16.15.31.23.47,0,.54-.02,1.07-.06,1.57-.04.5-.06,1.03-.06,1.57.08.23.18.45.29.64.12.19.21.45.29.76-.08.31-.18.66-.29,1.05-.12.39-.25.77-.41,1.16.23,1.24.35,2.54.35,3.89s.08,2.69.23,4.01c.15.85.27,1.69.35,2.5.08.81.23,1.65.47,2.5-.08.54-.04,1.09.12,1.63.15.54.31,1.09.46,1.63.23.54.41,1.09.52,1.63.12.54.25,1.12.41,1.74.39,1.24.97,2.36,1.74,3.37.47.46.81.77,1.05.93.15.08.33.12.52.12s.37.04.52.12c.54,0,.97-.15,1.28-.46.31-.31.66-.5,1.05-.58.85-.39,1.66-.7,2.44-.93.39.08.77.12,1.16.12h.81l1.86-1.16c.39-.62.66-1.32.81-2.09.15-.77.5-1.43,1.05-1.98.39-.62.74-1.24,1.05-1.86.31-.62.7-1.12,1.16-1.51.15-1.08.27-2.09.35-3.02.08-.93.27-1.86.58-2.79.08-.23.1-.48.06-.76-.04-.27-.06-.52-.06-.76-.08-.46-.14-.91-.18-1.34-.04-.42-.06-.71-.06-.87.08-.85.12-1.63.12-2.32s.04-1.35.12-1.98c.08-.62.12-1.26.12-1.92s.04-1.26.12-1.8c.15-1.24.7-2.09,1.63-2.56l.81-.41c.23-.12.5-.21.81-.29.31-.08.62-.12.93-.12s.7-.04,1.16-.12c.39.08.79.19,1.22.35.42.16.87.31,1.34.46.47.08.91.08,1.34,0,.42-.08.87-.19,1.34-.35.31.08.58.16.81.23.23.08.5.19.81.35.08.08.16.17.23.29.08.12.12.25.12.41.08.39.16.81.23,1.28.08.46.12.93.12,1.39.08.93.13,1.86.17,2.79.04.93.18,1.86.41,2.79Z"/>
    <path d="M547.92,573.08c-.08.77-.14,1.57-.18,2.38-.04.81-.14,1.61-.29,2.38-.08.77-.12,1.61-.12,2.5s-.16,1.8-.46,2.73c-.16.23-.35.48-.58.76-.23.27-.46.6-.7.99,0,.31.02.58.06.81.04.23.1.5.18.81-.16.39-.39.72-.7.99-.31.27-.62.48-.93.64-.77.23-1.49.47-2.15.7-.66.23-1.34.43-2.03.58-1.09.16-2.21.17-3.37.06s-2.32-.13-3.49-.06c-1.01,0-2.07.02-3.2.06-1.12.04-2.27.06-3.43.06h-6.51c-.31.23-.64.31-.99.23-.35-.08-.68-.04-.99.12-.31-.15-.66-.17-1.05-.06-.39.12-.77.1-1.16-.06-.31.08-.6.14-.87.17-.27.04-.6.1-.99.17-.31-.08-.58-.17-.81-.29-.23-.12-.5-.06-.81.17.15.23.33.48.52.76.19.27.33.6.41.99.23.31.42.62.58.93.15.31.31.66.46,1.05.15.31.27.64.35.99.08.35.15.68.23.99.39.39.81.77,1.28,1.16.47.39.93.78,1.39,1.16.39.08.79.16,1.22.23.42.08.83.16,1.22.23.46.08.93.16,1.39.23.46.08.97.08,1.51,0,.54-.15,1.05-.13,1.51.06.47.19.97.33,1.51.41.7-.08,1.41-.15,2.15-.23.74-.08,1.45-.15,2.15-.23.31-.23.64-.44.99-.64.35-.19.68-.41.99-.64,1.01-.23,2.01-.19,3.02.12.23.39.52.77.87,1.16.35.39.68.81.99,1.28.46.7.93,1.38,1.39,2.03.46.66.77,1.41.93,2.27.15.39.39.78.7,1.16.31.39.54.74.7,1.05.08.39.06.74-.06,1.05-.12.31-.21.66-.29,1.05-.31.31-.7.58-1.16.81-.08,0-.16.08-.23.23-.08.16-.19.27-.35.35-.47.31-.93.62-1.39.93-.47.31-.89.62-1.28.93-1.08.93-2.21,1.39-3.37,1.39-.47,0-.81.04-1.05.12-.39.08-.78.23-1.16.47-.39.23-.81.42-1.28.58-.39,0-.77.06-1.16.17-.39.12-.77.21-1.16.29-.23,0-.51-.02-.81-.06-.31-.04-.62-.06-.93-.06-.7.08-1.39.04-2.09-.12-.7-.16-1.39-.23-2.09-.23-.23-.08-.47-.16-.7-.23s-.47-.12-.7-.12c-1.32.08-2.56-.13-3.72-.64-1.16-.5-2.32-1.03-3.49-1.57-.93-.23-1.59-.66-1.98-1.28-.54-.62-1.14-1.14-1.8-1.57-.66-.42-1.38-.79-2.15-1.1-.47-.15-.93-.37-1.39-.64-.47-.27-.97-.56-1.51-.87-.08-.31-.19-.62-.35-.93-.16-.31-.31-.62-.47-.93-.16-.23-.37-.46-.64-.7-.27-.23-.52-.46-.76-.7s-.43-.5-.58-.81c-.39-1.32-.78-2.61-1.16-3.89-.39-1.28-.89-2.54-1.51-3.78.08-.54.13-1.1.18-1.69.04-.58-.02-1.22-.18-1.92-.08-.15-.12-.35-.12-.58v-.58c0-.39.02-.72.06-.99.04-.27.02-.52-.06-.76-.08-.62-.16-1.24-.23-1.86-.08-.62-.04-1.2.12-1.74.15-.62.31-1.24.46-1.86.16-.62.35-1.28.58-1.98-.08-.15-.12-.39-.12-.7s-.04-.62-.12-.93c.16-.85.31-1.7.47-2.56.15-.85.35-1.66.58-2.44.23-.47.48-.91.75-1.34.27-.42.56-.87.87-1.34.54-.93.97-1.82,1.28-2.67.93-.46,1.49-.76,1.68-.87.19-.12.37-.29.52-.52s.66-.7,1.51-1.39c-.08-.23.12-.58.58-1.05.46-.46.62-.85.46-1.16.7-1.32,1.7-2.36,3.02-3.14.47-.31.91-.64,1.34-.99.43-.35.79-.68,1.1-.99.39-.23.76-.33,1.1-.29.35.04.68.06.99.06.23-.08.48-.13.76-.17.27-.04.56-.1.87-.17.15-.08.35-.15.58-.23.23-.08.42-.19.58-.35.15-.08.31-.15.47-.23.15-.08.31-.12.46-.12.7-.08,1.36-.27,1.98-.58.62-.31,1.2-.62,1.74-.93,1.16.46,2.36.62,3.6.46.77-.08,1.53-.04,2.27.12.74.16,1.41.35,2.03.58l1.63-.46c.62.08,1.2.27,1.74.58.54.31,1.08.62,1.63.93h1.05c.08.08.15.14.23.17.08.04.15.1.23.17.85.78,1.67,1.49,2.44,2.15.77.66,1.59,1.34,2.44,2.03,1.16.78,1.9,1.71,2.21,2.79.31.47.58.81.81,1.05.93.78,1.74,1.82,2.44,3.14,0,.16.02.37.06.64.04.27.06.52.06.75-.08.39,0,.78.23,1.16.23.39.39.81.47,1.28ZM533.17,576.92v-2.91c0-.39-.04-.62-.12-.7-.08-.23-.18-.47-.29-.7-.12-.23-.22-.39-.29-.46v-1.98l-.35-.35c-.31,0-.7-.08-1.16-.23-.16-.7-.35-1.24-.58-1.63-.23-.31-.54-.5-.93-.58-.39-.08-.81-.19-1.28-.35-1.01.31-2.09.58-3.25.81-1.16.23-2.29.54-3.37.93-.54.08-1.05.12-1.51.12s-.93.04-1.4.12c-.77.31-1.45.8-2.03,1.45-.58.66-1.14,1.3-1.68,1.92-.31.39-.58.81-.81,1.28-.23.46-.5.89-.81,1.28-.08.08-.12.31-.12.7.23.62.58,1.01,1.05,1.16.46.08.93.19,1.39.35.46.16.97.31,1.51.46.23-.08.44-.12.64-.12s.41-.04.64-.12c.93-.39,1.7-.42,2.32-.12.62.08,1.18.08,1.68,0,.5-.08,1.03-.15,1.57-.23.46.23.95.39,1.45.47.5.08.99.19,1.45.35,1.01.31,1.97.46,2.91.46s1.86-.12,2.79-.35c.39-.39.58-.74.58-1.05Z"/>
    <path d="M594.4,567.04c-.23,1.01-.7,1.86-1.39,2.56-.31.31-.56.64-.76.99-.19.35-.45.6-.76.76-.31.31-.54.58-.7.81-.16.23-.31.54-.47.93-.39.77-1.05.85-1.97.23-.47-.31-.78-.62-.93-.93l-1.39-.12c-.16,0-.27-.04-.35-.12-.39-.15-.66-.41-.81-.76-.16-.35-.43-.64-.81-.87-1.16-.54-2.32-.93-3.49-1.16-1.16-.23-2.36-.15-3.6.23-.77,1.01-1.28,1.72-1.51,2.15-.23.43-.5,1.18-.81,2.27,0,.54.1,1.07.29,1.57.19.5.37,1.07.52,1.69.39.62.89,1.05,1.51,1.28.31,0,.62.02.93.06.31.04.62.1.93.17.31.23.58.45.81.64.23.19.46.37.7.52.54.31,1.06.72,1.57,1.22.5.5,1.03.87,1.57,1.1.62.31,1.2.58,1.74.81.54.23,1.08.5,1.63.81.47.08.87.27,1.22.58.35.31.68.66.99,1.05.23.47.52.93.87,1.39.35.46.68.97.99,1.51.23.85.44,1.72.64,2.61.19.89.29,1.84.29,2.85,0,.7.04,1.38.12,2.03.08.66.15,1.34.23,2.03.08.39.13.81.18,1.28.04.46.02.97-.06,1.51-.23.46-.47.97-.7,1.51-.23.54-.43,1.12-.58,1.74-.31,1.16-.74,2.25-1.28,3.25-.31.39-.66.77-1.05,1.16-.39.39-.78.78-1.16,1.16-.23.16-.43.35-.58.58-.16.23-.31.43-.46.58-.77.46-1.39,1.01-1.86,1.63-.47.62-.89,1.28-1.28,1.98-.54.08-1.08.17-1.63.29-.54.12-1.12.25-1.74.41-.47.08-.93.21-1.39.41-.47.19-.89.37-1.28.52h-2.79c-.85-.39-1.67-.54-2.44-.47-.77.08-1.59.23-2.44.47-.77.15-1.32.08-1.63-.23-.54-.39-1.1-.68-1.69-.87-.58-.19-1.14-.33-1.68-.41-.77-.77-1.59-1.51-2.44-2.21-.85-.7-1.63-1.47-2.32-2.32,0-.23-.02-.48-.06-.76-.04-.27-.06-.52-.06-.76,0-.62.02-1.18.06-1.68.04-.5.06-1.03.06-1.57.23-1.08.64-2.13,1.22-3.14.58-1.01,1.14-2.01,1.68-3.02.47.08.89.16,1.28.23.39.08.81.19,1.28.35.39.31.85.58,1.39.81.54.23,1.08.46,1.63.7.7.39,1.24.54,1.63.46.31,0,.58.04.81.12.23.08.5.16.81.23.93.39,1.82.27,2.67-.35.39-.23.76-.48,1.1-.76.35-.27.64-.64.87-1.1v-1.57c0-.58.04-1.14.12-1.69,0-.23-.04-.46-.12-.7-.08-.23-.16-.48-.23-.76-.08-.27-.16-.52-.23-.76l-1.63-1.28c-.31-.39-.54-.79-.7-1.22-.16-.42-.43-.76-.81-.99l-2.79-.81c-.47-.23-.85-.5-1.16-.81-.31-.31-.62-.58-.93-.81-.16-.15-.31-.27-.46-.35-.16-.08-.31-.15-.47-.23-.31-.08-.62-.15-.93-.23-.31-.08-.66-.19-1.05-.35-.46-.39-1.08-.74-1.86-1.05-.46-.54-.77-1.08-.93-1.63-.16-.54-.43-1.05-.81-1.51-.31-.39-.62-.81-.93-1.28-.31-.47-.66-.93-1.05-1.39-.23-.85-.45-1.72-.64-2.61-.19-.89-.41-1.76-.64-2.61-.39-1.16-.43-2.28-.12-3.37.16-.7.33-1.43.52-2.21.19-.77.44-1.55.76-2.32.47-.93,1.05-2.21,1.74-3.83.77-1.24,1.8-2.38,3.08-3.43,1.28-1.05,2.54-2.11,3.78-3.2.31-.15.66-.29,1.05-.41.39-.12.74-.21,1.05-.29.93-.31,1.63-.56,2.09-.76.46-.19.99-.33,1.57-.41.58-.08,1.45-.12,2.61-.12h.23c1.08-.39,2.15-.5,3.2-.35,1.05.16,2.07.39,3.08.7.23,0,.48.02.76.06.27.04.45.06.52.06.7.39,1.3.85,1.8,1.39.5.54,1.06,1.05,1.68,1.51.39.23.81.45,1.28.64.46.19.89.41,1.28.64.77.62,1.45,1.32,2.03,2.09.58.77,1.14,1.51,1.68,2.21.15.54.27,1.09.35,1.63.08.54.19,1.12.35,1.74Z"/>
    <path d="M642.16,605.74c-.39.78-.74,1.55-1.05,2.32-.31.78-.66,1.55-1.05,2.32l-2.44,2.32c-1.47,1.63-3.22,2.59-5.23,2.91-1.01.15-2.03.21-3.08.17-1.05-.04-2.11-.21-3.2-.52-.62-.16-1.26-.37-1.92-.64-.66-.27-1.3-.56-1.92-.87-.47-.23-.97-.41-1.51-.52-.54-.12-1.12-.21-1.74-.29-.23-.15-.5-.33-.81-.52-.31-.19-.66-.41-1.05-.64-.54-.93-1.18-1.78-1.92-2.56-.74-.77-1.3-1.74-1.68-2.91,0-.93-.04-1.57-.12-1.92-.08-.35-.31-1.06-.7-2.15v-7.67c0-.62-.02-1.22-.06-1.8-.04-.58-.14-1.14-.29-1.68-.08-.54-.1-1.01-.06-1.39.04-.39.1-.85.18-1.39.23-.93.23-1.9,0-2.91.23-.93.5-1.86.81-2.79,0-.46-.12-1.12-.35-1.98-.23-.85-.51-1.66-.81-2.44-.39,0-.77-.04-1.16-.12-.39-.08-.81-.15-1.28-.23-.47.16-.95.31-1.45.46-.51.16-1.07.31-1.69.47-.23.16-.58.23-1.05.23-.08,0-.21-.1-.41-.29-.19-.19-.29-.33-.29-.41-.08-.23-.12-.46-.12-.7v-.7c-.08-.62-.12-1.28-.12-1.98v-1.98c0-.62-.04-1.22-.12-1.8-.08-.58-.19-1.14-.35-1.68.08-.39.15-.76.23-1.1.08-.35.16-.68.23-.99v-2.21c0-.62.1-1.16.29-1.63.19-.46.6-.89,1.22-1.28.46-.15.99-.23,1.57-.23h1.92c.62.08,1.26.06,1.92-.06.66-.12,1.26-.44,1.8-.99.15-.15.37-.23.64-.23h.64c1.55.08,2.91-.54,4.07-1.86.08-.46.31-1.12.7-1.98-.23-.54-.43-1.14-.58-1.8-.16-.66-.35-1.3-.58-1.92.15-.23.31-.46.47-.7.15-.23.27-.5.35-.81.15-.39.15-.76,0-1.1-.16-.35-.19-.64-.12-.87-.16-.39-.23-.66-.23-.81s-.08-.42-.23-.81c.08-.15.15-.33.23-.52.08-.19.15-.37.23-.52.08-.31.16-.56.23-.76.08-.19.15-.44.23-.75h1.28c.39.08.79.14,1.22.17.42.04.83.02,1.22-.06.15,0,.35.02.58.06.23.04.47.06.7.06,1.32.16,2.61.35,3.89.58,1.28.23,2.54.35,3.78.35.15,0,.33.04.52.12.19.08.33.16.41.23.31.16.58.35.81.58-.08.31-.19.6-.35.87-.16.27-.27.52-.35.76-.08.31-.14.66-.17,1.05-.04.39-.1.78-.18,1.16-.08.54-.16,1.09-.23,1.63-.08.54-.19,1.16-.35,1.86.08.08.12.27.12.58s.04.58.12.81c-.08.54-.17,1.05-.29,1.51-.12.46-.21,1.01-.29,1.63,1.01.77,2.11,1.43,3.31,1.98,1.2.54,2.65,1.05,4.36,1.51.85.54,1.35,1.43,1.51,2.67,0,1.78-.12,3.56-.35,5.34-.08.7-.16,1.39-.23,2.09-.08.7-.08,1.39,0,2.09-1.01.62-2.21.93-3.6.93-.23,0-.47.04-.7.12-.23.08-.43.12-.58.12-1.24.08-2.19.19-2.85.35-.66.16-1.68.54-3.08,1.16-.23.31-.35.74-.35,1.28-.08.46-.14.93-.18,1.39s-.02.97.06,1.51c0,.08-.08.16-.23.23-.47.93-.81,1.63-1.05,2.09-.23.46-.37.93-.41,1.39-.04.47-.06,1.24-.06,2.32v5.58c0,.39.04.62.12.7.08.7.42,1.28,1.05,1.74.31.08.6.16.87.23.27.08.48.27.64.58.7.93,1.49,1.41,2.38,1.45.89.04,1.84-.1,2.85-.41.31-.15.62-.31.93-.46.31-.15.62-.27.93-.35.62.16,1.01.5,1.16,1.05.15.54.42,1.01.81,1.39.39.39.71.81.99,1.28.27.46.56.93.87,1.39.15.47.35.99.58,1.57.23.58.42,1.22.58,1.92Z"/>
  </g>
  <g>
    <rect x="240" y="180.25" width="320" height="320" rx="40" ry="40"/>
    <g>
      <path class="cls-3" d="M303.24,331.74l.21-1.29c9.29-55.97,30.18-88.07,57.31-88.07,9.67,0,19.65,4.15,29.67,12.35,8.84-9.28,18.46-13.98,28.61-13.98,25.78,0,51.92,31.72,65.05,78.93l.28,1-19.76,47.8-118.44,18.87-42.93-55.61Z"/>
      <path d="M419.04,243.75c25.53,0,50.1,33.39,62.16,76.74l-18.72,45.3-115.02,18.32-41.04-53.16c9.19-55.33,29.57-85.56,54.35-85.56,9.08,0,18.75,4.05,28.67,12.42.32.27.71.41,1.11.41.46,0,.93-.19,1.27-.56,8.84-9.62,18.1-13.9,27.23-13.9M419.04,237.75c-10.26,0-19.95,4.36-28.85,12.96-9.86-7.52-19.75-11.33-29.42-11.33-28.75,0-50.72,33.02-60.27,90.58l-.43,2.58,1.6,2.07,41.04,53.16,2.18,2.82,3.52-.56,115.02-18.32,3.32-.53,1.28-3.1,18.72-45.3.79-1.91-.55-1.99c-6.19-22.26-15.81-42.41-27.1-56.73-12.57-15.96-26.7-24.4-40.85-24.4h0Z"/>
    </g>
    <g>
      <path class="cls-3" d="M357.29,302.91c-2.23,0-4.42-.36-6.53-1.08-11.44-3.91-17.27-17.29-12.99-29.84,3.42-10.02,12.26-16.76,21.99-16.76,2.23,0,4.42.37,6.53,1.08,11.44,3.91,17.27,17.29,12.99,29.84-3.42,10.02-12.26,16.76-21.99,16.76Z"/>
      <path d="M359.77,256.23c2.07,0,4.16.33,6.21,1.03,10.94,3.73,16.48,16.53,12.36,28.57-3.34,9.79-12.04,16.08-21.05,16.08-2.07,0-4.16-.33-6.21-1.03-10.94-3.73-16.48-16.53-12.36-28.57,3.34-9.79,12.04-16.08,21.05-16.08M359.77,254.23v2-2h0c-10.16,0-19.38,7.01-22.94,17.43-2.15,6.3-1.94,12.99.59,18.84,2.56,5.92,7.19,10.28,13.02,12.27,2.21.75,4.52,1.14,6.85,1.14,10.16,0,19.38-7.01,22.94-17.43,4.46-13.07-1.65-27.03-13.61-31.11-2.21-.75-4.52-1.14-6.85-1.14h0Z"/>
    </g>
    <ellipse cx="358.53" cy="278.07" rx="18.59" ry="16.88" transform="translate(-20.44 527.56) rotate(-71.15)"/>
    <g>
      <path class="cls-3" d="M425.07,300.92c-8.73,0-17.09-5.45-21.28-13.87-5.91-11.87-1.91-25.91,8.91-31.3,2.83-1.41,5.88-2.12,9.07-2.12,8.73,0,17.09,5.44,21.28,13.87,2.86,5.73,3.51,12.14,1.84,18.04-1.68,5.93-5.5,10.64-10.76,13.26-2.83,1.41-5.88,2.12-9.07,2.12h0Z"/>
      <path d="M421.77,254.63c8.11,0,16.22,4.95,20.39,13.32,5.67,11.39,1.89,24.81-8.46,29.96-2.75,1.37-5.69,2.02-8.62,2.02-8.11,0-16.22-4.95-20.39-13.32-5.67-11.39-1.89-24.81,8.46-29.96,2.75-1.37,5.69-2.02,8.62-2.02M421.77,252.63c-3.34,0-6.54.75-9.51,2.23-5.52,2.75-9.52,7.68-11.27,13.89-1.73,6.14-1.06,12.8,1.91,18.76,4.36,8.76,13.07,14.42,22.18,14.42,3.34,0,6.55-.75,9.51-2.23,5.52-2.75,9.52-7.68,11.27-13.89,1.73-6.14,1.06-12.8-1.91-18.76-4.36-8.76-13.07-14.42-22.18-14.42h0Z"/>
    </g>
    <ellipse cx="423.42" cy="276.28" rx="16.54" ry="18.21" transform="translate(-78.76 217.73) rotate(-26.47)"/>
    <g class="cls-2">
      <g>
        <path class="cls-3" d="M274.42,517.18l-.5-2.38c-5.2-24.76-6.25-66.25-2.78-110.98,3.97-51.34,11.23-78.53,16.69-86.85,1.69-2.57,3.5-4.03,5.53-4.44.8-.16,1.67-.25,2.58-.25,8.36,0,22.83,7.25,43.02,21.55,11.85,8.4,22.34,16.89,26.07,19.95,25.09-10.93,52.71-16.5,82.13-16.54,2.16-4.3,8.22-16.18,15.07-28.04,15.86-27.48,22.25-31.48,26.04-31.9.24-.03.49-.04.75-.04,3.42,0,9.49,2.1,22.7,20.3,8.11,11.17,17.75,26.93,27.16,44.38,16.92,31.37,34.03,70.01,34.12,85.59l1.96,89.64h-300.53Z"/>
        <path d="M489.01,280.27c18.11,0,80.83,119.18,80.99,147.29l1.89,86.63h-295.03c-12.34-58.72,1.64-195.55,17.11-198.72.61-.13,1.27-.19,1.98-.19,18.62,0,68.61,42,68.61,42,25.05-11.21,52.63-17.04,82.98-17.04.49,0,.99,0,1.49,0,0,0,28.97-58.8,39.58-59.96.14-.02.28-.02.42-.02M489.01,274.27c-.36,0-.72.02-1.08.06-4.38.48-8.82,4.14-14.83,12.25-3.86,5.2-8.4,12.31-13.48,21.13-6.14,10.64-11.66,21.3-14.32,26.55-28.49.27-55.3,5.66-79.79,16.05-4.57-3.72-14.03-11.28-24.83-18.92-31.21-22.1-41.4-22.1-44.75-22.1-1.11,0-2.18.1-3.18.31-2.82.58-5.32,2.51-7.44,5.74-8.65,13.17-14.54,54.23-17.18,88.27-3.48,45-2.42,86.8,2.84,111.83l1,4.77h306.04l-.13-6.13-1.89-86.58c-.13-16.13-17.4-55.28-34.48-86.94-9.47-17.56-19.19-33.45-27.38-44.72-7.73-10.65-16.76-21.54-25.13-21.54h0Z"/>
      </g>
      <path d="M328.32,376c-8.6,7.27-25.54,27.26-32.12,39.2-8.71,15.8-4.13-61.56,5.44-69.52,5.54-4.61,31.98,25.84,26.68,30.32Z"/>
      <path d="M481.15,352.44c10.8,3.19,34.36,14.66,45.19,22.93,14.34,10.95-21.04-58.01-33-61.43-6.93-1.98-18.85,36.54-12.2,38.5Z"/>
      <g>
        <path class="cls-3" d="M494.18,488.68c-19.38,0-38.02-14.97-45.34-36.41-4.39-12.85-4.31-26.39.21-38.11,4.57-11.85,13.12-20.43,24.09-24.17,3.85-1.31,7.88-1.98,11.97-1.98,19.38,0,38.02,14.97,45.34,36.41,4.39,12.85,4.31,26.39-.21,38.11-4.57,11.85-13.12,20.43-24.09,24.17-3.85,1.31-7.88,1.98-11.97,1.98Z"/>
        <path d="M485.11,390.01c18.17,0,36.2,13.83,43.44,35.06,8.76,25.66-1.56,52.41-23.05,59.74-3.72,1.27-7.52,1.87-11.32,1.87-18.17,0-36.2-13.83-43.44-35.06-8.76-25.66,1.56-52.41,23.05-59.74,3.72-1.27,7.52-1.87,11.32-1.87M485.11,386.01h0c-4.31,0-8.56.7-12.61,2.09-11.53,3.94-20.52,12.94-25.31,25.34-4.69,12.16-4.77,26.18-.24,39.47,3.76,11.03,10.31,20.47,18.92,27.32,8.46,6.73,18.52,10.44,28.31,10.44,4.31,0,8.56-.7,12.61-2.09,11.53-3.94,20.52-12.94,25.31-25.34,4.69-12.16,4.77-26.18.24-39.47-3.76-11.03-10.3-20.47-18.92-27.32-8.46-6.73-18.52-10.44-28.31-10.44h0Z"/>
      </g>
      <g>
        <path class="cls-3" d="M358,511.88c-23.03,0-42.29-21.35-43.84-48.61-.77-13.56,2.93-26.58,10.44-36.65,7.58-10.18,18.13-16.15,29.69-16.81.71-.04,1.41-.06,2.11-.06,23.03,0,42.29,21.35,43.84,48.61.77,13.56-2.93,26.58-10.44,36.65-7.58,10.18-18.13,16.15-29.69,16.81-.71.04-1.41.06-2.11.06Z"/>
        <path d="M356.4,411.74c21.81,0,40.35,20.46,41.85,46.73,1.54,27.07-15.58,50.06-38.25,51.36-.67.04-1.33.06-1.99.06-21.81,0-40.35-20.46-41.85-46.73-1.54-27.07,15.58-50.06,38.25-51.36.67-.04,1.33-.06,1.99-.06M356.4,407.74c-.74,0-1.48.02-2.22.06-24.83,1.42-43.68,26.35-42.01,55.58,1.62,28.32,21.75,50.5,45.84,50.5.74,0,1.48-.02,2.22-.06,12.17-.69,23.24-6.95,31.18-17.62,7.78-10.45,11.63-23.93,10.83-37.96-1.62-28.32-21.75-50.5-45.84-50.5h0Z"/>
      </g>
      <ellipse cx="481.2" cy="439.69" rx="28.02" ry="33.47" transform="translate(-97.26 139.24) rotate(-14.97)"/>
      <ellipse cx="365.13" cy="459.36" rx="28.02" ry="33.47" transform="translate(-25.57 21.54) rotate(-3.27)"/>
    </g>
    <path d="M520,184.25c19.85,0,36,16.15,36,36v240c0,19.85-16.15,36-36,36h-240c-19.85,0-36-16.15-36-36v-240c0-19.85,16.15-36,36-36h240M520,180.25h-240c-22.09,0-40,17.91-40,40v240c0,22.09,17.91,40,40,40h240c22.09,0,40-17.91,40-40v-240c0-22.09-17.91-40-40-40h0Z"/>
  </g>
</svg>