<?xml version="1.0" encoding="UTF-8"?>
<svg id="Layer_16" data-name="Layer 16" xmlns="http://www.w3.org/2000/svg" xmlns:xlink="http://www.w3.org/1999/xlink" viewBox="0 0 1004.4 1223.74">
  <defs>
    <style>
      .cls-1 {
        fill: none;
      }

      .cls-2 {
        fill: #f57711;
      }

      .cls-3 {
        fill: #fff;
      }

      .cls-4 {
        fill: #463f37;
      }

      .cls-5 {
        fill: #5b9cff;
      }

      .cls-6 {
        fill: #3c8cff;
      }

      .cls-7 {
        fill: #ff9811;
      }

      .cls-8 {
        fill: #ffe1b2;
      }

      .cls-9 {
        clip-path: url(#clippath);
      }
    </style>
    <clipPath id="clippath">
      <path class="cls-1" d="M580.42,910.72c-11.82,78.36,83.01,140.43,173.6,55.19,98.07-92.27,33.89-217.32,7.99-240.39-3.05-2.71-7.78-1.99-10.03,1.41-46.31,69.9-160.02,107.29-171.56,183.79Z"/>
    </clipPath>
  </defs>
  <path class="cls-7" d="M580.42,910.72c-11.82,78.36,83.01,140.43,173.6,55.19,98.07-92.27,33.89-217.32,7.99-240.39-3.05-2.71-7.78-1.99-10.03,1.41-46.31,69.9-160.02,107.29-171.56,183.79Z"/>
  <g class="cls-9">
    <path class="cls-8" d="M797.8,844.02l-15.92-23.88c-2.11-1.99-5.24-2.44-7.84-1.14l-26.66,15.84c-3.84,1.93-8.48-.07-9.72-4.19l-10.16-27.14c-.96-3.19-4.06-5.24-7.37-4.88l-25.79,2.81c-2.86.31-5.34-1.95-5.31-4.82l15.19-72.67,41.7-29.21,67.71-9.25,38.3,89.11-46.92,69.25c-1.61,2.69-5.48,2.78-7.22.17Z"/>
  </g>
  <path class="cls-7" d="M776.42,525.91c-4.17-4.02-6.13-9.81-5.24-15.53,30.44-195.96-19.02-380.87-58.98-399.35-23.5-10.87-97.51,58.83-131.41,109.95-21.58-5.34-55.11-7.91-90.56-7.91s-68.98,2.57-90.56,7.91c-33.9-51.12-107.91-120.82-131.41-109.95-39.96,18.48-89.43,203.38-58.98,399.35.89,5.72-1.07,11.51-5.24,15.53-14.78,14.24-32.18,34.44-30.06,48.5,6.26,41.5,140.78,119.49,316.25,119.49s310-77.99,316.25-119.49c2.12-14.06-15.28-34.26-30.06-48.5Z"/>
  <g>
    <path class="cls-8" d="M319.13,267.21c-28.8,22.15-43.83,35.11-69.02,66.29-18.81,23.28-9.9-90.86,22.2-122.96,10.47-10.47,56.61,49.13,46.82,56.67Z"/>
    <path class="cls-8" d="M661.32,267.21c28.8,22.15,43.83,35.11,69.02,66.29,18.81,23.28,9.9-90.86-22.2-122.96-10.47-10.47-56.61,49.13-46.82,56.67Z"/>
  </g>
  <g>
    <ellipse class="cls-3" cx="358.85" cy="487.79" rx="87.92" ry="79.85" transform="translate(-236.25 599.85) rotate(-64.32)"/>
    <ellipse class="cls-4" cx="374.01" cy="492.14" rx="61.74" ry="54.66" transform="translate(-162.05 799.91) rotate(-82.63)"/>
    <ellipse class="cls-3" cx="621.6" cy="487.79" rx="79.85" ry="87.92" transform="translate(-149.97 317.5) rotate(-25.68)"/>
    <ellipse class="cls-4" cx="607.45" cy="491.06" rx="54.66" ry="61.74" transform="translate(-57.99 82.01) rotate(-7.37)"/>
  </g>
  <path class="cls-4" d="M509.39,526.49c-1.53-3.86-11.5-4.58-19.16-4.58-7.66,0-17.63.72-19.16,4.58-1.53,3.86,11.05,12.48,19.16,12.48s20.69-8.62,19.16-12.48Z"/>
  <path class="cls-4" d="M513.7,607.52c-10.15,0-20.31-3.35-29.36-9.8-2.47-1.76-3.05-5.2-1.29-7.67s5.2-3.05,7.67-1.29c9.33,6.65,20.03,9.14,30.14,7.02,10.36-2.18,19.45-9.07,25.62-19.4,1.56-2.61,4.93-3.46,7.54-1.91,2.61,1.56,3.46,4.93,1.91,7.54-7.75,13.01-19.4,21.72-32.8,24.53-3.12.65-6.27.98-9.42.98Z"/>
  <path class="cls-7" d="M196.44,760.72c14.44,37.04,41.63,50.25,73.32,41.44,31.69-8.8,59.98-36.49,41.44-73.32-18.53-36.83-41.63-50.25-73.32-41.44s-55.88,36.28-41.44,73.32Z"/>
  <path class="cls-6" d="M373.01,700.8s-80.23,76.73-89.6,106.72,47.52,49.41,64.41,48.35c18.25-3.59,32.63-25.05,32.63-25.05l-7.44-130.01Z"/>
  <path class="cls-6" d="M204.48,784.9c26.77-24.67,64.1-47.79,102.13-73.13,1.57-1.05,3.09-.35,3.92,1.1,15.56,27.48,30.94,66.46,37.78,90.44,11.31,39.64-4.88,82.18-54.7,59.66-18.37-8.3-51.74-30.9-90.74-73.71-1.23-1.35.09-2.95,1.61-4.35Z"/>
  <path class="cls-2" d="M694.82,991.79c27.71-12.09,39.31-34.7,35.61-63.55-3.4-26.5-31.42-48.38-49.72-46.26-25.47,2.95-65.25,31.77-54.93,76.9,5.66,24.76,39.14,45.95,69.04,32.91Z"/>
  <path class="cls-2" d="M479.05,934.2c.13,8.18,2.18,147.43-8.92,158.64-11.62,11.74-56.64,10.56-72.79,0-17.73-11.59-50.72-140.23-49.48-158.64,5.81-86.86,129.91-79.23,131.2,0ZM632.6,934.2c-5.81-86.86-129.91-79.23-131.2,0-.13,8.18-2.18,147.43,8.92,158.64,11.62,11.74,56.64,10.56,72.79,0,17.73-11.59,50.72-140.23,49.48-158.64Z"/>
  <path class="cls-6" d="M610.79,711.66c21.88-10.01,119.79,173.33,119.74,190.27s-76.96,58.54-101.96,58.62c-25.01.08-39.66-234.95-17.77-248.9Z"/>
  <path class="cls-5" d="M662.25,980.12c.04,1.56-.74,3.03-2.08,3.84-26.66,16.01-103.17,42.58-169.94,42.58s-141.28-26.57-167.94-42.58c-1.34-.81-2.14-2.27-2.08-3.84,3.41-96.13,18.5-168.24,45.12-255.28.05-.17-.01-.37-.16-.47-11.53-8.08-23.59-17.98-36.05-29.42-1.41-1.29-1.41-3.56.03-4.81,20.97-18.2,69.38-36.35,123.98-44.65,2.57-.38,5.15.61,6.81,2.6l30.29,36.33,30.28-36.33c1.66-1.99,4.24-2.98,6.81-2.6,54.6,8.3,103.01,26.45,123.98,44.65,1.46,1.25,1.46,3.51.05,4.81-12.48,11.44-24.52,21.34-36.05,29.42-.16.1-.23.3-.17.47,28.43,81.85,44.66,166.97,47.14,255.28Z"/>
</svg>