<?xml version="1.0" encoding="UTF-8"?>
<svg id="Fox4" xmlns="http://www.w3.org/2000/svg" xmlns:xlink="http://www.w3.org/1999/xlink" viewBox="0 0 1179 800">
  <defs>
    <style>
      .cls-1 {
        fill: none;
      }

      .cls-2 {
        fill: #f57711;
      }

      .cls-3 {
        fill: #fff;
      }

      .cls-4 {
        fill: #463f37;
      }

      .cls-5 {
        fill: #5b9cff;
      }

      .cls-6 {
        fill: #ff9811;
      }

      .cls-7 {
        fill: #ffe1b2;
      }

      .cls-8 {
        clip-path: url(#clippath);
      }
    </style>
    <clipPath id="clippath">
      <path class="cls-1" d="M991.99,661.56c-4.76-74.94-54.45-135.43-76.68-149.21-3.96-2.46-9.15-.72-11.02,3.56-23.5,53.68-77.74,98.63-115.91,145.66h203.62Z"/>
    </clipPath>
  </defs>
  <path class="cls-6" d="M192.11,563.95c4.16,27.63,65.19,71.42,157.28,97.62h317.94c92.1-26.19,153.12-69.99,157.28-97.62,2.12-14.06-15.28-34.26-30.06-48.5-4.17-4.02-6.13-9.81-5.24-15.53,30.44-195.96-19.02-380.87-58.98-399.35-23.5-10.87-97.51,58.83-131.41,109.95-21.58-5.34-55.11-7.91-90.56-7.91s-68.98,2.57-90.56,7.91c-33.9-51.12-107.91-120.82-131.41-109.95-39.96,18.48-89.43,203.38-58.98,399.35.89,5.72-1.07,11.51-5.24,15.53-14.78,14.24-32.18,34.44-30.06,48.5Z"/>
  <g>
    <path class="cls-7" d="M679.46,256.74c28.8,22.15,43.83,35.11,69.02,66.29,18.81,23.28,9.9-90.86-22.2-122.96-10.47-10.47-56.61,49.13-46.82,56.67Z"/>
    <path class="cls-7" d="M337.26,256.74c-28.8,22.15-43.83,35.11-69.02,66.29-18.81,23.28-9.9-90.86,22.2-122.96,10.47-10.47,56.61,49.13,46.82,56.67Z"/>
  </g>
  <g>
    <ellipse class="cls-3" cx="639.73" cy="477.32" rx="79.85" ry="87.92" transform="translate(-143.65 324.33) rotate(-25.68)"/>
    <ellipse class="cls-4" cx="626.99" cy="482.35" rx="58.49" ry="66.07" transform="translate(-56.71 84.44) rotate(-7.37)"/>
    <ellipse class="cls-3" cx="376.99" cy="477.32" rx="87.92" ry="79.85" transform="translate(-216.55 610.26) rotate(-64.32)"/>
    <ellipse class="cls-4" cx="389.73" cy="481.2" rx="66.07" ry="58.49" transform="translate(-137.5 805.96) rotate(-82.63)"/>
  </g>
  <path class="cls-4" d="M489.2,516.03c1.53-3.86,11.5-4.58,19.16-4.58,7.66,0,17.63.72,19.16,4.58,1.53,3.86-11.05,12.48-19.16,12.48s-20.69-8.62-19.16-12.48Z"/>
  <path class="cls-4" d="M478.73,558.93c5.57-4.58,55.88-4.43,59.61,0,2.31,2.75-17.11,34.31-30.41,34.31s-33.28-30.95-29.19-34.31Z"/>
  <path class="cls-6" d="M991.99,661.56c-4.76-74.94-54.45-135.43-76.68-149.21-3.96-2.46-9.15-.72-11.02,3.56-23.5,53.68-77.74,98.63-115.91,145.66h203.62Z"/>
  <g class="cls-8">
    <path class="cls-7" d="M978.88,638.8l-22.62-23.77c-2.77-1.82-6.39-1.72-9.05.25l-26.92,23.07c-3.95,2.92-9.57,1.58-11.78-2.81l-16.77-28.58c-1.71-3.4-5.6-5.11-9.26-4.05l-28.49,8.22c-3.16.91-6.4-1.14-6.92-4.39l2.84-84.84,41.24-41.09,74.45-23.71,60.63,92.86-39.26,87.21c-1.29,3.35-5.62,4.21-8.1,1.61Z"/>
  </g>
  <path class="cls-5" d="M662.27,661.56c-23.38-16.53-68.02-32.3-117.83-39.87-2.57-.38-5.14.61-6.81,2.6l-30.28,36.33-30.29-36.33c-1.65-1.99-4.24-2.98-6.81-2.6-49.81,7.57-94.45,23.34-117.83,39.87h309.83Z"/>
  <path class="cls-2" d="M216.34,648.91c0,38.62,25.49,51.65,64.86,51.65s77.48-17.92,77.48-56.54-31.97-66.74-71.34-66.74-71,33.01-71,71.63Z"/>
  <path class="cls-2" d="M800.38,648.91c0,38.62-25.49,51.65-64.86,51.65-39.37,0-77.48-17.92-77.48-56.54,0-38.62,31.97-66.74,71.34-66.74s71,33.01,71,71.63Z"/>
</svg>