<?xml version="1.0" encoding="UTF-8"?>
<svg xmlns="http://www.w3.org/2000/svg" xmlns:xlink="http://www.w3.org/1999/xlink" viewBox="0 0 1297.07 900">
  <defs>
    <style>
      .cls-1 {
        fill: none;
      }

      .cls-2 {
        fill: #f57711;
      }

      .cls-3 {
        fill: #c7c5c3;
      }

      .cls-4 {
        fill: #ff7373;
      }

      .cls-5 {
        fill: #b6e540;
      }

      .cls-6 {
        fill: #e2ff93;
      }

      .cls-7 {
        fill: #ffcfcf;
      }

      .cls-8 {
        fill: #ffc4c4;
      }

      .cls-9 {
        fill: #97c213;
      }

      .cls-10 {
        clip-path: url(#clippath-1);
      }

      .cls-11 {
        clip-path: url(#clippath-3);
      }

      .cls-12 {
        clip-path: url(#clippath-4);
      }

      .cls-13 {
        clip-path: url(#clippath-2);
      }

      .cls-14 {
        clip-path: url(#clippath-7);
      }

      .cls-15 {
        clip-path: url(#clippath-6);
      }

      .cls-16 {
        clip-path: url(#clippath-5);
      }

      .cls-17 {
        fill: #b5b2af;
      }

      .cls-18 {
        fill: #e3e2e1;
      }

      .cls-19 {
        fill: #5e4a3c;
      }

      .cls-20 {
        fill: #aca9a5;
      }

      .cls-21 {
        fill: #fff;
      }

      .cls-22 {
        fill: #463f37;
      }

      .cls-23 {
        fill: #5b9cff;
      }

      .cls-24 {
        fill: #826551;
      }

      .cls-25 {
        fill: #5789c4;
      }

      .cls-26 {
        fill: #3c8cff;
      }

      .cls-27 {
        fill: #ff9811;
      }

      .cls-28 {
        fill: #ffe1b2;
      }

      .cls-29 {
        fill: #edcca6;
      }

      .cls-30 {
        fill: #d1cfcd;
      }

      .cls-31 {
        fill: #60702f;
      }

      .cls-32 {
        fill: #7f954c;
      }

      .cls-33 {
        clip-path: url(#clippath);
      }
    </style>
    <clipPath id="clippath">
      <path class="cls-1" d="M858.41,673.01c3.53,48.97-58.04,82.75-109.89,25.73-56.14-61.72-10.47-135.87,6.64-148.87,2.01-1.53,4.9-.86,6.13,1.35,25.24,45.41,93.68,73.98,97.12,121.79Z"/>
    </clipPath>
    <clipPath id="clippath-1">
      <path class="cls-1" d="M1100.24,422.74c-5.26,68.2-37.38,97.79-150.45,112.03-.27.03-.54.06-.82.1-.81.1-1.63.19-2.45.29-.49.05-.97.11-1.46.16-.58.07-1.15.12-1.74.18-1.02.09-2.04.19-3.08.27-104,8.48-171.27-44.92-171.6-135.77-.32-85.28,47.9-143.98,141.42-163.73,103.24-21.8,187.18,70.76,170.35,169.6-.29,1.7.09,3.45,1.11,4.85,1.93,2.68,7.19,6.8,16.13,8.71,1.52.33,2.72,1.75,2.6,3.3Z"/>
    </clipPath>
    <clipPath id="clippath-2">
      <path class="cls-1" d="M1013.07,530.22c-.86,1.83-7.14,11.67-10.53,17.25-.66,1.08-1.03,2.3-.6,3.56,16.54,49,30.68,93.15,42.37,147.04.5,2.53-.93,4.85-3.01,5.9-46.96,23.74-129.29,34.83-202.07,17.31-2.1-.51-3.29-3.04-3.15-5.4,3.48-59.74,7.32-113.1,25.6-167.19.38-1.11.13-2.38-.64-3.22-4.28-4.7-19.8-19.33-19.47-22.22.37-3.21,172.69,4.44,171.5,6.97Z"/>
    </clipPath>
    <clipPath id="clippath-3">
      <path class="cls-1" d="M1234.88,411.72l-57.67,89.54c-1.3,2.02-3.88,2.79-6.07,1.82l-14.93-6.61c-.08-.04-.17-.07-.25-.1l-15.27-5.78c-2.25-.85-3.54-3.21-3.05-5.56l21.84-104.24c.36-1.72,1.56-3.15,3.19-3.8l46.31-18.43c2.44-.97,5.21.17,6.27,2.57l20.02,45.65c.71,1.61.56,3.47-.39,4.95Z"/>
    </clipPath>
    <clipPath id="clippath-4">
      <path class="cls-1" d="M1192.57,515.07l-2.66,6.49c-1.67,4.07-6.32,6.01-10.39,4.34l-16.84-6.91-11.09,27.03c-2.02,4.94-7.66,7.29-12.59,5.27l-9.29-3.81c-4.93-2.02-7.29-7.66-5.26-12.59l11.09-27.03-16.84-6.91c-4.07-1.67-6.01-6.32-4.34-10.39l2.66-6.49c1.67-4.07,6.32-6.02,10.39-4.35l60.82,24.96c4.07,1.67,6.01,6.32,4.34,10.39Z"/>
    </clipPath>
    <clipPath id="clippath-5">
      <path class="cls-1" d="M722.83,581.97c44.01,9.45,70.87,77.34,66.05,140.87-4.35,57.35-116.99,62.95-166.82,34.35-36.68-21.06-44.23-66.94-20.94-116.47,16.58-35.26,62-71.58,121.71-58.75Z"/>
    </clipPath>
    <clipPath id="clippath-6">
      <path class="cls-1" d="M494.21,669.9c-9.05,4.19,48.9,22.21,193.9-44.69,62.07-28.64,151.62-32.61,164.46-24.15.5.33.96-.31.57-.76-13.94-16.54-122.94-24.65-131-28.54-8.55-4.13-105.33-101.13-118.23-87.49-12.9,13.64-13.19,119.82-15.26,125.54-1.63,4.49-40.85,35.28-94.46,60.1Z"/>
    </clipPath>
    <clipPath id="clippath-7">
      <path class="cls-1" d="M758.23,789.49s-117.69-184.7-119.23-194.87c-1.19-7.9,10.25-31.39-2.75-47.03s-30.17-20.17-52-15.17c-21.18,4.85-30.17,26.44-30.17,44.67s8.03,26.71,25.83,28c20.67,1.5,23.17-11,16.5-17.17-5.94-5.49-13.78-6.01-13.21-11.75,1.07-10.88,10.55-16.08,18.49-16.08,8.33,0,14.24,4.42,15.67,15q1.17,8.67-1.94,21.44c-1.68,6.89,7.11,11.67,17,21.89,9.89,10.22,121.97,173.64,121.97,173.64,1.74,2.45,5.45-.03,3.85-2.57Z"/>
    </clipPath>
  </defs>
  <g id="Fox3_copy" data-name="Fox3 copy">
    <path class="cls-18" d="M1135.56,785.48c0,15.23-235.54,27.57-526.09,27.57s-526.09-12.34-526.09-27.57c0-12.58,161.03-23.2,381.05-26.5,17.56-.26,35.49-.48,53.75-.65,8.97-.08,18.01-.15,27.13-.21,17.55-.11,35.37-.18,53.41-.19,3.57-.01,7.16-.01,10.75-.01,290.55,0,526.09,12.34,526.09,27.56Z"/>
    <path class="cls-30" d="M675.82,563.4c-.45,1.03-.92,2.05-.54,3.19,14.82,43.89,27.47,83.43,37.95,131.71.46,2.26-.83,4.34-2.69,5.28-11.19,5.66-24.63,10.52-39.55,14.31.52,13.07.17,27.59-.68,38.62-.52,6.68-1.21,12.08-2,15.09-2.1,8.03-36.54,9.53-40.75-.14-1.99-4.58-3.79-9.57-5.42-14.76-3.11-9.88-5.57-20.48-7.47-30.42-2.8.16-5.62.28-8.45.36-2.5,10.56-5.63,21.48-8.55,30.27-2.31,6.99-4.49,12.64-6.11,15.7-4.12,7.75-39.02,6.97-40.81-2.81-.71-3.85-1.22-7.97-1.56-12.24-.9-11.15-.67-23.33.05-34.54-6.63-1.06-13.21-2.38-19.71-3.93-1.88-.46-2.94-2.74-2.82-4.85,3.12-53.51,6.56-101.31,22.93-149.75.34-1,.12-2.13-.58-2.89-3.54-3.91-15.75-15.44-17.29-19.17h0c-42.28-18.86-67.07-57.21-67.27-109.35v-1.3c-.01-.44-.03-.88-.04-1.34-2.14-85.68,77.87-172.91,94.11-177.26,7.45-1.99,15.43,9.24,21.99,23.36,14.23-13.97,26.35-22.56,31.45-23.48,8.52-1.53,16.26,14.32,21.59,31.43,71.65,8.86,122.86,79.37,110.17,153.86-.26,1.53.08,3.09.99,4.35,1.73,2.4,6.44,6.09,14.45,7.81,1.36.28,2.44,1.56,2.33,2.95-3.73,48.4-22.57,75.11-80.63,90.44-1.27,5.47-3.36,15.53-5.09,19.5Z"/>
  </g>
  <g id="Layer_10" data-name="Layer 10">
    <path class="cls-17" d="M445.41,355.57s113.82,103.82,116.13,167.65c2.31,63.83-48.45,67.84-72.29,46.61-23.84-21.23-43.84-214.26-43.84-214.26Z"/>
    <path class="cls-17" d="M476.65,628.37l-97.54,50.14s36.06,77.24,57.79,90.76c23.03,14.34,99.83-33.77,96.71-64.45-2.89-28.4-56.96-76.46-56.96-76.46Z"/>
    <ellipse class="cls-17" cx="405.46" cy="146.62" rx="39.96" ry="52.87"/>
    <path class="cls-3" d="M496.09,641.86c-54.52,74.53-323.83,83.24-341.9-10.76-28.7-149.4-3.85-373.4,52.05-463.95,46.14-74.74,201.4-73.93,224.58,47.86.37,1.94.75,3.88,1.14,5.81,15.91,8.77,26.62,25.18,26.62,44,0,10.38-3.26,20.04-8.86,28.08,38.58,136.45,99.02,276.96,46.36,348.96Z"/>
    <path class="cls-17" d="M262.81,449.48c-12.5-30.94-29.2-78.94-59.86-76.44-34.62,2.82-43.32,26.02-37.33,86.24,5.57,55.98,49.29,124.77,114.16,122.53,72.84-2.51,73.37-59.05,57.6-80.74-23.66-32.55-58.46-11.72-74.57-51.59Z"/>
    <g>
      <path class="cls-18" d="M473.03,604.01c-28.76,29.64-58.62,55.04-90.77,71.45-4.39,2.24-9.53,2.54-14.15.83-33.85-12.53-66.47-34.26-98.5-60.32-2.21-1.8-3.66-4.39-4.04-7.23-7.73-58.08-10.56-121.22-10.87-186.96-.01-2.41,1.49-4.57,3.75-5.37,21.74-7.64,50.21-14.73,100.44-17.68,50.25-2.95,79.34.76,101.83,5.8,2.34.52,4.09,2.49,4.36,4.89,7.4,65.33,11.96,128.36,11.1,186.95-.04,2.87-1.17,5.61-3.16,7.66Z"/>
      <path class="cls-25" d="M377.76,531.49l77.97-4.58c1.18-.07,2.19.85,2.25,2.03,1.11,21.25,1.59,36.85,1.31,57.33-.04,2.46-.99,4.82-2.67,6.58-23.04,24.13-46.89,45-72.46,59.1-1.36.75-3.03-.2-3.13-1.76l-7.05-114.4c-.14-2.24,1.55-4.16,3.78-4.29Z"/>
      <path class="cls-25" d="M275,431.31c16.97-6.05,38.76-11.69,75.42-14.48,1.19-.09,2.22.82,2.29,2.02l5.27,95.2c.12,2.23-1.57,4.14-3.78,4.27l-77.98,4.58c-1.18.07-2.19-.83-2.25-2.02-1.36-26-1.99-58.01-2.14-84.97-.02-2.07,1.26-3.94,3.17-4.61Z"/>
      <path class="cls-25" d="M277.06,537.4l77.99-4.58c2.21-.13,4.12,1.57,4.25,3.8l7.05,114.4c.1,1.56-1.46,2.71-2.9,2.13-27.03-11.01-53.16-28.93-78.85-50.19-1.87-1.55-3.09-3.79-3.42-6.23-2.68-20.3-4.66-35.81-6.11-57.04-.08-1.19.82-2.22,1.99-2.28Z"/>
      <path class="cls-25" d="M454.89,512.4l-77.98,4.58c-2.22.13-4.13-1.58-4.25-3.82l-5.27-95.19c-.07-1.19.85-2.21,2.04-2.26,36.75-1.53,59.05,1.52,76.62,5.54,1.98.45,3.45,2.15,3.69,4.21,3.01,26.8,5.48,58.69,7.15,84.67.08,1.18-.82,2.2-2,2.27Z"/>
    </g>
    <path class="cls-3" d="M89.38,606.27c0,24.97,21.17,47.16,47.3,49.55,26.13,2.39,47.31-15.92,47.32-40.89s-21.17-47.16-47.3-49.55c-26.13-2.39-47.31,15.92-47.32,40.89Z"/>
    <ellipse class="cls-3" cx="196.83" cy="158.11" rx="48.98" ry="55.95"/>
    <path class="cls-3" d="M331.41,671.68l-108.98-12.36s-12.82,84.27-2.24,107.58c11.21,24.7,101.8,27.26,116.22,0,13.35-25.23-5-95.21-5-95.21Z"/>
    <path class="cls-17" d="M743.41,147.2s-9.39-52.71-26.14-63.43c-19.16-12.27-47.75-24.12-58.73-12.27-10.98,11.85,26.27,34.12,26.27,34.12,0,0-10.71-1.73-8.23,7.51,1.99,7.41,19.82,17.71,19.82,17.71l-5.46,6.52,52.47,9.84Z"/>
    <path class="cls-3" d="M795.49,149.69c13.48-30.48-17.5-65.82-52.46-43.38-42.39,27.2-84.13,37.98-84.13,37.98l-20.38-3.85c-2.16-.41-4.05,1.45-3.66,3.57,2.05,10.97,10.51,39.79,43.8,54.24,48.99,21.27,98.33-6.75,116.83-48.57Z"/>
    <path class="cls-3" d="M723.97,123.77s-36.33-39.33-56.22-39.33c-22.75,0-53.22,5.43-56.08,21.33s40.52,14.58,40.52,14.58c0,0-9.95,4.31-2.88,10.76,5.67,5.17,26.25,4.23,26.25,4.23l-1.08,8.43,49.5-20Z"/>
    <path class="cls-3" d="M793.3,130.24l-1.61,24.39,24.21-9.34c2.1-.81,2.19-3.75.14-4.68l-22.74-10.37Z"/>
  </g>
  <g id="Fox3">
    <path class="cls-2" d="M858.41,673.01c3.53,48.97-58.04,82.75-109.89,25.73-56.14-61.72-10.47-135.87,6.64-148.87,2.01-1.53,4.9-.86,6.13,1.35,25.24,45.41,93.68,73.98,97.12,121.79Z"/>
    <g class="cls-33">
      <path class="cls-29" d="M727.34,621.34l10.99-13.98c1.4-1.12,3.36-1.25,4.9-.33l15.7,11.07c2.28,1.37,5.24.36,6.21-2.12l7.58-16.28c.75-1.92,2.76-3.04,4.79-2.66l15.79,2.98c1.75.33,3.39-.95,3.51-2.72l-5.88-45.62-24.35-20.05-41.38-8.97-27.95,53.2,25.65,45.03c.87,1.74,3.25,1.98,4.45.45Z"/>
    </g>
    <path class="cls-2" d="M817.2,360.88c5.98-101.15,108.89-196,128.46-199.5,19.56-3.5,35.82,67.2,35.78,84.09-.04,16.89-170.21,216.56-164.24,115.41Z"/>
    <g>
      <path class="cls-27" d="M1089.89,491.57c36.96-10.18,50.45,3.67,56,23.81,5.55,20.14,1.04,38.95-35.91,49.12-21.48,5.91-43.38-5.62-48.93-25.76-5.55-20.14,7.37-41.26,28.84-47.18Z"/>
      <path class="cls-26" d="M1119.79,572.46c-.93-35.16-9.34-64.41-26.07-92.73-1.25-2.12-3.87-3-6.13-2.02-38.45,16.64-90.1,43.4-106.35,58.35-16.81,15.46-3.52,50.86,19.51,55.47,22.27,4.45,76.08-6.09,115.17-14.15,2.32-.48,3.94-2.55,3.87-4.91Z"/>
    </g>
    <path class="cls-27" d="M1100.24,422.74c-5.26,68.2-37.38,97.79-150.45,112.03-.27.03-.54.06-.82.1-.81.1-1.63.19-2.45.29-.49.05-.97.11-1.46.16-.58.07-1.15.12-1.74.18-1.02.09-2.04.19-3.08.27-104,8.48-171.27-44.92-171.6-135.77-.32-85.28,47.9-143.98,141.42-163.73,103.24-21.8,187.18,70.76,170.35,169.6-.29,1.7.09,3.45,1.11,4.85,1.93,2.68,7.19,6.8,16.13,8.71,1.52.33,2.72,1.75,2.6,3.3Z"/>
    <path class="cls-27" d="M769.87,376.3c-2.53-101.3,92.07-204.44,111.27-209.57,19.2-5.13,41.34,63.96,42.71,80.8s-151.45,230.08-153.98,128.78Z"/>
    <path class="cls-28" d="M904.16,246.82c2.17-3.32-8.45-39.85-13-41.23-8.28-2.5-22.15,107.09-11.18,86.12,15.61-29.85,18.66-36.44,24.18-44.89Z"/>
    <ellipse class="cls-21" cx="1002.19" cy="392.08" rx="49.56" ry="53.11" transform="translate(-28.55 82.76) rotate(-4.66)"/>
    <ellipse class="cls-22" cx="1013.56" cy="393.03" rx="34.28" ry="36.74" transform="translate(-28.59 83.69) rotate(-4.66)"/>
    <path class="cls-27" d="M954.47,700.58c8.37,18.04,26.08,51.89,45.27,73,7.92,8.72,43.78-5.24,43.11-14.49-.89-12.46-14.13-57.07-25.63-78.33-11.02-20.37-76.14-9.04-62.75,19.82Z"/>
    <path class="cls-2" d="M863.34,695.16c-1.91,19.65-3.73,57.19,2.34,83.36,2.51,10.8,41.46,9.87,45.66,1.01,5.65-11.93,16.98-58,17.79-81.71.77-22.72-62.73-34.09-65.79-2.66Z"/>
    <g class="cls-10">
      <path class="cls-22" d="M1114.66,424.35c-.37-2.94-7.15-5.2-12.46-6.56-5.31-1.36-12.34-2.62-14.08-.21-1.74,2.4,5.44,10.6,11.06,12.03,5.62,1.43,15.85-2.31,15.47-5.26Z"/>
      <path class="cls-22" d="M1087.05,463.1c-14.1,0-25.56-4.97-34.18-14.86-1.45-1.67-1.28-4.19.39-5.64,1.66-1.45,4.19-1.28,5.64.39,8.98,10.3,21.43,13.98,38.04,11.27,2.18-.36,4.24,1.12,4.59,3.3.36,2.18-1.12,4.24-3.3,4.59-3.89.64-7.62.95-11.18.95Z"/>
    </g>
    <path class="cls-23" d="M1013.07,530.22c-.86,1.83-7.14,11.67-10.53,17.25-.66,1.08-1.03,2.3-.6,3.56,16.54,49,30.68,93.15,42.37,147.04.5,2.53-.93,4.85-3.01,5.9-46.96,23.74-129.29,34.83-202.07,17.31-2.1-.51-3.29-3.04-3.15-5.4,3.48-59.74,7.32-113.1,25.6-167.19.38-1.11.13-2.38-.64-3.22-4.28-4.7-19.8-19.33-19.47-22.22.37-3.21,172.69,4.44,171.5,6.97Z"/>
    <g class="cls-13">
      <path class="cls-26" d="M922.47,589.73c-.54,22.07-17.15,77.82-31.87,117.04-.86,2.31-3.31,3.59-5.7,3.01-3.64-.87-7.22-1.83-10.74-2.87-16.86,25.49-34.42,24.77-51.16,15.65-16.68-9.08-26.8-23.39-14.7-51.23-2.76-2.27-5.51-4.67-8.24-7.18-1.75-1.6-2.12-4.2-.85-6.2,21.35-33.72,51.12-79.78,69.79-92.71,19.3-13.38,54.02,1.64,53.47,24.48Z"/>
      <path class="cls-26" d="M849.73,518.31l36.28,20.42c3.07,2.11,3.87,6.3,1.79,9.4l-15.35,22.9-16.78,72.81-78-5,53.24-106-4.19-13.75,23-.78Z"/>
    </g>
    <g>
      <path class="cls-27" d="M876.48,689.61c-20.37,32.47-39.68,31.38-57.37,20.28-17.7-11.1-27.08-28.01-6.71-60.48,11.84-18.87,35.78-25.17,53.48-14.06,17.7,11.1,22.44,35.4,10.61,54.27Z"/>
      <path class="cls-23" d="M799.79,650.18c24.44,25.29,50.4,41.18,81.87,50.75,2.36.72,4.88-.41,5.89-2.66,17.1-38.25,37.1-92.87,38.99-114.87,1.95-22.76-10.64-40.93-33.41-36.82-22.35,4.03-70.42,65-93.8,97.35-1.38,1.92-1.18,4.54.46,6.24Z"/>
    </g>
    <g>
      <path class="cls-3" d="M1234.88,411.72l-61.89,94.55-16.78-9.81c-.08-.04-.17-.07-.25-.1l-18.42-5.93,21.95-109.65c.36-1.72,1.56-3.15,3.19-3.8l46.31-18.43c2.44-.97,5.21.17,6.27,2.57l20.02,45.65c.71,1.61.56,3.47-.39,4.95Z"/>
      <g class="cls-11">
        <path class="cls-20" d="M1156.21,498.97c-.32,0-.64-.06-.95-.19-1.28-.52-1.89-1.98-1.36-3.26l35.18-85.73c.52-1.28,1.98-1.89,3.26-1.36,1.28.52,1.89,1.98,1.36,3.26l-35.18,85.73c-.4.97-1.33,1.55-2.31,1.55Z"/>
      </g>
      <path class="cls-24" d="M1192.57,515.07l-2.66,6.49c-1.67,4.07-6.32,6.01-10.39,4.34l-16.84-6.91-11.09,27.03c-2.02,4.94-7.66,7.29-12.59,5.27l-9.29-3.81c-4.93-2.02-7.29-7.66-5.26-12.59l11.09-27.03-16.84-6.91c-4.07-1.67-6.01-6.32-4.34-10.39l2.66-6.49c1.67-4.07,6.32-6.02,10.39-4.35l60.82,24.96c4.07,1.67,6.01,6.32,4.34,10.39Z"/>
      <g class="cls-12">
        <polygon class="cls-19" points="1167.38 520.92 1144.26 511.43 1163.22 534.17 1167.38 520.92"/>
      </g>
    </g>
  </g>
  <g id="Frog2">
    <path class="cls-9" d="M705.66,760.16c-1.83,4.13,2.38,32.05,7.33,35.53,6.91,4.86,32.75-1.04,34.76-10.88,1.25-6.09-6.68-29.38-10.25-32.74-4.43-4.16-28.79,1.19-31.85,8.09Z"/>
    <path class="cls-5" d="M661.04,758.93c-2.93,3.43-6.91,31.38-3.17,36.14,5.23,6.64,31.67,8.4,36.42-.44,2.94-5.48,2.03-30.06-.42-34.3-3.05-5.26-27.92-7.13-32.83-1.39Z"/>
    <path class="cls-31" d="M513.41,662.77c-99.25,33.87,341.32-7.14,342.04-57.57.25-17.66-156.29-46.08-342.04,57.57Z"/>
    <path class="cls-5" d="M722.83,581.97c44.01,9.45,70.87,77.34,66.05,140.87-4.35,57.35-116.99,62.95-166.82,34.35-36.68-21.06-44.23-66.94-20.94-116.47,16.58-35.26,62-71.58,121.71-58.75Z"/>
    <circle class="cls-8" cx="704.36" cy="680.69" r="28.42"/>
    <ellipse class="cls-21" cx="725.08" cy="634.74" rx="32.29" ry="34" transform="translate(-35.99 43.63) rotate(-3.36)"/>
    <ellipse class="cls-22" cx="726.87" cy="635.17" rx="25.37" ry="26.71" transform="translate(-36.01 43.74) rotate(-3.36)"/>
    <g class="cls-16">
      <path class="cls-22" d="M749.52,682.86c-2.04,0-3.99-.31-5.85-.94-2.09-.71-3.22-2.97-2.51-5.07.71-2.09,2.97-3.22,5.07-2.51,7.39,2.49,19.12-4.1,33.92-19.06,1.55-1.57,4.09-1.58,5.66-.03,1.57,1.55,1.58,4.09.03,5.66-14.55,14.71-26.51,21.95-36.31,21.95Z"/>
      <ellipse class="cls-6" cx="739.44" cy="742.4" rx="55.8" ry="29.37" transform="translate(-203.86 286.21) rotate(-19.31)"/>
    </g>
    <path class="cls-32" d="M494.21,669.9c-9.05,4.19,48.9,22.21,193.9-44.69,62.07-28.64,151.62-32.61,164.46-24.15.5.33.96-.31.57-.76-13.94-16.54-122.94-24.65-131-28.54-8.55-4.13-105.33-101.13-118.23-87.49-12.9,13.64-13.19,119.82-15.26,125.54-1.63,4.49-40.85,35.28-94.46,60.1Z"/>
    <g class="cls-15">
      <path class="cls-31" d="M582.44,600.55c23.58-11.65,59.64-19.66,90.45-23.75.87-.12,1.15,1.14.31,1.4-29.87,9.51-70.28,25.99-90.98,37.49l.22-15.15Z"/>
    </g>
    <g>
      <circle class="cls-4" cx="602.29" cy="576.63" r="19.1"/>
      <path class="cls-24" d="M758.23,789.49s-117.69-184.7-119.23-194.87c-1.19-7.9,10.25-31.39-2.75-47.03s-30.17-20.17-52-15.17c-21.18,4.85-30.17,26.44-30.17,44.67s8.03,26.71,25.83,28c20.67,1.5,23.17-11,16.5-17.17-5.94-5.49-13.78-6.01-13.21-11.75,1.07-10.88,10.55-16.08,18.49-16.08,8.33,0,14.24,4.42,15.67,15q1.17,8.67-1.94,21.44c-1.68,6.89,7.11,11.67,17,21.89,9.89,10.22,121.97,173.64,121.97,173.64,1.74,2.45,5.45-.03,3.85-2.57Z"/>
      <g class="cls-14">
        <ellipse class="cls-19" cx="612.09" cy="583.16" rx="14.94" ry="13.86" transform="translate(-182.67 871.42) rotate(-63.55)"/>
      </g>
      <path class="cls-4" d="M602.29,576.63l14.32,12.63c3.08-3.49,4.78-7.98,4.78-12.63,0-10.48-8.62-19.1-19.1-19.1s-18.84,8.34-19.09,18.64l19.09.46Z"/>
      <ellipse class="cls-7" cx="609.01" cy="563.67" rx="3.05" ry="5.46" transform="translate(-156.84 883.19) rotate(-65.43)"/>
    </g>
    <path class="cls-9" d="M670.65,714.53c7.27,11.1,15.09,19.5,24.9,21.74,9.81,2.23,25.4-11.52,22.26-21.95-3.14-10.42-20.84-16.01-34.05-20.27-13.21-4.26-20.38,9.38-13.11,20.48Z"/>
  </g>
</svg>