<?xml version="1.0" encoding="UTF-8"?>
<svg xmlns="http://www.w3.org/2000/svg" xmlns:xlink="http://www.w3.org/1999/xlink" viewBox="0 0 1100 900">
  <defs>
    <style>
      .cls-1 {
        fill: #d7e5ff;
      }

      .cls-2, .cls-3 {
        fill: none;
      }

      .cls-4 {
        fill: #f57711;
      }

      .cls-3 {
        stroke: #f49898;
        stroke-linecap: round;
        stroke-miterlimit: 10;
        stroke-width: 4px;
      }

      .cls-5 {
        fill: #b6e540;
      }

      .cls-6 {
        fill: #e2ff93;
      }

      .cls-7 {
        fill: #ffc4c4;
      }

      .cls-8 {
        fill: #97c213;
      }

      .cls-9 {
        clip-path: url(#clippath-1);
      }

      .cls-10 {
        clip-path: url(#clippath-3);
      }

      .cls-11 {
        clip-path: url(#clippath-2);
      }

      .cls-12 {
        fill: #ffd62c;
      }

      .cls-13 {
        fill: #fff;
      }

      .cls-14 {
        fill: #463f37;
      }

      .cls-15 {
        fill: #5b9cff;
      }

      .cls-16 {
        fill: #3c8cff;
      }

      .cls-17 {
        fill: #ff9811;
      }

      .cls-18 {
        fill: #ffe1b2;
      }

      .cls-19 {
        fill: #edcca6;
      }

      .cls-20 {
        fill: #60702f;
      }

      .cls-21 {
        fill: #7f954c;
      }

      .cls-22 {
        clip-path: url(#clippath);
      }

      .cls-23 {
        fill: #c0d8ff;
      }
    </style>
    <clipPath id="clippath">
      <path class="cls-2" d="M839.98,665.09c111.82,33.91,169.99-73.73,107.99-197.42-1.33-2.65-5.08-2.74-6.55-.17-25.56,44.54-65.5,97.96-109.36,153.8l7.92,43.79Z"/>
    </clipPath>
    <clipPath id="clippath-1">
      <path class="cls-2" d="M803.58,499.09c48.67,15.87,96.77,29.04,143.75,36.97,1.3.22,2.24,1.38,2.15,2.69-2.11,30.57-20.98,65.06-46.32,101.06-.6.86-1.67,1.28-2.69,1.05-42.97-9.57-75.17-35.53-105.62-64.16-23.48-52.56-17.53-75.36,8.73-77.62Z"/>
    </clipPath>
    <clipPath id="clippath-2">
      <path class="cls-2" d="M242.54,378.05c-39.83,53.93-33.27,135.79,3.84,157.66,42.79,25.21,164.49,17.6,183.13-24.71,25.52-57.91-23.52-151.95-65.45-170.09-40.05-17.32-81.69-16.8-121.52,37.13Z"/>
    </clipPath>
    <clipPath id="clippath-3">
      <path class="cls-2" d="M159.45,451.58c5.58-11.83,37.42-47.86,57.35-75.22.5-.68.81-1.46.55-2.26-11.39-35.37-30.39-102.45-18.45-111.52,9.97-7.58,119.77,44.78,140.95,59.03.53.35,1.14.53,1.77.53,49.14-.22,105.55,8.32,111.18,12.11s3.7,7.26,3.7,7.26c2.19-7.47-34.88-20.69-157.64,32.95-89.35,41.87-136.54,68.91-139.19,81.68,0,0-1.37-2.11-.22-4.56Z"/>
    </clipPath>
  </defs>
  <g id="Fox5">
    <path class="cls-4" d="M839.98,665.09c111.82,33.91,169.99-73.73,107.99-197.42-1.33-2.65-5.08-2.74-6.55-.17-25.56,44.54-65.5,97.96-109.36,153.8l7.92,43.79Z"/>
    <g class="cls-22">
      <path class="cls-19" d="M990.72,536.17l-24.39,22.93c-1.07,1.01-2.79.86-3.67-.32l-8.89-11.84c-.67-.9-1.86-1.23-2.9-.81l-17.48,7.05c-1.08.44-2.31.06-2.97-.9l-9.41-13.8c-.57-.83-1.59-1.24-2.58-1.02l-17.32,3.81c-1.45.32-2.86-.71-2.99-2.19l-2.91-31.19,35.84-71.28h32.67l27.02,99.54Z"/>
    </g>
    <path class="cls-17" d="M896.26,614.98c115.46,33.47,139.21-77.09,45.1-75.15l-45.1,75.15Z"/>
    <path class="cls-4" d="M501.99,490.48c-85.45-103.21,7.13-174.66,42.74-97.4l-42.74,97.4Z"/>
    <path class="cls-15" d="M803.58,499.09c48.67,15.87,96.77,29.04,143.75,36.97,1.3.22,2.24,1.38,2.15,2.69-2.11,30.57-20.98,65.06-46.32,101.06-.6.86-1.67,1.28-2.69,1.05-42.97-9.57-75.17-35.53-105.62-64.16-23.48-52.56-17.53-75.36,8.73-77.62Z"/>
    <g class="cls-9">
      <path class="cls-16" d="M890.26,640.93c-27.78-19.81-55.23-51.76-82.49-90.88l26.86,106.47,55.63-15.59Z"/>
    </g>
    <path class="cls-16" d="M543.21,388.19c-26.63,39.25-44.12,79.37-51.37,120.44-.12.7.12,1.43.64,1.91,44.7,42.1,98.85,66.86,146.65,83.14,35.41-2.22,39.26-32.14,13.2-88.29-40.21-36.18-77.71-73.92-105.6-117.15-.82-1.27-2.66-1.3-3.51-.05Z"/>
    <path class="cls-4" d="M639.2,691.18s22.36,86.18,32.14,97.36,49.38,8.85,55.9-6.99,10.33-94.1,10.33-94.1l-98.37,3.73Z"/>
    <path class="cls-17" d="M769.64,701.89s41.46,54.97,56.83,62.42,39.13-14.39,41.46-28.88-21.43-81.99-21.43-81.99l-76.87,48.45Z"/>
    <path class="cls-17" d="M878.38,404.55c-2.28-2.54-3.62-5.77-3.1-9.14,17.73-115.38-28.3-237.01-51.84-247.85-13.84-6.38-50.79,42.7-71.03,75.38-15.41-2.44-35.59-4.4-57.13-2.77-20.81,1.57-32.15,4.91-42.24,9.67-8.69-18.93-35.7-67.51-48.09-64.85-25.34,5.44-62.64,117.95-57.42,231.04.16,3.4-1.25,6.26-3.07,9.15-4.04,6.41-15.23,13.89-15.51,23.64-.97,34.07,80.83,75.14,184.12,74.98,103.29-.16,180.26-48.11,182.1-72.74.52-6.96-6.93-15.51-16.8-26.49Z"/>
    <g>
      <path class="cls-18" d="M616.33,248.29c-11.03,9.07-19.81,16.41-31.7,28.17-9.18,9.09,3.2-52.46,14.82-64.8,3.32-3.52,20.43,33.71,16.88,36.63Z"/>
      <path class="cls-18" d="M802.59,243.29c15.52,11.41,23.63,18.1,37.32,34.31,10.22,12.1,5.92-60.31-11.44-76.93-5.67-5.43-31.16,38.74-25.88,42.62Z"/>
    </g>
    <path class="cls-14" d="M677.53,405.62c-.95-2.25-6.83-2.53-11.34-2.42-4.51.11-10.37.68-11.21,2.97-.84,2.29,6.68,7.19,11.46,7.07s12.05-5.37,11.1-7.62Z"/>
    <path class="cls-14" d="M715.75,417.86c-6.51-2.26-35.72,4.03-39.7,11.52-3.08,5.8,19.34,27.41,30.95,30.82,11.61,3.41,14.29-40.42,8.75-42.34Z"/>
    <path class="cls-14" d="M729.03,392.33c-3.18-.09-5.75-2.66-5.82-5.87-.29-13.51,2.13-24.55,7.16-32.82,4.89-8.01,12.12-12.9,20.37-13.75,8.89-.92,17.91,2.81,25.41,10.51,7.64,7.84,13.01,19.13,15.54,32.62.61,3.26-1.53,6.39-4.79,7-3.26.61-6.39-1.53-7-4.79-4.34-23.13-17.61-34.48-27.91-33.41-10.61,1.1-17.19,14.6-16.78,34.39.07,3.31-2.56,6.06-5.87,6.13-.1,0-.2,0-.3,0Z"/>
    <path class="cls-14" d="M583.9,389.41c-3.18-.09-5.75-2.66-5.82-5.87-.29-13.51,2.13-24.55,7.16-32.82,4.89-8.01,12.12-12.9,20.37-13.75,8.88-.92,17.91,2.81,25.41,10.51,7.64,7.84,13.01,19.13,15.54,32.62.61,3.26-1.53,6.39-4.79,7-3.26.61-6.39-1.53-7-4.79-4.34-23.13-17.62-34.48-27.91-33.41-10.61,1.1-17.19,14.6-16.78,34.39.07,3.31-2.56,6.06-5.87,6.13-.1,0-.2,0-.3,0Z"/>
    <path class="cls-15" d="M806.41,509.55l12.48-19.85c.57-.91.07-2.12-.99-2.34-26.59-5.56-60.33-11.2-93.2-9.52-1.55.08-2.94.95-3.71,2.29l-10.4,18.11c-1.03,1.79-3.53,2.01-4.86.43l-14.03-16.74c-.96-1.15-2.43-1.76-3.93-1.62-30.49,2.96-54.51,11.81-70.28,19.04-.96.44-1.21,1.68-.5,2.46l15.54,16.89c1.01,1.1,1.49,2.59,1.31,4.08-6.64,53.43-10.9,113.63-14.1,176.85-.09,1.83.92,3.54,2.57,4.33,66.23,31.85,204.1,19.47,235.73-42.01.68-1.31.67-2.86-.01-4.17-20.91-39.85-36.77-90.24-51.97-145.51-.25-.91-.13-1.89.34-2.71Z"/>
  </g>
  <g id="Frog3">
    <path class="cls-20" d="M159.66,456.14c5.04,12.77,75.53-3.1,157.44-35.44,81.91-32.34,144.23-68.91,139.19-81.68-5.04-12.77-80.49-4.73-162.4,27.61-81.91,32.34-139.27,76.74-134.23,89.51Z"/>
    <path class="cls-5" d="M247.1,527.52s-14.41,27.93-9.73,40.38,33.83,17.11,41.8,5.45,10.18-37.78,10.18-37.78l-42.25-8.05Z"/>
    <path class="cls-8" d="M360.57,519.27s-13.55,27.95-9.19,40.4c4.36,12.45,31.67,17.05,39.16,5.38,7.48-11.68,9.61-37.79,9.61-37.79l-39.58-7.98Z"/>
    <path class="cls-5" d="M219.37,458.5s-18.7,10.48-31.72,24.06c-13.02,13.57,2.56,30.5,17.09,29,14.53-1.5,28.07-24.74,28.07-24.74l-13.44-28.32Z"/>
    <path class="cls-8" d="M410.75,409.53s9.5-13.77,21.2-26.68c11.7-12.91,34.9.37,28.36,24.11-7.57,27.46-41.13,49.2-36.08,45.48l-13.47-42.91Z"/>
    <path class="cls-5" d="M241.54,378.02c-39.83,53.93-33.27,135.79,3.84,157.66,42.79,25.21,164.49,17.6,183.13-24.71,25.52-57.91-23.52-151.95-65.45-170.09-40.05-17.32-81.69-16.8-121.52,37.13Z"/>
    <g class="cls-11">
      <path class="cls-6" d="M257.3,507.99c-17.68,19.82,2.88,39.82,45.91,44.67,43.03,4.85,92.24-7.29,109.92-27.12,17.68-19.82-2.88-39.82-45.91-44.67-43.03-4.85-92.24,7.29-109.92,27.12Z"/>
      <circle class="cls-7" cx="250.83" cy="443.24" r="27.08"/>
      <circle class="cls-7" cx="419.65" cy="429.16" r="27.08"/>
    </g>
    <ellipse class="cls-13" cx="372.96" cy="392.54" rx="30.2" ry="33.93" transform="translate(-97.57 124.61) rotate(-16.81)"/>
    <ellipse class="cls-14" cx="375.63" cy="390.45" rx="23.5" ry="26.4" transform="translate(-96.85 125.29) rotate(-16.81)"/>
    <ellipse class="cls-13" cx="291.02" cy="398.62" rx="35.71" ry="31.79" transform="translate(-146.56 626.91) rotate(-81.42)"/>
    <ellipse class="cls-14" cx="293.08" cy="396.75" rx="27.79" ry="24.73" transform="translate(-142.95 627.36) rotate(-81.42)"/>
    <path class="cls-7" d="M323.61,438.91c-5.52,31.49,37.98,32.09,36.75-1.06l-16.81-9.25-19.94,10.31Z"/>
    <path class="cls-3" d="M343.55,428.6c.35,6.36.28,10.39-1.04,17.3"/>
    <path class="cls-14" d="M296.92,447.97c-2.6,0-5.13-.19-7.6-.58-1.64-.26-2.76-1.79-2.5-3.43.26-1.64,1.79-2.76,3.43-2.5,14,2.19,30.59-2.7,49.3-14.53,2.56-1.62,5.59-1.8,7.92-.47,13.47,7.65,25.64,10.63,37.21,9.13,1.63-.22,3.15.95,3.36,2.59s-.94,3.15-2.59,3.36c-12.92,1.68-26.3-1.55-40.94-9.86-.37-.21-1.13-.07-1.75.33-16.79,10.62-32.16,15.97-45.83,15.97Z"/>
    <path class="cls-21" d="M159.45,451.58c5.58-11.83,37.42-47.86,57.35-75.22.5-.68.81-1.46.55-2.26-11.39-35.37-30.39-102.45-18.45-111.52,9.97-7.58,119.77,44.78,140.95,59.03.53.35,1.14.53,1.77.53,49.14-.22,105.55,8.32,111.18,12.11s3.7,7.26,3.7,7.26c2.19-7.47-34.88-20.69-157.64,32.95-89.35,41.87-136.54,68.91-139.19,81.68,0,0-1.37-2.11-.22-4.56Z"/>
    <g class="cls-10">
      <path class="cls-20" d="M287.72,334.67c-35.3,15.07-61.64,31.72-79.03,49.95l-.43-21.72c14.5-11.88,40.9-21.57,79.2-29.07.52-.1.74.63.26.83Z"/>
    </g>
    <g>
      <path class="cls-13" d="M270.96,599.24c-4.77,36.1-20.86,68.12-49.68,95.57-57.04-34.08-105.63-7.88-88.46,53.32-26.7-16.89-48.14,13.6-25.56,36.32h260.12c5.57-27.86-4.9-45.11-44.72-42.99,10.42-19.26-9.31-35.95-31.64-25.45,16.03-31.06,20.48-65.75,18.04-102.61"/>
      <path class="cls-23" d="M367.38,787.46H107.26c-.8,0-1.56-.32-2.13-.88-13.56-13.64-12.18-29.26-5.17-38,7.46-9.3,18.72-9.85,28.37-6.06-5.29-24.65.04-44.99,15-56.43,18.3-14,47.84-12.04,77.5,5,26.64-25.98,42.5-57,47.15-92.23.22-1.64,1.73-2.8,3.37-2.58,1.64.22,2.8,1.72,2.58,3.37-4.93,37.33-21.95,70.08-50.59,97.35-.98.93-2.45,1.09-3.61.4-28.16-16.83-56.04-19.33-72.76-6.55-14.19,10.85-18.3,31.44-11.27,56.48.33,1.2-.1,2.47-1.1,3.22-1,.74-2.35.79-3.4.13-12.36-7.82-22.04-3.99-26.57,1.66-5.25,6.55-6.17,18.34,3.89,29.13h256.35c2.08-12.31.55-21.25-4.68-27.29-6.42-7.42-19.01-10.7-37.39-9.71-1.09.06-2.12-.47-2.7-1.39-.58-.92-.62-2.08-.1-3.03,3.74-6.91,3.23-13.94-1.37-18.81-5.92-6.26-16.26-7.25-26.35-2.51-1.16.55-2.54.29-3.44-.63-.89-.92-1.09-2.32-.51-3.46,14.55-28.2,20.35-61.25,17.71-101.04-.11-1.65,1.14-3.08,2.79-3.19,1.65-.12,3.08,1.14,3.19,2.79,2.51,37.84-2.45,69.84-15.13,97.53,10.1-2.49,19.83-.24,26.09,6.38,5.4,5.72,6.89,13.39,4.29,21.19,17.95-.29,30.25,3.64,37.44,11.94,6.85,7.92,8.68,19.3,5.58,34.8-.28,1.4-1.51,2.41-2.94,2.41Z"/>
    </g>
    <path class="cls-1" d="M243.66,729.53c-.47,0-.94-.16-1.32-.5-.83-.73-.91-1.99-.18-2.82,30.47-34.6,45.27-71.34,47.99-119.11.06-1.1,1-1.94,2.11-1.88,1.1.06,1.95,1.01,1.88,2.11-2.78,48.73-17.88,86.21-48.98,121.53-.4.45-.95.68-1.5.68Z"/>
    <path class="cls-1" d="M283.83,758.14c-.95,0-1.79-.67-1.96-1.64-1.71-9.23-7.77-12.25-20.25-10.08-.52.09-1.06-.03-1.5-.34-.43-.31-.73-.78-.82-1.3-1.26-7.48-10.95-14.85-22.54-17.15-6.9-1.37-24.15-2.64-35.29,15.16-.59.94-1.82,1.22-2.76.63-.94-.59-1.22-1.82-.63-2.76,8.64-13.81,23.4-20.16,39.46-16.96,12.4,2.46,22.61,10.05,25.24,18.47,6.57-.99,20.17-1.81,23.02,13.6.2,1.09-.52,2.13-1.6,2.33-.12.02-.25.03-.37.03Z"/>
    <path class="cls-12" d="M407.7,270.33l-16.01,9.93c-2,1.24-1.93,4.17.13,5.31l32.12,17.82c1.14.63,2.55.48,3.52-.38l5.32-4.67c1.3-1.14,1.4-3.14.22-4.41l-21.43-23.07c-1-1.08-2.63-1.3-3.88-.52Z"/>
    <path class="cls-12" d="M452.66,204.41l-35.05,8.98c-1.87.48-2.84,2.54-2.02,4.29l34.35,73.55c.6,1.28,1.99,1.99,3.37,1.72l13.37-2.57c1.63-.31,2.72-1.86,2.46-3.51l-12.68-79.96c-.28-1.79-2.05-2.95-3.81-2.5Z"/>
    <path class="cls-12" d="M500.94,231.6l27.06,16.8c1.46.91,1.9,2.84.96,4.28l-28.29,43.89c-.86,1.34-2.6,1.8-4.01,1.06l-9.08-4.75c-1.2-.63-1.85-1.96-1.6-3.29l10.31-55.94c.39-2.13,2.81-3.2,4.65-2.06Z"/>
  </g>
</svg>