<svg width="16" height="16" viewBox="0 0 16 16" fill="none" xmlns="http://www.w3.org/2000/svg">
<g id="ClockCountdown">
<path id="Vector" d="M14 8.5C13.7456 11.58 11.1456 14 8 14C6.4087 14 4.88258 13.3679 3.75736 12.2426C2.63214 11.1174 2 9.5913 2 8C2 4.85437 4.42 2.25438 7.5 2" stroke="#F65252" stroke-linecap="round" stroke-linejoin="round"/>
<path id="Vector_2" d="M8 4.5V8H11.5" stroke="#F65252" stroke-linecap="round" stroke-linejoin="round"/>
<path id="Vector_3" d="M10 2C10.1381 2 10.25 2.11193 10.25 2.25C10.25 2.38807 10.1381 2.5 10 2.5C9.86193 2.5 9.75 2.38807 9.75 2.25C9.75 2.11193 9.86193 2 10 2Z" fill="#F65252" stroke="#F65252"/>
<path id="Vector_4" d="M12.25 3.5C12.3881 3.5 12.5 3.61193 12.5 3.75C12.5 3.88807 12.3881 4 12.25 4C12.1119 4 12 3.88807 12 3.75C12 3.61193 12.1119 3.5 12.25 3.5Z" fill="#F65252" stroke="#F65252"/>
<path id="Vector_5" d="M13.75 6.75C14.1642 6.75 14.5 6.41421 14.5 6C14.5 5.58579 14.1642 5.25 13.75 5.25C13.3358 5.25 13 5.58579 13 6C13 6.41421 13.3358 6.75 13.75 6.75Z" fill="#F65252"/>
</g>
</svg>
