<svg width="21" height="20" viewBox="0 0 21 20" fill="none" xmlns="http://www.w3.org/2000/svg">
<path d="M8.375 6.875H12.125" stroke="#8A827A" stroke-width="1.5" stroke-linecap="round" stroke-linejoin="round"/>
<path d="M18.1867 12.0563L14.7766 4.29693C14.4249 3.94533 13.948 3.7478 13.4508 3.7478C12.9535 3.7478 12.4766 3.94533 12.125 4.29693V13.1251" stroke="#8A827A" stroke-width="1.5" stroke-linecap="round" stroke-linejoin="round"/>
<path d="M8.37495 13.1251V4.29693C8.02332 3.94533 7.54643 3.7478 7.04917 3.7478C6.55191 3.7478 6.07502 3.94533 5.72339 4.29693L2.31323 12.0563" stroke="#8A827A" stroke-width="1.5" stroke-linecap="round" stroke-linejoin="round"/>
<path d="M5.25 16.25C6.97589 16.25 8.375 14.8509 8.375 13.125C8.375 11.3991 6.97589 10 5.25 10C3.52411 10 2.125 11.3991 2.125 13.125C2.125 14.8509 3.52411 16.25 5.25 16.25Z" stroke="#8A827A" stroke-width="1.5" stroke-linecap="round" stroke-linejoin="round"/>
<path d="M15.25 16.25C16.9759 16.25 18.375 14.8509 18.375 13.125C18.375 11.3991 16.9759 10 15.25 10C13.5241 10 12.125 11.3991 12.125 13.125C12.125 14.8509 13.5241 16.25 15.25 16.25Z" stroke="#8A827A" stroke-width="1.5" stroke-linecap="round" stroke-linejoin="round"/>
</svg>
