<svg width="24" height="24" viewBox="0 0 24 24" fill="none" xmlns="http://www.w3.org/2000/svg">
<path d="M12 15C14.0711 15 15.75 13.3211 15.75 11.25C15.75 9.17893 14.0711 7.5 12 7.5C9.92893 7.5 8.25 9.17893 8.25 11.25C8.25 13.3211 9.92893 15 12 15Z" stroke="#7EBFFF" stroke-width="1.5" stroke-linecap="round" stroke-linejoin="round"/>
<path d="M19.5 3.75H4.5C4.08579 3.75 3.75 4.08579 3.75 4.5V19.5C3.75 19.9142 4.08579 20.25 4.5 20.25H19.5C19.9142 20.25 20.25 19.9142 20.25 19.5V4.5C20.25 4.08579 19.9142 3.75 19.5 3.75Z" stroke="#7EBFFF" stroke-width="1.5" stroke-linecap="round" stroke-linejoin="round"/>
<path d="M5.41699 20.2501C5.75531 18.7569 6.59118 17.4232 7.7874 16.4677C8.98362 15.5122 10.4691 14.9917 12.0001 14.9917C13.5311 14.9917 15.0166 15.5122 16.2128 16.4677C17.4091 17.4232 18.2449 18.7569 18.5832 20.2501" stroke="#7EBFFF" stroke-width="1.5" stroke-linecap="round" stroke-linejoin="round"/>
</svg>
