<svg width="27" height="26" viewBox="0 0 27 26" fill="none" xmlns="http://www.w3.org/2000/svg">
<path d="M3.75 10.5625H8.625V21.125H3.75C3.53451 21.125 3.32785 21.0394 3.17548 20.887C3.0231 20.7347 2.9375 20.528 2.9375 20.3125V11.375C2.9375 11.1595 3.0231 10.9528 3.17548 10.8005C3.32785 10.6481 3.53451 10.5625 3.75 10.5625Z" fill="#A09C97" stroke="#A09C97" stroke-width="2" stroke-linecap="round" stroke-linejoin="round"/>
<path d="M8.625 10.5625L12.6875 2.4375C13.5495 2.4375 14.3761 2.77991 14.9856 3.3894C15.5951 3.9989 15.9375 4.82555 15.9375 5.6875V8.125H22.4375C22.668 8.12506 22.8959 8.17417 23.1059 8.26906C23.316 8.36394 23.5035 8.50243 23.6559 8.67534C23.8084 8.84824 23.9223 9.0516 23.9901 9.2719C24.0579 9.49221 24.0781 9.72442 24.0493 9.95312L22.8305 19.7031C22.7811 20.0957 22.5901 20.4568 22.2933 20.7186C21.9965 20.9804 21.6145 21.1249 21.2188 21.125H8.625" stroke="#A09C97" stroke-width="2" stroke-linecap="round" stroke-linejoin="round"/>
</svg>
