<svg width="24" height="24" viewBox="0 0 24 24" fill="none" xmlns="http://www.w3.org/2000/svg">
<path d="M12 15C14.0711 15 15.75 13.3211 15.75 11.25C15.75 9.17893 14.0711 7.5 12 7.5C9.92893 7.5 8.25 9.17893 8.25 11.25C8.25 13.3211 9.92893 15 12 15Z" fill="#2D71B5" stroke="#2D71B5" stroke-width="1.5" stroke-linecap="round" stroke-linejoin="round"/>
<path d="M19.5 3.75H4.5C4.08579 3.75 3.75 4.08579 3.75 4.5V19.5C3.75 19.9142 4.08579 20.25 4.5 20.25H19.5C19.9142 20.25 20.25 19.9142 20.25 19.5V4.5C20.25 4.08579 19.9142 3.75 19.5 3.75Z" stroke="#2D71B5" stroke-width="1.5" stroke-linecap="round" stroke-linejoin="round"/>
<path d="M5.41687 20.2501C5.75519 18.7569 6.59106 17.4232 7.78728 16.4677C8.9835 15.5122 10.469 14.9917 12 14.9917C13.531 14.9917 15.0165 15.5122 16.2127 16.4677C17.4089 17.4232 18.2448 18.7569 18.5831 20.2501" fill="#2D71B5"/>
<path d="M5.41687 20.2501C5.75519 18.7569 6.59106 17.4232 7.78728 16.4677C8.9835 15.5122 10.469 14.9917 12 14.9917C13.531 14.9917 15.0165 15.5122 16.2127 16.4677C17.4089 17.4232 18.2448 18.7569 18.5831 20.2501" stroke="#2D71B5" stroke-width="1.5" stroke-linecap="round" stroke-linejoin="round"/>
</svg>
