<svg width="393" height="60" viewBox="0 0 393 60" fill="none" xmlns="http://www.w3.org/2000/svg">
<rect width="393" height="60" fill="white"/>
<path d="M46.1753 36.2905C45.0796 36.2905 44.1471 35.9945 43.3779 35.4023C42.6087 34.8047 42.1356 34.0133 41.9585 33.0283H44.0918C44.2301 33.4821 44.4847 33.8418 44.8555 34.1074C45.2318 34.3675 45.6772 34.4976 46.1919 34.4976C47.0662 34.4976 47.7497 34.113 48.2422 33.3438C48.7347 32.569 48.981 31.4954 48.981 30.123H48.9062H48.8647H48.8398C48.5576 30.693 48.1453 31.1357 47.603 31.4512C47.0607 31.7611 46.4382 31.916 45.7354 31.916C44.5954 31.916 43.6519 31.5397 42.9048 30.7871C42.1632 30.0345 41.7925 29.0827 41.7925 27.9316C41.7925 26.7031 42.2075 25.696 43.0376 24.9102C43.8732 24.1188 44.9412 23.7231 46.2417 23.7231C47.116 23.7231 47.8908 23.9251 48.5659 24.3291C49.241 24.7331 49.7806 25.3197 50.1846 26.0889C50.749 27.0905 51.0312 28.3522 51.0312 29.874C51.0312 31.8883 50.6024 33.4627 49.7446 34.5972C48.8869 35.7261 47.6971 36.2905 46.1753 36.2905ZM44.5566 29.5586C44.9993 29.9958 45.5638 30.2144 46.25 30.2144C46.9362 30.2144 47.5034 29.9958 47.9517 29.5586C48.3999 29.1214 48.624 28.568 48.624 27.8984C48.624 27.2233 48.3971 26.6561 47.9434 26.1968C47.4896 25.7375 46.9279 25.5078 46.2583 25.5078C45.5887 25.5078 45.027 25.7347 44.5732 26.1885C44.1195 26.6367 43.8926 27.1956 43.8926 27.8652C43.8926 28.5514 44.1139 29.1159 44.5566 29.5586ZM54.2915 34.73C53.9041 34.73 53.5859 34.6055 53.3369 34.3564C53.0879 34.1074 52.9634 33.7948 52.9634 33.4185C52.9634 33.0366 53.0879 32.724 53.3369 32.4805C53.5859 32.2314 53.9041 32.1069 54.2915 32.1069C54.6844 32.1069 55.0026 32.2314 55.2461 32.4805C55.4951 32.724 55.6196 33.0366 55.6196 33.4185C55.6196 33.7948 55.4951 34.1074 55.2461 34.3564C55.0026 34.6055 54.6844 34.73 54.2915 34.73ZM54.2915 28.5044C53.9041 28.5044 53.5859 28.3826 53.3369 28.1392C53.0879 27.8901 52.9634 27.5775 52.9634 27.2012C52.9634 26.8193 53.0879 26.5067 53.3369 26.2632C53.5859 26.0142 53.9041 25.8896 54.2915 25.8896C54.6844 25.8896 55.0026 26.0142 55.2461 26.2632C55.4951 26.5067 55.6196 26.8193 55.6196 27.2012C55.6196 27.5775 55.4951 27.8901 55.2461 28.1392C55.0026 28.3826 54.6844 28.5044 54.2915 28.5044ZM63.3955 36V33.7671H57.5435V31.8579C58.5174 30.0649 60.1444 27.453 62.4243 24.022H65.4458V31.9575H67.0645V33.7671H65.4458V36H63.3955ZM59.5273 31.8828V32.0073H63.4287V25.7651H63.3125C62.0176 27.6799 60.7559 29.7191 59.5273 31.8828ZM71.4702 36V26.1802H71.3291L68.3491 28.272V26.2134L71.4785 24.022H73.6118V36H71.4702Z" fill="#242020"/>
<path d="M82.2507 30.5545C82.0199 30.5504 81.8275 30.4996 81.6736 30.4021C81.5237 30.3005 81.4124 30.1724 81.3395 30.0179C81.2666 29.8594 81.2382 29.6928 81.2544 29.518C81.2706 29.3391 81.3314 29.1745 81.4367 29.0241C81.542 28.8696 81.6979 28.7456 81.9044 28.6521L91.6243 24.1584C91.9038 24.0324 92.161 23.9815 92.3959 24.0059C92.6308 24.0263 92.8231 24.1096 92.973 24.2559C93.1228 24.3982 93.2119 24.5852 93.2403 24.8169C93.2727 25.0445 93.2241 25.3006 93.0945 25.5852L88.6294 35.3044C88.5322 35.5239 88.4046 35.6885 88.2467 35.7983C88.0887 35.9121 87.9207 35.9771 87.7425 35.9934C87.5643 36.0137 87.3962 35.9873 87.2382 35.9141C87.0803 35.8409 86.9527 35.7271 86.8555 35.5727C86.7583 35.4223 86.7097 35.2353 86.7097 35.0117L86.6976 30.6643C86.6976 30.5992 86.6652 30.5667 86.6004 30.5667L82.2507 30.5545Z" fill="#242020"/>
<path d="M284.917 32H286.083C286.728 32 287.25 32.5037 287.25 33.125V35.375C287.25 35.9963 286.728 36.5 286.083 36.5H284.917C284.272 36.5 283.75 35.9963 283.75 35.375V33.125C283.75 32.5037 284.272 32 284.917 32Z" fill="#242020"/>
<path d="M289.917 30H291.083C291.728 30 292.25 30.5037 292.25 31.125V35.375C292.25 35.9963 291.728 36.5 291.083 36.5H289.917C289.272 36.5 288.75 35.9963 288.75 35.375V31.125C288.75 30.5037 289.272 30 289.917 30Z" fill="#242020"/>
<path opacity="0.2" d="M294.917 27H296.083C296.728 27 297.25 27.5037 297.25 28.125V35.375C297.25 35.9963 296.728 36.5 296.083 36.5H294.917C294.272 36.5 293.75 35.9963 293.75 35.375V28.125C293.75 27.5037 294.272 27 294.917 27Z" fill="#242020"/>
<path opacity="0.2" d="M299.917 24H301.083C301.728 24 302.25 24.5037 302.25 25.125V35.375C302.25 35.9963 301.728 36.5 301.083 36.5H299.917C299.272 36.5 298.75 35.9963 298.75 35.375V25.125C298.75 24.5037 299.272 24 299.917 24Z" fill="#242020"/>
<path fill-rule="evenodd" clip-rule="evenodd" d="M321.25 26.596C323.717 26.5961 326.089 27.5667 327.877 29.3071C328.011 29.4415 328.227 29.4398 328.359 29.3033L329.646 27.9734C329.713 27.9042 329.751 27.8104 329.75 27.7129C329.749 27.6153 329.711 27.522 329.643 27.4536C324.951 22.8488 317.549 22.8488 312.857 27.4536C312.789 27.522 312.751 27.6152 312.75 27.7128C312.749 27.8103 312.787 27.9041 312.854 27.9734L314.141 29.3033C314.273 29.44 314.489 29.4417 314.623 29.3071C316.411 27.5666 318.784 26.596 321.25 26.596ZM321.25 30.9227C322.606 30.9226 323.913 31.4384 324.917 32.37C325.053 32.5022 325.267 32.4993 325.399 32.3635L326.685 31.0336C326.752 30.9639 326.79 30.8692 326.789 30.7709C326.788 30.6726 326.749 30.5787 326.68 30.5104C323.62 27.5963 318.883 27.5963 315.824 30.5104C315.755 30.5787 315.715 30.6726 315.715 30.771C315.714 30.8693 315.751 30.964 315.819 31.0336L317.104 32.3635C317.237 32.4993 317.451 32.5022 317.586 32.37C318.59 31.439 319.896 30.9232 321.25 30.9227ZM323.825 33.834C323.827 33.9326 323.789 34.0277 323.72 34.0968L321.497 36.3945C321.432 36.462 321.343 36.5 321.25 36.5C321.158 36.5 321.069 36.462 321.004 36.3945L318.78 34.0968C318.711 34.0276 318.674 33.9325 318.676 33.8339C318.678 33.7353 318.719 33.6419 318.791 33.5758C320.211 32.346 322.29 32.346 323.71 33.5758C323.782 33.642 323.823 33.7354 323.825 33.834Z" fill="#242020"/>
<g opacity="0.3">
<path d="M340.416 24.7777C339.75 25.7866 339.75 27.1911 339.75 30C339.75 32.8089 339.75 34.2134 340.416 35.2223C340.704 35.659 341.075 36.034 341.506 36.3259C342.503 37 343.89 37 346.665 37H357.533C360.308 37 361.695 37 362.692 36.3259C363.123 36.034 363.494 35.659 363.782 35.2223C364.448 34.2134 364.448 32.8089 364.448 30C364.448 27.1911 364.448 25.7866 363.782 24.7777C363.494 24.341 363.123 23.966 362.692 23.6741C361.695 23 360.308 23 357.533 23H346.665C343.89 23 342.503 23 341.506 23.6741C341.075 23.966 340.704 24.341 340.416 24.7777Z" fill="#242020"/>
<path d="M366.75 29.75C366.75 30.6231 366.232 31.4112 365.436 31.75V27.75C366.232 28.0888 366.75 28.8769 366.75 29.75Z" fill="#242020"/>
</g>
<path d="M339.75 30C339.75 27.1911 339.75 25.7866 340.424 24.7777C340.716 24.341 341.091 23.966 341.528 23.6741C342.537 23 343.941 23 346.75 23H349.629V37H346.75C343.941 37 342.537 37 341.528 36.3259C341.091 36.034 340.716 35.659 340.424 35.2223C339.75 34.2134 339.75 32.8089 339.75 30Z" fill="#242020"/>
</svg>
