<svg width="393" height="349" viewBox="0 0 393 349" fill="none" xmlns="http://www.w3.org/2000/svg">
<g clip-path="url(#clip0_2317_4573)">
<rect width="393" height="349" fill="url(#paint0_linear_2317_4573)"/>
<g clip-path="url(#clip1_2317_4573)">
<path d="M321.49 324.19C321.49 329.352 241.407 333.534 142.62 333.534C43.8329 333.534 -36.2507 329.352 -36.2507 324.19C-36.2507 319.927 18.4995 316.328 93.3063 315.21C99.2767 315.122 105.373 315.047 111.581 314.99C114.631 314.962 117.705 314.939 120.805 314.918C126.772 314.881 132.831 314.857 138.965 314.854C140.179 314.851 141.399 314.851 142.62 314.851C241.407 314.851 321.49 319.032 321.49 324.19Z" fill="#E3E2E1"/>
<path d="M165.179 248.93C165.026 249.279 164.866 249.625 164.995 250.011C170.034 264.885 174.335 278.285 177.898 294.646C178.055 295.412 177.616 296.117 176.984 296.435C173.179 298.354 168.61 300.001 163.537 301.285C163.714 305.714 163.595 310.635 163.306 314.373C163.129 316.637 162.894 318.467 162.626 319.487C161.912 322.208 150.202 322.716 148.771 319.439C148.094 317.887 147.482 316.196 146.928 314.437C145.87 311.089 145.034 307.497 144.388 304.128C143.436 304.182 142.477 304.223 141.515 304.25C140.665 307.829 139.601 311.53 138.608 314.508C137.823 316.877 137.081 318.792 136.531 319.829C135.13 322.455 123.264 322.191 122.655 318.877C122.414 317.572 122.24 316.176 122.125 314.729C121.819 310.95 121.897 306.822 122.142 303.023C119.888 302.664 117.65 302.217 115.44 301.692C114.801 301.536 114.441 300.763 114.482 300.048C115.542 281.914 116.712 265.715 122.278 249.299C122.393 248.96 122.319 248.578 122.081 248.32C120.877 246.995 116.726 243.088 116.202 241.823C101.827 235.432 93.3982 222.436 93.3302 204.766V204.325C93.3268 204.176 93.32 204.027 93.3166 203.871C92.589 174.835 119.792 145.274 125.314 143.8C127.847 143.125 130.56 146.931 132.791 151.716C137.629 146.982 141.75 144.071 143.484 143.759C146.38 143.241 149.012 148.612 150.824 154.41C175.185 157.413 192.597 181.308 188.282 206.552C188.194 207.07 188.309 207.599 188.619 208.026C189.207 208.839 190.808 210.09 193.532 210.673C193.994 210.768 194.361 211.201 194.324 211.673C193.056 228.075 186.65 237.126 166.91 242.322C166.478 244.175 165.767 247.585 165.179 248.93Z" fill="#D1CFCD"/>
<path d="M86.8394 178.499C86.8394 178.499 125.538 213.682 126.324 235.313C127.109 256.945 109.851 258.304 101.745 251.109C93.6394 243.915 86.8394 178.499 86.8394 178.499Z" fill="#B5B2AF"/>
<path d="M97.461 270.948L64.2974 287.94C64.2974 287.94 76.5578 314.115 83.946 318.697C91.7762 323.557 117.888 307.253 116.827 296.856C115.845 287.231 97.461 270.944 97.461 270.944V270.948Z" fill="#B5B2AF"/>
<path d="M73.2563 125.605C80.7599 125.605 86.8427 117.583 86.8427 107.688C86.8427 97.7927 80.7599 89.771 73.2563 89.771C65.7528 89.771 59.6699 97.7927 59.6699 107.688C59.6699 117.583 65.7528 125.605 73.2563 125.605Z" fill="#B5B2AF"/>
<path d="M104.071 275.519C85.5338 300.777 -6.03164 303.728 -12.1754 271.873C-21.9334 221.243 -13.4844 145.332 5.52156 114.645C21.2092 89.3168 73.9976 89.5913 81.8788 130.865C82.0046 131.522 82.1338 132.179 82.2664 132.833C87.6758 135.806 91.3172 141.367 91.3172 147.745C91.3172 151.262 90.2088 154.536 88.3048 157.261C101.422 203.502 121.972 251.119 104.067 275.519H104.071Z" fill="#C7C5C3"/>
<path d="M24.7553 210.324C20.5053 199.839 14.8273 183.572 4.4029 184.419C-7.3679 185.375 -10.3259 193.237 -8.2893 213.645C-6.3955 232.616 8.4693 255.928 30.5251 255.169C55.2907 254.318 55.4709 235.158 50.1091 227.807C42.0647 216.776 30.2327 223.835 24.7553 210.324Z" fill="#B5B2AF"/>
<path d="M96.2303 262.692C86.4519 272.737 76.2995 281.345 65.3685 286.906C63.8759 287.665 62.1283 287.767 60.5575 287.187C49.0485 282.941 37.9577 275.577 27.0675 266.745C26.3161 266.135 25.8231 265.258 25.6939 264.295C23.0657 244.613 22.1035 223.215 21.9981 200.937C21.9947 200.12 22.5047 199.388 23.2731 199.117C30.6647 196.528 40.3445 194.125 57.4227 193.125C74.5077 192.125 84.3983 193.383 92.0449 195.091C92.8405 195.267 93.4355 195.935 93.5273 196.748C96.0433 218.888 97.5937 240.248 97.3013 260.103C97.2877 261.076 96.9035 262.004 96.2269 262.699L96.2303 262.692Z" fill="#E3E2E1"/>
<path d="M63.8385 238.116L90.3483 236.564C90.7495 236.54 91.0929 236.852 91.1133 237.252C91.4907 244.453 91.6539 249.74 91.5587 256.68C91.5451 257.514 91.2221 258.314 90.6509 258.91C82.8173 267.088 74.7083 274.16 66.0145 278.939C65.5521 279.193 64.9843 278.871 64.9503 278.342L62.5533 239.573C62.5057 238.814 63.0803 238.164 63.8385 238.12V238.116Z" fill="#5789C4"/>
<path d="M28.9001 204.166C34.6699 202.116 42.0785 200.205 54.5429 199.259C54.9475 199.229 55.2977 199.537 55.3215 199.944L57.1133 232.206C57.1541 232.962 56.5795 233.609 55.8281 233.653L29.3149 235.205C28.9137 235.229 28.5703 234.924 28.5499 234.521C28.0875 225.709 27.8733 214.862 27.8223 205.725C27.8155 205.024 28.2507 204.39 28.9001 204.163V204.166Z" fill="#5789C4"/>
<path d="M29.6004 240.119L56.117 238.567C56.8684 238.523 57.5178 239.099 57.562 239.855L59.959 278.623C59.993 279.152 59.4626 279.542 58.973 279.345C49.7828 275.614 40.8986 269.541 32.164 262.336C31.5282 261.811 31.1134 261.052 31.0012 260.225C30.09 253.346 29.4168 248.09 28.9238 240.895C28.8966 240.492 29.2026 240.143 29.6004 240.122V240.119Z" fill="#5789C4"/>
<path d="M90.0626 231.647L63.5494 233.199C62.7946 233.243 62.1452 232.663 62.1044 231.904L60.3126 199.645C60.2888 199.242 60.6016 198.896 61.0062 198.879C73.5012 198.361 81.0831 199.395 87.0569 200.757C87.7302 200.909 88.2299 201.485 88.3116 202.184C89.3349 211.266 90.1748 222.073 90.7426 230.877C90.7698 231.277 90.4638 231.623 90.0626 231.647Z" fill="#5789C4"/>
<path d="M2.32215 130.543C11.5195 130.543 18.9753 122.054 18.9753 111.582C18.9753 101.11 11.5195 92.6211 2.32215 92.6211C-6.87516 92.6211 -14.3311 101.11 -14.3311 111.582C-14.3311 122.054 -6.87516 130.543 2.32215 130.543Z" fill="#C7C5C3"/>
<path d="M48.0793 285.625L11.0261 281.436C11.0261 281.436 6.66727 309.994 10.2645 317.894C14.0759 326.265 44.8765 327.132 49.7793 317.894C54.3183 309.344 48.0793 285.628 48.0793 285.628V285.625Z" fill="#C7C5C3"/>
<path d="M188.159 107.885C188.159 107.885 184.967 90.0217 179.272 86.3888C172.757 82.2307 163.037 78.2148 159.303 82.2307C155.57 86.2465 168.235 93.7935 168.235 93.7935C168.235 93.7935 164.594 93.2073 165.437 96.3386C166.114 98.8498 172.176 102.34 172.176 102.34L170.319 104.55L188.159 107.885Z" fill="#B5B2AF"/>
<path d="M205.867 108.728C210.45 98.3991 199.917 86.4228 188.03 94.0275C173.618 103.245 159.426 106.898 159.426 106.898L152.497 105.594C151.762 105.455 151.12 106.085 151.252 106.804C151.949 110.521 154.826 120.288 166.144 125.185C182.801 132.393 199.577 122.897 205.867 108.725V108.728Z" fill="#C7C5C3"/>
<path d="M181.55 99.9445C181.55 99.9445 169.198 86.616 162.435 86.616C154.7 86.616 144.34 88.4561 143.368 93.8445C142.395 99.2328 157.145 98.7855 157.145 98.7855C157.145 98.7855 153.762 100.246 156.165 102.432C158.093 104.184 165.09 103.865 165.09 103.865L164.723 106.722L181.553 99.9445H181.55Z" fill="#C7C5C3"/>
<path d="M205.122 102.137L204.574 110.402L212.806 107.237C213.52 106.963 213.55 105.966 212.853 105.651L205.122 102.137Z" fill="#C7C5C3"/>
<path d="M227.259 286.076C228.46 302.671 207.526 314.119 189.897 294.795C170.809 273.879 186.337 248.75 192.154 244.345C192.838 243.826 193.82 244.053 194.239 244.802C202.82 260.191 226.09 269.873 227.259 286.076Z" fill="#F57711"/>
<mask id="mask0_2317_4573" style="mask-type:luminance" maskUnits="userSpaceOnUse" x="180" y="244" width="48" height="61">
<path d="M227.259 286.076C228.46 302.671 207.526 314.119 189.897 294.795C170.809 273.879 186.337 248.75 192.154 244.345C192.838 243.826 193.82 244.053 194.239 244.802C202.82 260.191 226.09 269.873 227.259 286.076Z" fill="white"/>
</mask>
<g mask="url(#mask0_2317_4573)">
<path d="M182.696 268.565L186.432 263.828C186.908 263.448 187.575 263.404 188.098 263.716L193.436 267.467C194.211 267.932 195.218 267.589 195.548 266.749L198.125 261.232C198.38 260.581 199.063 260.202 199.753 260.33L205.122 261.34C205.717 261.452 206.275 261.018 206.315 260.418L204.316 244.958L196.037 238.164L181.968 235.124L172.465 253.153L181.186 268.413C181.482 269.003 182.291 269.084 182.699 268.565H182.696Z" fill="#EDCCA6"/>
</g>
<path d="M213.248 180.298C215.281 146.02 250.271 113.876 256.924 112.69C263.575 111.504 269.103 135.463 269.09 141.187C269.076 146.911 211.218 214.577 213.248 180.298Z" fill="#F57711"/>
<path d="M305.963 224.588C318.529 221.138 323.116 225.831 325.003 232.657C326.89 239.482 325.356 245.856 312.793 249.303C305.49 251.306 298.044 247.398 296.157 240.573C294.27 233.748 298.663 226.591 305.963 224.584V224.588Z" fill="#FF9811"/>
<path d="M316.129 252C315.812 240.085 312.953 230.173 307.265 220.575C306.84 219.857 305.949 219.559 305.181 219.891C292.108 225.53 274.547 234.599 269.022 239.665C263.306 244.904 267.825 256.901 275.655 258.463C283.227 259.971 301.522 256.399 314.813 253.668C315.602 253.505 316.152 252.804 316.129 252.004V252Z" fill="#3C8CFF"/>
<path d="M309.482 201.262C307.693 224.374 296.772 234.402 258.329 239.228C258.237 239.238 258.145 239.248 258.05 239.262C257.774 239.295 257.496 239.326 257.217 239.36C257.05 239.377 256.887 239.397 256.72 239.414C256.523 239.438 256.329 239.455 256.129 239.475C255.782 239.506 255.435 239.539 255.082 239.567C219.722 242.44 196.85 224.344 196.738 193.556C196.629 164.655 213.024 144.762 244.82 138.069C279.922 130.682 308.462 162.049 302.739 195.545C302.641 196.121 302.77 196.714 303.117 197.188C303.773 198.097 305.561 199.493 308.601 200.14C309.118 200.252 309.526 200.733 309.485 201.259L309.482 201.262Z" fill="#FF9811"/>
<path d="M197.156 185.524C196.296 151.195 228.46 116.242 234.988 114.503C241.516 112.765 249.043 136.178 249.509 141.885C249.975 147.592 198.016 219.857 197.156 185.527V185.524Z" fill="#FF9811"/>
<path d="M242.815 141.645C243.552 140.52 239.942 128.14 238.395 127.672C235.579 126.825 230.864 163.964 234.593 156.857C239.901 146.742 240.938 144.508 242.815 141.645Z" fill="#FFE1B2"/>
<path d="M277.608 208.82C286.883 208.067 293.746 199.424 292.936 189.517C292.125 179.61 283.949 172.189 274.674 172.943C265.398 173.696 258.536 182.339 259.346 192.246C260.156 202.153 268.332 209.574 277.608 208.82Z" fill="white"/>
<path d="M281.021 203.614C287.437 203.093 292.184 197.114 291.623 190.261C291.063 183.407 285.407 178.274 278.992 178.795C272.576 179.316 267.829 185.295 268.39 192.148C268.95 199.002 274.606 204.135 281.021 203.614Z" fill="#463F37"/>
<path d="M259.92 295.419C262.766 301.532 268.787 313.004 275.312 320.158C278.005 323.113 290.197 318.382 289.969 315.247C289.667 311.025 285.165 295.907 281.255 288.702C277.508 281.799 255.367 285.639 259.92 295.419Z" fill="#FF9811"/>
<path d="M228.936 293.582C228.286 300.241 227.667 312.963 229.731 321.832C230.585 325.492 243.828 325.177 245.256 322.174C247.177 318.131 251.029 302.519 251.304 294.484C251.566 286.784 229.976 282.931 228.936 293.582Z" fill="#F57711"/>
<mask id="mask1_2317_4573" style="mask-type:luminance" maskUnits="userSpaceOnUse" x="196" y="136" width="114" height="104">
<path d="M309.482 201.262C307.693 224.374 296.772 234.402 258.329 239.228C258.237 239.238 258.145 239.248 258.05 239.262C257.774 239.295 257.496 239.326 257.217 239.36C257.05 239.377 256.887 239.397 256.72 239.414C256.523 239.438 256.329 239.455 256.129 239.475C255.782 239.506 255.435 239.539 255.082 239.567C219.722 242.44 196.85 224.344 196.738 193.556C196.629 164.655 213.024 144.762 244.82 138.069C279.922 130.682 308.462 162.049 302.739 195.545C302.641 196.121 302.77 196.714 303.117 197.188C303.773 198.097 305.561 199.493 308.601 200.14C309.118 200.252 309.526 200.733 309.485 201.259L309.482 201.262Z" fill="white"/>
</mask>
<g mask="url(#mask1_2317_4573)">
<path d="M314.384 201.808C314.258 200.811 311.953 200.045 310.148 199.584C308.342 199.124 305.952 198.697 305.361 199.513C304.769 200.327 307.21 203.105 309.121 203.59C311.032 204.075 314.51 202.807 314.381 201.808H314.384Z" fill="#463F37"/>
<path d="M304.997 214.94C300.203 214.94 296.307 213.255 293.376 209.904C292.883 209.338 292.941 208.484 293.508 207.992C294.073 207.501 294.933 207.559 295.426 208.124C298.479 211.615 302.712 212.862 308.36 211.944C309.101 211.822 309.801 212.323 309.92 213.062C310.043 213.801 309.539 214.499 308.798 214.618C307.476 214.834 306.207 214.94 304.997 214.94Z" fill="#463F37"/>
</g>
<path d="M279.844 237.686C279.552 238.306 277.416 241.64 276.264 243.531C276.039 243.897 275.914 244.311 276.06 244.738C281.683 261.344 286.491 276.305 290.466 294.568C290.636 295.426 290.149 296.212 289.442 296.568C273.476 304.613 245.484 308.371 220.738 302.434C220.024 302.261 219.62 301.404 219.667 300.604C220.851 280.359 222.156 262.275 228.371 243.945C228.501 243.569 228.416 243.138 228.154 242.854C226.699 241.261 221.422 236.303 221.534 235.324C221.66 234.236 280.249 236.828 279.844 237.686Z" fill="#5B9CFF"/>
<mask id="mask2_2317_4573" style="mask-type:luminance" maskUnits="userSpaceOnUse" x="219" y="235" width="72" height="71">
<path d="M279.844 237.686C279.552 238.306 277.416 241.64 276.264 243.531C276.039 243.897 275.914 244.311 276.06 244.738C281.683 261.344 286.491 276.305 290.466 294.568C290.636 295.426 290.149 296.212 289.442 296.568C273.476 304.613 245.484 308.371 220.738 302.434C220.024 302.261 219.62 301.404 219.667 300.604C220.851 280.359 222.156 262.275 228.371 243.945C228.501 243.569 228.416 243.138 228.154 242.854C226.699 241.261 221.422 236.303 221.534 235.324C221.66 234.236 280.249 236.828 279.844 237.686Z" fill="white"/>
</mask>
<g mask="url(#mask2_2317_4573)">
<path d="M249.04 257.853C248.856 265.332 243.209 284.225 238.204 297.516C237.912 298.299 237.079 298.733 236.266 298.536C235.028 298.242 233.811 297.916 232.614 297.564C226.882 306.202 220.912 305.958 215.22 302.867C209.549 299.79 206.108 294.941 210.222 285.506C209.284 284.737 208.349 283.924 207.42 283.073C206.825 282.531 206.7 281.65 207.131 280.972C214.39 269.545 224.512 253.935 230.86 249.553C237.422 245.019 249.227 250.109 249.04 257.849V257.853Z" fill="#3C8CFF"/>
<path d="M224.308 233.649L236.643 240.57C237.687 241.285 237.959 242.705 237.252 243.755L232.033 251.516L226.328 276.19L199.808 274.496L217.909 238.573L216.485 233.914L224.305 233.649H224.308Z" fill="#3C8CFF"/>
</g>
<path d="M233.403 291.701C226.478 302.705 219.912 302.335 213.898 298.574C207.88 294.812 204.69 289.082 211.616 278.078C215.642 271.683 223.781 269.548 229.799 273.313C235.817 277.075 237.429 285.31 233.407 291.705L233.403 291.701Z" fill="#FF9811"/>
<path d="M207.329 278.339C215.638 286.909 224.465 292.294 235.164 295.537C235.967 295.781 236.824 295.398 237.167 294.636C242.981 281.673 249.781 263.163 250.424 255.708C251.087 247.995 246.806 241.837 239.064 243.23C231.465 244.596 215.121 265.258 207.172 276.221C206.703 276.871 206.771 277.759 207.329 278.335V278.339Z" fill="#5B9CFF"/>
<path d="M354.926 197.527L333.884 229.569L328.178 226.245C328.151 226.231 328.121 226.221 328.093 226.211L321.831 224.201L329.294 187.042C329.416 186.459 329.824 185.975 330.378 185.754L346.124 179.509C346.953 179.18 347.895 179.566 348.255 180.38L355.062 195.85C355.304 196.396 355.253 197.026 354.93 197.527H354.926Z" fill="#C7C5C3"/>
<mask id="mask3_2317_4573" style="mask-type:luminance" maskUnits="userSpaceOnUse" x="321" y="179" width="35" height="50">
<path d="M354.926 197.527L335.318 227.872C334.876 228.556 333.999 228.817 333.255 228.488L328.178 226.248C328.151 226.235 328.121 226.225 328.093 226.214L322.902 224.256C322.137 223.968 321.698 223.168 321.865 222.371L329.29 187.046C329.413 186.463 329.821 185.978 330.375 185.758L346.12 179.512C346.95 179.183 347.892 179.57 348.252 180.383L355.059 195.853C355.3 196.399 355.249 197.029 354.926 197.531V197.527Z" fill="white"/>
</mask>
<g mask="url(#mask3_2317_4573)">
<path d="M328.178 227.095C328.069 227.095 327.961 227.075 327.855 227.031C327.42 226.855 327.213 226.36 327.393 225.926L339.354 196.873C339.531 196.44 340.027 196.233 340.462 196.412C340.898 196.589 341.105 197.083 340.925 197.517L328.964 226.57C328.828 226.899 328.511 227.095 328.178 227.095Z" fill="#ACA9A5"/>
</g>
<path d="M340.537 232.552L339.633 234.751C339.065 236.13 337.484 236.788 336.1 236.222L330.375 233.88L326.604 243.04C325.917 244.714 324 245.511 322.324 244.826L319.165 243.535C317.489 242.85 316.686 240.939 317.377 239.268L321.147 230.108L315.422 227.767C314.038 227.201 313.378 225.625 313.946 224.245L314.85 222.046C315.418 220.667 316.999 220.006 318.383 220.572L339.062 229.031C340.446 229.597 341.105 231.172 340.537 232.552Z" fill="#826551"/>
<mask id="mask4_2317_4573" style="mask-type:luminance" maskUnits="userSpaceOnUse" x="313" y="220" width="28" height="26">
<path d="M340.537 232.552L339.633 234.751C339.065 236.13 337.484 236.788 336.1 236.222L330.375 233.88L326.604 243.04C325.917 244.714 324 245.511 322.324 244.826L319.165 243.535C317.489 242.85 316.686 240.939 317.377 239.268L321.147 230.108L315.422 227.767C314.038 227.201 313.378 225.625 313.946 224.245L314.85 222.046C315.418 220.667 316.999 220.006 318.383 220.572L339.062 229.031C340.446 229.597 341.105 231.172 340.537 232.552Z" fill="white"/>
</mask>
<g mask="url(#mask4_2317_4573)">
<path d="M331.976 234.534L324.115 231.318L330.558 239.024L331.976 234.534Z" fill="#5E4A3C"/>
</g>
<path d="M175.324 315.61C174.702 317.01 176.134 326.471 177.817 327.651C180.166 329.298 188.952 327.298 189.635 323.964C190.06 321.9 187.364 314.007 186.15 312.868C184.644 311.459 176.361 313.272 175.321 315.61H175.324Z" fill="#97C213"/>
<path d="M160.154 315.193C159.157 316.355 157.804 325.827 159.076 327.44C160.854 329.691 169.844 330.287 171.459 327.291C172.458 325.434 172.149 317.104 171.316 315.667C170.279 313.885 161.823 313.251 160.154 315.196V315.193Z" fill="#B6E540"/>
<path d="M109.959 282.605C76.2144 294.084 226.008 280.186 226.253 263.096C226.338 257.111 173.114 247.48 109.959 282.605Z" fill="#60702F"/>
<path d="M181.162 255.223C196.126 258.426 205.258 281.433 203.619 302.963C202.14 322.398 163.843 324.296 146.901 314.603C134.429 307.466 131.862 291.918 139.781 275.133C145.418 263.184 160.861 250.875 181.162 255.223Z" fill="#B6E540"/>
<path d="M174.883 298.31C180.219 298.31 184.545 293.998 184.545 288.678C184.545 283.359 180.219 279.047 174.883 279.047C169.546 279.047 165.22 283.359 165.22 288.678C165.22 293.998 169.546 298.31 174.883 298.31Z" fill="#FFC4C4"/>
<path d="M182.592 284.618C188.645 284.264 193.248 278.827 192.874 272.475C192.5 266.122 187.29 261.259 181.237 261.614C175.184 261.968 170.58 267.405 170.955 273.757C171.329 280.11 176.539 284.973 182.592 284.618Z" fill="white"/>
<path d="M183.056 282.299C187.812 282.021 191.429 277.75 191.135 272.759C190.841 267.769 186.747 263.949 181.991 264.227C177.236 264.505 173.619 268.777 173.913 273.767C174.207 278.758 178.3 282.578 183.056 282.299Z" fill="#463F37"/>
<mask id="mask5_2317_4573" style="mask-type:luminance" maskUnits="userSpaceOnUse" x="135" y="254" width="69" height="67">
<path d="M181.162 255.223C196.126 258.426 205.258 281.433 203.619 302.963C202.14 322.398 163.843 324.296 146.901 314.603C134.429 307.466 131.862 291.918 139.781 275.133C145.418 263.184 160.861 250.875 181.162 255.223Z" fill="white"/>
</mask>
<g mask="url(#mask5_2317_4573)">
<path d="M190.237 289.414C189.543 289.414 188.88 289.309 188.248 289.095C187.537 288.855 187.153 288.089 187.395 287.377C187.636 286.669 188.404 286.286 189.118 286.526C191.631 287.37 195.619 285.137 200.651 280.067C201.178 279.535 202.042 279.532 202.576 280.057C203.109 280.582 203.113 281.443 202.586 281.975C197.639 286.96 193.573 289.414 190.241 289.414H190.237Z" fill="#463F37"/>
<path d="M190.124 318.963C200.013 315.509 206.551 308.504 204.727 303.317C202.903 298.129 193.409 296.723 183.52 300.177C173.632 303.63 167.094 310.635 168.918 315.823C170.741 321.011 180.236 322.417 190.124 318.963Z" fill="#E2FF93"/>
</g>
<path d="M103.431 285.022C100.354 286.442 120.057 292.548 169.357 269.877C190.461 260.171 220.908 258.826 225.274 261.693C225.444 261.804 225.6 261.588 225.468 261.435C220.728 255.83 183.668 253.081 180.928 251.763C178.021 250.364 145.115 217.491 140.729 222.114C136.343 226.736 136.245 262.719 135.541 264.658C134.987 266.18 121.652 276.614 103.425 285.025L103.431 285.022Z" fill="#7F954C"/>
<mask id="mask6_2317_4573" style="mask-type:luminance" maskUnits="userSpaceOnUse" x="103" y="221" width="123" height="66">
<path d="M103.431 285.022C100.354 286.442 120.057 292.548 169.357 269.877C190.461 260.171 220.908 258.826 225.274 261.693C225.444 261.804 225.6 261.588 225.468 261.435C220.728 255.83 183.668 253.081 180.928 251.763C178.021 250.364 145.115 217.491 140.729 222.114C136.343 226.736 136.245 262.719 135.541 264.658C134.987 266.18 121.652 276.614 103.425 285.025L103.431 285.022Z" fill="white"/>
</mask>
<g mask="url(#mask6_2317_4573)">
<path d="M133.43 261.52C141.447 257.572 153.707 254.857 164.183 253.471C164.479 253.431 164.574 253.858 164.288 253.946C154.132 257.169 140.393 262.753 133.355 266.651L133.43 261.516V261.52Z" fill="#60702F"/>
</g>
<path d="M140.179 259.886C143.765 259.886 146.673 256.989 146.673 253.414C146.673 249.839 143.765 246.941 140.179 246.941C136.592 246.941 133.685 249.839 133.685 253.414C133.685 256.989 136.592 259.886 140.179 259.886Z" fill="#FF7373"/>
<path d="M193.198 325.549C193.198 325.549 153.184 262.957 152.66 259.51C152.256 256.833 156.145 248.872 151.725 243.572C147.305 238.272 141.467 236.737 134.045 238.431C126.844 240.075 123.787 247.392 123.787 253.569C123.787 259.747 126.518 262.621 132.57 263.058C139.597 263.567 140.447 259.331 138.18 257.24C136.16 255.379 133.494 255.203 133.688 253.258C134.052 249.571 137.275 247.808 139.975 247.808C142.807 247.808 144.816 249.306 145.303 252.892C145.568 254.85 145.348 257.272 144.643 260.157C144.072 262.492 147.06 264.112 150.423 267.576C153.786 271.039 191.893 326.42 191.893 326.42C192.484 327.251 193.746 326.41 193.202 325.549H193.198Z" fill="#826551"/>
<mask id="mask7_2317_4573" style="mask-type:luminance" maskUnits="userSpaceOnUse" x="123" y="237" width="71" height="90">
<path d="M193.198 325.549C193.198 325.549 153.184 262.957 152.66 259.51C152.256 256.833 156.145 248.872 151.725 243.572C147.305 238.272 141.467 236.737 134.045 238.431C126.844 240.075 123.787 247.392 123.787 253.569C123.787 259.747 126.518 262.621 132.57 263.058C139.597 263.567 140.447 259.331 138.18 257.24C136.16 255.379 133.494 255.203 133.688 253.258C134.052 249.571 137.275 247.808 139.975 247.808C142.807 247.808 144.816 249.306 145.303 252.892C145.568 254.85 145.348 257.272 144.643 260.157C144.072 262.492 147.06 264.112 150.423 267.576C153.786 271.039 191.893 326.42 191.893 326.42C192.484 327.251 193.746 326.41 193.202 325.549H193.198Z" fill="white"/>
</mask>
<g mask="url(#mask7_2317_4573)">
<path d="M147.727 257.716C148.977 255.213 148.101 252.246 145.771 251.091C143.441 249.936 140.539 251.028 139.289 253.532C138.04 256.035 138.916 259.002 141.246 260.157C143.576 261.313 146.478 260.22 147.727 257.716Z" fill="#5E4A3C"/>
</g>
<path d="M140.179 253.414L145.048 257.694C146.095 256.511 146.673 254.99 146.673 253.414C146.673 249.862 143.742 246.941 140.179 246.941C136.616 246.941 133.773 249.767 133.688 253.258L140.179 253.414Z" fill="#FF7373"/>
<path d="M144.155 249.8C144.393 249.281 143.83 248.515 142.898 248.09C141.965 247.666 141.016 247.742 140.778 248.261C140.54 248.78 141.103 249.546 142.035 249.971C142.968 250.395 143.917 250.319 144.155 249.8Z" fill="#FFCFCF"/>
<path d="M163.421 300.146C165.893 303.908 168.552 306.755 171.887 307.514C175.222 308.27 180.523 303.61 179.455 300.075C178.388 296.544 172.37 294.65 167.878 293.206C163.387 291.762 160.949 296.385 163.421 300.146Z" fill="#97C213"/>
</g>
</g>
<defs>
<linearGradient id="paint0_linear_2317_4573" x1="196.5" y1="287.861" x2="196.5" y2="349" gradientUnits="userSpaceOnUse">
<stop stop-color="white"/>
<stop offset="1" stop-color="white" stop-opacity="0"/>
</linearGradient>
<clipPath id="clip0_2317_4573">
<rect width="393" height="349" fill="white"/>
</clipPath>
<clipPath id="clip1_2317_4573">
<rect width="374" height="305" fill="white" transform="translate(0 58)"/>
</clipPath>
</defs>
</svg>
