<?xml version="1.0" encoding="UTF-8"?>
<svg xmlns="http://www.w3.org/2000/svg" xmlns:xlink="http://www.w3.org/1999/xlink" viewBox="0 0 1179 800">
  <defs>
    <style>
      .cls-1 {
        fill: none;
      }

      .cls-2 {
        fill: #f57711;
      }

      .cls-3 {
        fill: #f2e9e4;
      }

      .cls-4 {
        fill: #b6e540;
      }

      .cls-5 {
        fill: #e2ff93;
      }

      .cls-6, .cls-7 {
        fill: #ffc4c4;
      }

      .cls-8 {
        fill: #ddd4d0;
      }

      .cls-9 {
        clip-path: url(#clippath-1);
      }

      .cls-10 {
        clip-path: url(#clippath-3);
      }

      .cls-11 {
        clip-path: url(#clippath-4);
      }

      .cls-12 {
        clip-path: url(#clippath-2);
      }

      .cls-13 {
        clip-path: url(#clippath-5);
      }

      .cls-14 {
        fill: #fff;
      }

      .cls-15 {
        fill: #463f37;
      }

      .cls-16 {
        fill: #5b9cff;
      }

      .cls-17 {
        fill: #3c8cff;
      }

      .cls-18 {
        fill: #ff9811;
      }

      .cls-19 {
        fill: #ffe1b2;
      }

      .cls-7 {
        stroke: #ffc4c4;
        stroke-miterlimit: 10;
      }

      .cls-20 {
        fill: #60702f;
      }

      .cls-21 {
        fill: #5e554c;
      }

      .cls-22 {
        fill: #7f954c;
      }

      .cls-23 {
        clip-path: url(#clippath);
      }
    </style>
    <clipPath id="clippath">
      <path class="cls-1" d="M836.49,845.33c-11.82,78.36,83.01,140.43,173.6,55.19,98.07-92.27,33.89-217.32,7.99-240.39-3.05-2.71-7.78-1.99-10.03,1.41-46.31,69.9-160.02,107.29-171.56,183.79Z"/>
    </clipPath>
    <clipPath id="clippath-1">
      <path class="cls-1" d="M1032.5,460.52c-4.17-4.02-6.13-9.81-5.24-15.53,30.44-195.96-19.02-380.87-58.98-399.35-23.5-10.87-97.51,58.83-131.41,109.95-21.58-5.34-55.11-7.91-90.56-7.91s-68.98,2.57-90.56,7.91c-33.9-51.12-107.91-120.82-131.41-109.95-39.96,18.48-89.43,203.38-58.98,399.35.89,5.72-1.07,11.51-5.24,15.53-14.78,14.24-32.18,34.44-30.06,48.5,6.26,41.5,140.78,119.49,316.25,119.49s310-77.99,316.25-119.49c2.12-14.06-15.28-34.26-30.06-48.5Z"/>
    </clipPath>
    <clipPath id="clippath-2">
      <path class="cls-1" d="M918.32,914.74c.04,1.56-.74,3.03-2.08,3.84-26.66,16.01-103.17,42.58-169.94,42.58s-141.28-26.57-167.94-42.58c-1.34-.81-2.14-2.27-2.08-3.84,3.41-96.13,18.5-168.24,45.12-255.28.05-.17-.01-.37-.16-.47-11.53-8.08-23.59-17.98-36.05-29.42-1.41-1.29-1.41-3.56.03-4.81,20.97-18.2,69.38-36.35,123.98-44.65,2.57-.38,5.15.61,6.81,2.6l30.29,36.33,30.28-36.33c1.66-1.99,4.24-2.98,6.81-2.6,54.6,8.3,103.01,26.45,123.98,44.65,1.46,1.25,1.46,3.51.05,4.81-12.48,11.44-24.52,21.34-36.05,29.42-.16.1-.23.3-.17.47,28.43,81.85,44.66,166.97,47.14,255.28Z"/>
    </clipPath>
    <clipPath id="clippath-3">
      <path class="cls-1" d="M767.34,626.09c-63.26-2.15-123.87,6.03-181.57,25.53-1.19.4-1.84,1.68-1.46,2.88,17.2,54.71,27.65,118.18,35.34,185.39.16,1.39,1.5,2.32,2.85,1.98,61.02-15.3,123.75-25.19,178.07-22.82,1.41.06,2.57-1.15,2.4-2.55-8.23-68.57-18.19-134.21-33.49-188.77-.27-.95-1.15-1.6-2.14-1.63Z"/>
    </clipPath>
    <clipPath id="clippath-4">
      <path class="cls-1" d="M182.08,812.87c-1.09-62.4,38.89-157.96,91.33-174.85,24.62-7.93,47.08,2.91,58.44,8.93,3.69,1.96,8.17,1.61,11.55-.85,9.75-7.11,34.54-19.61,59.62-12.09,39.07,11.71,83.44,108.9,83.44,178.86H182.08Z"/>
    </clipPath>
    <clipPath id="clippath-5">
      <path class="cls-1" d="M390.07,591.25c-4.6-2.14-8.2-5.68-11.87-9.18-26.53-25.34-135.07-116.54-151.86-103.65-19.85,15.24-14.15,94.28-18.85,157.66-.45,6.01-1.82,11.95-4.48,17.36-10.74,21.84,76.66-1.55,76.66-1.55,0,0,144.08-45,110.4-60.62Z"/>
    </clipPath>
  </defs>
  <g id="Fox1">
    <path class="cls-18" d="M836.49,845.33c-11.82,78.36,83.01,140.43,173.6,55.19,98.07-92.27,33.89-217.32,7.99-240.39-3.05-2.71-7.78-1.99-10.03,1.41-46.31,69.9-160.02,107.29-171.56,183.79Z"/>
    <g class="cls-23">
      <path class="cls-19" d="M1053.87,778.63l-15.92-23.88c-2.11-1.99-5.24-2.44-7.84-1.14l-26.66,15.84c-3.84,1.93-8.48-.07-9.72-4.19l-10.16-27.14c-.96-3.19-4.06-5.24-7.37-4.88l-25.79,2.81c-2.86.31-5.34-1.95-5.31-4.82l15.19-72.67,41.7-29.21,67.71-9.25,38.3,89.11-46.92,69.25c-1.61,2.69-5.48,2.78-7.22.17Z"/>
    </g>
    <path class="cls-18" d="M1032.5,460.52c-4.17-4.02-6.13-9.81-5.24-15.53,30.44-195.96-19.02-380.87-58.98-399.35-23.5-10.87-97.51,58.83-131.41,109.95-21.58-5.34-55.11-7.91-90.56-7.91s-68.98,2.57-90.56,7.91c-33.9-51.12-107.91-120.82-131.41-109.95-39.96,18.48-89.43,203.38-58.98,399.35.89,5.72-1.07,11.51-5.24,15.53-14.78,14.24-32.18,34.44-30.06,48.5,6.26,41.5,140.78,119.49,316.25,119.49s310-77.99,316.25-119.49c2.12-14.06-15.28-34.26-30.06-48.5Z"/>
    <g class="cls-9">
      <path class="cls-2" d="M866.71,612.82c4,39.56,26.66,59.56,59.56,59.56s67.56-19.11,59.56-59.56-26.66-59.56-59.56-59.56-63.56,20-59.56,59.56Z"/>
    </g>
    <g>
      <path class="cls-19" d="M575.21,201.82c-28.8,22.15-43.83,35.11-69.02,66.29-18.81,23.28-9.9-90.86,22.2-122.96,10.47-10.47,56.61,49.13,46.82,56.67Z"/>
      <path class="cls-19" d="M917.4,201.82c28.8,22.15,43.83,35.11,69.02,66.29,18.81,23.28,9.9-90.86-22.2-122.96-10.47-10.47-56.61,49.13-46.82,56.67Z"/>
    </g>
    <g>
      <ellipse class="cls-14" cx="614.93" cy="422.4" rx="87.92" ry="79.85" transform="translate(-32.2 793.58) rotate(-64.32)"/>
      <ellipse class="cls-15" cx="625.08" cy="439.75" rx="61.74" ry="54.66" transform="translate(108.76 1003.24) rotate(-82.63)"/>
      <ellipse class="cls-14" cx="877.68" cy="422.4" rx="79.85" ry="87.92" transform="translate(-96.35 422) rotate(-25.68)"/>
      <ellipse class="cls-15" cx="867.52" cy="438.67" rx="54.66" ry="61.74" transform="translate(-49.12 114.94) rotate(-7.37)"/>
    </g>
    <path class="cls-15" d="M765.46,461.1c-1.53-3.86-11.5-4.58-19.16-4.58-7.66,0-17.63.72-19.16,4.58-1.53,3.86,11.05,12.48,19.16,12.48s20.69-8.62,19.16-12.48Z"/>
    <path class="cls-15" d="M769.78,542.13c-10.15,0-20.31-3.35-29.36-9.8-2.47-1.76-3.05-5.2-1.29-7.67s5.2-3.05,7.67-1.29c9.33,6.65,20.03,9.14,30.14,7.02,10.36-2.18,19.45-9.07,25.62-19.4,1.56-2.61,4.93-3.46,7.54-1.91,2.61,1.56,3.46,4.93,1.91,7.54-7.75,13.01-19.4,21.72-32.8,24.53-3.12.65-6.27.98-9.42.98Z"/>
    <path class="cls-17" d="M614.93,650.51s-89.41,65.8-102.56,94.34,39.77,71.22,56.66,72.33c18.56-1.22,34.89-13.11,34.89-13.11l11.01-153.56Z"/>
    <path class="cls-16" d="M918.32,914.74c.04,1.56-.74,3.03-2.08,3.84-26.66,16.01-103.17,42.58-169.94,42.58s-141.28-26.57-167.94-42.58c-1.34-.81-2.14-2.27-2.08-3.84,3.41-96.13,18.5-168.24,45.12-255.28.05-.17-.01-.37-.16-.47-11.53-8.08-23.59-17.98-36.05-29.42-1.41-1.29-1.41-3.56.03-4.81,20.97-18.2,69.38-36.35,123.98-44.65,2.57-.38,5.15.61,6.81,2.6l30.29,36.33,30.28-36.33c1.66-1.99,4.24-2.98,6.81-2.6,54.6,8.3,103.01,26.45,123.98,44.65,1.46,1.25,1.46,3.51.05,4.81-12.48,11.44-24.52,21.34-36.05,29.42-.16.1-.23.3-.17.47,28.43,81.85,44.66,166.97,47.14,255.28Z"/>
    <g class="cls-12">
      <path class="cls-17" d="M963.64,769.56c-9.39,21.21-61.55,34.38-72.05.87-8.66-27.62-31.85-83.83-43.54-104.13-.94-1.64-.08-3.71,1.74-4.23,2.65-.75,5.29-1.53,7.91-2.34-4.61-8.51-7.66-18.92-8.9-31.22-4-39.56,26.66-59.56,59.55-59.56,27.62,0,45.21,13.48,54.87,41.74,3.22-2.04,6.42-4.12,9.6-6.25,1.77-1.19,4.16-.06,4.34,2.07,5.07,59.22-4.38,142.38-13.52,163.05Z"/>
      <path class="cls-17" d="M605.64,705.97c22.35-2.71,52.69,18.26,52.69,44.63,0,28.72-17,56.53-52.67,64.67-3.8.87-5.11,1.13-10.46,1.91,1.29,4,2.6,8.71,2.83,10.81s-.19,3.08-2.17,3.58c-6.99,1.86-12.07,2.69-18.65,2.89l-20.35-62.22,12.83-58.67,35.94-7.6Z"/>
      <path class="cls-17" d="M838.4,615.81c35.82-38.98,71.12-75.31,105.71-107.98,1.82-1.86,5.01-1.68,7.12.39l12.16,11.91c2.11,2.07,2.36,5.25.54,7.11-30.64,33.77-66.62,70.12-105.71,107.98l-25.05,10.44c-2.68,1.3-5.91-1.86-4.67-4.58l9.9-25.27Z"/>
    </g>
    <path class="cls-3" d="M767.34,626.09c-63.26-2.15-123.87,6.03-181.57,25.53-1.19.4-1.84,1.68-1.46,2.88,17.2,54.71,27.65,118.18,35.34,185.39.16,1.39,1.5,2.32,2.85,1.98,61.02-15.3,123.75-25.19,178.07-22.82,1.41.06,2.57-1.15,2.4-2.55-8.23-68.57-18.19-134.21-33.49-188.77-.27-.95-1.15-1.6-2.14-1.63Z"/>
    <g class="cls-10">
      <path class="cls-8" d="M608.1,815.27c35.21-12.97,52.67-35.95,52.67-64.67,0-26.37-30.34-47.34-52.69-44.63-31.11,3.77-83.42,33.85-77.98,78.63,2.99,24.57,40,44.67,78,30.67Z"/>
    </g>
    <path class="cls-18" d="M604.15,808.26c35.21-12.97,52.67-35.95,52.67-64.67,0-26.37-30.34-47.34-52.69-44.63-31.11,3.77-83.42,33.85-77.98,78.63,2.99,24.57,40,44.67,78,30.67Z"/>
    <path class="cls-16" d="M584.55,703.63c-45.53,12.75-63.96,25.44-70.96,39.1-11.81,23.07-30.07,68.64,72.98,85.21,2.33.37,4.24-1.83,3.54-4.08-10.9-34.58-17.81-90.57-5.56-120.23Z"/>
    <path class="cls-17" d="M862.49,654.4c1.33-7,126.97-52.34,132.97-47.18,6,5.17-49.26,39.32-49.26,39.32,0,0-85.04,14.86-83.71,7.86Z"/>
    <path class="cls-21" d="M830.4,608.81c35.82-38.98,71.12-75.31,105.71-107.98,1.82-1.86,5.01-1.68,7.12.39l12.16,11.91c2.11,2.07,2.36,5.25.54,7.11-30.64,33.77-66.62,70.12-105.71,107.98l-25.05,10.44c-2.68,1.3-5.91-1.86-4.67-4.58l9.9-25.27Z"/>
    <path class="cls-18" d="M858.7,614.82c4,39.56,26.66,59.56,59.56,59.56s67.56-19.11,59.56-59.56-26.66-59.56-59.56-59.56-63.56,20-59.56,59.56Z"/>
    <path class="cls-16" d="M992.62,607.12c-40.37,21.71-82.9,37.26-128,45.52-1.86.34-2.92,2.33-2.13,4.05,9.68,21.33,27.35,79.51,33.31,107.83,7.23,34.37,60.41,26.28,71.8,6.06,11.09-19.69,28.5-101.56,29.16-160.99.02-2.13-2.25-3.49-4.13-2.48Z"/>
  </g>
  <g id="Frog1">
    <path class="cls-20" d="M512.8,608.61c-62.27,51.07-237.33,116.25-399.5,110.12-5.5-.21-5.92-4.4-.93-6.73,28.71-13.36,105.46-42.86,183.61-78.41,104.91-47.73,187.53-38.51,214.63-33.42,4,.75,5.34,5.85,2.19,8.44Z"/>
    <path class="cls-4" d="M182.08,812.87c-1.09-62.4,38.89-157.96,91.33-174.85,24.62-7.93,47.08,2.91,58.44,8.93,3.69,1.96,8.17,1.61,11.55-.85,9.75-7.11,34.54-19.61,59.62-12.09,39.07,11.71,83.44,108.9,83.44,178.86H182.08Z"/>
    <g class="cls-11">
      <circle class="cls-6" cx="454.25" cy="723.31" r="32.67"/>
      <circle class="cls-7" cx="245.39" cy="730.36" r="32.67"/>
    </g>
    <ellipse class="cls-14" cx="288.84" cy="689.7" rx="39.44" ry="41.66"/>
    <ellipse class="cls-14" cx="395.6" cy="687.28" rx="39.44" ry="41.66"/>
    <ellipse class="cls-15" cx="395.6" cy="687.28" rx="33.14" ry="35"/>
    <ellipse class="cls-15" cx="288.84" cy="689.7" rx="33.14" ry="35"/>
    <path class="cls-15" d="M299.21,748.68c-4.09,0-7.9-.55-11.27-1.83-1.55-.59-2.33-2.32-1.74-3.87.59-1.55,2.32-2.33,3.87-1.74,12.74,4.83,35.29-3.43,51.15-10.07,4.33-1.81,8.06-2.02,11.09-.6,18.99,8.85,36.09,11.54,45.76,7.22,1.51-.68,3.29,0,3.96,1.51.68,1.51,0,3.29-1.51,3.96-16.19,7.25-40.88-2.66-50.75-7.25-1.43-.67-3.53-.43-6.23.7-14.01,5.86-30.72,11.98-44.32,11.98Z"/>
    <ellipse class="cls-5" cx="343.02" cy="820.87" rx="92.02" ry="37"/>
    <path class="cls-22" d="M395.8,594.96c-4.6-2.14-13.93-9.39-17.6-12.89-26.53-25.34-135.07-116.54-151.86-103.65-19.85,15.24-14.15,94.28-18.85,157.66-.45,6.01-1.82,11.95-4.48,17.36-10.74,21.84,76.66-1.55,76.66-1.55,0,0,149.81-41.29,116.13-56.92Z"/>
    <g class="cls-13">
      <path class="cls-20" d="M439,605.69c3.13.99,2.76,5.56-.48,6.04-125.27,18.76-237.91,112.09-382.41,130.08-76.41,9.51,211.35-190.31,382.9-136.12Z"/>
    </g>
    <path class="cls-22" d="M513.45,600.69c3.44.6,3.31,5.57-.16,5.96-124.46,14.18-261.3,118.57-405.28,111.88-1.58-.07-2.29-2.01-1.11-3.06,30.56-27.49,188.82-152.79,406.55-114.78Z"/>
  </g>
</svg>